<?xml version="1.0" encoding="UTF-8" standalone="no"?>
<!DOCTYPE svg PUBLIC "-//W3C//DTD SVG 1.1//EN"
 "http://www.w3.org/Graphics/SVG/1.1/DTD/svg11.dtd">
<!-- Generated by graphviz version 2.38.0 (20140413.2041)
 -->
<!-- Title: D:/Prog/Github/Befaco/VCMC/FirmwareTeen/CfgClasses.ino Pages: 1 -->
<!--zoomable 207 -->
<svg id="main" version="1.1" xmlns="http://www.w3.org/2000/svg" xmlns:xlink="http://www.w3.org/1999/xlink" xml:space="preserve" onload="init(evt)">
<style type="text/css"><![CDATA[
.edge:hover path { stroke: red; }
.edge:hover polygon { stroke: red; fill: red; }
]]></style>
<script type="text/javascript"><![CDATA[
var edges = document.getElementsByTagName('g');
if (edges && edges.length) {
  for (var i=0;i<edges.length;i++) {
    if (edges[i].id.substr(0,4)=='edge') {
      edges[i].setAttribute('class','edge');
    }
  }
}
]]></script>
        <defs>
                <circle id="rim" cx="0" cy="0" r="7"/>
                <circle id="rim2" cx="0" cy="0" r="3.5"/>
                <g id="zoomPlus">
                        <use xlink:href="#rim" fill="#404040">
                                <set attributeName="fill" to="#808080" begin="zoomplus.mouseover" end="zoomplus.mouseout"/>
                        </use>
                        <path d="M-4,0h8M0,-4v8" fill="none" stroke="white" stroke-width="1.5" pointer-events="none"/>
                </g>
                <g id="zoomMin">
                        <use xlink:href="#rim" fill="#404040">
                                <set attributeName="fill" to="#808080" begin="zoomminus.mouseover" end="zoomminus.mouseout"/>
                        </use>
                        <path d="M-4,0h8" fill="none" stroke="white" stroke-width="1.5" pointer-events="none"/>
                </g>
                <g id="dirArrow">
                        <path fill="none" stroke="white" stroke-width="1.5" d="M0,-3.0v7 M-2.5,-0.5L0,-3.0L2.5,-0.5"/>
                </g>
               <g id="resetDef">
                       <use xlink:href="#rim2" fill="#404040">
                               <set attributeName="fill" to="#808080" begin="reset.mouseover" end="reset.mouseout"/>
                       </use>
               </g>
        </defs>

<script type="text/javascript">
var viewWidth = 2132;
var viewHeight = 207;
var sectionId = 'dynsection-0';
</script>
<script xlink:href="svgpan.js"/>
<svg id="graph" class="graph">
<g id="viewport">
<title>D:/Prog/Github/Befaco/VCMC/FirmwareTeen/CfgClasses.ino</title>
<polygon fill="white" stroke="none" points="-4,4 -4,-203 2128.27,-203 2128.27,4 -4,4"/>
<!-- Node0 -->
<g id="node1" class="node"><title>Node0</title>
<g id="a_node1"><a xlink:title="Defines Configuration classes functions.">
<polygon fill="#bfbfbf" stroke="black" points="977,-168.5 977,-198.5 1157,-198.5 1157,-168.5 977,-168.5"/>
<text text-anchor="start" x="985" y="-186.5" font-family="Helvetica,sans-Serif" font-size="10.00">D:/Prog/Github/Befaco</text>
<text text-anchor="middle" x="1067" y="-175.5" font-family="Helvetica,sans-Serif" font-size="10.00">/VCMC/FirmwareTeen/CfgClasses.ino</text>
</a>
</g>
</g>
<!-- Node1 -->
<g id="node2" class="node"><title>Node1</title>
<g id="a_node2"><a xlink:href="_prj_includes_8h.html" target="_top" xlink:title="Includes for the project come here.">
<polygon fill="white" stroke="black" points="1030.5,-112.5 1030.5,-131.5 1103.5,-131.5 1103.5,-112.5 1030.5,-112.5"/>
<text text-anchor="middle" x="1067" y="-119.5" font-family="Helvetica,sans-Serif" font-size="10.00">PrjIncludes.h</text>
</a>
</g>
</g>
<!-- Node0&#45;&gt;Node1 -->
<g id="edge1" class="edge"><title>Node0&#45;&gt;Node1</title>
<path fill="none" stroke="midnightblue" d="M1067,-168.399C1067,-160.466 1067,-150.458 1067,-141.858"/>
<polygon fill="midnightblue" stroke="midnightblue" points="1070.5,-141.658 1067,-131.658 1063.5,-141.658 1070.5,-141.658"/>
</g>
<!-- Node2 -->
<g id="node3" class="node"><title>Node2</title>
<g id="a_node3"><a xlink:title=" ">
<polygon fill="white" stroke="#bfbfbf" points="0,-56.5 0,-75.5 82,-75.5 82,-56.5 0,-56.5"/>
<text text-anchor="middle" x="41" y="-63.5" font-family="Helvetica,sans-Serif" font-size="10.00">Adafruit_GFX.h</text>
</a>
</g>
</g>
<!-- Node1&#45;&gt;Node2 -->
<g id="edge2" class="edge"><title>Node1&#45;&gt;Node2</title>
<path fill="none" stroke="midnightblue" d="M1030.08,-121.05C901.805,-120.853 463.527,-117.096 92.273,-75.9825"/>
<polygon fill="midnightblue" stroke="midnightblue" points="92.4646,-72.4822 82.1375,-74.8488 91.6864,-79.4388 92.4646,-72.4822"/>
</g>
<!-- Node3 -->
<g id="node4" class="node"><title>Node3</title>
<g id="a_node4"><a xlink:title=" ">
<polygon fill="white" stroke="#bfbfbf" points="100,-56.5 100,-75.5 204,-75.5 204,-56.5 100,-56.5"/>
<text text-anchor="middle" x="152" y="-63.5" font-family="Helvetica,sans-Serif" font-size="10.00">Adafruit_SSD1306.h</text>
</a>
</g>
</g>
<!-- Node1&#45;&gt;Node3 -->
<g id="edge3" class="edge"><title>Node1&#45;&gt;Node3</title>
<path fill="none" stroke="midnightblue" d="M1030.28,-120.296C912.925,-117.787 536.245,-107.717 214.195,-76.0232"/>
<polygon fill="midnightblue" stroke="midnightblue" points="214.5,-72.5364 204.203,-75.0311 213.809,-79.5021 214.5,-72.5364"/>
</g>
<!-- Node4 -->
<g id="node5" class="node"><title>Node4</title>
<g id="a_node5"><a xlink:title=" ">
<polygon fill="white" stroke="#bfbfbf" points="222.5,-56.5 222.5,-75.5 263.5,-75.5 263.5,-56.5 222.5,-56.5"/>
<text text-anchor="middle" x="243" y="-63.5" font-family="Helvetica,sans-Serif" font-size="10.00">SPI.h</text>
</a>
</g>
</g>
<!-- Node1&#45;&gt;Node4 -->
<g id="edge4" class="edge"><title>Node1&#45;&gt;Node4</title>
<path fill="none" stroke="midnightblue" d="M1030.39,-120.115C897.474,-116.719 439.925,-103.412 273.803,-75.8579"/>
<polygon fill="midnightblue" stroke="midnightblue" points="274.21,-72.3762 263.758,-74.1084 273.009,-79.2724 274.21,-72.3762"/>
</g>
<!-- Node5 -->
<g id="node6" class="node"><title>Node5</title>
<g id="a_node6"><a xlink:title=" ">
<polygon fill="white" stroke="#bfbfbf" points="281.5,-56.5 281.5,-75.5 326.5,-75.5 326.5,-56.5 281.5,-56.5"/>
<text text-anchor="middle" x="304" y="-63.5" font-family="Helvetica,sans-Serif" font-size="10.00">Wire.h</text>
</a>
</g>
</g>
<!-- Node1&#45;&gt;Node5 -->
<g id="edge5" class="edge"><title>Node1&#45;&gt;Node5</title>
<path fill="none" stroke="midnightblue" d="M1030.18,-121.484C923.824,-122.3 607.123,-120.643 336.598,-75.682"/>
<polygon fill="midnightblue" stroke="midnightblue" points="337.033,-72.2061 326.59,-73.9953 335.869,-79.1087 337.033,-72.2061"/>
</g>
<!-- Node6 -->
<g id="node7" class="node"><title>Node6</title>
<g id="a_node7"><a xlink:title=" ">
<polygon fill="white" stroke="#bfbfbf" points="345,-56.5 345,-75.5 393,-75.5 393,-56.5 345,-56.5"/>
<text text-anchor="middle" x="369" y="-63.5" font-family="Helvetica,sans-Serif" font-size="10.00">limits.h</text>
</a>
</g>
</g>
<!-- Node1&#45;&gt;Node6 -->
<g id="edge6" class="edge"><title>Node1&#45;&gt;Node6</title>
<path fill="none" stroke="midnightblue" d="M1030.3,-121.063C930.69,-120.696 646.959,-116.068 403.143,-75.8394"/>
<polygon fill="midnightblue" stroke="midnightblue" points="403.468,-72.3452 393.027,-74.1459 402.312,-79.2491 403.468,-72.3452"/>
</g>
<!-- Node7 -->
<g id="node8" class="node"><title>Node7</title>
<g id="a_node8"><a xlink:title=" ">
<polygon fill="white" stroke="#bfbfbf" points="411,-56.5 411,-75.5 455,-75.5 455,-56.5 411,-56.5"/>
<text text-anchor="middle" x="433" y="-63.5" font-family="Helvetica,sans-Serif" font-size="10.00">MIDI.h</text>
</a>
</g>
</g>
<!-- Node1&#45;&gt;Node7 -->
<g id="edge7" class="edge"><title>Node1&#45;&gt;Node7</title>
<path fill="none" stroke="midnightblue" d="M1030.3,-120.907C937.122,-120.109 683.867,-114.437 465.273,-75.8535"/>
<polygon fill="midnightblue" stroke="midnightblue" points="465.68,-72.3707 455.219,-74.051 464.445,-79.2609 465.68,-72.3707"/>
</g>
<!-- Node8 -->
<g id="node9" class="node"><title>Node8</title>
<g id="a_node9"><a xlink:title=" ">
<polygon fill="white" stroke="#bfbfbf" points="473,-56.5 473,-75.5 541,-75.5 541,-56.5 473,-56.5"/>
<text text-anchor="middle" x="507" y="-63.5" font-family="Helvetica,sans-Serif" font-size="10.00">EEPROM.h</text>
</a>
</g>
</g>
<!-- Node1&#45;&gt;Node8 -->
<g id="edge8" class="edge"><title>Node1&#45;&gt;Node8</title>
<path fill="none" stroke="midnightblue" d="M1030.47,-119.324C947.185,-115.18 736.724,-102.891 551.138,-76.0006"/>
<polygon fill="midnightblue" stroke="midnightblue" points="551.603,-72.5314 541.201,-74.5431 550.588,-79.4573 551.603,-72.5314"/>
</g>
<!-- Node9 -->
<g id="node10" class="node"><title>Node9</title>
<g id="a_node10"><a xlink:title=" ">
<polygon fill="white" stroke="#bfbfbf" points="559.5,-56.5 559.5,-75.5 622.5,-75.5 622.5,-56.5 559.5,-56.5"/>
<text text-anchor="middle" x="591" y="-63.5" font-family="Helvetica,sans-Serif" font-size="10.00">Bounce2.h</text>
</a>
</g>
</g>
<!-- Node1&#45;&gt;Node9 -->
<g id="edge9" class="edge"><title>Node1&#45;&gt;Node9</title>
<path fill="none" stroke="midnightblue" d="M1030.35,-118.69C956.736,-113.734 785.57,-100.618 632.842,-76.143"/>
<polygon fill="midnightblue" stroke="midnightblue" points="633.242,-72.6621 622.81,-74.5144 632.12,-79.5716 633.242,-72.6621"/>
</g>
<!-- Node10 -->
<g id="node11" class="node"><title>Node10</title>
<g id="a_node11"><a xlink:title=" ">
<polygon fill="white" stroke="#bfbfbf" points="640.5,-56.5 640.5,-75.5 723.5,-75.5 723.5,-56.5 640.5,-56.5"/>
<text text-anchor="middle" x="682" y="-63.5" font-family="Helvetica,sans-Serif" font-size="10.00">ClickEncoder.h</text>
</a>
</g>
</g>
<!-- Node1&#45;&gt;Node10 -->
<g id="edge10" class="edge"><title>Node1&#45;&gt;Node10</title>
<path fill="none" stroke="midnightblue" d="M1030.36,-116.559C970.554,-109.203 848.021,-93.6822 733.699,-76.0527"/>
<polygon fill="midnightblue" stroke="midnightblue" points="734.144,-72.5799 723.726,-74.506 733.071,-79.4973 734.144,-72.5799"/>
</g>
<!-- Node11 -->
<g id="node12" class="node"><title>Node11</title>
<g id="a_node12"><a xlink:title=" ">
<polygon fill="white" stroke="#bfbfbf" points="741.5,-56.5 741.5,-75.5 786.5,-75.5 786.5,-56.5 741.5,-56.5"/>
<text text-anchor="middle" x="764" y="-63.5" font-family="Helvetica,sans-Serif" font-size="10.00">ADC.h</text>
</a>
</g>
</g>
<!-- Node1&#45;&gt;Node11 -->
<g id="edge11" class="edge"><title>Node1&#45;&gt;Node11</title>
<path fill="none" stroke="midnightblue" d="M1030.37,-116.218C979.903,-109.345 885.993,-95.5402 796.42,-75.874"/>
<polygon fill="midnightblue" stroke="midnightblue" points="797.169,-72.4552 786.648,-73.7009 795.649,-79.2883 797.169,-72.4552"/>
</g>
<!-- Node12 -->
<g id="node13" class="node"><title>Node12</title>
<g id="a_node13"><a xlink:title=" ">
<polygon fill="white" stroke="#bfbfbf" points="804.5,-56.5 804.5,-75.5 931.5,-75.5 931.5,-56.5 804.5,-56.5"/>
<text text-anchor="middle" x="868" y="-63.5" font-family="Helvetica,sans-Serif" font-size="10.00">ResponsiveAnalogRead.h</text>
</a>
</g>
</g>
<!-- Node1&#45;&gt;Node12 -->
<g id="edge12" class="edge"><title>Node1&#45;&gt;Node12</title>
<path fill="none" stroke="midnightblue" d="M1035.47,-112.444C1001.41,-103.201 946.994,-88.4356 909.485,-78.2572"/>
<polygon fill="midnightblue" stroke="midnightblue" points="909.952,-74.7575 899.385,-75.5164 908.119,-81.5132 909.952,-74.7575"/>
</g>
<!-- Node13 -->
<g id="node14" class="node"><title>Node13</title>
<g id="a_node14"><a xlink:href="_blinker_8h.html" target="_top" xlink:title="Class helper to blink led.">
<polygon fill="white" stroke="black" points="949.5,-56.5 949.5,-75.5 1004.5,-75.5 1004.5,-56.5 949.5,-56.5"/>
<text text-anchor="middle" x="977" y="-63.5" font-family="Helvetica,sans-Serif" font-size="10.00">Blinker.h</text>
</a>
</g>
</g>
<!-- Node1&#45;&gt;Node13 -->
<g id="edge13" class="edge"><title>Node1&#45;&gt;Node13</title>
<path fill="none" stroke="midnightblue" d="M1052.54,-112.324C1038.5,-103.9 1016.95,-90.9709 1000.46,-81.0741"/>
<polygon fill="midnightblue" stroke="midnightblue" points="1001.8,-77.7983 991.424,-75.6545 998.198,-83.8007 1001.8,-77.7983"/>
</g>
<!-- Node14 -->
<g id="node15" class="node"><title>Node14</title>
<g id="a_node15"><a xlink:href="_multi_point_conv_8h.html" target="_top" xlink:title="Helper class for MIDI to DAC conversions.">
<polygon fill="white" stroke="black" points="1022.5,-56.5 1022.5,-75.5 1111.5,-75.5 1111.5,-56.5 1022.5,-56.5"/>
<text text-anchor="middle" x="1067" y="-63.5" font-family="Helvetica,sans-Serif" font-size="10.00">MultiPointConv.h</text>
</a>
</g>
</g>
<!-- Node1&#45;&gt;Node14 -->
<g id="edge14" class="edge"><title>Node1&#45;&gt;Node14</title>
<path fill="none" stroke="midnightblue" d="M1067,-112.083C1067,-105.006 1067,-94.8611 1067,-85.9865"/>
<polygon fill="midnightblue" stroke="midnightblue" points="1070.5,-85.751 1067,-75.7511 1063.5,-85.7511 1070.5,-85.751"/>
</g>
<!-- Node15 -->
<g id="node16" class="node"><title>Node15</title>
<g id="a_node16"><a xlink:href="_sys_ex_def_8h.html" target="_top" xlink:title="SysEx structures and definitions.">
<polygon fill="white" stroke="black" points="1130,-56.5 1130,-75.5 1198,-75.5 1198,-56.5 1130,-56.5"/>
<text text-anchor="middle" x="1164" y="-63.5" font-family="Helvetica,sans-Serif" font-size="10.00">SysExDef.h</text>
</a>
</g>
</g>
<!-- Node1&#45;&gt;Node15 -->
<g id="edge15" class="edge"><title>Node1&#45;&gt;Node15</title>
<path fill="none" stroke="midnightblue" d="M1082.58,-112.324C1098,-103.743 1121.81,-90.486 1139.71,-80.5224"/>
<polygon fill="midnightblue" stroke="midnightblue" points="1141.42,-83.5767 1148.45,-75.6545 1138.01,-77.4606 1141.42,-83.5767"/>
</g>
<!-- Node16 -->
<g id="node17" class="node"><title>Node16</title>
<g id="a_node17"><a xlink:href="_menu_class_8h.html" target="_top" xlink:title="Defines Base Menu class.">
<polygon fill="white" stroke="black" points="1216,-56.5 1216,-75.5 1290,-75.5 1290,-56.5 1216,-56.5"/>
<text text-anchor="middle" x="1253" y="-63.5" font-family="Helvetica,sans-Serif" font-size="10.00">MenuClass.h</text>
</a>
</g>
</g>
<!-- Node1&#45;&gt;Node16 -->
<g id="edge16" class="edge"><title>Node1&#45;&gt;Node16</title>
<path fill="none" stroke="midnightblue" d="M1096.47,-112.444C1128.17,-103.241 1178.73,-88.5617 1213.77,-78.3879"/>
<polygon fill="midnightblue" stroke="midnightblue" points="1215.04,-81.6658 1223.67,-75.5164 1213.09,-74.9434 1215.04,-81.6658"/>
</g>
<!-- Node18 -->
<g id="node19" class="node"><title>Node18</title>
<g id="a_node19"><a xlink:href="_o_l_e_d_menu_8h.html" target="_top" xlink:title="Defines Menu class for OLED screen.">
<polygon fill="white" stroke="black" points="1308.5,-56.5 1308.5,-75.5 1383.5,-75.5 1383.5,-56.5 1308.5,-56.5"/>
<text text-anchor="middle" x="1346" y="-63.5" font-family="Helvetica,sans-Serif" font-size="10.00">OLEDMenu.h</text>
</a>
</g>
</g>
<!-- Node1&#45;&gt;Node18 -->
<g id="edge18" class="edge"><title>Node1&#45;&gt;Node18</title>
<path fill="none" stroke="midnightblue" d="M1103.76,-113.885C1153.77,-104.206 1243.31,-86.8763 1298.4,-76.2137"/>
<polygon fill="midnightblue" stroke="midnightblue" points="1299.11,-79.6402 1308.26,-74.3036 1297.78,-72.7677 1299.11,-79.6402"/>
</g>
<!-- Node19 -->
<g id="node20" class="node"><title>Node19</title>
<g id="a_node20"><a xlink:href="_cfg_classes_8h.html" target="_top" xlink:title="Definition of enums and classes for Input configuration.">
<polygon fill="white" stroke="black" points="1402,-56.5 1402,-75.5 1476,-75.5 1476,-56.5 1402,-56.5"/>
<text text-anchor="middle" x="1439" y="-63.5" font-family="Helvetica,sans-Serif" font-size="10.00">CfgClasses.h</text>
</a>
</g>
</g>
<!-- Node1&#45;&gt;Node19 -->
<g id="edge19" class="edge"><title>Node1&#45;&gt;Node19</title>
<path fill="none" stroke="midnightblue" d="M1103.77,-116.607C1162.48,-109.443 1281.24,-94.3464 1391.88,-76.1086"/>
<polygon fill="midnightblue" stroke="midnightblue" points="1392.58,-79.5399 1401.88,-74.4488 1391.44,-72.6345 1392.58,-79.5399"/>
</g>
<!-- Node20 -->
<g id="node21" class="node"><title>Node20</title>
<g id="a_node21"><a xlink:href="_input_port_8h.html" target="_top" xlink:title="Definition for Port classes InputPort, DigitalPort, AnalogPort and DemuxAnalogPort.">
<polygon fill="white" stroke="black" points="1494,-56.5 1494,-75.5 1558,-75.5 1558,-56.5 1494,-56.5"/>
<text text-anchor="middle" x="1526" y="-63.5" font-family="Helvetica,sans-Serif" font-size="10.00">InputPort.h</text>
</a>
</g>
</g>
<!-- Node1&#45;&gt;Node20 -->
<g id="edge20" class="edge"><title>Node1&#45;&gt;Node20</title>
<path fill="none" stroke="midnightblue" d="M1103.52,-118.413C1174.76,-113.077 1337.37,-99.4797 1483.77,-76.0388"/>
<polygon fill="midnightblue" stroke="midnightblue" points="1484.52,-79.4624 1493.83,-74.4074 1483.4,-72.5526 1484.52,-79.4624"/>
</g>
<!-- Node21 -->
<g id="node22" class="node"><title>Node21</title>
<g id="a_node22"><a xlink:href="_input_control_8h.html" target="_top" xlink:title="Definition for class InputControl to aggregate one CV, Fader and Gate inputs.">
<polygon fill="white" stroke="black" points="1576.5,-56.5 1576.5,-75.5 1653.5,-75.5 1653.5,-56.5 1576.5,-56.5"/>
<text text-anchor="middle" x="1615" y="-63.5" font-family="Helvetica,sans-Serif" font-size="10.00">InputControl.h</text>
</a>
</g>
</g>
<!-- Node1&#45;&gt;Node21 -->
<g id="edge21" class="edge"><title>Node1&#45;&gt;Node21</title>
<path fill="none" stroke="midnightblue" d="M1103.52,-118.913C1184.75,-114.015 1386.66,-100.419 1566.13,-75.9862"/>
<polygon fill="midnightblue" stroke="midnightblue" points="1566.85,-79.4196 1576.28,-74.5888 1565.9,-72.485 1566.85,-79.4196"/>
</g>
<!-- Node22 -->
<g id="node23" class="node"><title>Node22</title>
<g id="a_node23"><a xlink:href="_save_load_8h.html" target="_top" xlink:title="Configuration for Save/Load support.">
<polygon fill="white" stroke="black" points="1671.5,-56.5 1671.5,-75.5 1738.5,-75.5 1738.5,-56.5 1671.5,-56.5"/>
<text text-anchor="middle" x="1705" y="-63.5" font-family="Helvetica,sans-Serif" font-size="10.00">SaveLoad.h</text>
</a>
</g>
</g>
<!-- Node1&#45;&gt;Node22 -->
<g id="edge22" class="edge"><title>Node1&#45;&gt;Node22</title>
<path fill="none" stroke="midnightblue" d="M1103.81,-119.958C1196.13,-116.974 1445.03,-106.646 1661.2,-76.0904"/>
<polygon fill="midnightblue" stroke="midnightblue" points="1661.74,-79.5488 1671.15,-74.6671 1660.75,-72.6194 1661.74,-79.5488"/>
</g>
<!-- Node23 -->
<g id="node24" class="node"><title>Node23</title>
<g id="a_node24"><a xlink:href="_m_i_d_imerger_8h.html" target="_top" xlink:title="MIDI Input/Output support.">
<polygon fill="white" stroke="black" points="1757,-56.5 1757,-75.5 1831,-75.5 1831,-56.5 1757,-56.5"/>
<text text-anchor="middle" x="1794" y="-63.5" font-family="Helvetica,sans-Serif" font-size="10.00">MIDImerger.h</text>
</a>
</g>
</g>
<!-- Node1&#45;&gt;Node23 -->
<g id="edge23" class="edge"><title>Node1&#45;&gt;Node23</title>
<path fill="none" stroke="midnightblue" d="M1103.7,-120.216C1204.73,-117.708 1495.52,-108.145 1746.86,-75.9787"/>
<polygon fill="midnightblue" stroke="midnightblue" points="1747.44,-79.4324 1756.91,-74.6773 1746.54,-72.4903 1747.44,-79.4324"/>
</g>
<!-- Node24 -->
<g id="node25" class="node"><title>Node24</title>
<g id="a_node25"><a xlink:href="_v_c_m_c_app_8h.html" target="_top" xlink:title="Main App declarations.">
<polygon fill="white" stroke="black" points="1849.5,-56.5 1849.5,-75.5 1920.5,-75.5 1920.5,-56.5 1849.5,-56.5"/>
<text text-anchor="middle" x="1885" y="-63.5" font-family="Helvetica,sans-Serif" font-size="10.00">VCMCApp.h</text>
</a>
</g>
</g>
<!-- Node1&#45;&gt;Node24 -->
<g id="edge24" class="edge"><title>Node1&#45;&gt;Node24</title>
<path fill="none" stroke="midnightblue" d="M1103.78,-120.673C1213.85,-119.31 1550.32,-112.352 1838.97,-75.9327"/>
<polygon fill="midnightblue" stroke="midnightblue" points="1839.74,-79.3628 1849.21,-74.6247 1838.85,-72.4191 1839.74,-79.3628"/>
</g>
<!-- Node26 -->
<g id="node27" class="node"><title>Node26</title>
<g id="a_node27"><a xlink:href="_menu_lists_8h.html" target="_top" xlink:title="Predefine Menu functions callbacks and menu items.">
<polygon fill="white" stroke="black" points="1939,-56.5 1939,-75.5 2009,-75.5 2009,-56.5 1939,-56.5"/>
<text text-anchor="middle" x="1974" y="-63.5" font-family="Helvetica,sans-Serif" font-size="10.00">MenuLists.h</text>
</a>
</g>
</g>
<!-- Node1&#45;&gt;Node26 -->
<g id="edge27" class="edge"><title>Node1&#45;&gt;Node26</title>
<path fill="none" stroke="midnightblue" d="M1103.77,-121.045C1222.12,-120.775 1603.95,-116.681 1928.47,-76.0049"/>
<polygon fill="midnightblue" stroke="midnightblue" points="1929.05,-79.4586 1938.53,-74.7289 1928.17,-72.5142 1929.05,-79.4586"/>
</g>
<!-- Node27 -->
<g id="node28" class="node"><title>Node27</title>
<g id="a_node28"><a xlink:href="_par_type_map_8h_source.html" target="_top" xlink:title=" ">
<polygon fill="white" stroke="black" points="2027,-56.5 2027,-75.5 2107,-75.5 2107,-56.5 2027,-56.5"/>
<text text-anchor="middle" x="2067" y="-63.5" font-family="Helvetica,sans-Serif" font-size="10.00">ParTypeMap.h</text>
</a>
</g>
</g>
<!-- Node1&#45;&gt;Node27 -->
<g id="edge29" class="edge"><title>Node1&#45;&gt;Node27</title>
<path fill="none" stroke="midnightblue" d="M1103.86,-121.033C1229.95,-120.772 1655.72,-116.805 2016.83,-75.9652"/>
<polygon fill="midnightblue" stroke="midnightblue" points="2017.42,-79.4207 2026.95,-74.8081 2016.62,-72.466 2017.42,-79.4207"/>
</g>
<!-- Node17 -->
<g id="node18" class="node"><title>Node17</title>
<g id="a_node18"><a xlink:title=" ">
<polygon fill="white" stroke="#bfbfbf" points="1224,-0.5 1224,-19.5 1282,-19.5 1282,-0.5 1224,-0.5"/>
<text text-anchor="middle" x="1253" y="-7.5" font-family="Helvetica,sans-Serif" font-size="10.00">Arduino.h</text>
</a>
</g>
</g>
<!-- Node16&#45;&gt;Node17 -->
<g id="edge17" class="edge"><title>Node16&#45;&gt;Node17</title>
<path fill="none" stroke="midnightblue" d="M1253,-56.083C1253,-49.0059 1253,-38.8611 1253,-29.9865"/>
<polygon fill="midnightblue" stroke="midnightblue" points="1256.5,-29.751 1253,-19.7511 1249.5,-29.7511 1256.5,-29.751"/>
</g>
<!-- Node25 -->
<g id="node26" class="node"><title>Node25</title>
<g id="a_node26"><a xlink:href="_definitions_8h.html" target="_top" xlink:title="Definitions and configuration flags.">
<polygon fill="white" stroke="black" points="1939,-0.5 1939,-19.5 2009,-19.5 2009,-0.5 1939,-0.5"/>
<text text-anchor="middle" x="1974" y="-7.5" font-family="Helvetica,sans-Serif" font-size="10.00">Definitions.h</text>
</a>
</g>
</g>
<!-- Node24&#45;&gt;Node25 -->
<g id="edge25" class="edge"><title>Node24&#45;&gt;Node25</title>
<path fill="none" stroke="midnightblue" d="M1899.3,-56.324C1913.18,-47.9002 1934.49,-34.9709 1950.8,-25.0741"/>
<polygon fill="midnightblue" stroke="midnightblue" points="1953,-27.8341 1959.74,-19.6545 1949.37,-21.8495 1953,-27.8341"/>
</g>
<!-- Node25&#45;&gt;Node1 -->
<g id="edge26" class="edge"><title>Node25&#45;&gt;Node1</title>
<path fill="none" stroke="midnightblue" d="M2009.14,-14.9258C2061.57,-22.0608 2150.61,-39.8783 2116,-76 2080.89,-112.653 1312.58,-119.591 1113.68,-120.775"/>
<polygon fill="midnightblue" stroke="midnightblue" points="1113.53,-117.276 1103.55,-120.833 1113.57,-124.275 1113.53,-117.276"/>
</g>
<!-- Node26&#45;&gt;Node25 -->
<g id="edge28" class="edge"><title>Node26&#45;&gt;Node25</title>
<path fill="none" stroke="midnightblue" d="M1974,-56.083C1974,-49.0059 1974,-38.8611 1974,-29.9865"/>
<polygon fill="midnightblue" stroke="midnightblue" points="1977.5,-29.751 1974,-19.7511 1970.5,-29.7511 1977.5,-29.751"/>
</g>
</g>
</svg>
        <g id="navigator" transform="translate(0 0)" fill="#404254">
                <rect fill="#f2f5e9" fill-opacity="0.5" stroke="#606060" stroke-width=".5" x="0" y="0" width="60" height="60"/>
                <use id="zoomplus" xlink:href="#zoomPlus" x="17" y="9" onmousedown="handleZoom(evt,'in')"/>
                <use id="zoomminus" xlink:href="#zoomMin" x="42" y="9" onmousedown="handleZoom(evt,'out')"/>
                <use id="reset" xlink:href="#resetDef" x="30" y="36" onmousedown="handleReset()"/>
                <g id="arrowUp" xlink:href="#dirArrow" transform="translate(30 24)" onmousedown="handlePan(0,-1)">
                  <use xlink:href="#rim" fill="#404040">
                        <set attributeName="fill" to="#808080" begin="arrowUp.mouseover" end="arrowUp.mouseout"/>
                  </use>
                  <path fill="none" stroke="white" stroke-width="1.5" d="M0,-3.0v7 M-2.5,-0.5L0,-3.0L2.5,-0.5"/>
                </g>
                <g id="arrowRight" xlink:href="#dirArrow" transform="rotate(90) translate(36 -43)" onmousedown="handlePan(1,0)">
                  <use xlink:href="#rim" fill="#404040">
                        <set attributeName="fill" to="#808080" begin="arrowRight.mouseover" end="arrowRight.mouseout"/>
                  </use>
                  <path fill="none" stroke="white" stroke-width="1.5" d="M0,-3.0v7 M-2.5,-0.5L0,-3.0L2.5,-0.5"/>
                </g>
                <g id="arrowDown" xlink:href="#dirArrow" transform="rotate(180) translate(-30 -48)" onmousedown="handlePan(0,1)">
                  <use xlink:href="#rim" fill="#404040">
                        <set attributeName="fill" to="#808080" begin="arrowDown.mouseover" end="arrowDown.mouseout"/>
                  </use>
                  <path fill="none" stroke="white" stroke-width="1.5" d="M0,-3.0v7 M-2.5,-0.5L0,-3.0L2.5,-0.5"/>
                </g>
                <g id="arrowLeft" xlink:href="#dirArrow" transform="rotate(270) translate(-36 17)" onmousedown="handlePan(-1,0)">
                  <use xlink:href="#rim" fill="#404040">
                        <set attributeName="fill" to="#808080" begin="arrowLeft.mouseover" end="arrowLeft.mouseout"/>
                  </use>
                  <path fill="none" stroke="white" stroke-width="1.5" d="M0,-3.0v7 M-2.5,-0.5L0,-3.0L2.5,-0.5"/>
                </g>
        </g>
        <svg viewBox="0 0 15 15" width="100%" height="30px" preserveAspectRatio="xMaxYMin meet">
         <g id="arrow_out" transform="scale(0.3 0.3)">
          <a xlink:href="_cfg_classes_8ino__incl_org.svg" target="_base">
           <rect id="button" ry="5" rx="5" y="6" x="6" height="38" width="38"
                fill="#f2f5e9" fill-opacity="0.5" stroke="#606060" stroke-width="1.0"/>
           <path id="arrow"
             d="M 11.500037,31.436501 C 11.940474,20.09759 22.043105,11.32322 32.158766,21.979434 L 37.068811,17.246167 C 37.068811,17.246167 37.088388,32 37.088388,32 L 22.160133,31.978069 C 22.160133,31.978069 26.997745,27.140456 26.997745,27.140456 C 18.528582,18.264221 13.291696,25.230495 11.500037,31.436501 z"
             style="fill:#404040;"/>
          </a>
         </g>
        </svg>
</svg>
