<?xml version="1.0" encoding="UTF-8" standalone="no"?>
<!DOCTYPE svg PUBLIC "-//W3C//DTD SVG 1.1//EN"
 "http://www.w3.org/Graphics/SVG/1.1/DTD/svg11.dtd">
<!-- Generated by graphviz version 2.38.0 (20140413.2041)
 -->
<!-- Title: D:/Prog/Github/Befaco/VCMC/FirmwareTeen/Definitions.h Pages: 1 -->
<!--zoomable 262 -->
<svg id="main" version="1.1" xmlns="http://www.w3.org/2000/svg" xmlns:xlink="http://www.w3.org/1999/xlink" xml:space="preserve" onload="init(evt)">
<style type="text/css"><![CDATA[
.edge:hover path { stroke: red; }
.edge:hover polygon { stroke: red; fill: red; }
]]></style>
<script type="text/javascript"><![CDATA[
var edges = document.getElementsByTagName('g');
if (edges && edges.length) {
  for (var i=0;i<edges.length;i++) {
    if (edges[i].id.substr(0,4)=='edge') {
      edges[i].setAttribute('class','edge');
    }
  }
}
]]></script>
        <defs>
                <circle id="rim" cx="0" cy="0" r="7"/>
                <circle id="rim2" cx="0" cy="0" r="3.5"/>
                <g id="zoomPlus">
                        <use xlink:href="#rim" fill="#404040">
                                <set attributeName="fill" to="#808080" begin="zoomplus.mouseover" end="zoomplus.mouseout"/>
                        </use>
                        <path d="M-4,0h8M0,-4v8" fill="none" stroke="white" stroke-width="1.5" pointer-events="none"/>
                </g>
                <g id="zoomMin">
                        <use xlink:href="#rim" fill="#404040">
                                <set attributeName="fill" to="#808080" begin="zoomminus.mouseover" end="zoomminus.mouseout"/>
                        </use>
                        <path d="M-4,0h8" fill="none" stroke="white" stroke-width="1.5" pointer-events="none"/>
                </g>
                <g id="dirArrow">
                        <path fill="none" stroke="white" stroke-width="1.5" d="M0,-3.0v7 M-2.5,-0.5L0,-3.0L2.5,-0.5"/>
                </g>
               <g id="resetDef">
                       <use xlink:href="#rim2" fill="#404040">
                               <set attributeName="fill" to="#808080" begin="reset.mouseover" end="reset.mouseout"/>
                       </use>
               </g>
        </defs>

<script type="text/javascript">
var viewWidth = 4811;
var viewHeight = 262;
var sectionId = 'dynsection-1';
</script>
<script xlink:href="svgpan.js"/>
<svg id="graph" class="graph">
<g id="viewport">
<title>D:/Prog/Github/Befaco/VCMC/FirmwareTeen/Definitions.h</title>
<polygon fill="white" stroke="none" points="-4,4 -4,-258 4807.28,-258 4807.28,4 -4,4"/>
<!-- Node27 -->
<g id="node1" class="node"><title>Node27</title>
<g id="a_node1"><a xlink:title="Definitions and configuration flags.">
<polygon fill="#bfbfbf" stroke="black" points="2301.5,-223.5 2301.5,-253.5 2469.5,-253.5 2469.5,-223.5 2301.5,-223.5"/>
<text text-anchor="start" x="2309.5" y="-241.5" font-family="Helvetica,sans-Serif" font-size="10.00">D:/Prog/Github/Befaco</text>
<text text-anchor="middle" x="2385.5" y="-230.5" font-family="Helvetica,sans-Serif" font-size="10.00">/VCMC/FirmwareTeen/Definitions.h</text>
</a>
</g>
</g>
<!-- Node28 -->
<g id="node2" class="node"><title>Node28</title>
<g id="a_node2"><a xlink:href="_cal_menu_8ino.html" target="_top" xlink:title="Defines Menu functions callbacks response for calibration and clock configuration.">
<polygon fill="white" stroke="black" points="0,-151 0,-181 169,-181 169,-151 0,-151"/>
<text text-anchor="start" x="8" y="-169" font-family="Helvetica,sans-Serif" font-size="10.00">D:/Prog/Github/Befaco</text>
<text text-anchor="middle" x="84.5" y="-158" font-family="Helvetica,sans-Serif" font-size="10.00">/VCMC/FirmwareTeen/CalMenu.ino</text>
</a>
</g>
</g>
<!-- Node27&#45;&gt;Node28 -->
<g id="edge1" class="edge"><title>Node27&#45;&gt;Node28</title>
<path fill="none" stroke="midnightblue" d="M2291.31,-237.552C1925.84,-237.412 601.306,-233.624 183.5,-187 171.04,-185.61 157.817,-183.436 145.23,-181.024"/>
<polygon fill="midnightblue" stroke="midnightblue" points="2291.32,-241.052 2301.32,-237.555 2291.32,-234.052 2291.32,-241.052"/>
</g>
<!-- Node29 -->
<g id="node3" class="node"><title>Node29</title>
<g id="a_node3"><a xlink:href="_v_c_m_c_app_8h.html" target="_top" xlink:title="Main App declarations.">
<polygon fill="white" stroke="black" points="226,-151 226,-181 395,-181 395,-151 226,-151"/>
<text text-anchor="start" x="234" y="-169" font-family="Helvetica,sans-Serif" font-size="10.00">D:/Prog/Github/Befaco</text>
<text text-anchor="middle" x="310.5" y="-158" font-family="Helvetica,sans-Serif" font-size="10.00">/VCMC/FirmwareTeen/VCMCApp.h</text>
</a>
</g>
</g>
<!-- Node27&#45;&gt;Node29 -->
<g id="edge2" class="edge"><title>Node27&#45;&gt;Node29</title>
<path fill="none" stroke="midnightblue" d="M2291.18,-237.398C1949.42,-236.668 776.565,-230.944 404.5,-187 392.653,-185.601 380.091,-183.423 368.137,-181.011"/>
<polygon fill="midnightblue" stroke="midnightblue" points="2291.28,-240.898 2301.29,-237.418 2291.3,-233.898 2291.28,-240.898"/>
</g>
<!-- Node32 -->
<g id="node6" class="node"><title>Node32</title>
<g id="a_node6"><a xlink:href="_menu_lists_8h.html" target="_top" xlink:title="Predefine Menu functions callbacks and menu items.">
<polygon fill="white" stroke="black" points="413.5,-151 413.5,-181 581.5,-181 581.5,-151 413.5,-151"/>
<text text-anchor="start" x="421.5" y="-169" font-family="Helvetica,sans-Serif" font-size="10.00">D:/Prog/Github/Befaco</text>
<text text-anchor="middle" x="497.5" y="-158" font-family="Helvetica,sans-Serif" font-size="10.00">/VCMC/FirmwareTeen/MenuLists.h</text>
</a>
</g>
</g>
<!-- Node27&#45;&gt;Node32 -->
<g id="edge6" class="edge"><title>Node27&#45;&gt;Node32</title>
<path fill="none" stroke="midnightblue" d="M2291.24,-237.133C1970.73,-235.528 924.438,-227.258 590.5,-187 578.859,-185.597 566.521,-183.433 554.769,-181.039"/>
<polygon fill="midnightblue" stroke="midnightblue" points="2291.4,-240.634 2301.42,-237.183 2291.44,-233.634 2291.4,-240.634"/>
</g>
<!-- Node33 -->
<g id="node7" class="node"><title>Node33</title>
<g id="a_node7"><a xlink:href="_firmware_teen_8ino.html" target="_top" xlink:title="Project main loop.">
<polygon fill="white" stroke="black" points="2577,-67.5 2577,-108.5 2732,-108.5 2732,-67.5 2577,-67.5"/>
<text text-anchor="start" x="2585" y="-96.5" font-family="Helvetica,sans-Serif" font-size="10.00">D:/Prog/Github/Befaco</text>
<text text-anchor="start" x="2585" y="-85.5" font-family="Helvetica,sans-Serif" font-size="10.00">/VCMC/FirmwareTeen/Firmware</text>
<text text-anchor="middle" x="2654.5" y="-74.5" font-family="Helvetica,sans-Serif" font-size="10.00">Teen.ino</text>
</a>
</g>
</g>
<!-- Node27&#45;&gt;Node33 -->
<g id="edge9" class="edge"><title>Node27&#45;&gt;Node33</title>
<path fill="none" stroke="midnightblue" d="M2479.74,-237.309C2919.73,-236.199 4752.32,-229.055 4793.5,-187 4806.56,-173.663 4806.53,-158.371 4793.5,-145 4756.81,-107.342 3111.52,-92.4894 2732.02,-89.5613"/>
<polygon fill="midnightblue" stroke="midnightblue" points="2479.6,-233.81 2469.6,-237.334 2479.61,-240.81 2479.6,-233.81"/>
</g>
<!-- Node34 -->
<g id="node8" class="node"><title>Node34</title>
<g id="a_node8"><a xlink:href="_graf_util_8ino.html" target="_top" xlink:title="Defines Helper functions for OLED screen user interface.">
<polygon fill="white" stroke="black" points="600,-151 600,-181 763,-181 763,-151 600,-151"/>
<text text-anchor="start" x="608" y="-169" font-family="Helvetica,sans-Serif" font-size="10.00">D:/Prog/Github/Befaco</text>
<text text-anchor="middle" x="681.5" y="-158" font-family="Helvetica,sans-Serif" font-size="10.00">/VCMC/FirmwareTeen/GrafUtil.ino</text>
</a>
</g>
</g>
<!-- Node27&#45;&gt;Node34 -->
<g id="edge10" class="edge"><title>Node27&#45;&gt;Node34</title>
<path fill="none" stroke="midnightblue" d="M2291.04,-236.838C1992.13,-234.38 1069.16,-223.922 772.5,-187 761.103,-185.582 749.028,-183.412 737.528,-181.016"/>
<polygon fill="midnightblue" stroke="midnightblue" points="2291.38,-240.34 2301.41,-236.922 2291.44,-233.341 2291.38,-240.34"/>
</g>
<!-- Node35 -->
<g id="node9" class="node"><title>Node35</title>
<g id="a_node9"><a xlink:href="_input_control_8ino.html" target="_top" xlink:title="Functions definition for Input Control class.">
<polygon fill="white" stroke="black" points="781.5,-151 781.5,-181 963.5,-181 963.5,-151 781.5,-151"/>
<text text-anchor="start" x="789.5" y="-169" font-family="Helvetica,sans-Serif" font-size="10.00">D:/Prog/Github/Befaco</text>
<text text-anchor="middle" x="872.5" y="-158" font-family="Helvetica,sans-Serif" font-size="10.00">/VCMC/FirmwareTeen/InputControl.ino</text>
</a>
</g>
</g>
<!-- Node27&#45;&gt;Node35 -->
<g id="edge11" class="edge"><title>Node27&#45;&gt;Node35</title>
<path fill="none" stroke="midnightblue" d="M2290.98,-236.116C2017.54,-231.796 1228.85,-217.017 972.5,-187 960.191,-185.559 947.136,-183.41 934.664,-181.049"/>
<polygon fill="midnightblue" stroke="midnightblue" points="2291.22,-239.62 2301.27,-236.278 2291.33,-232.621 2291.22,-239.62"/>
</g>
<!-- Node36 -->
<g id="node10" class="node"><title>Node36</title>
<g id="a_node10"><a xlink:href="_input_port_8ino.html" target="_top" xlink:title="Definition of base class functions related to both Analog and Digital input ports.">
<polygon fill="white" stroke="black" points="981.5,-151 981.5,-181 1151.5,-181 1151.5,-151 981.5,-151"/>
<text text-anchor="start" x="989.5" y="-169" font-family="Helvetica,sans-Serif" font-size="10.00">D:/Prog/Github/Befaco</text>
<text text-anchor="middle" x="1066.5" y="-158" font-family="Helvetica,sans-Serif" font-size="10.00">/VCMC/FirmwareTeen/InputPort.ino</text>
</a>
</g>
</g>
<!-- Node27&#45;&gt;Node36 -->
<g id="edge12" class="edge"><title>Node27&#45;&gt;Node36</title>
<path fill="none" stroke="midnightblue" d="M2291.2,-235.669C2043.56,-230.53 1378.82,-214.526 1160.5,-187 1148.91,-185.539 1136.63,-183.382 1124.91,-181.018"/>
<polygon fill="midnightblue" stroke="midnightblue" points="2291.19,-239.169 2301.26,-235.876 2291.33,-232.171 2291.19,-239.169"/>
</g>
<!-- Node37 -->
<g id="node11" class="node"><title>Node37</title>
<g id="a_node11"><a xlink:href="_input_port_anag_8ino.html" target="_top" xlink:title="Definition of functions related to Analog (CV and Fader) input ports.">
<polygon fill="white" stroke="black" points="1169.5,-145.5 1169.5,-186.5 1323.5,-186.5 1323.5,-145.5 1169.5,-145.5"/>
<text text-anchor="start" x="1177.5" y="-174.5" font-family="Helvetica,sans-Serif" font-size="10.00">D:/Prog/Github/Befaco</text>
<text text-anchor="start" x="1177.5" y="-163.5" font-family="Helvetica,sans-Serif" font-size="10.00">/VCMC/FirmwareTeen/InputPort</text>
<text text-anchor="middle" x="1246.5" y="-152.5" font-family="Helvetica,sans-Serif" font-size="10.00">Anag.ino</text>
</a>
</g>
</g>
<!-- Node27&#45;&gt;Node37 -->
<g id="edge13" class="edge"><title>Node27&#45;&gt;Node37</title>
<path fill="none" stroke="midnightblue" d="M2291.25,-235.162C2068.82,-229.291 1516.17,-212.547 1332.5,-187 1329.62,-186.599 1326.69,-186.147 1323.73,-185.654"/>
<polygon fill="midnightblue" stroke="midnightblue" points="2291.18,-238.661 2301.27,-235.425 2291.36,-231.664 2291.18,-238.661"/>
</g>
<!-- Node38 -->
<g id="node12" class="node"><title>Node38</title>
<g id="a_node12"><a xlink:href="_input_port_dig_8ino.html" target="_top" xlink:title="Definition of functions related to Digital input ports.">
<polygon fill="white" stroke="black" points="1341.5,-145.5 1341.5,-186.5 1495.5,-186.5 1495.5,-145.5 1341.5,-145.5"/>
<text text-anchor="start" x="1349.5" y="-174.5" font-family="Helvetica,sans-Serif" font-size="10.00">D:/Prog/Github/Befaco</text>
<text text-anchor="start" x="1349.5" y="-163.5" font-family="Helvetica,sans-Serif" font-size="10.00">/VCMC/FirmwareTeen/InputPort</text>
<text text-anchor="middle" x="1418.5" y="-152.5" font-family="Helvetica,sans-Serif" font-size="10.00">Dig.ino</text>
</a>
</g>
</g>
<!-- Node27&#45;&gt;Node38 -->
<g id="edge14" class="edge"><title>Node27&#45;&gt;Node38</title>
<path fill="none" stroke="midnightblue" d="M2290.8,-237.371C2128.85,-235.97 1788.65,-227.878 1504.5,-187 1501.62,-186.585 1498.69,-186.122 1495.74,-185.62"/>
<polygon fill="midnightblue" stroke="midnightblue" points="2291.18,-240.874 2301.21,-237.454 2291.23,-233.874 2291.18,-240.874"/>
</g>
<!-- Node39 -->
<g id="node13" class="node"><title>Node39</title>
<g id="a_node13"><a xlink:href="_menu_anag_8ino.html" target="_top" xlink:title="Defines Menu functions callbacks response for Analog Ports configuration.">
<polygon fill="white" stroke="black" points="1514,-151 1514,-181 1691,-181 1691,-151 1514,-151"/>
<text text-anchor="start" x="1522" y="-169" font-family="Helvetica,sans-Serif" font-size="10.00">D:/Prog/Github/Befaco</text>
<text text-anchor="middle" x="1602.5" y="-158" font-family="Helvetica,sans-Serif" font-size="10.00">/VCMC/FirmwareTeen/MenuAnag.ino</text>
</a>
</g>
</g>
<!-- Node27&#45;&gt;Node39 -->
<g id="edge15" class="edge"><title>Node27&#45;&gt;Node39</title>
<path fill="none" stroke="midnightblue" d="M2291.32,-234.438C2158.73,-229.249 1909.73,-216.285 1699.5,-187 1688.09,-185.411 1676.01,-183.283 1664.39,-181.008"/>
<polygon fill="midnightblue" stroke="midnightblue" points="2291.31,-237.94 2301.44,-234.828 2291.58,-230.945 2291.31,-237.94"/>
</g>
<!-- Node40 -->
<g id="node14" class="node"><title>Node40</title>
<g id="a_node14"><a xlink:href="_menu_block_8ino.html" target="_top" xlink:title="Defines Menu functions callbacks response for Bank configuration.">
<polygon fill="white" stroke="black" points="1709,-151 1709,-181 1888,-181 1888,-151 1709,-151"/>
<text text-anchor="start" x="1717" y="-169" font-family="Helvetica,sans-Serif" font-size="10.00">D:/Prog/Github/Befaco</text>
<text text-anchor="middle" x="1798.5" y="-158" font-family="Helvetica,sans-Serif" font-size="10.00">/VCMC/FirmwareTeen/MenuBlock.ino</text>
</a>
</g>
</g>
<!-- Node27&#45;&gt;Node40 -->
<g id="edge16" class="edge"><title>Node27&#45;&gt;Node40</title>
<path fill="none" stroke="midnightblue" d="M2291.2,-230.449C2192.65,-222.448 2033.72,-207.758 1897.5,-187 1886.41,-185.309 1874.67,-183.214 1863.31,-181.022"/>
<polygon fill="midnightblue" stroke="midnightblue" points="2291.18,-233.958 2301.43,-231.273 2291.74,-226.981 2291.18,-233.958"/>
</g>
<!-- Node41 -->
<g id="node15" class="node"><title>Node41</title>
<g id="a_node15"><a xlink:href="_menu_gate_8ino.html" target="_top" xlink:title="Defines Menu functions callbacks response for Gate configuration.">
<polygon fill="white" stroke="black" points="1906.5,-151 1906.5,-181 2082.5,-181 2082.5,-151 1906.5,-151"/>
<text text-anchor="start" x="1914.5" y="-169" font-family="Helvetica,sans-Serif" font-size="10.00">D:/Prog/Github/Befaco</text>
<text text-anchor="middle" x="1994.5" y="-158" font-family="Helvetica,sans-Serif" font-size="10.00">/VCMC/FirmwareTeen/MenuGate.ino</text>
</a>
</g>
</g>
<!-- Node27&#45;&gt;Node41 -->
<g id="edge17" class="edge"><title>Node27&#45;&gt;Node41</title>
<path fill="none" stroke="midnightblue" d="M2291.21,-222.122C2233.46,-212.502 2158.11,-199.584 2091.5,-187 2081.62,-185.133 2071.18,-183.074 2060.97,-181.01"/>
<polygon fill="midnightblue" stroke="midnightblue" points="2290.97,-225.631 2301.41,-223.818 2292.12,-218.726 2290.97,-225.631"/>
</g>
<!-- Node42 -->
<g id="node16" class="node"><title>Node42</title>
<g id="a_node16"><a xlink:href="_menu_main_8ino.html" target="_top" xlink:title="Defines Menu functions callbacks response for Main/General configuration.">
<polygon fill="white" stroke="black" points="2100.5,-151 2100.5,-181 2276.5,-181 2276.5,-151 2100.5,-151"/>
<text text-anchor="start" x="2108.5" y="-169" font-family="Helvetica,sans-Serif" font-size="10.00">D:/Prog/Github/Befaco</text>
<text text-anchor="middle" x="2188.5" y="-158" font-family="Helvetica,sans-Serif" font-size="10.00">/VCMC/FirmwareTeen/MenuMain.ino</text>
</a>
</g>
</g>
<!-- Node27&#45;&gt;Node42 -->
<g id="edge18" class="edge"><title>Node27&#45;&gt;Node42</title>
<path fill="none" stroke="midnightblue" d="M2336.5,-219.965C2302.96,-207.962 2259.08,-192.258 2227.82,-181.073"/>
<polygon fill="midnightblue" stroke="midnightblue" points="2335.51,-223.329 2346.11,-223.403 2337.87,-216.738 2335.51,-223.329"/>
</g>
<!-- Node43 -->
<g id="node17" class="node"><title>Node43</title>
<g id="a_node17"><a xlink:href="_menu_range_8ino.html" target="_top" xlink:title="Defines Menu functions callbacks response for Input/Output Range configuration.">
<polygon fill="white" stroke="black" points="2294.5,-151 2294.5,-181 2476.5,-181 2476.5,-151 2294.5,-151"/>
<text text-anchor="start" x="2302.5" y="-169" font-family="Helvetica,sans-Serif" font-size="10.00">D:/Prog/Github/Befaco</text>
<text text-anchor="middle" x="2385.5" y="-158" font-family="Helvetica,sans-Serif" font-size="10.00">/VCMC/FirmwareTeen/MenuRange.ino</text>
</a>
</g>
</g>
<!-- Node27&#45;&gt;Node43 -->
<g id="edge19" class="edge"><title>Node27&#45;&gt;Node43</title>
<path fill="none" stroke="midnightblue" d="M2385.5,-213.232C2385.5,-202.568 2385.5,-190.414 2385.5,-181.246"/>
<polygon fill="midnightblue" stroke="midnightblue" points="2382,-213.233 2385.5,-223.233 2389,-213.233 2382,-213.233"/>
</g>
<!-- Node44 -->
<g id="node18" class="node"><title>Node44</title>
<g id="a_node18"><a xlink:href="_m_i_d_imerger_8ino.html" target="_top" xlink:title="MIDI Input/Output support.">
<polygon fill="white" stroke="black" points="2494.5,-151 2494.5,-181 2674.5,-181 2674.5,-151 2494.5,-151"/>
<text text-anchor="start" x="2502.5" y="-169" font-family="Helvetica,sans-Serif" font-size="10.00">D:/Prog/Github/Befaco</text>
<text text-anchor="middle" x="2584.5" y="-158" font-family="Helvetica,sans-Serif" font-size="10.00">/VCMC/FirmwareTeen/MIDImerger.ino</text>
</a>
</g>
</g>
<!-- Node27&#45;&gt;Node44 -->
<g id="edge20" class="edge"><title>Node27&#45;&gt;Node44</title>
<path fill="none" stroke="midnightblue" d="M2435,-219.965C2468.88,-207.962 2513.21,-192.258 2544.78,-181.073"/>
<polygon fill="midnightblue" stroke="midnightblue" points="2433.55,-216.764 2425.29,-223.403 2435.89,-223.362 2433.55,-216.764"/>
</g>
<!-- Node45 -->
<g id="node19" class="node"><title>Node45</title>
<g id="a_node19"><a xlink:href="_o_l_e_d_menu_8ino.html" target="_top" xlink:title="Defines Menu class functions for OLED screen.">
<polygon fill="white" stroke="black" points="2693,-151 2693,-181 2874,-181 2874,-151 2693,-151"/>
<text text-anchor="start" x="2701" y="-169" font-family="Helvetica,sans-Serif" font-size="10.00">D:/Prog/Github/Befaco</text>
<text text-anchor="middle" x="2783.5" y="-158" font-family="Helvetica,sans-Serif" font-size="10.00">/VCMC/FirmwareTeen/OLEDMenu.ino</text>
</a>
</g>
</g>
<!-- Node27&#45;&gt;Node45 -->
<g id="edge21" class="edge"><title>Node27&#45;&gt;Node45</title>
<path fill="none" stroke="midnightblue" d="M2479.75,-222.259C2538.44,-212.588 2615.45,-199.568 2683.5,-187 2693.6,-185.135 2704.25,-183.088 2714.7,-181.038"/>
<polygon fill="midnightblue" stroke="midnightblue" points="2479.05,-218.827 2469.75,-223.903 2480.19,-225.734 2479.05,-218.827"/>
</g>
<!-- Node46 -->
<g id="node20" class="node"><title>Node46</title>
<g id="a_node20"><a xlink:href="_o_l_e_d_menu_config_8ino.html" target="_top" xlink:title="Defines functions for configuration screen.">
<polygon fill="white" stroke="black" points="2892,-145.5 2892,-186.5 3057,-186.5 3057,-145.5 2892,-145.5"/>
<text text-anchor="start" x="2900" y="-174.5" font-family="Helvetica,sans-Serif" font-size="10.00">D:/Prog/Github/Befaco</text>
<text text-anchor="start" x="2900" y="-163.5" font-family="Helvetica,sans-Serif" font-size="10.00">/VCMC/FirmwareTeen/OLEDMenu</text>
<text text-anchor="middle" x="2974.5" y="-152.5" font-family="Helvetica,sans-Serif" font-size="10.00">Config.ino</text>
</a>
</g>
</g>
<!-- Node27&#45;&gt;Node46 -->
<g id="edge22" class="edge"><title>Node27&#45;&gt;Node46</title>
<path fill="none" stroke="midnightblue" d="M2479.71,-231.198C2580.17,-223.721 2743.71,-209.373 2883.5,-187 2886.22,-186.565 2888.97,-186.1 2891.75,-185.611"/>
<polygon fill="midnightblue" stroke="midnightblue" points="2479.31,-227.719 2469.59,-231.944 2479.82,-234.7 2479.31,-227.719"/>
</g>
<!-- Node47 -->
<g id="node21" class="node"><title>Node47</title>
<g id="a_node21"><a xlink:href="_o_s_c_config_port_8ino.html" target="_top" xlink:title="Functions for OSC processing.">
<polygon fill="white" stroke="black" points="3075,-145.5 3075,-186.5 3238,-186.5 3238,-145.5 3075,-145.5"/>
<text text-anchor="start" x="3083" y="-174.5" font-family="Helvetica,sans-Serif" font-size="10.00">D:/Prog/Github/Befaco</text>
<text text-anchor="start" x="3083" y="-163.5" font-family="Helvetica,sans-Serif" font-size="10.00">/VCMC/FirmwareTeen/OSCConfig</text>
<text text-anchor="middle" x="3156.5" y="-152.5" font-family="Helvetica,sans-Serif" font-size="10.00">Port.ino</text>
</a>
</g>
</g>
<!-- Node27&#45;&gt;Node47 -->
<g id="edge23" class="edge"><title>Node27&#45;&gt;Node47</title>
<path fill="none" stroke="midnightblue" d="M2479.6,-234.823C2611.43,-230.097 2858.32,-217.686 3066.5,-187 3069.19,-186.603 3071.92,-186.171 3074.68,-185.71"/>
<polygon fill="midnightblue" stroke="midnightblue" points="2479.41,-231.328 2469.54,-235.177 2479.65,-238.323 2479.41,-231.328"/>
</g>
<!-- Node48 -->
<g id="node22" class="node"><title>Node48</title>
<g id="a_node22"><a xlink:href="_o_s_c_merge_8h.html" target="_top" xlink:title="OSC I/O management.">
<polygon fill="white" stroke="black" points="3256,-151 3256,-181 3427,-181 3427,-151 3256,-151"/>
<text text-anchor="start" x="3264" y="-169" font-family="Helvetica,sans-Serif" font-size="10.00">D:/Prog/Github/Befaco</text>
<text text-anchor="middle" x="3341.5" y="-158" font-family="Helvetica,sans-Serif" font-size="10.00">/VCMC/FirmwareTeen/OSCMerge.h</text>
</a>
</g>
</g>
<!-- Node27&#45;&gt;Node48 -->
<g id="edge24" class="edge"><title>Node27&#45;&gt;Node48</title>
<path fill="none" stroke="midnightblue" d="M2479.95,-236.625C2639.03,-234.111 2970.2,-224.404 3247.5,-187 3258.83,-185.472 3270.82,-183.33 3282.32,-181.012"/>
<polygon fill="midnightblue" stroke="midnightblue" points="2479.67,-233.128 2469.72,-236.78 2479.77,-240.128 2479.67,-233.128"/>
</g>
<!-- Node49 -->
<g id="node23" class="node"><title>Node49</title>
<g id="a_node23"><a xlink:href="_o_s_c_merge_8ino.html" target="_top" xlink:title="OSC I/O management functions.">
<polygon fill="white" stroke="black" points="3445,-151 3445,-181 3624,-181 3624,-151 3445,-151"/>
<text text-anchor="start" x="3453" y="-169" font-family="Helvetica,sans-Serif" font-size="10.00">D:/Prog/Github/Befaco</text>
<text text-anchor="middle" x="3534.5" y="-158" font-family="Helvetica,sans-Serif" font-size="10.00">/VCMC/FirmwareTeen/OSCMerge.ino</text>
</a>
</g>
</g>
<!-- Node27&#45;&gt;Node49 -->
<g id="edge25" class="edge"><title>Node27&#45;&gt;Node49</title>
<path fill="none" stroke="midnightblue" d="M2479.87,-237.8C2664.39,-237.319 3085.6,-230.973 3436.5,-187 3448.39,-185.51 3460.99,-183.371 3473.05,-181.04"/>
<polygon fill="midnightblue" stroke="midnightblue" points="2479.65,-234.3 2469.66,-237.821 2479.67,-241.3 2479.65,-234.3"/>
</g>
<!-- Node50 -->
<g id="node24" class="node"><title>Node50</title>
<g id="a_node24"><a xlink:href="_save_load_8ino.html" target="_top" xlink:title="Configuration for Save/Load support.">
<polygon fill="white" stroke="black" points="3642,-151 3642,-181 3815,-181 3815,-151 3642,-151"/>
<text text-anchor="start" x="3650" y="-169" font-family="Helvetica,sans-Serif" font-size="10.00">D:/Prog/Github/Befaco</text>
<text text-anchor="middle" x="3728.5" y="-158" font-family="Helvetica,sans-Serif" font-size="10.00">/VCMC/FirmwareTeen/SaveLoad.ino</text>
</a>
</g>
</g>
<!-- Node27&#45;&gt;Node50 -->
<g id="edge26" class="edge"><title>Node27&#45;&gt;Node50</title>
<path fill="none" stroke="midnightblue" d="M2479.77,-235.726C2730.62,-230.68 3410.52,-214.786 3633.5,-187 3645.21,-185.541 3657.62,-183.385 3669.47,-181.021"/>
<polygon fill="midnightblue" stroke="midnightblue" points="2479.51,-232.231 2469.59,-235.93 2479.65,-239.229 2479.51,-232.231"/>
</g>
<!-- Node51 -->
<g id="node25" class="node"><title>Node51</title>
<g id="a_node25"><a xlink:href="set_values_8ino.html" target="_top" xlink:title="Definiton and support for pre defined set of configuration values.">
<polygon fill="white" stroke="black" points="3833.5,-151 3833.5,-181 4007.5,-181 4007.5,-151 3833.5,-151"/>
<text text-anchor="start" x="3841.5" y="-169" font-family="Helvetica,sans-Serif" font-size="10.00">D:/Prog/Github/Befaco</text>
<text text-anchor="middle" x="3920.5" y="-158" font-family="Helvetica,sans-Serif" font-size="10.00">/VCMC/FirmwareTeen/setValues.ino</text>
</a>
</g>
</g>
<!-- Node27&#45;&gt;Node51 -->
<g id="edge27" class="edge"><title>Node27&#45;&gt;Node51</title>
<path fill="none" stroke="midnightblue" d="M2479.89,-236.287C2756.64,-232.398 3562.96,-218.599 3824.5,-187 3836.42,-185.56 3849.05,-183.397 3861.1,-181.017"/>
<polygon fill="midnightblue" stroke="midnightblue" points="2479.83,-232.788 2469.88,-236.427 2479.92,-239.787 2479.83,-232.788"/>
</g>
<!-- Node52 -->
<g id="node26" class="node"><title>Node52</title>
<g id="a_node26"><a xlink:href="_sys_ex_config_port_8ino.html" target="_top" xlink:title="SysEx Send/Receive support for configuration classes.">
<polygon fill="white" stroke="black" points="4026,-145.5 4026,-186.5 4197,-186.5 4197,-145.5 4026,-145.5"/>
<text text-anchor="start" x="4034" y="-174.5" font-family="Helvetica,sans-Serif" font-size="10.00">D:/Prog/Github/Befaco</text>
<text text-anchor="start" x="4034" y="-163.5" font-family="Helvetica,sans-Serif" font-size="10.00">/VCMC/FirmwareTeen/SysExConfig</text>
<text text-anchor="middle" x="4111.5" y="-152.5" font-family="Helvetica,sans-Serif" font-size="10.00">Port.ino</text>
</a>
</g>
</g>
<!-- Node27&#45;&gt;Node52 -->
<g id="edge28" class="edge"><title>Node27&#45;&gt;Node52</title>
<path fill="none" stroke="midnightblue" d="M2479.95,-236.767C2781.04,-234.084 3716.01,-222.996 4016.5,-187 4019.6,-186.629 4022.74,-186.207 4025.91,-185.744"/>
<polygon fill="midnightblue" stroke="midnightblue" points="2479.48,-233.271 2469.51,-236.859 2479.54,-240.27 2479.48,-233.271"/>
</g>
<!-- Node53 -->
<g id="node27" class="node"><title>Node53</title>
<g id="a_node27"><a xlink:href="_sys_ex_send_rec_8ino.html" target="_top" xlink:title="SysEx Send/Receive support.">
<polygon fill="white" stroke="black" points="4215,-145.5 4215,-186.5 4382,-186.5 4382,-145.5 4215,-145.5"/>
<text text-anchor="start" x="4223" y="-174.5" font-family="Helvetica,sans-Serif" font-size="10.00">D:/Prog/Github/Befaco</text>
<text text-anchor="start" x="4223" y="-163.5" font-family="Helvetica,sans-Serif" font-size="10.00">/VCMC/FirmwareTeen/SysExSend</text>
<text text-anchor="middle" x="4298.5" y="-152.5" font-family="Helvetica,sans-Serif" font-size="10.00">Rec.ino</text>
</a>
</g>
</g>
<!-- Node27&#45;&gt;Node53 -->
<g id="edge29" class="edge"><title>Node27&#45;&gt;Node53</title>
<path fill="none" stroke="midnightblue" d="M2480.01,-237.204C2803.86,-235.826 3867.38,-228.198 4206.5,-187 4209.26,-186.665 4212.06,-186.286 4214.88,-185.871"/>
<polygon fill="midnightblue" stroke="midnightblue" points="2479.71,-233.705 2469.73,-237.247 2479.74,-240.705 2479.71,-233.705"/>
</g>
<!-- Node54 -->
<g id="node28" class="node"><title>Node54</title>
<g id="a_node28"><a xlink:href="_v_c_m_c_app_8ino.html" target="_top" xlink:title="Main App functions and interrupt handling.">
<polygon fill="white" stroke="black" points="4400.5,-151 4400.5,-181 4576.5,-181 4576.5,-151 4400.5,-151"/>
<text text-anchor="start" x="4408.5" y="-169" font-family="Helvetica,sans-Serif" font-size="10.00">D:/Prog/Github/Befaco</text>
<text text-anchor="middle" x="4488.5" y="-158" font-family="Helvetica,sans-Serif" font-size="10.00">/VCMC/FirmwareTeen/VCMCApp.ino</text>
</a>
</g>
</g>
<!-- Node27&#45;&gt;Node54 -->
<g id="edge30" class="edge"><title>Node27&#45;&gt;Node54</title>
<path fill="none" stroke="midnightblue" d="M2479.83,-237.354C2824.34,-236.475 4014.17,-230.3 4391.5,-187 4403.71,-185.598 4416.67,-183.42 4429.01,-181.007"/>
<polygon fill="midnightblue" stroke="midnightblue" points="2479.63,-233.855 2469.64,-237.379 2479.64,-240.855 2479.63,-233.855"/>
</g>
<!-- Node55 -->
<g id="node29" class="node"><title>Node55</title>
<g id="a_node29"><a xlink:href="_v_c_m_c_app_init_8ino.html" target="_top" xlink:title="Define the functions for App initialisation.">
<polygon fill="white" stroke="black" points="4595,-151 4595,-181 4784,-181 4784,-151 4595,-151"/>
<text text-anchor="start" x="4603" y="-169" font-family="Helvetica,sans-Serif" font-size="10.00">D:/Prog/Github/Befaco</text>
<text text-anchor="middle" x="4689.5" y="-158" font-family="Helvetica,sans-Serif" font-size="10.00">/VCMC/FirmwareTeen/VCMCAppInit.ino</text>
</a>
</g>
</g>
<!-- Node27&#45;&gt;Node55 -->
<g id="edge31" class="edge"><title>Node27&#45;&gt;Node55</title>
<path fill="none" stroke="midnightblue" d="M2479.6,-237.433C2844.68,-236.85 4167.86,-231.635 4585.5,-187 4598.57,-185.603 4612.45,-183.426 4625.68,-181.014"/>
<polygon fill="midnightblue" stroke="midnightblue" points="2479.59,-233.933 2469.59,-237.449 2479.6,-240.933 2479.59,-233.933"/>
</g>
<!-- Node30 -->
<g id="node4" class="node"><title>Node30</title>
<g id="a_node4"><a xlink:href="_prj_includes_8h.html" target="_top" xlink:title="Includes for the project come here.">
<polygon fill="white" stroke="black" points="225,-73 225,-103 396,-103 396,-73 225,-73"/>
<text text-anchor="start" x="233" y="-91" font-family="Helvetica,sans-Serif" font-size="10.00">D:/Prog/Github/Befaco</text>
<text text-anchor="middle" x="310.5" y="-80" font-family="Helvetica,sans-Serif" font-size="10.00">/VCMC/FirmwareTeen/PrjIncludes.h</text>
</a>
</g>
</g>
<!-- Node29&#45;&gt;Node30 -->
<g id="edge3" class="edge"><title>Node29&#45;&gt;Node30</title>
<path fill="none" stroke="midnightblue" d="M310.5,-140.59C310.5,-128.257 310.5,-113.724 310.5,-103.231"/>
<polygon fill="midnightblue" stroke="midnightblue" points="307,-140.705 310.5,-150.705 314,-140.705 307,-140.705"/>
</g>
<!-- Node30&#45;&gt;Node27 -->
<g id="edge4" class="edge"><title>Node30&#45;&gt;Node27</title>
<path fill="none" stroke="midnightblue" d="M258.98,-107.537C242.415,-116.228 225.923,-128.417 216.5,-145 207.278,-161.229 203.455,-173.648 216.5,-187 253.578,-224.951 1906.46,-235.22 2301.4,-237.134"/>
<polygon fill="midnightblue" stroke="midnightblue" points="260.695,-110.594 268.147,-103.062 257.625,-104.304 260.695,-110.594"/>
</g>
<!-- Node31 -->
<g id="node5" class="node"><title>Node31</title>
<g id="a_node5"><a xlink:href="_cfg_classes_8ino.html" target="_top" xlink:title="Defines Configuration classes functions.">
<polygon fill="white" stroke="black" points="220.5,-0.5 220.5,-30.5 400.5,-30.5 400.5,-0.5 220.5,-0.5"/>
<text text-anchor="start" x="228.5" y="-18.5" font-family="Helvetica,sans-Serif" font-size="10.00">D:/Prog/Github/Befaco</text>
<text text-anchor="middle" x="310.5" y="-7.5" font-family="Helvetica,sans-Serif" font-size="10.00">/VCMC/FirmwareTeen/CfgClasses.ino</text>
</a>
</g>
</g>
<!-- Node30&#45;&gt;Node31 -->
<g id="edge5" class="edge"><title>Node30&#45;&gt;Node31</title>
<path fill="none" stroke="midnightblue" d="M310.5,-62.7317C310.5,-52.0679 310.5,-39.9145 310.5,-30.7455"/>
<polygon fill="midnightblue" stroke="midnightblue" points="307,-62.7332 310.5,-72.7333 314,-62.7333 307,-62.7332"/>
</g>
<!-- Node32&#45;&gt;Node30 -->
<g id="edge7" class="edge"><title>Node32&#45;&gt;Node30</title>
<path fill="none" stroke="midnightblue" d="M453.325,-147.046C420.222,-133.593 375.562,-115.442 345.049,-103.041"/>
<polygon fill="midnightblue" stroke="midnightblue" points="452.183,-150.36 462.765,-150.883 454.819,-143.875 452.183,-150.36"/>
</g>
<!-- Node32&#45;&gt;Node33 -->
<g id="edge8" class="edge"><title>Node32&#45;&gt;Node33</title>
<path fill="none" stroke="midnightblue" d="M564.794,-148.999C573.405,-147.403 582.132,-146.005 590.5,-145 986.005,-97.5204 2250.44,-90.2733 2576.96,-89.1876"/>
<polygon fill="midnightblue" stroke="midnightblue" points="563.915,-145.605 554.768,-150.951 565.252,-152.476 563.915,-145.605"/>
</g>
</g>
</svg>
        <g id="navigator" transform="translate(0 0)" fill="#404254">
                <rect fill="#f2f5e9" fill-opacity="0.5" stroke="#606060" stroke-width=".5" x="0" y="0" width="60" height="60"/>
                <use id="zoomplus" xlink:href="#zoomPlus" x="17" y="9" onmousedown="handleZoom(evt,'in')"/>
                <use id="zoomminus" xlink:href="#zoomMin" x="42" y="9" onmousedown="handleZoom(evt,'out')"/>
                <use id="reset" xlink:href="#resetDef" x="30" y="36" onmousedown="handleReset()"/>
                <g id="arrowUp" xlink:href="#dirArrow" transform="translate(30 24)" onmousedown="handlePan(0,-1)">
                  <use xlink:href="#rim" fill="#404040">
                        <set attributeName="fill" to="#808080" begin="arrowUp.mouseover" end="arrowUp.mouseout"/>
                  </use>
                  <path fill="none" stroke="white" stroke-width="1.5" d="M0,-3.0v7 M-2.5,-0.5L0,-3.0L2.5,-0.5"/>
                </g>
                <g id="arrowRight" xlink:href="#dirArrow" transform="rotate(90) translate(36 -43)" onmousedown="handlePan(1,0)">
                  <use xlink:href="#rim" fill="#404040">
                        <set attributeName="fill" to="#808080" begin="arrowRight.mouseover" end="arrowRight.mouseout"/>
                  </use>
                  <path fill="none" stroke="white" stroke-width="1.5" d="M0,-3.0v7 M-2.5,-0.5L0,-3.0L2.5,-0.5"/>
                </g>
                <g id="arrowDown" xlink:href="#dirArrow" transform="rotate(180) translate(-30 -48)" onmousedown="handlePan(0,1)">
                  <use xlink:href="#rim" fill="#404040">
                        <set attributeName="fill" to="#808080" begin="arrowDown.mouseover" end="arrowDown.mouseout"/>
                  </use>
                  <path fill="none" stroke="white" stroke-width="1.5" d="M0,-3.0v7 M-2.5,-0.5L0,-3.0L2.5,-0.5"/>
                </g>
                <g id="arrowLeft" xlink:href="#dirArrow" transform="rotate(270) translate(-36 17)" onmousedown="handlePan(-1,0)">
                  <use xlink:href="#rim" fill="#404040">
                        <set attributeName="fill" to="#808080" begin="arrowLeft.mouseover" end="arrowLeft.mouseout"/>
                  </use>
                  <path fill="none" stroke="white" stroke-width="1.5" d="M0,-3.0v7 M-2.5,-0.5L0,-3.0L2.5,-0.5"/>
                </g>
        </g>
        <svg viewBox="0 0 15 15" width="100%" height="30px" preserveAspectRatio="xMaxYMin meet">
         <g id="arrow_out" transform="scale(0.3 0.3)">
          <a xlink:href="_definitions_8h__dep__incl_org.svg" target="_base">
           <rect id="button" ry="5" rx="5" y="6" x="6" height="38" width="38"
                fill="#f2f5e9" fill-opacity="0.5" stroke="#606060" stroke-width="1.0"/>
           <path id="arrow"
             d="M 11.500037,31.436501 C 11.940474,20.09759 22.043105,11.32322 32.158766,21.979434 L 37.068811,17.246167 C 37.068811,17.246167 37.088388,32 37.088388,32 L 22.160133,31.978069 C 22.160133,31.978069 26.997745,27.140456 26.997745,27.140456 C 18.528582,18.264221 13.291696,25.230495 11.500037,31.436501 z"
             style="fill:#404040;"/>
          </a>
         </g>
        </svg>
</svg>
