<?xml version="1.0" encoding="UTF-8" standalone="no"?>
<!DOCTYPE svg PUBLIC "-//W3C//DTD SVG 1.1//EN"
 "http://www.w3.org/Graphics/SVG/1.1/DTD/svg11.dtd">
<!-- Generated by graphviz version 2.38.0 (20140413.2041)
 -->
<!-- Title: D:/Prog/Github/Befaco/VCMC/FirmwareTeen/FirmwareTeen.ino Pages: 1 -->
<svg width="2115pt" height="274pt"
 viewBox="0.00 0.00 2114.50 274.00" xmlns="http://www.w3.org/2000/svg" xmlns:xlink="http://www.w3.org/1999/xlink">
<g id="graph0" class="graph" transform="scale(1 1) rotate(0) translate(4 270)">
<title>D:/Prog/Github/Befaco/VCMC/FirmwareTeen/FirmwareTeen.ino</title>
<polygon fill="white" stroke="none" points="-4,4 -4,-270 2110.5,-270 2110.5,4 -4,4"/>
<!-- Node0 -->
<g id="node1" class="node"><title>Node0</title>
<g id="a_node1"><a xlink:title="Project main loop.">
<polygon fill="#bfbfbf" stroke="black" points="1518,-224.5 1518,-265.5 1673,-265.5 1673,-224.5 1518,-224.5"/>
<text text-anchor="start" x="1526" y="-253.5" font-family="Helvetica,sans-Serif" font-size="10.00">D:/Prog/Github/Befaco</text>
<text text-anchor="start" x="1526" y="-242.5" font-family="Helvetica,sans-Serif" font-size="10.00">/VCMC/FirmwareTeen/Firmware</text>
<text text-anchor="middle" x="1595.5" y="-231.5" font-family="Helvetica,sans-Serif" font-size="10.00">Teen.ino</text>
</a>
</g>
</g>
<!-- Node1 -->
<g id="node2" class="node"><title>Node1</title>
<g id="a_node2"><a xlink:href="_definitions_8h.html" target="_top" xlink:title="Definitions and configuration flags.">
<polygon fill="white" stroke="black" points="1167.5,-168.5 1167.5,-187.5 1237.5,-187.5 1237.5,-168.5 1167.5,-168.5"/>
<text text-anchor="middle" x="1202.5" y="-175.5" font-family="Helvetica,sans-Serif" font-size="10.00">Definitions.h</text>
</a>
</g>
</g>
<!-- Node0&#45;&gt;Node1 -->
<g id="edge1" class="edge"><title>Node0&#45;&gt;Node1</title>
<path fill="none" stroke="midnightblue" d="M1517.86,-231.158C1437.17,-217.813 1313.65,-197.384 1247.7,-186.476"/>
<polygon fill="midnightblue" stroke="midnightblue" points="1248.06,-182.988 1237.62,-184.809 1246.92,-189.894 1248.06,-182.988"/>
</g>
<!-- Node26 -->
<g id="node27" class="node"><title>Node26</title>
<g id="a_node27"><a xlink:href="_menu_lists_8h.html" target="_top" xlink:title="Predefine Menu functions callbacks and menu items.">
<polygon fill="white" stroke="black" points="2036.5,-56.5 2036.5,-75.5 2106.5,-75.5 2106.5,-56.5 2036.5,-56.5"/>
<text text-anchor="middle" x="2071.5" y="-63.5" font-family="Helvetica,sans-Serif" font-size="10.00">MenuLists.h</text>
</a>
</g>
</g>
<!-- Node0&#45;&gt;Node26 -->
<g id="edge30" class="edge"><title>Node0&#45;&gt;Node26</title>
<path fill="none" stroke="midnightblue" d="M1648.26,-224.382C1747.15,-187.611 1957.69,-109.322 2038.74,-79.18"/>
<polygon fill="midnightblue" stroke="midnightblue" points="2040.26,-82.3497 2048.42,-75.5838 2037.82,-75.7886 2040.26,-82.3497"/>
</g>
<!-- Node2 -->
<g id="node3" class="node"><title>Node2</title>
<g id="a_node3"><a xlink:href="_prj_includes_8h.html" target="_top" xlink:title="Includes for the project come here.">
<polygon fill="white" stroke="black" points="1020,-112.5 1020,-131.5 1093,-131.5 1093,-112.5 1020,-112.5"/>
<text text-anchor="middle" x="1056.5" y="-119.5" font-family="Helvetica,sans-Serif" font-size="10.00">PrjIncludes.h</text>
</a>
</g>
</g>
<!-- Node1&#45;&gt;Node2 -->
<g id="edge2" class="edge"><title>Node1&#45;&gt;Node2</title>
<path fill="none" stroke="midnightblue" d="M1179.37,-168.444C1155.02,-159.438 1116.49,-145.189 1089.08,-135.049"/>
<polygon fill="midnightblue" stroke="midnightblue" points="1090.12,-131.703 1079.53,-131.516 1087.69,-138.268 1090.12,-131.703"/>
</g>
<!-- Node3 -->
<g id="node4" class="node"><title>Node3</title>
<g id="a_node4"><a xlink:title=" ">
<polygon fill="white" stroke="#bfbfbf" points="1936.5,-56.5 1936.5,-75.5 2018.5,-75.5 2018.5,-56.5 1936.5,-56.5"/>
<text text-anchor="middle" x="1977.5" y="-63.5" font-family="Helvetica,sans-Serif" font-size="10.00">Adafruit_GFX.h</text>
</a>
</g>
</g>
<!-- Node2&#45;&gt;Node3 -->
<g id="edge3" class="edge"><title>Node2&#45;&gt;Node3</title>
<path fill="none" stroke="midnightblue" d="M1093.02,-119.73C1233.85,-114.741 1742.49,-95.8299 1926.29,-75.9585"/>
<polygon fill="midnightblue" stroke="midnightblue" points="1926.81,-79.4219 1936.36,-74.8306 1926.03,-72.4654 1926.81,-79.4219"/>
</g>
<!-- Node4 -->
<g id="node5" class="node"><title>Node4</title>
<g id="a_node5"><a xlink:title=" ">
<polygon fill="white" stroke="#bfbfbf" points="89.5,-56.5 89.5,-75.5 193.5,-75.5 193.5,-56.5 89.5,-56.5"/>
<text text-anchor="middle" x="141.5" y="-63.5" font-family="Helvetica,sans-Serif" font-size="10.00">Adafruit_SSD1306.h</text>
</a>
</g>
</g>
<!-- Node2&#45;&gt;Node4 -->
<g id="edge4" class="edge"><title>Node2&#45;&gt;Node4</title>
<path fill="none" stroke="midnightblue" d="M1019.78,-120.296C902.425,-117.787 525.745,-107.717 203.695,-76.0232"/>
<polygon fill="midnightblue" stroke="midnightblue" points="204,-72.5364 193.703,-75.0311 203.309,-79.5021 204,-72.5364"/>
</g>
<!-- Node5 -->
<g id="node6" class="node"><title>Node5</title>
<g id="a_node6"><a xlink:title=" ">
<polygon fill="white" stroke="#bfbfbf" points="212,-56.5 212,-75.5 253,-75.5 253,-56.5 212,-56.5"/>
<text text-anchor="middle" x="232.5" y="-63.5" font-family="Helvetica,sans-Serif" font-size="10.00">SPI.h</text>
</a>
</g>
</g>
<!-- Node2&#45;&gt;Node5 -->
<g id="edge5" class="edge"><title>Node2&#45;&gt;Node5</title>
<path fill="none" stroke="midnightblue" d="M1019.89,-120.115C886.974,-116.719 429.425,-103.412 263.303,-75.8579"/>
<polygon fill="midnightblue" stroke="midnightblue" points="263.71,-72.3762 253.258,-74.1084 262.509,-79.2724 263.71,-72.3762"/>
</g>
<!-- Node6 -->
<g id="node7" class="node"><title>Node6</title>
<g id="a_node7"><a xlink:title=" ">
<polygon fill="white" stroke="#bfbfbf" points="271,-56.5 271,-75.5 316,-75.5 316,-56.5 271,-56.5"/>
<text text-anchor="middle" x="293.5" y="-63.5" font-family="Helvetica,sans-Serif" font-size="10.00">Wire.h</text>
</a>
</g>
</g>
<!-- Node2&#45;&gt;Node6 -->
<g id="edge6" class="edge"><title>Node2&#45;&gt;Node6</title>
<path fill="none" stroke="midnightblue" d="M1019.68,-121.484C913.324,-122.3 596.623,-120.643 326.098,-75.682"/>
<polygon fill="midnightblue" stroke="midnightblue" points="326.533,-72.2061 316.09,-73.9953 325.369,-79.1087 326.533,-72.2061"/>
</g>
<!-- Node7 -->
<g id="node8" class="node"><title>Node7</title>
<g id="a_node8"><a xlink:title=" ">
<polygon fill="white" stroke="#bfbfbf" points="334.5,-56.5 334.5,-75.5 382.5,-75.5 382.5,-56.5 334.5,-56.5"/>
<text text-anchor="middle" x="358.5" y="-63.5" font-family="Helvetica,sans-Serif" font-size="10.00">limits.h</text>
</a>
</g>
</g>
<!-- Node2&#45;&gt;Node7 -->
<g id="edge7" class="edge"><title>Node2&#45;&gt;Node7</title>
<path fill="none" stroke="midnightblue" d="M1019.8,-121.063C920.19,-120.696 636.459,-116.068 392.643,-75.8394"/>
<polygon fill="midnightblue" stroke="midnightblue" points="392.968,-72.3452 382.527,-74.1459 391.812,-79.2491 392.968,-72.3452"/>
</g>
<!-- Node8 -->
<g id="node9" class="node"><title>Node8</title>
<g id="a_node9"><a xlink:title=" ">
<polygon fill="white" stroke="#bfbfbf" points="400.5,-56.5 400.5,-75.5 444.5,-75.5 444.5,-56.5 400.5,-56.5"/>
<text text-anchor="middle" x="422.5" y="-63.5" font-family="Helvetica,sans-Serif" font-size="10.00">MIDI.h</text>
</a>
</g>
</g>
<!-- Node2&#45;&gt;Node8 -->
<g id="edge8" class="edge"><title>Node2&#45;&gt;Node8</title>
<path fill="none" stroke="midnightblue" d="M1019.8,-120.907C926.622,-120.109 673.367,-114.437 454.773,-75.8535"/>
<polygon fill="midnightblue" stroke="midnightblue" points="455.18,-72.3707 444.719,-74.051 453.945,-79.2609 455.18,-72.3707"/>
</g>
<!-- Node9 -->
<g id="node10" class="node"><title>Node9</title>
<g id="a_node10"><a xlink:title=" ">
<polygon fill="white" stroke="#bfbfbf" points="462.5,-56.5 462.5,-75.5 530.5,-75.5 530.5,-56.5 462.5,-56.5"/>
<text text-anchor="middle" x="496.5" y="-63.5" font-family="Helvetica,sans-Serif" font-size="10.00">EEPROM.h</text>
</a>
</g>
</g>
<!-- Node2&#45;&gt;Node9 -->
<g id="edge9" class="edge"><title>Node2&#45;&gt;Node9</title>
<path fill="none" stroke="midnightblue" d="M1019.97,-119.324C936.685,-115.18 726.224,-102.891 540.638,-76.0006"/>
<polygon fill="midnightblue" stroke="midnightblue" points="541.103,-72.5314 530.701,-74.5431 540.088,-79.4573 541.103,-72.5314"/>
</g>
<!-- Node10 -->
<g id="node11" class="node"><title>Node10</title>
<g id="a_node11"><a xlink:title=" ">
<polygon fill="white" stroke="#bfbfbf" points="549,-56.5 549,-75.5 612,-75.5 612,-56.5 549,-56.5"/>
<text text-anchor="middle" x="580.5" y="-63.5" font-family="Helvetica,sans-Serif" font-size="10.00">Bounce2.h</text>
</a>
</g>
</g>
<!-- Node2&#45;&gt;Node10 -->
<g id="edge10" class="edge"><title>Node2&#45;&gt;Node10</title>
<path fill="none" stroke="midnightblue" d="M1019.85,-118.69C946.236,-113.734 775.07,-100.618 622.342,-76.143"/>
<polygon fill="midnightblue" stroke="midnightblue" points="622.742,-72.6621 612.31,-74.5144 621.62,-79.5716 622.742,-72.6621"/>
</g>
<!-- Node11 -->
<g id="node12" class="node"><title>Node11</title>
<g id="a_node12"><a xlink:title=" ">
<polygon fill="white" stroke="#bfbfbf" points="630,-56.5 630,-75.5 713,-75.5 713,-56.5 630,-56.5"/>
<text text-anchor="middle" x="671.5" y="-63.5" font-family="Helvetica,sans-Serif" font-size="10.00">ClickEncoder.h</text>
</a>
</g>
</g>
<!-- Node2&#45;&gt;Node11 -->
<g id="edge11" class="edge"><title>Node2&#45;&gt;Node11</title>
<path fill="none" stroke="midnightblue" d="M1019.74,-116.606C959.749,-109.317 836.835,-93.8896 723.135,-76.2047"/>
<polygon fill="midnightblue" stroke="midnightblue" points="723.639,-72.7411 713.218,-74.6528 722.557,-79.657 723.639,-72.7411"/>
</g>
<!-- Node12 -->
<g id="node13" class="node"><title>Node12</title>
<g id="a_node13"><a xlink:title=" ">
<polygon fill="white" stroke="#bfbfbf" points="731,-56.5 731,-75.5 776,-75.5 776,-56.5 731,-56.5"/>
<text text-anchor="middle" x="753.5" y="-63.5" font-family="Helvetica,sans-Serif" font-size="10.00">ADC.h</text>
</a>
</g>
</g>
<!-- Node2&#45;&gt;Node12 -->
<g id="edge12" class="edge"><title>Node2&#45;&gt;Node12</title>
<path fill="none" stroke="midnightblue" d="M1019.72,-116.325C969.085,-109.584 874.937,-95.9483 786.075,-76.1513"/>
<polygon fill="midnightblue" stroke="midnightblue" points="786.632,-72.689 776.106,-73.899 785.089,-79.5169 786.632,-72.689"/>
</g>
<!-- Node13 -->
<g id="node14" class="node"><title>Node13</title>
<g id="a_node14"><a xlink:title=" ">
<polygon fill="white" stroke="#bfbfbf" points="794,-56.5 794,-75.5 921,-75.5 921,-56.5 794,-56.5"/>
<text text-anchor="middle" x="857.5" y="-63.5" font-family="Helvetica,sans-Serif" font-size="10.00">ResponsiveAnalogRead.h</text>
</a>
</g>
</g>
<!-- Node2&#45;&gt;Node13 -->
<g id="edge13" class="edge"><title>Node2&#45;&gt;Node13</title>
<path fill="none" stroke="midnightblue" d="M1024.97,-112.444C990.908,-103.201 936.494,-88.4356 898.985,-78.2572"/>
<polygon fill="midnightblue" stroke="midnightblue" points="899.452,-74.7575 888.885,-75.5164 897.619,-81.5132 899.452,-74.7575"/>
</g>
<!-- Node14 -->
<g id="node15" class="node"><title>Node14</title>
<g id="a_node15"><a xlink:href="_blinker_8h.html" target="_top" xlink:title="Class helper to blink led.">
<polygon fill="white" stroke="black" points="939,-56.5 939,-75.5 994,-75.5 994,-56.5 939,-56.5"/>
<text text-anchor="middle" x="966.5" y="-63.5" font-family="Helvetica,sans-Serif" font-size="10.00">Blinker.h</text>
</a>
</g>
</g>
<!-- Node2&#45;&gt;Node14 -->
<g id="edge14" class="edge"><title>Node2&#45;&gt;Node14</title>
<path fill="none" stroke="midnightblue" d="M1042.04,-112.324C1028,-103.9 1006.45,-90.9709 989.957,-81.0741"/>
<polygon fill="midnightblue" stroke="midnightblue" points="991.3,-77.7983 980.924,-75.6545 987.698,-83.8007 991.3,-77.7983"/>
</g>
<!-- Node15 -->
<g id="node16" class="node"><title>Node15</title>
<g id="a_node16"><a xlink:href="_multi_point_conv_8h.html" target="_top" xlink:title="Helper class for MIDI to DAC conversions.">
<polygon fill="white" stroke="black" points="1012,-56.5 1012,-75.5 1101,-75.5 1101,-56.5 1012,-56.5"/>
<text text-anchor="middle" x="1056.5" y="-63.5" font-family="Helvetica,sans-Serif" font-size="10.00">MultiPointConv.h</text>
</a>
</g>
</g>
<!-- Node2&#45;&gt;Node15 -->
<g id="edge15" class="edge"><title>Node2&#45;&gt;Node15</title>
<path fill="none" stroke="midnightblue" d="M1056.5,-112.083C1056.5,-105.006 1056.5,-94.8611 1056.5,-85.9865"/>
<polygon fill="midnightblue" stroke="midnightblue" points="1060,-85.751 1056.5,-75.7511 1053,-85.7511 1060,-85.751"/>
</g>
<!-- Node16 -->
<g id="node17" class="node"><title>Node16</title>
<g id="a_node17"><a xlink:href="_sys_ex_def_8h.html" target="_top" xlink:title="SysEx structures and definitions.">
<polygon fill="white" stroke="black" points="1119.5,-56.5 1119.5,-75.5 1187.5,-75.5 1187.5,-56.5 1119.5,-56.5"/>
<text text-anchor="middle" x="1153.5" y="-63.5" font-family="Helvetica,sans-Serif" font-size="10.00">SysExDef.h</text>
</a>
</g>
</g>
<!-- Node2&#45;&gt;Node16 -->
<g id="edge16" class="edge"><title>Node2&#45;&gt;Node16</title>
<path fill="none" stroke="midnightblue" d="M1072.08,-112.324C1087.5,-103.743 1111.31,-90.486 1129.21,-80.5224"/>
<polygon fill="midnightblue" stroke="midnightblue" points="1130.92,-83.5767 1137.95,-75.6545 1127.51,-77.4606 1130.92,-83.5767"/>
</g>
<!-- Node17 -->
<g id="node18" class="node"><title>Node17</title>
<g id="a_node18"><a xlink:href="_menu_class_8h.html" target="_top" xlink:title="Defines Base Menu class.">
<polygon fill="white" stroke="black" points="1205.5,-56.5 1205.5,-75.5 1279.5,-75.5 1279.5,-56.5 1205.5,-56.5"/>
<text text-anchor="middle" x="1242.5" y="-63.5" font-family="Helvetica,sans-Serif" font-size="10.00">MenuClass.h</text>
</a>
</g>
</g>
<!-- Node2&#45;&gt;Node17 -->
<g id="edge17" class="edge"><title>Node2&#45;&gt;Node17</title>
<path fill="none" stroke="midnightblue" d="M1085.97,-112.444C1117.67,-103.241 1168.23,-88.5617 1203.27,-78.3879"/>
<polygon fill="midnightblue" stroke="midnightblue" points="1204.54,-81.6658 1213.17,-75.5164 1202.59,-74.9434 1204.54,-81.6658"/>
</g>
<!-- Node19 -->
<g id="node20" class="node"><title>Node19</title>
<g id="a_node20"><a xlink:href="_o_l_e_d_menu_8h.html" target="_top" xlink:title="Defines Menu class for OLED screen.">
<polygon fill="white" stroke="black" points="1298,-56.5 1298,-75.5 1373,-75.5 1373,-56.5 1298,-56.5"/>
<text text-anchor="middle" x="1335.5" y="-63.5" font-family="Helvetica,sans-Serif" font-size="10.00">OLEDMenu.h</text>
</a>
</g>
</g>
<!-- Node2&#45;&gt;Node19 -->
<g id="edge19" class="edge"><title>Node2&#45;&gt;Node19</title>
<path fill="none" stroke="midnightblue" d="M1093.26,-113.885C1143.27,-104.206 1232.81,-86.8763 1287.9,-76.2137"/>
<polygon fill="midnightblue" stroke="midnightblue" points="1288.61,-79.6402 1297.76,-74.3036 1287.28,-72.7677 1288.61,-79.6402"/>
</g>
<!-- Node20 -->
<g id="node21" class="node"><title>Node20</title>
<g id="a_node21"><a xlink:href="_cfg_classes_8h.html" target="_top" xlink:title="Definition of enums and classes for Input configuration.">
<polygon fill="white" stroke="black" points="1391.5,-56.5 1391.5,-75.5 1465.5,-75.5 1465.5,-56.5 1391.5,-56.5"/>
<text text-anchor="middle" x="1428.5" y="-63.5" font-family="Helvetica,sans-Serif" font-size="10.00">CfgClasses.h</text>
</a>
</g>
</g>
<!-- Node2&#45;&gt;Node20 -->
<g id="edge20" class="edge"><title>Node2&#45;&gt;Node20</title>
<path fill="none" stroke="midnightblue" d="M1093.15,-116.552C1151.67,-109.313 1270.04,-94.1128 1381.28,-75.9531"/>
<polygon fill="midnightblue" stroke="midnightblue" points="1382.03,-79.3768 1391.33,-74.3009 1380.9,-72.4695 1382.03,-79.3768"/>
</g>
<!-- Node21 -->
<g id="node22" class="node"><title>Node21</title>
<g id="a_node22"><a xlink:href="_input_port_8h.html" target="_top" xlink:title="Definition for Port classes InputPort, DigitalPort, AnalogPort and DemuxAnalogPort.">
<polygon fill="white" stroke="black" points="1483.5,-56.5 1483.5,-75.5 1547.5,-75.5 1547.5,-56.5 1483.5,-56.5"/>
<text text-anchor="middle" x="1515.5" y="-63.5" font-family="Helvetica,sans-Serif" font-size="10.00">InputPort.h</text>
</a>
</g>
</g>
<!-- Node2&#45;&gt;Node21 -->
<g id="edge21" class="edge"><title>Node2&#45;&gt;Node21</title>
<path fill="none" stroke="midnightblue" d="M1093.02,-118.413C1164.26,-113.077 1326.87,-99.4797 1473.27,-76.0388"/>
<polygon fill="midnightblue" stroke="midnightblue" points="1474.02,-79.4624 1483.33,-74.4074 1472.9,-72.5526 1474.02,-79.4624"/>
</g>
<!-- Node22 -->
<g id="node23" class="node"><title>Node22</title>
<g id="a_node23"><a xlink:href="_input_control_8h.html" target="_top" xlink:title="Definition for class InputControl to aggregate one CV, Fader and Gate inputs.">
<polygon fill="white" stroke="black" points="1566,-56.5 1566,-75.5 1643,-75.5 1643,-56.5 1566,-56.5"/>
<text text-anchor="middle" x="1604.5" y="-63.5" font-family="Helvetica,sans-Serif" font-size="10.00">InputControl.h</text>
</a>
</g>
</g>
<!-- Node2&#45;&gt;Node22 -->
<g id="edge22" class="edge"><title>Node2&#45;&gt;Node22</title>
<path fill="none" stroke="midnightblue" d="M1093.02,-118.913C1174.25,-114.015 1376.16,-100.419 1555.63,-75.9862"/>
<polygon fill="midnightblue" stroke="midnightblue" points="1556.35,-79.4196 1565.78,-74.5888 1555.4,-72.485 1556.35,-79.4196"/>
</g>
<!-- Node23 -->
<g id="node24" class="node"><title>Node23</title>
<g id="a_node24"><a xlink:href="_save_load_8h.html" target="_top" xlink:title="Configuration for Save/Load support.">
<polygon fill="white" stroke="black" points="1661,-56.5 1661,-75.5 1728,-75.5 1728,-56.5 1661,-56.5"/>
<text text-anchor="middle" x="1694.5" y="-63.5" font-family="Helvetica,sans-Serif" font-size="10.00">SaveLoad.h</text>
</a>
</g>
</g>
<!-- Node2&#45;&gt;Node23 -->
<g id="edge23" class="edge"><title>Node2&#45;&gt;Node23</title>
<path fill="none" stroke="midnightblue" d="M1093.24,-119.893C1185.39,-116.761 1433.82,-106.117 1650.79,-75.9015"/>
<polygon fill="midnightblue" stroke="midnightblue" points="1651.36,-79.3562 1660.77,-74.4944 1650.38,-72.4247 1651.36,-79.3562"/>
</g>
<!-- Node24 -->
<g id="node25" class="node"><title>Node24</title>
<g id="a_node25"><a xlink:href="_m_i_d_imerger_8h.html" target="_top" xlink:title="MIDI Input/Output support.">
<polygon fill="white" stroke="black" points="1746.5,-56.5 1746.5,-75.5 1820.5,-75.5 1820.5,-56.5 1746.5,-56.5"/>
<text text-anchor="middle" x="1783.5" y="-63.5" font-family="Helvetica,sans-Serif" font-size="10.00">MIDImerger.h</text>
</a>
</g>
</g>
<!-- Node2&#45;&gt;Node24 -->
<g id="edge24" class="edge"><title>Node2&#45;&gt;Node24</title>
<path fill="none" stroke="midnightblue" d="M1093.14,-120.161C1194,-117.514 1484.32,-107.629 1736.29,-75.834"/>
<polygon fill="midnightblue" stroke="midnightblue" points="1736.89,-79.2858 1746.37,-74.548 1736,-72.3421 1736.89,-79.2858"/>
</g>
<!-- Node25 -->
<g id="node26" class="node"><title>Node25</title>
<g id="a_node26"><a xlink:href="_v_c_m_c_app_8h.html" target="_top" xlink:title="Main App declarations.">
<polygon fill="white" stroke="black" points="0,-56.5 0,-75.5 71,-75.5 71,-56.5 0,-56.5"/>
<text text-anchor="middle" x="35.5" y="-63.5" font-family="Helvetica,sans-Serif" font-size="10.00">VCMCApp.h</text>
</a>
</g>
</g>
<!-- Node2&#45;&gt;Node25 -->
<g id="edge25" class="edge"><title>Node2&#45;&gt;Node25</title>
<path fill="none" stroke="midnightblue" d="M1020,-121.302C892.202,-121.941 453.051,-120.619 81.4277,-75.898"/>
<polygon fill="midnightblue" stroke="midnightblue" points="81.6316,-72.3971 71.2822,-74.6642 80.7865,-79.3459 81.6316,-72.3971"/>
</g>
<!-- Node2&#45;&gt;Node26 -->
<g id="edge27" class="edge"><title>Node2&#45;&gt;Node26</title>
<path fill="none" stroke="midnightblue" d="M1093.27,-119.635C1254.43,-113.609 1895.82,-89.1466 2025.98,-75.8777"/>
<polygon fill="midnightblue" stroke="midnightblue" points="2026.49,-79.3427 2036.04,-74.7467 2025.71,-72.3866 2026.49,-79.3427"/>
</g>
<!-- Node27 -->
<g id="node28" class="node"><title>Node27</title>
<g id="a_node28"><a xlink:href="_par_type_map_8h_source.html" target="_top" xlink:title=" ">
<polygon fill="white" stroke="black" points="1838.5,-56.5 1838.5,-75.5 1918.5,-75.5 1918.5,-56.5 1838.5,-56.5"/>
<text text-anchor="middle" x="1878.5" y="-63.5" font-family="Helvetica,sans-Serif" font-size="10.00">ParTypeMap.h</text>
</a>
</g>
</g>
<!-- Node2&#45;&gt;Node27 -->
<g id="edge29" class="edge"><title>Node2&#45;&gt;Node27</title>
<path fill="none" stroke="midnightblue" d="M1093.38,-119.459C1223.95,-113.911 1664.69,-94.3711 1828.09,-75.9818"/>
<polygon fill="midnightblue" stroke="midnightblue" points="1828.92,-79.4088 1838.45,-74.7724 1828.11,-72.4561 1828.92,-79.4088"/>
</g>
<!-- Node18 -->
<g id="node19" class="node"><title>Node18</title>
<g id="a_node19"><a xlink:title=" ">
<polygon fill="white" stroke="#bfbfbf" points="1213.5,-0.5 1213.5,-19.5 1271.5,-19.5 1271.5,-0.5 1213.5,-0.5"/>
<text text-anchor="middle" x="1242.5" y="-7.5" font-family="Helvetica,sans-Serif" font-size="10.00">Arduino.h</text>
</a>
</g>
</g>
<!-- Node17&#45;&gt;Node18 -->
<g id="edge18" class="edge"><title>Node17&#45;&gt;Node18</title>
<path fill="none" stroke="midnightblue" d="M1242.5,-56.083C1242.5,-49.0059 1242.5,-38.8611 1242.5,-29.9865"/>
<polygon fill="midnightblue" stroke="midnightblue" points="1246,-29.751 1242.5,-19.7511 1239,-29.7511 1246,-29.751"/>
</g>
<!-- Node25&#45;&gt;Node1 -->
<g id="edge26" class="edge"><title>Node25&#45;&gt;Node1</title>
<path fill="none" stroke="midnightblue" d="M71.3012,-74.5215C74.4053,-75.0639 77.5036,-75.5668 80.5,-76 496.366,-136.126 1004.45,-166.468 1157.07,-174.67"/>
<polygon fill="midnightblue" stroke="midnightblue" points="1157.27,-178.185 1167.44,-175.222 1157.64,-171.195 1157.27,-178.185"/>
</g>
<!-- Node26&#45;&gt;Node1 -->
<g id="edge28" class="edge"><title>Node26&#45;&gt;Node1</title>
<path fill="none" stroke="midnightblue" d="M2036.48,-74.4257C2033.45,-74.9888 2030.42,-75.5227 2027.5,-76 1731.71,-124.278 1372.84,-160.7 1247.94,-172.726"/>
<polygon fill="midnightblue" stroke="midnightblue" points="1247.24,-169.277 1237.62,-173.715 1247.91,-176.245 1247.24,-169.277"/>
</g>
</g>
</svg>
