<?xml version="1.0" encoding="UTF-8" standalone="no"?>
<!DOCTYPE svg PUBLIC "-//W3C//DTD SVG 1.1//EN"
 "http://www.w3.org/Graphics/SVG/1.1/DTD/svg11.dtd">
<!-- Generated by graphviz version 2.38.0 (20140413.2041)
 -->
<!-- Title: D:/Prog/Github/Befaco/VCMC/FirmwareTeen/MenuLists.h Pages: 1 -->
<svg width="4739pt" height="251pt"
 viewBox="0.00 0.00 4739.00 251.00" xmlns="http://www.w3.org/2000/svg" xmlns:xlink="http://www.w3.org/1999/xlink">
<g id="graph0" class="graph" transform="scale(1 1) rotate(0) translate(4 247)">
<title>D:/Prog/Github/Befaco/VCMC/FirmwareTeen/MenuLists.h</title>
<polygon fill="white" stroke="none" points="-4,4 -4,-247 4735,-247 4735,4 -4,4"/>
<!-- Node27 -->
<g id="node1" class="node"><title>Node27</title>
<g id="a_node1"><a xlink:title="Predefine Menu functions callbacks and menu items.">
<polygon fill="#bfbfbf" stroke="black" points="2271.5,-212.5 2271.5,-242.5 2439.5,-242.5 2439.5,-212.5 2271.5,-212.5"/>
<text text-anchor="start" x="2279.5" y="-230.5" font-family="Helvetica,sans-Serif" font-size="10.00">D:/Prog/Github/Befaco</text>
<text text-anchor="middle" x="2355.5" y="-219.5" font-family="Helvetica,sans-Serif" font-size="10.00">/VCMC/FirmwareTeen/MenuLists.h</text>
</a>
</g>
</g>
<!-- Node28 -->
<g id="node2" class="node"><title>Node28</title>
<g id="a_node2"><a xlink:href="_prj_includes_8h.html" target="_top" xlink:title="Includes for the project come here.">
<polygon fill="white" stroke="black" points="2384,-145.5 2384,-175.5 2555,-175.5 2555,-145.5 2384,-145.5"/>
<text text-anchor="start" x="2392" y="-163.5" font-family="Helvetica,sans-Serif" font-size="10.00">D:/Prog/Github/Befaco</text>
<text text-anchor="middle" x="2469.5" y="-152.5" font-family="Helvetica,sans-Serif" font-size="10.00">/VCMC/FirmwareTeen/PrjIncludes.h</text>
</a>
</g>
</g>
<!-- Node27&#45;&gt;Node28 -->
<g id="edge1" class="edge"><title>Node27&#45;&gt;Node28</title>
<path fill="none" stroke="midnightblue" d="M2389.18,-207.296C2407.02,-197.125 2428.54,-184.855 2444.81,-175.577"/>
<polygon fill="midnightblue" stroke="midnightblue" points="2387.19,-204.402 2380.24,-212.396 2390.66,-210.483 2387.19,-204.402"/>
</g>
<!-- Node32 -->
<g id="node6" class="node"><title>Node32</title>
<g id="a_node6"><a xlink:href="_firmware_teen_8ino.html" target="_top" xlink:title="Project main loop.">
<polygon fill="white" stroke="black" points="0,-0.5 0,-41.5 155,-41.5 155,-0.5 0,-0.5"/>
<text text-anchor="start" x="8" y="-29.5" font-family="Helvetica,sans-Serif" font-size="10.00">D:/Prog/Github/Befaco</text>
<text text-anchor="start" x="8" y="-18.5" font-family="Helvetica,sans-Serif" font-size="10.00">/VCMC/FirmwareTeen/Firmware</text>
<text text-anchor="middle" x="77.5" y="-7.5" font-family="Helvetica,sans-Serif" font-size="10.00">Teen.ino</text>
</a>
</g>
</g>
<!-- Node27&#45;&gt;Node32 -->
<g id="edge31" class="edge"><title>Node27&#45;&gt;Node32</title>
<path fill="none" stroke="midnightblue" d="M2261.23,-223.435C1956.21,-212.48 969.208,-168.913 163.5,-42 160.774,-41.5707 158.007,-41.1028 155.217,-40.604"/>
<polygon fill="midnightblue" stroke="midnightblue" points="2261.24,-226.937 2271.36,-223.795 2261.49,-219.942 2261.24,-226.937"/>
</g>
<!-- Node29 -->
<g id="node3" class="node"><title>Node29</title>
<g id="a_node3"><a xlink:href="_definitions_8h.html" target="_top" xlink:title="Definitions and configuration flags.">
<polygon fill="white" stroke="black" points="2272.5,-78.5 2272.5,-108.5 2440.5,-108.5 2440.5,-78.5 2272.5,-78.5"/>
<text text-anchor="start" x="2280.5" y="-96.5" font-family="Helvetica,sans-Serif" font-size="10.00">D:/Prog/Github/Befaco</text>
<text text-anchor="middle" x="2356.5" y="-85.5" font-family="Helvetica,sans-Serif" font-size="10.00">/VCMC/FirmwareTeen/Definitions.h</text>
</a>
</g>
</g>
<!-- Node28&#45;&gt;Node29 -->
<g id="edge2" class="edge"><title>Node28&#45;&gt;Node29</title>
<path fill="none" stroke="midnightblue" d="M2436.11,-140.296C2418.43,-130.125 2397.1,-117.855 2380.97,-108.577"/>
<polygon fill="midnightblue" stroke="midnightblue" points="2434.57,-143.444 2444.98,-145.396 2438.06,-137.376 2434.57,-143.444"/>
</g>
<!-- Node55 -->
<g id="node29" class="node"><title>Node55</title>
<g id="a_node29"><a xlink:href="_cfg_classes_8ino.html" target="_top" xlink:title="Defines Configuration classes functions.">
<polygon fill="white" stroke="black" points="2497.5,-78.5 2497.5,-108.5 2677.5,-108.5 2677.5,-78.5 2497.5,-78.5"/>
<text text-anchor="start" x="2505.5" y="-96.5" font-family="Helvetica,sans-Serif" font-size="10.00">D:/Prog/Github/Befaco</text>
<text text-anchor="middle" x="2587.5" y="-85.5" font-family="Helvetica,sans-Serif" font-size="10.00">/VCMC/FirmwareTeen/CfgClasses.ino</text>
</a>
</g>
</g>
<!-- Node28&#45;&gt;Node55 -->
<g id="edge30" class="edge"><title>Node28&#45;&gt;Node55</title>
<path fill="none" stroke="midnightblue" d="M2504.11,-140.435C2522.62,-130.237 2545.02,-117.897 2561.95,-108.577"/>
<polygon fill="midnightblue" stroke="midnightblue" points="2502.17,-137.505 2495.1,-145.396 2505.55,-143.637 2502.17,-137.505"/>
</g>
<!-- Node29&#45;&gt;Node27 -->
<g id="edge6" class="edge"><title>Node29&#45;&gt;Node27</title>
<path fill="none" stroke="midnightblue" d="M2356.32,-118.851C2356.11,-146.313 2355.78,-190.044 2355.61,-212.374"/>
<polygon fill="midnightblue" stroke="midnightblue" points="2359.82,-118.551 2356.39,-108.525 2352.82,-118.498 2359.82,-118.551"/>
</g>
<!-- Node30 -->
<g id="node4" class="node"><title>Node30</title>
<g id="a_node4"><a xlink:href="_cal_menu_8ino.html" target="_top" xlink:title="Defines Menu functions callbacks response for calibration and clock configuration.">
<polygon fill="white" stroke="black" points="4375,-6 4375,-36 4544,-36 4544,-6 4375,-6"/>
<text text-anchor="start" x="4383" y="-24" font-family="Helvetica,sans-Serif" font-size="10.00">D:/Prog/Github/Befaco</text>
<text text-anchor="middle" x="4459.5" y="-13" font-family="Helvetica,sans-Serif" font-size="10.00">/VCMC/FirmwareTeen/CalMenu.ino</text>
</a>
</g>
</g>
<!-- Node29&#45;&gt;Node30 -->
<g id="edge3" class="edge"><title>Node29&#45;&gt;Node30</title>
<path fill="none" stroke="midnightblue" d="M2450.92,-78.3986C2452.46,-78.2578 2453.99,-78.1247 2455.5,-78 2878.81,-43.1537 3944.58,-90.8777 4366.5,-42 4378.31,-40.6317 4390.84,-38.451 4402.74,-36.0231"/>
<polygon fill="midnightblue" stroke="midnightblue" points="2450.27,-74.9466 2440.67,-79.432 2450.97,-81.9113 2450.27,-74.9466"/>
</g>
<!-- Node31 -->
<g id="node5" class="node"><title>Node31</title>
<g id="a_node5"><a xlink:href="_v_c_m_c_app_8h.html" target="_top" xlink:title="Main App declarations.">
<polygon fill="white" stroke="black" points="4562,-6 4562,-36 4731,-36 4731,-6 4562,-6"/>
<text text-anchor="start" x="4570" y="-24" font-family="Helvetica,sans-Serif" font-size="10.00">D:/Prog/Github/Befaco</text>
<text text-anchor="middle" x="4646.5" y="-13" font-family="Helvetica,sans-Serif" font-size="10.00">/VCMC/FirmwareTeen/VCMCApp.h</text>
</a>
</g>
</g>
<!-- Node29&#45;&gt;Node31 -->
<g id="edge4" class="edge"><title>Node29&#45;&gt;Node31</title>
<path fill="none" stroke="midnightblue" d="M2450.92,-78.3951C2452.46,-78.2554 2453.99,-78.1234 2455.5,-78 2920.25,-40.1351 4090.26,-95.2703 4553.5,-42 4565.31,-40.6416 4577.84,-38.4652 4589.74,-36.0385"/>
<polygon fill="midnightblue" stroke="midnightblue" points="2450.27,-74.9426 2440.67,-79.4223 2450.97,-81.9077 2450.27,-74.9426"/>
</g>
<!-- Node29&#45;&gt;Node32 -->
<g id="edge7" class="edge"><title>Node29&#45;&gt;Node32</title>
<path fill="none" stroke="midnightblue" d="M2261.99,-91.469C1868.79,-87.0238 373.221,-68.5145 163.5,-42 160.763,-41.6539 157.985,-41.2576 155.186,-40.8199"/>
<polygon fill="midnightblue" stroke="midnightblue" points="2262.15,-94.971 2272.19,-91.584 2262.23,-87.9714 2262.15,-94.971"/>
</g>
<!-- Node33 -->
<g id="node7" class="node"><title>Node33</title>
<g id="a_node7"><a xlink:href="_graf_util_8ino.html" target="_top" xlink:title="Defines Helper functions for OLED screen user interface.">
<polygon fill="white" stroke="black" points="173,-6 173,-36 336,-36 336,-6 173,-6"/>
<text text-anchor="start" x="181" y="-24" font-family="Helvetica,sans-Serif" font-size="10.00">D:/Prog/Github/Befaco</text>
<text text-anchor="middle" x="254.5" y="-13" font-family="Helvetica,sans-Serif" font-size="10.00">/VCMC/FirmwareTeen/GrafUtil.ino</text>
</a>
</g>
</g>
<!-- Node29&#45;&gt;Node33 -->
<g id="edge8" class="edge"><title>Node29&#45;&gt;Node33</title>
<path fill="none" stroke="midnightblue" d="M2262.23,-91.1934C1890.41,-85.8951 536.616,-65.185 345.5,-42 334.099,-40.6169 322.022,-38.4626 310.521,-36.0712"/>
<polygon fill="midnightblue" stroke="midnightblue" points="2262.36,-94.6956 2272.41,-91.3382 2262.46,-87.6963 2262.36,-94.6956"/>
</g>
<!-- Node34 -->
<g id="node8" class="node"><title>Node34</title>
<g id="a_node8"><a xlink:href="_input_control_8ino.html" target="_top" xlink:title="Functions definition for Input Control class.">
<polygon fill="white" stroke="black" points="354.5,-6 354.5,-36 536.5,-36 536.5,-6 354.5,-6"/>
<text text-anchor="start" x="362.5" y="-24" font-family="Helvetica,sans-Serif" font-size="10.00">D:/Prog/Github/Befaco</text>
<text text-anchor="middle" x="445.5" y="-13" font-family="Helvetica,sans-Serif" font-size="10.00">/VCMC/FirmwareTeen/InputControl.ino</text>
</a>
</g>
</g>
<!-- Node29&#45;&gt;Node34 -->
<g id="edge9" class="edge"><title>Node29&#45;&gt;Node34</title>
<path fill="none" stroke="midnightblue" d="M2262.25,-91.9821C1939.94,-89.8804 882.991,-80.1755 545.5,-42 533.009,-40.5871 519.755,-38.4195 507.121,-36.0246"/>
<polygon fill="midnightblue" stroke="midnightblue" points="2262.47,-95.4834 2272.49,-92.0479 2262.51,-88.4836 2262.47,-95.4834"/>
</g>
<!-- Node35 -->
<g id="node9" class="node"><title>Node35</title>
<g id="a_node9"><a xlink:href="_input_port_8ino.html" target="_top" xlink:title="Definition of base class functions related to both Analog and Digital input ports.">
<polygon fill="white" stroke="black" points="554.5,-6 554.5,-36 724.5,-36 724.5,-6 554.5,-6"/>
<text text-anchor="start" x="562.5" y="-24" font-family="Helvetica,sans-Serif" font-size="10.00">D:/Prog/Github/Befaco</text>
<text text-anchor="middle" x="639.5" y="-13" font-family="Helvetica,sans-Serif" font-size="10.00">/VCMC/FirmwareTeen/InputPort.ino</text>
</a>
</g>
</g>
<!-- Node29&#45;&gt;Node35 -->
<g id="edge10" class="edge"><title>Node29&#45;&gt;Node35</title>
<path fill="none" stroke="midnightblue" d="M2261.73,-91.7734C1961.27,-89.1197 1032.21,-78.1317 733.5,-42 721.74,-40.5775 709.272,-38.4056 697.394,-36.0095"/>
<polygon fill="midnightblue" stroke="midnightblue" points="2262.12,-95.2768 2272.15,-91.8643 2262.18,-88.2771 2262.12,-95.2768"/>
</g>
<!-- Node36 -->
<g id="node10" class="node"><title>Node36</title>
<g id="a_node10"><a xlink:href="_input_port_anag_8ino.html" target="_top" xlink:title="Definition of functions related to Analog (CV and Fader) input ports.">
<polygon fill="white" stroke="black" points="742.5,-0.5 742.5,-41.5 896.5,-41.5 896.5,-0.5 742.5,-0.5"/>
<text text-anchor="start" x="750.5" y="-29.5" font-family="Helvetica,sans-Serif" font-size="10.00">D:/Prog/Github/Befaco</text>
<text text-anchor="start" x="750.5" y="-18.5" font-family="Helvetica,sans-Serif" font-size="10.00">/VCMC/FirmwareTeen/InputPort</text>
<text text-anchor="middle" x="819.5" y="-7.5" font-family="Helvetica,sans-Serif" font-size="10.00">Anag.ino</text>
</a>
</g>
</g>
<!-- Node29&#45;&gt;Node36 -->
<g id="edge11" class="edge"><title>Node29&#45;&gt;Node36</title>
<path fill="none" stroke="midnightblue" d="M2262.26,-91.6038C1984.03,-88.5801 1169.15,-76.9091 905.5,-42 902.613,-41.6177 899.68,-41.182 896.725,-40.7029"/>
<polygon fill="midnightblue" stroke="midnightblue" points="2262.29,-95.1043 2272.33,-91.712 2262.37,-88.1047 2262.29,-95.1043"/>
</g>
<!-- Node37 -->
<g id="node11" class="node"><title>Node37</title>
<g id="a_node11"><a xlink:href="_input_port_dig_8ino.html" target="_top" xlink:title="Definition of functions related to Digital input ports.">
<polygon fill="white" stroke="black" points="914.5,-0.5 914.5,-41.5 1068.5,-41.5 1068.5,-0.5 914.5,-0.5"/>
<text text-anchor="start" x="922.5" y="-29.5" font-family="Helvetica,sans-Serif" font-size="10.00">D:/Prog/Github/Befaco</text>
<text text-anchor="start" x="922.5" y="-18.5" font-family="Helvetica,sans-Serif" font-size="10.00">/VCMC/FirmwareTeen/InputPort</text>
<text text-anchor="middle" x="991.5" y="-7.5" font-family="Helvetica,sans-Serif" font-size="10.00">Dig.ino</text>
</a>
</g>
</g>
<!-- Node29&#45;&gt;Node37 -->
<g id="edge12" class="edge"><title>Node29&#45;&gt;Node37</title>
<path fill="none" stroke="midnightblue" d="M2262.14,-91.0877C2006.84,-86.897 1306.39,-72.8521 1077.5,-42 1074.61,-41.6109 1071.68,-41.1695 1068.73,-40.6855"/>
<polygon fill="midnightblue" stroke="midnightblue" points="2262.44,-94.5929 2272.5,-91.2563 2262.56,-87.5939 2262.44,-94.5929"/>
</g>
<!-- Node38 -->
<g id="node12" class="node"><title>Node38</title>
<g id="a_node12"><a xlink:href="_menu_anag_8ino.html" target="_top" xlink:title="Defines Menu functions callbacks response for Analog Ports configuration.">
<polygon fill="white" stroke="black" points="1087,-6 1087,-36 1264,-36 1264,-6 1087,-6"/>
<text text-anchor="start" x="1095" y="-24" font-family="Helvetica,sans-Serif" font-size="10.00">D:/Prog/Github/Befaco</text>
<text text-anchor="middle" x="1175.5" y="-13" font-family="Helvetica,sans-Serif" font-size="10.00">/VCMC/FirmwareTeen/MenuAnag.ino</text>
</a>
</g>
</g>
<!-- Node29&#45;&gt;Node38 -->
<g id="edge13" class="edge"><title>Node29&#45;&gt;Node38</title>
<path fill="none" stroke="midnightblue" d="M2262.32,-93.0631C2073.68,-93.1008 1636.39,-87.7046 1272.5,-42 1260.64,-40.5108 1248.07,-38.3561 1236.06,-36.007"/>
<polygon fill="midnightblue" stroke="midnightblue" points="2262.48,-96.5631 2272.47,-93.0557 2262.47,-89.5631 2262.48,-96.5631"/>
</g>
<!-- Node39 -->
<g id="node13" class="node"><title>Node39</title>
<g id="a_node13"><a xlink:href="_menu_block_8ino.html" target="_top" xlink:title="Defines Menu functions callbacks response for Bank configuration.">
<polygon fill="white" stroke="black" points="1282,-6 1282,-36 1461,-36 1461,-6 1282,-6"/>
<text text-anchor="start" x="1290" y="-24" font-family="Helvetica,sans-Serif" font-size="10.00">D:/Prog/Github/Befaco</text>
<text text-anchor="middle" x="1371.5" y="-13" font-family="Helvetica,sans-Serif" font-size="10.00">/VCMC/FirmwareTeen/MenuBlock.ino</text>
</a>
</g>
</g>
<!-- Node29&#45;&gt;Node39 -->
<g id="edge14" class="edge"><title>Node29&#45;&gt;Node39</title>
<path fill="none" stroke="midnightblue" d="M2262.02,-91.5225C2099.59,-88.8593 1757.21,-78.9405 1470.5,-42 1458.59,-40.4651 1445.96,-38.3197 1433.86,-36.0003"/>
<polygon fill="midnightblue" stroke="midnightblue" points="2262.4,-95.0289 2272.46,-91.6877 2262.51,-88.0298 2262.4,-95.0289"/>
</g>
<!-- Node40 -->
<g id="node14" class="node"><title>Node40</title>
<g id="a_node14"><a xlink:href="_menu_gate_8ino.html" target="_top" xlink:title="Defines Menu functions callbacks response for Gate configuration.">
<polygon fill="white" stroke="black" points="1479.5,-6 1479.5,-36 1655.5,-36 1655.5,-6 1479.5,-6"/>
<text text-anchor="start" x="1487.5" y="-24" font-family="Helvetica,sans-Serif" font-size="10.00">D:/Prog/Github/Befaco</text>
<text text-anchor="middle" x="1567.5" y="-13" font-family="Helvetica,sans-Serif" font-size="10.00">/VCMC/FirmwareTeen/MenuGate.ino</text>
</a>
</g>
</g>
<!-- Node29&#45;&gt;Node40 -->
<g id="edge15" class="edge"><title>Node29&#45;&gt;Node40</title>
<path fill="none" stroke="midnightblue" d="M2262.04,-89.5114C2128.44,-84.3987 1876.86,-71.5131 1664.5,-42 1653.09,-40.4142 1641.01,-38.2885 1629.39,-36.0142"/>
<polygon fill="midnightblue" stroke="midnightblue" points="2262.12,-93.0166 2272.24,-89.8954 2262.38,-86.0216 2262.12,-93.0166"/>
</g>
<!-- Node41 -->
<g id="node15" class="node"><title>Node41</title>
<g id="a_node15"><a xlink:href="_menu_main_8ino.html" target="_top" xlink:title="Defines Menu functions callbacks response for Main/General configuration.">
<polygon fill="white" stroke="black" points="1673.5,-6 1673.5,-36 1849.5,-36 1849.5,-6 1673.5,-6"/>
<text text-anchor="start" x="1681.5" y="-24" font-family="Helvetica,sans-Serif" font-size="10.00">D:/Prog/Github/Befaco</text>
<text text-anchor="middle" x="1761.5" y="-13" font-family="Helvetica,sans-Serif" font-size="10.00">/VCMC/FirmwareTeen/MenuMain.ino</text>
</a>
</g>
</g>
<!-- Node29&#45;&gt;Node41 -->
<g id="edge16" class="edge"><title>Node29&#45;&gt;Node41</title>
<path fill="none" stroke="midnightblue" d="M2262.34,-85.8374C2161.93,-78.0597 1998.43,-63.4632 1858.5,-42 1847.54,-40.3186 1835.94,-38.2148 1824.73,-36.0083"/>
<polygon fill="midnightblue" stroke="midnightblue" points="2262.22,-89.3384 2272.46,-86.6146 2262.76,-82.359 2262.22,-89.3384"/>
</g>
<!-- Node42 -->
<g id="node16" class="node"><title>Node42</title>
<g id="a_node16"><a xlink:href="_menu_range_8ino.html" target="_top" xlink:title="Defines Menu functions callbacks response for Input/Output Range configuration.">
<polygon fill="white" stroke="black" points="1867.5,-6 1867.5,-36 2049.5,-36 2049.5,-6 1867.5,-6"/>
<text text-anchor="start" x="1875.5" y="-24" font-family="Helvetica,sans-Serif" font-size="10.00">D:/Prog/Github/Befaco</text>
<text text-anchor="middle" x="1958.5" y="-13" font-family="Helvetica,sans-Serif" font-size="10.00">/VCMC/FirmwareTeen/MenuRange.ino</text>
</a>
</g>
</g>
<!-- Node29&#45;&gt;Node42 -->
<g id="edge17" class="edge"><title>Node29&#45;&gt;Node42</title>
<path fill="none" stroke="midnightblue" d="M2262.25,-77.2593C2203.56,-67.5877 2126.55,-54.5676 2058.5,-42 2048.4,-40.135 2037.75,-38.0884 2027.3,-36.0384"/>
<polygon fill="midnightblue" stroke="midnightblue" points="2261.81,-80.734 2272.25,-78.9035 2262.95,-73.8268 2261.81,-80.734"/>
</g>
<!-- Node43 -->
<g id="node17" class="node"><title>Node43</title>
<g id="a_node17"><a xlink:href="_m_i_d_imerger_8ino.html" target="_top" xlink:title="MIDI Input/Output support.">
<polygon fill="white" stroke="black" points="2067.5,-6 2067.5,-36 2247.5,-36 2247.5,-6 2067.5,-6"/>
<text text-anchor="start" x="2075.5" y="-24" font-family="Helvetica,sans-Serif" font-size="10.00">D:/Prog/Github/Befaco</text>
<text text-anchor="middle" x="2157.5" y="-13" font-family="Helvetica,sans-Serif" font-size="10.00">/VCMC/FirmwareTeen/MIDImerger.ino</text>
</a>
</g>
</g>
<!-- Node29&#45;&gt;Node43 -->
<g id="edge18" class="edge"><title>Node29&#45;&gt;Node43</title>
<path fill="none" stroke="midnightblue" d="M2307,-74.9645C2273.12,-62.9622 2228.79,-47.2576 2197.22,-36.0729"/>
<polygon fill="midnightblue" stroke="midnightblue" points="2306.11,-78.3624 2316.71,-78.4027 2308.45,-71.7642 2306.11,-78.3624"/>
</g>
<!-- Node44 -->
<g id="node18" class="node"><title>Node44</title>
<g id="a_node18"><a xlink:href="_o_l_e_d_menu_8ino.html" target="_top" xlink:title="Defines Menu class functions for OLED screen.">
<polygon fill="white" stroke="black" points="2266,-6 2266,-36 2447,-36 2447,-6 2266,-6"/>
<text text-anchor="start" x="2274" y="-24" font-family="Helvetica,sans-Serif" font-size="10.00">D:/Prog/Github/Befaco</text>
<text text-anchor="middle" x="2356.5" y="-13" font-family="Helvetica,sans-Serif" font-size="10.00">/VCMC/FirmwareTeen/OLEDMenu.ino</text>
</a>
</g>
</g>
<!-- Node29&#45;&gt;Node44 -->
<g id="edge19" class="edge"><title>Node29&#45;&gt;Node44</title>
<path fill="none" stroke="midnightblue" d="M2356.5,-68.2317C2356.5,-57.5679 2356.5,-45.4145 2356.5,-36.2455"/>
<polygon fill="midnightblue" stroke="midnightblue" points="2353,-68.2332 2356.5,-78.2333 2360,-68.2333 2353,-68.2332"/>
</g>
<!-- Node45 -->
<g id="node19" class="node"><title>Node45</title>
<g id="a_node19"><a xlink:href="_o_l_e_d_menu_config_8ino.html" target="_top" xlink:title="Defines functions for configuration screen.">
<polygon fill="white" stroke="black" points="2465,-0.5 2465,-41.5 2630,-41.5 2630,-0.5 2465,-0.5"/>
<text text-anchor="start" x="2473" y="-29.5" font-family="Helvetica,sans-Serif" font-size="10.00">D:/Prog/Github/Befaco</text>
<text text-anchor="start" x="2473" y="-18.5" font-family="Helvetica,sans-Serif" font-size="10.00">/VCMC/FirmwareTeen/OLEDMenu</text>
<text text-anchor="middle" x="2547.5" y="-7.5" font-family="Helvetica,sans-Serif" font-size="10.00">Config.ino</text>
</a>
</g>
</g>
<!-- Node29&#45;&gt;Node45 -->
<g id="edge20" class="edge"><title>Node29&#45;&gt;Node45</title>
<path fill="none" stroke="midnightblue" d="M2404.09,-74.9327C2431.58,-64.7885 2466.2,-52.0078 2494.54,-41.5464"/>
<polygon fill="midnightblue" stroke="midnightblue" points="2402.86,-71.6564 2394.69,-78.4027 2405.29,-78.2234 2402.86,-71.6564"/>
</g>
<!-- Node46 -->
<g id="node20" class="node"><title>Node46</title>
<g id="a_node20"><a xlink:href="_o_s_c_config_port_8ino.html" target="_top" xlink:title="Functions for OSC processing.">
<polygon fill="white" stroke="black" points="2648,-0.5 2648,-41.5 2811,-41.5 2811,-0.5 2648,-0.5"/>
<text text-anchor="start" x="2656" y="-29.5" font-family="Helvetica,sans-Serif" font-size="10.00">D:/Prog/Github/Befaco</text>
<text text-anchor="start" x="2656" y="-18.5" font-family="Helvetica,sans-Serif" font-size="10.00">/VCMC/FirmwareTeen/OSCConfig</text>
<text text-anchor="middle" x="2729.5" y="-7.5" font-family="Helvetica,sans-Serif" font-size="10.00">Port.ino</text>
</a>
</g>
</g>
<!-- Node29&#45;&gt;Node46 -->
<g id="edge21" class="edge"><title>Node29&#45;&gt;Node46</title>
<path fill="none" stroke="midnightblue" d="M2450.68,-76.7164C2505.82,-67.2205 2576.73,-54.569 2639.5,-42 2642.17,-41.4657 2644.88,-40.9142 2647.61,-40.3501"/>
<polygon fill="midnightblue" stroke="midnightblue" points="2449.83,-73.3099 2440.57,-78.4521 2451.02,-80.2089 2449.83,-73.3099"/>
</g>
<!-- Node47 -->
<g id="node21" class="node"><title>Node47</title>
<g id="a_node21"><a xlink:href="_o_s_c_merge_8h.html" target="_top" xlink:title="OSC I/O management.">
<polygon fill="white" stroke="black" points="2829,-6 2829,-36 3000,-36 3000,-6 2829,-6"/>
<text text-anchor="start" x="2837" y="-24" font-family="Helvetica,sans-Serif" font-size="10.00">D:/Prog/Github/Befaco</text>
<text text-anchor="middle" x="2914.5" y="-13" font-family="Helvetica,sans-Serif" font-size="10.00">/VCMC/FirmwareTeen/OSCMerge.h</text>
</a>
</g>
</g>
<!-- Node29&#45;&gt;Node47 -->
<g id="edge22" class="edge"><title>Node29&#45;&gt;Node47</title>
<path fill="none" stroke="midnightblue" d="M2450.94,-78.5668C2452.47,-78.3739 2453.99,-78.1848 2455.5,-78 2617.3,-58.183 2659.42,-67.0005 2820.5,-42 2831.22,-40.3367 2842.55,-38.2287 2853.5,-36.009"/>
<polygon fill="midnightblue" stroke="midnightblue" points="2450.19,-75.135 2440.72,-79.8895 2451.08,-82.0771 2450.19,-75.135"/>
</g>
<!-- Node48 -->
<g id="node22" class="node"><title>Node48</title>
<g id="a_node22"><a xlink:href="_o_s_c_merge_8ino.html" target="_top" xlink:title="OSC I/O management functions.">
<polygon fill="white" stroke="black" points="3018,-6 3018,-36 3197,-36 3197,-6 3018,-6"/>
<text text-anchor="start" x="3026" y="-24" font-family="Helvetica,sans-Serif" font-size="10.00">D:/Prog/Github/Befaco</text>
<text text-anchor="middle" x="3107.5" y="-13" font-family="Helvetica,sans-Serif" font-size="10.00">/VCMC/FirmwareTeen/OSCMerge.ino</text>
</a>
</g>
</g>
<!-- Node29&#45;&gt;Node48 -->
<g id="edge23" class="edge"><title>Node29&#45;&gt;Node48</title>
<path fill="none" stroke="midnightblue" d="M2450.93,-78.4961C2452.46,-78.3251 2453.99,-78.1595 2455.5,-78 2700.88,-52.1003 2764.94,-74.7454 3009.5,-42 3021.12,-40.4445 3033.42,-38.3188 3045.24,-36.0318"/>
<polygon fill="midnightblue" stroke="midnightblue" points="2450.22,-75.0555 2440.7,-79.6973 2451.04,-82.0078 2450.22,-75.0555"/>
</g>
<!-- Node49 -->
<g id="node23" class="node"><title>Node49</title>
<g id="a_node23"><a xlink:href="_save_load_8ino.html" target="_top" xlink:title="Configuration for Save/Load support.">
<polygon fill="white" stroke="black" points="3215,-6 3215,-36 3388,-36 3388,-6 3215,-6"/>
<text text-anchor="start" x="3223" y="-24" font-family="Helvetica,sans-Serif" font-size="10.00">D:/Prog/Github/Befaco</text>
<text text-anchor="middle" x="3301.5" y="-13" font-family="Helvetica,sans-Serif" font-size="10.00">/VCMC/FirmwareTeen/SaveLoad.ino</text>
</a>
</g>
</g>
<!-- Node29&#45;&gt;Node49 -->
<g id="edge24" class="edge"><title>Node29&#45;&gt;Node49</title>
<path fill="none" stroke="midnightblue" d="M2450.93,-78.4602C2452.46,-78.3003 2453.99,-78.1467 2455.5,-78 2788.1,-45.7486 2875.06,-84.5558 3206.5,-42 3218.12,-40.5082 3230.43,-38.3524 3242.2,-36.0029"/>
<polygon fill="midnightblue" stroke="midnightblue" points="2450.24,-75.0152 2440.69,-79.5995 2451.01,-81.9723 2450.24,-75.0152"/>
</g>
<!-- Node50 -->
<g id="node24" class="node"><title>Node50</title>
<g id="a_node24"><a xlink:href="set_values_8ino.html" target="_top" xlink:title="Definiton and support for pre defined set of configuration values.">
<polygon fill="white" stroke="black" points="3406.5,-6 3406.5,-36 3580.5,-36 3580.5,-6 3406.5,-6"/>
<text text-anchor="start" x="3414.5" y="-24" font-family="Helvetica,sans-Serif" font-size="10.00">D:/Prog/Github/Befaco</text>
<text text-anchor="middle" x="3493.5" y="-13" font-family="Helvetica,sans-Serif" font-size="10.00">/VCMC/FirmwareTeen/setValues.ino</text>
</a>
</g>
</g>
<!-- Node29&#45;&gt;Node50 -->
<g id="edge25" class="edge"><title>Node29&#45;&gt;Node50</title>
<path fill="none" stroke="midnightblue" d="M2450.93,-78.4396C2452.46,-78.2861 2453.99,-78.1394 2455.5,-78 2872.71,-39.5864 2981.63,-92.9034 3397.5,-42 3409.33,-40.5521 3421.87,-38.4007 3433.84,-36.0387"/>
<polygon fill="midnightblue" stroke="midnightblue" points="2450.25,-74.9923 2440.68,-79.5436 2451,-81.952 2450.25,-74.9923"/>
</g>
<!-- Node51 -->
<g id="node25" class="node"><title>Node51</title>
<g id="a_node25"><a xlink:href="_sys_ex_config_port_8ino.html" target="_top" xlink:title="SysEx Send/Receive support for configuration classes.">
<polygon fill="white" stroke="black" points="3599,-0.5 3599,-41.5 3770,-41.5 3770,-0.5 3599,-0.5"/>
<text text-anchor="start" x="3607" y="-29.5" font-family="Helvetica,sans-Serif" font-size="10.00">D:/Prog/Github/Befaco</text>
<text text-anchor="start" x="3607" y="-18.5" font-family="Helvetica,sans-Serif" font-size="10.00">/VCMC/FirmwareTeen/SysExConfig</text>
<text text-anchor="middle" x="3684.5" y="-7.5" font-family="Helvetica,sans-Serif" font-size="10.00">Port.ino</text>
</a>
</g>
</g>
<!-- Node29&#45;&gt;Node51 -->
<g id="edge26" class="edge"><title>Node29&#45;&gt;Node51</title>
<path fill="none" stroke="midnightblue" d="M2450.92,-78.426C2452.46,-78.2767 2453.99,-78.1345 2455.5,-78 2957.78,-33.3901 3088.85,-102.173 3589.5,-42 3592.6,-41.6279 3595.74,-41.2052 3598.91,-40.741"/>
<polygon fill="midnightblue" stroke="midnightblue" points="2450.26,-74.977 2440.68,-79.5064 2450.99,-81.9384 2450.26,-74.977"/>
</g>
<!-- Node52 -->
<g id="node26" class="node"><title>Node52</title>
<g id="a_node26"><a xlink:href="_sys_ex_send_rec_8ino.html" target="_top" xlink:title="SysEx Send/Receive support.">
<polygon fill="white" stroke="black" points="3788,-0.5 3788,-41.5 3955,-41.5 3955,-0.5 3788,-0.5"/>
<text text-anchor="start" x="3796" y="-29.5" font-family="Helvetica,sans-Serif" font-size="10.00">D:/Prog/Github/Befaco</text>
<text text-anchor="start" x="3796" y="-18.5" font-family="Helvetica,sans-Serif" font-size="10.00">/VCMC/FirmwareTeen/SysExSend</text>
<text text-anchor="middle" x="3871.5" y="-7.5" font-family="Helvetica,sans-Serif" font-size="10.00">Rec.ino</text>
</a>
</g>
</g>
<!-- Node29&#45;&gt;Node52 -->
<g id="edge27" class="edge"><title>Node29&#45;&gt;Node52</title>
<path fill="none" stroke="midnightblue" d="M2450.92,-78.4163C2452.46,-78.27 2453.99,-78.131 2455.5,-78 3041.97,-27.2573 3195.12,-112.834 3779.5,-42 3782.26,-41.6656 3785.06,-41.2875 3787.88,-40.8728"/>
<polygon fill="midnightblue" stroke="midnightblue" points="2450.26,-74.9663 2440.67,-79.4801 2450.98,-81.9288 2450.26,-74.9663"/>
</g>
<!-- Node53 -->
<g id="node27" class="node"><title>Node53</title>
<g id="a_node27"><a xlink:href="_v_c_m_c_app_8ino.html" target="_top" xlink:title="Main App functions and interrupt handling.">
<polygon fill="white" stroke="black" points="3973.5,-6 3973.5,-36 4149.5,-36 4149.5,-6 3973.5,-6"/>
<text text-anchor="start" x="3981.5" y="-24" font-family="Helvetica,sans-Serif" font-size="10.00">D:/Prog/Github/Befaco</text>
<text text-anchor="middle" x="4061.5" y="-13" font-family="Helvetica,sans-Serif" font-size="10.00">/VCMC/FirmwareTeen/VCMCApp.ino</text>
</a>
</g>
</g>
<!-- Node29&#45;&gt;Node53 -->
<g id="edge28" class="edge"><title>Node29&#45;&gt;Node53</title>
<path fill="none" stroke="midnightblue" d="M2450.92,-78.4093C2452.46,-78.2652 2453.99,-78.1285 2455.5,-78 3123.96,-21.2854 3297.97,-118.042 3964.5,-42 3976.71,-40.6065 3989.67,-38.4312 4002.01,-36.0196"/>
<polygon fill="midnightblue" stroke="midnightblue" points="2450.26,-74.9584 2440.67,-79.4609 2450.98,-81.9218 2450.26,-74.9584"/>
</g>
<!-- Node54 -->
<g id="node28" class="node"><title>Node54</title>
<g id="a_node28"><a xlink:href="_v_c_m_c_app_init_8ino.html" target="_top" xlink:title="Define the functions for App initialisation.">
<polygon fill="white" stroke="black" points="4168,-6 4168,-36 4357,-36 4357,-6 4168,-6"/>
<text text-anchor="start" x="4176" y="-24" font-family="Helvetica,sans-Serif" font-size="10.00">D:/Prog/Github/Befaco</text>
<text text-anchor="middle" x="4262.5" y="-13" font-family="Helvetica,sans-Serif" font-size="10.00">/VCMC/FirmwareTeen/VCMCAppInit.ino</text>
</a>
</g>
</g>
<!-- Node29&#45;&gt;Node54 -->
<g id="edge29" class="edge"><title>Node29&#45;&gt;Node54</title>
<path fill="none" stroke="midnightblue" d="M2450.92,-78.4035C2452.46,-78.2612 2453.99,-78.1264 2455.5,-78 3209.93,-15.0226 3405.66,-121.768 4158.5,-42 4171.57,-40.6148 4185.46,-38.4433 4198.68,-36.0326"/>
<polygon fill="midnightblue" stroke="midnightblue" points="2450.27,-74.952 2440.67,-79.4453 2450.97,-81.9161 2450.27,-74.952"/>
</g>
<!-- Node31&#45;&gt;Node28 -->
<g id="edge5" class="edge"><title>Node31&#45;&gt;Node28</title>
<path fill="none" stroke="midnightblue" d="M4579.86,-37.9592C4571.04,-39.5924 4562.08,-41.0118 4553.5,-42 4496.51,-48.5619 2533.12,-41.9443 2488.5,-78 2468.61,-94.0705 2467.09,-126.566 2468.08,-145.306"/>
<polygon fill="midnightblue" stroke="midnightblue" points="4580.59,-41.3831 4589.74,-36.036 4579.25,-34.5121 4580.59,-41.3831"/>
</g>
</g>
</svg>
