<?xml version="1.0" encoding="UTF-8" standalone="no"?>
<!DOCTYPE svg PUBLIC "-//W3C//DTD SVG 1.1//EN"
 "http://www.w3.org/Graphics/SVG/1.1/DTD/svg11.dtd">
<!-- Generated by graphviz version 2.38.0 (20140413.2041)
 -->
<!-- Title: D:/Prog/Github/Befaco/VCMC/FirmwareTeen/MenuRange.ino Pages: 1 -->
<!--zoomable 263 -->
<svg id="main" version="1.1" xmlns="http://www.w3.org/2000/svg" xmlns:xlink="http://www.w3.org/1999/xlink" xml:space="preserve" onload="init(evt)">
<style type="text/css"><![CDATA[
.edge:hover path { stroke: red; }
.edge:hover polygon { stroke: red; fill: red; }
]]></style>
<script type="text/javascript"><![CDATA[
var edges = document.getElementsByTagName('g');
if (edges && edges.length) {
  for (var i=0;i<edges.length;i++) {
    if (edges[i].id.substr(0,4)=='edge') {
      edges[i].setAttribute('class','edge');
    }
  }
}
]]></script>
        <defs>
                <circle id="rim" cx="0" cy="0" r="7"/>
                <circle id="rim2" cx="0" cy="0" r="3.5"/>
                <g id="zoomPlus">
                        <use xlink:href="#rim" fill="#404040">
                                <set attributeName="fill" to="#808080" begin="zoomplus.mouseover" end="zoomplus.mouseout"/>
                        </use>
                        <path d="M-4,0h8M0,-4v8" fill="none" stroke="white" stroke-width="1.5" pointer-events="none"/>
                </g>
                <g id="zoomMin">
                        <use xlink:href="#rim" fill="#404040">
                                <set attributeName="fill" to="#808080" begin="zoomminus.mouseover" end="zoomminus.mouseout"/>
                        </use>
                        <path d="M-4,0h8" fill="none" stroke="white" stroke-width="1.5" pointer-events="none"/>
                </g>
                <g id="dirArrow">
                        <path fill="none" stroke="white" stroke-width="1.5" d="M0,-3.0v7 M-2.5,-0.5L0,-3.0L2.5,-0.5"/>
                </g>
               <g id="resetDef">
                       <use xlink:href="#rim2" fill="#404040">
                               <set attributeName="fill" to="#808080" begin="reset.mouseover" end="reset.mouseout"/>
                       </use>
               </g>
        </defs>

<script type="text/javascript">
var viewWidth = 2115;
var viewHeight = 263;
var sectionId = 'dynsection-0';
</script>
<script xlink:href="svgpan.js"/>
<svg id="graph" class="graph">
<g id="viewport">
<title>D:/Prog/Github/Befaco/VCMC/FirmwareTeen/MenuRange.ino</title>
<polygon fill="white" stroke="none" points="-4,4 -4,-259 2111,-259 2111,4 -4,4"/>
<!-- Node0 -->
<g id="node1" class="node"><title>Node0</title>
<g id="a_node1"><a xlink:title="Defines Menu functions callbacks response for Input/Output Range configuration.">
<polygon fill="#bfbfbf" stroke="black" points="1892,-224.5 1892,-254.5 2074,-254.5 2074,-224.5 1892,-224.5"/>
<text text-anchor="start" x="1900" y="-242.5" font-family="Helvetica,sans-Serif" font-size="10.00">D:/Prog/Github/Befaco</text>
<text text-anchor="middle" x="1983" y="-231.5" font-family="Helvetica,sans-Serif" font-size="10.00">/VCMC/FirmwareTeen/MenuRange.ino</text>
</a>
</g>
</g>
<!-- Node1 -->
<g id="node2" class="node"><title>Node1</title>
<g id="a_node2"><a xlink:href="_definitions_8h.html" target="_top" xlink:title="Definitions and configuration flags.">
<polygon fill="white" stroke="black" points="1948,-168.5 1948,-187.5 2018,-187.5 2018,-168.5 1948,-168.5"/>
<text text-anchor="middle" x="1983" y="-175.5" font-family="Helvetica,sans-Serif" font-size="10.00">Definitions.h</text>
</a>
</g>
</g>
<!-- Node0&#45;&gt;Node1 -->
<g id="edge1" class="edge"><title>Node0&#45;&gt;Node1</title>
<path fill="none" stroke="midnightblue" d="M1983,-224.399C1983,-216.466 1983,-206.458 1983,-197.858"/>
<polygon fill="midnightblue" stroke="midnightblue" points="1986.5,-197.658 1983,-187.658 1979.5,-197.658 1986.5,-197.658"/>
</g>
<!-- Node2 -->
<g id="node3" class="node"><title>Node2</title>
<g id="a_node3"><a xlink:href="_prj_includes_8h.html" target="_top" xlink:title="Includes for the project come here.">
<polygon fill="white" stroke="black" points="1105.5,-112.5 1105.5,-131.5 1178.5,-131.5 1178.5,-112.5 1105.5,-112.5"/>
<text text-anchor="middle" x="1142" y="-119.5" font-family="Helvetica,sans-Serif" font-size="10.00">PrjIncludes.h</text>
</a>
</g>
</g>
<!-- Node1&#45;&gt;Node2 -->
<g id="edge2" class="edge"><title>Node1&#45;&gt;Node2</title>
<path fill="none" stroke="midnightblue" d="M1947.93,-174.748C1814.81,-166.201 1340.6,-135.752 1188.98,-126.017"/>
<polygon fill="midnightblue" stroke="midnightblue" points="1188.83,-122.5 1178.63,-125.352 1188.38,-129.486 1188.83,-122.5"/>
</g>
<!-- Node3 -->
<g id="node4" class="node"><title>Node3</title>
<g id="a_node4"><a xlink:title=" ">
<polygon fill="white" stroke="#bfbfbf" points="1474,-56.5 1474,-75.5 1556,-75.5 1556,-56.5 1474,-56.5"/>
<text text-anchor="middle" x="1515" y="-63.5" font-family="Helvetica,sans-Serif" font-size="10.00">Adafruit_GFX.h</text>
</a>
</g>
</g>
<!-- Node2&#45;&gt;Node3 -->
<g id="edge3" class="edge"><title>Node2&#45;&gt;Node3</title>
<path fill="none" stroke="midnightblue" d="M1178.89,-116.345C1237.19,-108.882 1354.43,-93.4466 1463.93,-76.1195"/>
<polygon fill="midnightblue" stroke="midnightblue" points="1464.5,-79.5737 1473.82,-74.5457 1463.4,-72.6607 1464.5,-79.5737"/>
</g>
<!-- Node4 -->
<g id="node5" class="node"><title>Node4</title>
<g id="a_node5"><a xlink:title=" ">
<polygon fill="white" stroke="#bfbfbf" points="1574,-56.5 1574,-75.5 1678,-75.5 1678,-56.5 1574,-56.5"/>
<text text-anchor="middle" x="1626" y="-63.5" font-family="Helvetica,sans-Serif" font-size="10.00">Adafruit_SSD1306.h</text>
</a>
</g>
</g>
<!-- Node2&#45;&gt;Node4 -->
<g id="edge4" class="edge"><title>Node2&#45;&gt;Node4</title>
<path fill="none" stroke="midnightblue" d="M1178.55,-117.614C1250.27,-110.863 1414.71,-94.8485 1563.54,-76.141"/>
<polygon fill="midnightblue" stroke="midnightblue" points="1564.29,-79.574 1573.78,-74.8472 1563.42,-72.6292 1564.29,-79.574"/>
</g>
<!-- Node5 -->
<g id="node6" class="node"><title>Node5</title>
<g id="a_node6"><a xlink:title=" ">
<polygon fill="white" stroke="#bfbfbf" points="1696.5,-56.5 1696.5,-75.5 1737.5,-75.5 1737.5,-56.5 1696.5,-56.5"/>
<text text-anchor="middle" x="1717" y="-63.5" font-family="Helvetica,sans-Serif" font-size="10.00">SPI.h</text>
</a>
</g>
</g>
<!-- Node2&#45;&gt;Node5 -->
<g id="edge5" class="edge"><title>Node2&#45;&gt;Node5</title>
<path fill="none" stroke="midnightblue" d="M1178.71,-120.606C1265.57,-119.115 1490.46,-111.97 1686.58,-75.6368"/>
<polygon fill="midnightblue" stroke="midnightblue" points="1687.3,-79.0615 1696.48,-73.7716 1686.01,-72.1823 1687.3,-79.0615"/>
</g>
<!-- Node6 -->
<g id="node7" class="node"><title>Node6</title>
<g id="a_node7"><a xlink:title=" ">
<polygon fill="white" stroke="#bfbfbf" points="1755.5,-56.5 1755.5,-75.5 1800.5,-75.5 1800.5,-56.5 1755.5,-56.5"/>
<text text-anchor="middle" x="1778" y="-63.5" font-family="Helvetica,sans-Serif" font-size="10.00">Wire.h</text>
</a>
</g>
</g>
<!-- Node2&#45;&gt;Node6 -->
<g id="edge6" class="edge"><title>Node2&#45;&gt;Node6</title>
<path fill="none" stroke="midnightblue" d="M1178.74,-120.808C1272.03,-119.779 1525.61,-113.612 1745.3,-75.7276"/>
<polygon fill="midnightblue" stroke="midnightblue" points="1746.16,-79.1307 1755.4,-73.9583 1744.95,-72.2356 1746.16,-79.1307"/>
</g>
<!-- Node7 -->
<g id="node8" class="node"><title>Node7</title>
<g id="a_node8"><a xlink:title=" ">
<polygon fill="white" stroke="#bfbfbf" points="1819,-56.5 1819,-75.5 1867,-75.5 1867,-56.5 1819,-56.5"/>
<text text-anchor="middle" x="1843" y="-63.5" font-family="Helvetica,sans-Serif" font-size="10.00">limits.h</text>
</a>
</g>
</g>
<!-- Node2&#45;&gt;Node7 -->
<g id="edge7" class="edge"><title>Node2&#45;&gt;Node7</title>
<path fill="none" stroke="midnightblue" d="M1178.8,-120.979C1280.05,-120.391 1571.08,-115.145 1809,-76 1809.1,-75.9833 1809.2,-75.9664 1809.31,-75.9493"/>
<polygon fill="midnightblue" stroke="midnightblue" points="1809.88,-79.4037 1818.98,-73.9677 1808.48,-72.5461 1809.88,-79.4037"/>
</g>
<!-- Node8 -->
<g id="node9" class="node"><title>Node8</title>
<g id="a_node9"><a xlink:title=" ">
<polygon fill="white" stroke="#bfbfbf" points="1885,-56.5 1885,-75.5 1929,-75.5 1929,-56.5 1885,-56.5"/>
<text text-anchor="middle" x="1907" y="-63.5" font-family="Helvetica,sans-Serif" font-size="10.00">MIDI.h</text>
</a>
</g>
</g>
<!-- Node2&#45;&gt;Node8 -->
<g id="edge8" class="edge"><title>Node2&#45;&gt;Node8</title>
<path fill="none" stroke="midnightblue" d="M1178.61,-121.601C1285.06,-122.75 1603.62,-121.934 1874.76,-75.8178"/>
<polygon fill="midnightblue" stroke="midnightblue" points="1875.53,-79.2367 1884.79,-74.0873 1874.34,-72.3386 1875.53,-79.2367"/>
</g>
<!-- Node9 -->
<g id="node10" class="node"><title>Node9</title>
<g id="a_node10"><a xlink:title=" ">
<polygon fill="white" stroke="#bfbfbf" points="0,-56.5 0,-75.5 68,-75.5 68,-56.5 0,-56.5"/>
<text text-anchor="middle" x="34" y="-63.5" font-family="Helvetica,sans-Serif" font-size="10.00">EEPROM.h</text>
</a>
</g>
</g>
<!-- Node2&#45;&gt;Node9 -->
<g id="edge9" class="edge"><title>Node2&#45;&gt;Node9</title>
<path fill="none" stroke="midnightblue" d="M1105.33,-120.259C944.8,-116.894 302.303,-102.12 78.2149,-75.8995"/>
<polygon fill="midnightblue" stroke="midnightblue" points="78.5312,-72.4123 68.1824,-74.6824 77.6881,-79.3613 78.5312,-72.4123"/>
</g>
<!-- Node10 -->
<g id="node11" class="node"><title>Node10</title>
<g id="a_node11"><a xlink:title=" ">
<polygon fill="white" stroke="#bfbfbf" points="86.5,-56.5 86.5,-75.5 149.5,-75.5 149.5,-56.5 86.5,-56.5"/>
<text text-anchor="middle" x="118" y="-63.5" font-family="Helvetica,sans-Serif" font-size="10.00">Bounce2.h</text>
</a>
</g>
</g>
<!-- Node2&#45;&gt;Node10 -->
<g id="edge10" class="edge"><title>Node2&#45;&gt;Node10</title>
<path fill="none" stroke="midnightblue" d="M1105.28,-120.185C952.568,-116.663 366.368,-101.815 159.913,-75.9976"/>
<polygon fill="midnightblue" stroke="midnightblue" points="160.153,-72.4995 149.786,-74.6807 159.251,-79.441 160.153,-72.4995"/>
</g>
<!-- Node11 -->
<g id="node12" class="node"><title>Node11</title>
<g id="a_node12"><a xlink:title=" ">
<polygon fill="white" stroke="#bfbfbf" points="167.5,-56.5 167.5,-75.5 250.5,-75.5 250.5,-56.5 167.5,-56.5"/>
<text text-anchor="middle" x="209" y="-63.5" font-family="Helvetica,sans-Serif" font-size="10.00">ClickEncoder.h</text>
</a>
</g>
</g>
<!-- Node2&#45;&gt;Node11 -->
<g id="edge11" class="edge"><title>Node2&#45;&gt;Node11</title>
<path fill="none" stroke="midnightblue" d="M1105.27,-120.798C985.284,-119.786 593.855,-113.702 261.009,-76.0912"/>
<polygon fill="midnightblue" stroke="midnightblue" points="261.016,-72.5693 250.683,-74.9121 260.221,-79.5241 261.016,-72.5693"/>
</g>
<!-- Node12 -->
<g id="node13" class="node"><title>Node12</title>
<g id="a_node13"><a xlink:title=" ">
<polygon fill="white" stroke="#bfbfbf" points="268.5,-56.5 268.5,-75.5 313.5,-75.5 313.5,-56.5 268.5,-56.5"/>
<text text-anchor="middle" x="291" y="-63.5" font-family="Helvetica,sans-Serif" font-size="10.00">ADC.h</text>
</a>
</g>
</g>
<!-- Node2&#45;&gt;Node12 -->
<g id="edge12" class="edge"><title>Node2&#45;&gt;Node12</title>
<path fill="none" stroke="midnightblue" d="M1105.21,-120.094C969.293,-116.579 494.937,-102.765 323.432,-75.8164"/>
<polygon fill="midnightblue" stroke="midnightblue" points="323.984,-72.3603 313.548,-74.1903 322.847,-79.2674 323.984,-72.3603"/>
</g>
<!-- Node13 -->
<g id="node14" class="node"><title>Node13</title>
<g id="a_node14"><a xlink:title=" ">
<polygon fill="white" stroke="#bfbfbf" points="331.5,-56.5 331.5,-75.5 458.5,-75.5 458.5,-56.5 331.5,-56.5"/>
<text text-anchor="middle" x="395" y="-63.5" font-family="Helvetica,sans-Serif" font-size="10.00">ResponsiveAnalogRead.h</text>
</a>
</g>
</g>
<!-- Node2&#45;&gt;Node13 -->
<g id="edge13" class="edge"><title>Node2&#45;&gt;Node13</title>
<path fill="none" stroke="midnightblue" d="M1105.36,-119.303C1005.14,-114.503 717.887,-99.6828 468.553,-76.0998"/>
<polygon fill="midnightblue" stroke="midnightblue" points="468.868,-72.614 458.581,-75.1499 468.204,-79.5824 468.868,-72.614"/>
</g>
<!-- Node14 -->
<g id="node15" class="node"><title>Node14</title>
<g id="a_node15"><a xlink:href="_blinker_8h.html" target="_top" xlink:title="Class helper to blink led.">
<polygon fill="white" stroke="black" points="476.5,-56.5 476.5,-75.5 531.5,-75.5 531.5,-56.5 476.5,-56.5"/>
<text text-anchor="middle" x="504" y="-63.5" font-family="Helvetica,sans-Serif" font-size="10.00">Blinker.h</text>
</a>
</g>
</g>
<!-- Node2&#45;&gt;Node14 -->
<g id="edge14" class="edge"><title>Node2&#45;&gt;Node14</title>
<path fill="none" stroke="midnightblue" d="M1105.44,-120.431C1012.6,-118.527 760.17,-110.477 541.852,-76.056"/>
<polygon fill="midnightblue" stroke="midnightblue" points="542.238,-72.5733 531.811,-74.4502 541.133,-79.4855 542.238,-72.5733"/>
</g>
<!-- Node15 -->
<g id="node16" class="node"><title>Node15</title>
<g id="a_node16"><a xlink:href="_multi_point_conv_8h.html" target="_top" xlink:title="Helper class for MIDI to DAC conversions.">
<polygon fill="white" stroke="black" points="549.5,-56.5 549.5,-75.5 638.5,-75.5 638.5,-56.5 549.5,-56.5"/>
<text text-anchor="middle" x="594" y="-63.5" font-family="Helvetica,sans-Serif" font-size="10.00">MultiPointConv.h</text>
</a>
</g>
</g>
<!-- Node2&#45;&gt;Node15 -->
<g id="edge15" class="edge"><title>Node2&#45;&gt;Node15</title>
<path fill="none" stroke="midnightblue" d="M1105.33,-118.596C1024.75,-113.113 825.961,-98.4869 648.776,-76.0051"/>
<polygon fill="midnightblue" stroke="midnightblue" points="649.115,-72.5199 638.751,-74.7216 648.226,-79.4633 649.115,-72.5199"/>
</g>
<!-- Node16 -->
<g id="node17" class="node"><title>Node16</title>
<g id="a_node17"><a xlink:href="_sys_ex_def_8h.html" target="_top" xlink:title="SysEx structures and definitions.">
<polygon fill="white" stroke="black" points="657,-56.5 657,-75.5 725,-75.5 725,-56.5 657,-56.5"/>
<text text-anchor="middle" x="691" y="-63.5" font-family="Helvetica,sans-Serif" font-size="10.00">SysExDef.h</text>
</a>
</g>
</g>
<!-- Node2&#45;&gt;Node16 -->
<g id="edge16" class="edge"><title>Node2&#45;&gt;Node16</title>
<path fill="none" stroke="midnightblue" d="M1105.27,-118.145C1035.27,-112.446 877.784,-98.3881 735.434,-76.091"/>
<polygon fill="midnightblue" stroke="midnightblue" points="735.637,-72.5795 725.212,-74.4713 734.541,-79.4933 735.637,-72.5795"/>
</g>
<!-- Node17 -->
<g id="node18" class="node"><title>Node17</title>
<g id="a_node18"><a xlink:href="_menu_class_8h.html" target="_top" xlink:title="Defines Base Menu class.">
<polygon fill="white" stroke="black" points="743,-56.5 743,-75.5 817,-75.5 817,-56.5 743,-56.5"/>
<text text-anchor="middle" x="780" y="-63.5" font-family="Helvetica,sans-Serif" font-size="10.00">MenuClass.h</text>
</a>
</g>
</g>
<!-- Node2&#45;&gt;Node17 -->
<g id="edge17" class="edge"><title>Node2&#45;&gt;Node17</title>
<path fill="none" stroke="midnightblue" d="M1105.41,-116.415C1048.23,-109.113 934,-93.9808 827.114,-76.1161"/>
<polygon fill="midnightblue" stroke="midnightblue" points="827.569,-72.6435 817.127,-74.4351 826.407,-79.5464 827.569,-72.6435"/>
</g>
<!-- Node19 -->
<g id="node20" class="node"><title>Node19</title>
<g id="a_node20"><a xlink:href="_o_l_e_d_menu_8h.html" target="_top" xlink:title="Defines Menu class for OLED screen.">
<polygon fill="white" stroke="black" points="835.5,-56.5 835.5,-75.5 910.5,-75.5 910.5,-56.5 835.5,-56.5"/>
<text text-anchor="middle" x="873" y="-63.5" font-family="Helvetica,sans-Serif" font-size="10.00">OLEDMenu.h</text>
</a>
</g>
</g>
<!-- Node2&#45;&gt;Node19 -->
<g id="edge19" class="edge"><title>Node2&#45;&gt;Node19</title>
<path fill="none" stroke="midnightblue" d="M1105.44,-113.661C1057.53,-104.044 973.414,-87.1575 920.585,-76.5525"/>
<polygon fill="midnightblue" stroke="midnightblue" points="921.272,-73.1206 910.779,-74.5839 919.895,-79.9837 921.272,-73.1206"/>
</g>
<!-- Node20 -->
<g id="node21" class="node"><title>Node20</title>
<g id="a_node21"><a xlink:href="_cfg_classes_8h.html" target="_top" xlink:title="Definition of enums and classes for Input configuration.">
<polygon fill="white" stroke="black" points="929,-56.5 929,-75.5 1003,-75.5 1003,-56.5 929,-56.5"/>
<text text-anchor="middle" x="966" y="-63.5" font-family="Helvetica,sans-Serif" font-size="10.00">CfgClasses.h</text>
</a>
</g>
</g>
<!-- Node2&#45;&gt;Node20 -->
<g id="edge20" class="edge"><title>Node2&#45;&gt;Node20</title>
<path fill="none" stroke="midnightblue" d="M1114.11,-112.444C1084.25,-103.28 1036.69,-88.6876 1003.54,-78.5192"/>
<polygon fill="midnightblue" stroke="midnightblue" points="1004.34,-75.1037 993.757,-75.5164 1002.29,-81.7958 1004.34,-75.1037"/>
</g>
<!-- Node21 -->
<g id="node22" class="node"><title>Node21</title>
<g id="a_node22"><a xlink:href="_input_port_8h.html" target="_top" xlink:title="Definition for Port classes InputPort, DigitalPort, AnalogPort and DemuxAnalogPort.">
<polygon fill="white" stroke="black" points="1021,-56.5 1021,-75.5 1085,-75.5 1085,-56.5 1021,-56.5"/>
<text text-anchor="middle" x="1053" y="-63.5" font-family="Helvetica,sans-Serif" font-size="10.00">InputPort.h</text>
</a>
</g>
</g>
<!-- Node2&#45;&gt;Node21 -->
<g id="edge21" class="edge"><title>Node2&#45;&gt;Node21</title>
<path fill="none" stroke="midnightblue" d="M1127.7,-112.324C1113.82,-103.9 1092.51,-90.9709 1076.2,-81.0741"/>
<polygon fill="midnightblue" stroke="midnightblue" points="1077.63,-77.8495 1067.26,-75.6545 1074,-83.8341 1077.63,-77.8495"/>
</g>
<!-- Node22 -->
<g id="node23" class="node"><title>Node22</title>
<g id="a_node23"><a xlink:href="_input_control_8h.html" target="_top" xlink:title="Definition for class InputControl to aggregate one CV, Fader and Gate inputs.">
<polygon fill="white" stroke="black" points="1103.5,-56.5 1103.5,-75.5 1180.5,-75.5 1180.5,-56.5 1103.5,-56.5"/>
<text text-anchor="middle" x="1142" y="-63.5" font-family="Helvetica,sans-Serif" font-size="10.00">InputControl.h</text>
</a>
</g>
</g>
<!-- Node2&#45;&gt;Node22 -->
<g id="edge22" class="edge"><title>Node2&#45;&gt;Node22</title>
<path fill="none" stroke="midnightblue" d="M1142,-112.083C1142,-105.006 1142,-94.8611 1142,-85.9865"/>
<polygon fill="midnightblue" stroke="midnightblue" points="1145.5,-85.751 1142,-75.7511 1138.5,-85.7511 1145.5,-85.751"/>
</g>
<!-- Node23 -->
<g id="node24" class="node"><title>Node23</title>
<g id="a_node24"><a xlink:href="_save_load_8h.html" target="_top" xlink:title="Configuration for Save/Load support.">
<polygon fill="white" stroke="black" points="1198.5,-56.5 1198.5,-75.5 1265.5,-75.5 1265.5,-56.5 1198.5,-56.5"/>
<text text-anchor="middle" x="1232" y="-63.5" font-family="Helvetica,sans-Serif" font-size="10.00">SaveLoad.h</text>
</a>
</g>
</g>
<!-- Node2&#45;&gt;Node23 -->
<g id="edge23" class="edge"><title>Node2&#45;&gt;Node23</title>
<path fill="none" stroke="midnightblue" d="M1156.46,-112.324C1170.5,-103.9 1192.05,-90.9709 1208.54,-81.0741"/>
<polygon fill="midnightblue" stroke="midnightblue" points="1210.8,-83.8007 1217.58,-75.6545 1207.2,-77.7983 1210.8,-83.8007"/>
</g>
<!-- Node24 -->
<g id="node25" class="node"><title>Node24</title>
<g id="a_node25"><a xlink:href="_m_i_d_imerger_8h.html" target="_top" xlink:title="MIDI Input/Output support.">
<polygon fill="white" stroke="black" points="1284,-56.5 1284,-75.5 1358,-75.5 1358,-56.5 1284,-56.5"/>
<text text-anchor="middle" x="1321" y="-63.5" font-family="Helvetica,sans-Serif" font-size="10.00">MIDImerger.h</text>
</a>
</g>
</g>
<!-- Node2&#45;&gt;Node24 -->
<g id="edge24" class="edge"><title>Node2&#45;&gt;Node24</title>
<path fill="none" stroke="midnightblue" d="M1170.36,-112.444C1200.74,-103.28 1249.11,-88.6876 1282.82,-78.5192"/>
<polygon fill="midnightblue" stroke="midnightblue" points="1284.21,-81.7555 1292.77,-75.5164 1282.18,-75.0538 1284.21,-81.7555"/>
</g>
<!-- Node25 -->
<g id="node26" class="node"><title>Node25</title>
<g id="a_node26"><a xlink:href="_v_c_m_c_app_8h.html" target="_top" xlink:title="Main App declarations.">
<polygon fill="white" stroke="black" points="1947.5,-56.5 1947.5,-75.5 2018.5,-75.5 2018.5,-56.5 1947.5,-56.5"/>
<text text-anchor="middle" x="1983" y="-63.5" font-family="Helvetica,sans-Serif" font-size="10.00">VCMCApp.h</text>
</a>
</g>
</g>
<!-- Node2&#45;&gt;Node25 -->
<g id="edge25" class="edge"><title>Node2&#45;&gt;Node25</title>
<path fill="none" stroke="midnightblue" d="M1178.66,-120.761C1290.78,-119.643 1638.98,-113.293 1937.08,-75.9158"/>
<polygon fill="midnightblue" stroke="midnightblue" points="1937.73,-79.3606 1947.21,-74.6302 1936.85,-72.4162 1937.73,-79.3606"/>
</g>
<!-- Node26 -->
<g id="node27" class="node"><title>Node26</title>
<g id="a_node27"><a xlink:href="_menu_lists_8h.html" target="_top" xlink:title="Predefine Menu functions callbacks and menu items.">
<polygon fill="white" stroke="black" points="2037,-56.5 2037,-75.5 2107,-75.5 2107,-56.5 2037,-56.5"/>
<text text-anchor="middle" x="2072" y="-63.5" font-family="Helvetica,sans-Serif" font-size="10.00">MenuLists.h</text>
</a>
</g>
</g>
<!-- Node2&#45;&gt;Node26 -->
<g id="edge27" class="edge"><title>Node2&#45;&gt;Node26</title>
<path fill="none" stroke="midnightblue" d="M1178.84,-121.055C1299.19,-120.829 1691.76,-116.882 2026.33,-75.8541"/>
<polygon fill="midnightblue" stroke="midnightblue" points="2027.21,-79.2711 2036.71,-74.567 2026.35,-72.3243 2027.21,-79.2711"/>
</g>
<!-- Node27 -->
<g id="node28" class="node"><title>Node27</title>
<g id="a_node28"><a xlink:href="_par_type_map_8h_source.html" target="_top" xlink:title=" ">
<polygon fill="white" stroke="black" points="1376,-56.5 1376,-75.5 1456,-75.5 1456,-56.5 1376,-56.5"/>
<text text-anchor="middle" x="1416" y="-63.5" font-family="Helvetica,sans-Serif" font-size="10.00">ParTypeMap.h</text>
</a>
</g>
</g>
<!-- Node2&#45;&gt;Node27 -->
<g id="edge29" class="edge"><title>Node2&#45;&gt;Node27</title>
<path fill="none" stroke="midnightblue" d="M1178.67,-113.773C1226.89,-104.27 1311.83,-87.5307 1365.93,-76.8671"/>
<polygon fill="midnightblue" stroke="midnightblue" points="1366.86,-80.2522 1375.99,-74.8846 1365.51,-73.3843 1366.86,-80.2522"/>
</g>
<!-- Node18 -->
<g id="node19" class="node"><title>Node18</title>
<g id="a_node19"><a xlink:title=" ">
<polygon fill="white" stroke="#bfbfbf" points="751,-0.5 751,-19.5 809,-19.5 809,-0.5 751,-0.5"/>
<text text-anchor="middle" x="780" y="-7.5" font-family="Helvetica,sans-Serif" font-size="10.00">Arduino.h</text>
</a>
</g>
</g>
<!-- Node17&#45;&gt;Node18 -->
<g id="edge18" class="edge"><title>Node17&#45;&gt;Node18</title>
<path fill="none" stroke="midnightblue" d="M780,-56.083C780,-49.0059 780,-38.8611 780,-29.9865"/>
<polygon fill="midnightblue" stroke="midnightblue" points="783.5,-29.751 780,-19.7511 776.5,-29.7511 783.5,-29.751"/>
</g>
<!-- Node25&#45;&gt;Node1 -->
<g id="edge26" class="edge"><title>Node25&#45;&gt;Node1</title>
<path fill="none" stroke="midnightblue" d="M1983,-75.5914C1983,-93.3079 1983,-134.254 1983,-158.348"/>
<polygon fill="midnightblue" stroke="midnightblue" points="1979.5,-158.368 1983,-168.368 1986.5,-158.369 1979.5,-158.368"/>
</g>
<!-- Node26&#45;&gt;Node1 -->
<g id="edge28" class="edge"><title>Node26&#45;&gt;Node1</title>
<path fill="none" stroke="midnightblue" d="M2065.05,-75.5914C2050.26,-93.8691 2015.47,-136.871 1996.28,-160.586"/>
<polygon fill="midnightblue" stroke="midnightblue" points="1993.55,-158.393 1989.98,-168.368 1998.99,-162.796 1993.55,-158.393"/>
</g>
</g>
</svg>
        <g id="navigator" transform="translate(0 0)" fill="#404254">
                <rect fill="#f2f5e9" fill-opacity="0.5" stroke="#606060" stroke-width=".5" x="0" y="0" width="60" height="60"/>
                <use id="zoomplus" xlink:href="#zoomPlus" x="17" y="9" onmousedown="handleZoom(evt,'in')"/>
                <use id="zoomminus" xlink:href="#zoomMin" x="42" y="9" onmousedown="handleZoom(evt,'out')"/>
                <use id="reset" xlink:href="#resetDef" x="30" y="36" onmousedown="handleReset()"/>
                <g id="arrowUp" xlink:href="#dirArrow" transform="translate(30 24)" onmousedown="handlePan(0,-1)">
                  <use xlink:href="#rim" fill="#404040">
                        <set attributeName="fill" to="#808080" begin="arrowUp.mouseover" end="arrowUp.mouseout"/>
                  </use>
                  <path fill="none" stroke="white" stroke-width="1.5" d="M0,-3.0v7 M-2.5,-0.5L0,-3.0L2.5,-0.5"/>
                </g>
                <g id="arrowRight" xlink:href="#dirArrow" transform="rotate(90) translate(36 -43)" onmousedown="handlePan(1,0)">
                  <use xlink:href="#rim" fill="#404040">
                        <set attributeName="fill" to="#808080" begin="arrowRight.mouseover" end="arrowRight.mouseout"/>
                  </use>
                  <path fill="none" stroke="white" stroke-width="1.5" d="M0,-3.0v7 M-2.5,-0.5L0,-3.0L2.5,-0.5"/>
                </g>
                <g id="arrowDown" xlink:href="#dirArrow" transform="rotate(180) translate(-30 -48)" onmousedown="handlePan(0,1)">
                  <use xlink:href="#rim" fill="#404040">
                        <set attributeName="fill" to="#808080" begin="arrowDown.mouseover" end="arrowDown.mouseout"/>
                  </use>
                  <path fill="none" stroke="white" stroke-width="1.5" d="M0,-3.0v7 M-2.5,-0.5L0,-3.0L2.5,-0.5"/>
                </g>
                <g id="arrowLeft" xlink:href="#dirArrow" transform="rotate(270) translate(-36 17)" onmousedown="handlePan(-1,0)">
                  <use xlink:href="#rim" fill="#404040">
                        <set attributeName="fill" to="#808080" begin="arrowLeft.mouseover" end="arrowLeft.mouseout"/>
                  </use>
                  <path fill="none" stroke="white" stroke-width="1.5" d="M0,-3.0v7 M-2.5,-0.5L0,-3.0L2.5,-0.5"/>
                </g>
        </g>
        <svg viewBox="0 0 15 15" width="100%" height="30px" preserveAspectRatio="xMaxYMin meet">
         <g id="arrow_out" transform="scale(0.3 0.3)">
          <a xlink:href="_menu_range_8ino__incl_org.svg" target="_base">
           <rect id="button" ry="5" rx="5" y="6" x="6" height="38" width="38"
                fill="#f2f5e9" fill-opacity="0.5" stroke="#606060" stroke-width="1.0"/>
           <path id="arrow"
             d="M 11.500037,31.436501 C 11.940474,20.09759 22.043105,11.32322 32.158766,21.979434 L 37.068811,17.246167 C 37.068811,17.246167 37.088388,32 37.088388,32 L 22.160133,31.978069 C 22.160133,31.978069 26.997745,27.140456 26.997745,27.140456 C 18.528582,18.264221 13.291696,25.230495 11.500037,31.436501 z"
             style="fill:#404040;"/>
          </a>
         </g>
        </svg>
</svg>
