<?xml version="1.0" encoding="UTF-8" standalone="no"?>
<!DOCTYPE svg PUBLIC "-//W3C//DTD SVG 1.1//EN"
 "http://www.w3.org/Graphics/SVG/1.1/DTD/svg11.dtd">
<!-- Generated by graphviz version 2.38.0 (20140413.2041)
 -->
<!-- Title: D:/Prog/Github/Befaco/VCMC/FirmwareTeen/MultiPointConv.h Pages: 1 -->
<svg width="4792pt" height="340pt"
 viewBox="0.00 0.00 4791.50 340.00" xmlns="http://www.w3.org/2000/svg" xmlns:xlink="http://www.w3.org/1999/xlink">
<g id="graph0" class="graph" transform="scale(1 1) rotate(0) translate(4 336)">
<title>D:/Prog/Github/Befaco/VCMC/FirmwareTeen/MultiPointConv.h</title>
<polygon fill="white" stroke="none" points="-4,4 -4,-336 4787.5,-336 4787.5,4 -4,4"/>
<!-- Node1 -->
<g id="node1" class="node"><title>Node1</title>
<g id="a_node1"><a xlink:title="Helper class for MIDI to DAC conversions.">
<polygon fill="#bfbfbf" stroke="black" points="1694.5,-290.5 1694.5,-331.5 1852.5,-331.5 1852.5,-290.5 1694.5,-290.5"/>
<text text-anchor="start" x="1702.5" y="-319.5" font-family="Helvetica,sans-Serif" font-size="10.00">D:/Prog/Github/Befaco</text>
<text text-anchor="start" x="1702.5" y="-308.5" font-family="Helvetica,sans-Serif" font-size="10.00">/VCMC/FirmwareTeen/MultiPoint</text>
<text text-anchor="middle" x="1773.5" y="-297.5" font-family="Helvetica,sans-Serif" font-size="10.00">Conv.h</text>
</a>
</g>
</g>
<!-- Node2 -->
<g id="node2" class="node"><title>Node2</title>
<g id="a_node2"><a xlink:href="_prj_includes_8h.html" target="_top" xlink:title="Includes for the project come here.">
<polygon fill="white" stroke="black" points="1688,-223.5 1688,-253.5 1859,-253.5 1859,-223.5 1688,-223.5"/>
<text text-anchor="start" x="1696" y="-241.5" font-family="Helvetica,sans-Serif" font-size="10.00">D:/Prog/Github/Befaco</text>
<text text-anchor="middle" x="1773.5" y="-230.5" font-family="Helvetica,sans-Serif" font-size="10.00">/VCMC/FirmwareTeen/PrjIncludes.h</text>
</a>
</g>
</g>
<!-- Node1&#45;&gt;Node2 -->
<g id="edge1" class="edge"><title>Node1&#45;&gt;Node2</title>
<path fill="none" stroke="midnightblue" d="M1773.5,-280.08C1773.5,-271.006 1773.5,-261.45 1773.5,-253.892"/>
<polygon fill="midnightblue" stroke="midnightblue" points="1770,-280.362 1773.5,-290.362 1777,-280.362 1770,-280.362"/>
</g>
<!-- Node3 -->
<g id="node3" class="node"><title>Node3</title>
<g id="a_node3"><a xlink:href="_definitions_8h.html" target="_top" xlink:title="Definitions and configuration flags.">
<polygon fill="white" stroke="black" points="2196.5,-156.5 2196.5,-186.5 2364.5,-186.5 2364.5,-156.5 2196.5,-156.5"/>
<text text-anchor="start" x="2204.5" y="-174.5" font-family="Helvetica,sans-Serif" font-size="10.00">D:/Prog/Github/Befaco</text>
<text text-anchor="middle" x="2280.5" y="-163.5" font-family="Helvetica,sans-Serif" font-size="10.00">/VCMC/FirmwareTeen/Definitions.h</text>
</a>
</g>
</g>
<!-- Node2&#45;&gt;Node3 -->
<g id="edge2" class="edge"><title>Node2&#45;&gt;Node3</title>
<path fill="none" stroke="midnightblue" d="M1869.32,-225.215C1963.56,-213.134 2106,-194.872 2196.09,-183.322"/>
<polygon fill="midnightblue" stroke="midnightblue" points="1868.69,-221.767 1859.22,-226.51 1869.58,-228.71 1868.69,-221.767"/>
</g>
<!-- Node30 -->
<g id="node30" class="node"><title>Node30</title>
<g id="a_node30"><a xlink:href="_cfg_classes_8ino.html" target="_top" xlink:title="Defines Configuration classes functions.">
<polygon fill="white" stroke="black" points="2382.5,-156.5 2382.5,-186.5 2562.5,-186.5 2562.5,-156.5 2382.5,-156.5"/>
<text text-anchor="start" x="2390.5" y="-174.5" font-family="Helvetica,sans-Serif" font-size="10.00">D:/Prog/Github/Befaco</text>
<text text-anchor="middle" x="2472.5" y="-163.5" font-family="Helvetica,sans-Serif" font-size="10.00">/VCMC/FirmwareTeen/CfgClasses.ino</text>
</a>
</g>
</g>
<!-- Node2&#45;&gt;Node30 -->
<g id="edge32" class="edge"><title>Node2&#45;&gt;Node30</title>
<path fill="none" stroke="midnightblue" d="M1869.25,-231.263C1987.83,-223.121 2195.9,-207.46 2373.5,-187 2376.43,-186.662 2379.41,-186.305 2382.42,-185.933"/>
<polygon fill="midnightblue" stroke="midnightblue" points="1868.85,-227.782 1859.11,-231.956 1869.33,-234.766 1868.85,-227.782"/>
</g>
<!-- Node4 -->
<g id="node4" class="node"><title>Node4</title>
<g id="a_node4"><a xlink:href="_cal_menu_8ino.html" target="_top" xlink:title="Defines Menu functions callbacks response for calibration and clock configuration.">
<polygon fill="white" stroke="black" points="3834,-84 3834,-114 4003,-114 4003,-84 3834,-84"/>
<text text-anchor="start" x="3842" y="-102" font-family="Helvetica,sans-Serif" font-size="10.00">D:/Prog/Github/Befaco</text>
<text text-anchor="middle" x="3918.5" y="-91" font-family="Helvetica,sans-Serif" font-size="10.00">/VCMC/FirmwareTeen/CalMenu.ino</text>
</a>
</g>
</g>
<!-- Node3&#45;&gt;Node4 -->
<g id="edge3" class="edge"><title>Node3&#45;&gt;Node4</title>
<path fill="none" stroke="midnightblue" d="M2374.58,-155.997C3018.17,-99.1558 3187.77,-195.803 3825.5,-120 3837.14,-118.616 3849.48,-116.461 3861.23,-114.07"/>
<polygon fill="midnightblue" stroke="midnightblue" points="2374.24,-152.514 2364.59,-156.888 2374.86,-159.486 2374.24,-152.514"/>
</g>
<!-- Node5 -->
<g id="node5" class="node"><title>Node5</title>
<g id="a_node5"><a xlink:href="_v_c_m_c_app_8h.html" target="_top" xlink:title="Main App declarations.">
<polygon fill="white" stroke="black" points="0,-84 0,-114 169,-114 169,-84 0,-84"/>
<text text-anchor="start" x="8" y="-102" font-family="Helvetica,sans-Serif" font-size="10.00">D:/Prog/Github/Befaco</text>
<text text-anchor="middle" x="84.5" y="-91" font-family="Helvetica,sans-Serif" font-size="10.00">/VCMC/FirmwareTeen/VCMCApp.h</text>
</a>
</g>
</g>
<!-- Node3&#45;&gt;Node5 -->
<g id="edge4" class="edge"><title>Node3&#45;&gt;Node5</title>
<path fill="none" stroke="midnightblue" d="M2186.18,-170.56C1831.16,-170.424 575.427,-166.585 178.5,-120 166.652,-118.609 154.089,-116.435 142.136,-114.024"/>
<polygon fill="midnightblue" stroke="midnightblue" points="2186.41,-174.06 2196.41,-170.563 2186.42,-167.06 2186.41,-174.06"/>
</g>
<!-- Node6 -->
<g id="node6" class="node"><title>Node6</title>
<g id="a_node6"><a xlink:href="_menu_lists_8h.html" target="_top" xlink:title="Predefine Menu functions callbacks and menu items.">
<polygon fill="white" stroke="black" points="187.5,-84 187.5,-114 355.5,-114 355.5,-84 187.5,-84"/>
<text text-anchor="start" x="195.5" y="-102" font-family="Helvetica,sans-Serif" font-size="10.00">D:/Prog/Github/Befaco</text>
<text text-anchor="middle" x="271.5" y="-91" font-family="Helvetica,sans-Serif" font-size="10.00">/VCMC/FirmwareTeen/MenuLists.h</text>
</a>
</g>
</g>
<!-- Node3&#45;&gt;Node6 -->
<g id="edge6" class="edge"><title>Node3&#45;&gt;Node6</title>
<path fill="none" stroke="midnightblue" d="M2186.19,-169.042C1825.68,-163.328 545.869,-141.702 364.5,-120 352.857,-118.607 340.519,-116.448 328.767,-114.056"/>
<polygon fill="midnightblue" stroke="midnightblue" points="2186.28,-172.544 2196.33,-169.202 2186.39,-165.545 2186.28,-172.544"/>
</g>
<!-- Node7 -->
<g id="node7" class="node"><title>Node7</title>
<g id="a_node7"><a xlink:href="_firmware_teen_8ino.html" target="_top" xlink:title="Project main loop.">
<polygon fill="white" stroke="black" points="2074,-0.5 2074,-41.5 2229,-41.5 2229,-0.5 2074,-0.5"/>
<text text-anchor="start" x="2082" y="-29.5" font-family="Helvetica,sans-Serif" font-size="10.00">D:/Prog/Github/Befaco</text>
<text text-anchor="start" x="2082" y="-18.5" font-family="Helvetica,sans-Serif" font-size="10.00">/VCMC/FirmwareTeen/Firmware</text>
<text text-anchor="middle" x="2151.5" y="-7.5" font-family="Helvetica,sans-Serif" font-size="10.00">Teen.ino</text>
</a>
</g>
</g>
<!-- Node3&#45;&gt;Node7 -->
<g id="edge9" class="edge"><title>Node3&#45;&gt;Node7</title>
<path fill="none" stroke="midnightblue" d="M2374.87,-156.407C2520.89,-151.985 3981.71,-151.472 4012.5,-120 4025.55,-106.657 4025.5,-91.3964 4012.5,-78 3980.96,-45.4964 2577.45,-26.9749 2229.11,-22.8736"/>
<polygon fill="midnightblue" stroke="midnightblue" points="2374.42,-152.924 2364.59,-156.878 2374.74,-159.916 2374.42,-152.924"/>
</g>
<!-- Node8 -->
<g id="node8" class="node"><title>Node8</title>
<g id="a_node8"><a xlink:href="_graf_util_8ino.html" target="_top" xlink:title="Defines Helper functions for OLED screen user interface.">
<polygon fill="white" stroke="black" points="4060,-84 4060,-114 4223,-114 4223,-84 4060,-84"/>
<text text-anchor="start" x="4068" y="-102" font-family="Helvetica,sans-Serif" font-size="10.00">D:/Prog/Github/Befaco</text>
<text text-anchor="middle" x="4141.5" y="-91" font-family="Helvetica,sans-Serif" font-size="10.00">/VCMC/FirmwareTeen/GrafUtil.ino</text>
</a>
</g>
</g>
<!-- Node3&#45;&gt;Node8 -->
<g id="edge10" class="edge"><title>Node3&#45;&gt;Node8</title>
<path fill="none" stroke="midnightblue" d="M2374.71,-155.989C3115.66,-91.6244 3310.33,-203.773 4045.5,-120 4057.59,-118.622 4070.42,-116.453 4082.63,-114.044"/>
<polygon fill="midnightblue" stroke="midnightblue" points="2374.24,-152.516 2364.59,-156.876 2374.86,-159.489 2374.24,-152.516"/>
</g>
<!-- Node9 -->
<g id="node9" class="node"><title>Node9</title>
<g id="a_node9"><a xlink:href="_input_control_8ino.html" target="_top" xlink:title="Functions definition for Input Control class.">
<polygon fill="white" stroke="black" points="4241.5,-84 4241.5,-114 4423.5,-114 4423.5,-84 4241.5,-84"/>
<text text-anchor="start" x="4249.5" y="-102" font-family="Helvetica,sans-Serif" font-size="10.00">D:/Prog/Github/Befaco</text>
<text text-anchor="middle" x="4332.5" y="-91" font-family="Helvetica,sans-Serif" font-size="10.00">/VCMC/FirmwareTeen/InputControl.ino</text>
</a>
</g>
</g>
<!-- Node3&#45;&gt;Node9 -->
<g id="edge11" class="edge"><title>Node3&#45;&gt;Node9</title>
<path fill="none" stroke="midnightblue" d="M2374.61,-155.999C3198.49,-85.1881 3414.28,-209.027 4232.5,-120 4245.17,-118.621 4258.63,-116.436 4271.42,-114.007"/>
<polygon fill="midnightblue" stroke="midnightblue" points="2374.25,-152.518 2364.59,-156.868 2374.85,-159.491 2374.25,-152.518"/>
</g>
<!-- Node10 -->
<g id="node10" class="node"><title>Node10</title>
<g id="a_node10"><a xlink:href="_input_port_8ino.html" target="_top" xlink:title="Definition of base class functions related to both Analog and Digital input ports.">
<polygon fill="white" stroke="black" points="4441.5,-84 4441.5,-114 4611.5,-114 4611.5,-84 4441.5,-84"/>
<text text-anchor="start" x="4449.5" y="-102" font-family="Helvetica,sans-Serif" font-size="10.00">D:/Prog/Github/Befaco</text>
<text text-anchor="middle" x="4526.5" y="-91" font-family="Helvetica,sans-Serif" font-size="10.00">/VCMC/FirmwareTeen/InputPort.ino</text>
</a>
</g>
</g>
<!-- Node3&#45;&gt;Node10 -->
<g id="edge12" class="edge"><title>Node3&#45;&gt;Node10</title>
<path fill="none" stroke="midnightblue" d="M2374.56,-156.021C2845.66,-117.435 3981.04,-171.49 4432.5,-120 4444.44,-118.639 4457.09,-116.461 4469.12,-114.034"/>
<polygon fill="midnightblue" stroke="midnightblue" points="2374.26,-152.534 2364.59,-156.861 2374.85,-159.51 2374.26,-152.534"/>
</g>
<!-- Node11 -->
<g id="node11" class="node"><title>Node11</title>
<g id="a_node11"><a xlink:href="_input_port_anag_8ino.html" target="_top" xlink:title="Definition of functions related to Analog (CV and Fader) input ports.">
<polygon fill="white" stroke="black" points="4629.5,-78.5 4629.5,-119.5 4783.5,-119.5 4783.5,-78.5 4629.5,-78.5"/>
<text text-anchor="start" x="4637.5" y="-107.5" font-family="Helvetica,sans-Serif" font-size="10.00">D:/Prog/Github/Befaco</text>
<text text-anchor="start" x="4637.5" y="-96.5" font-family="Helvetica,sans-Serif" font-size="10.00">/VCMC/FirmwareTeen/InputPort</text>
<text text-anchor="middle" x="4706.5" y="-85.5" font-family="Helvetica,sans-Serif" font-size="10.00">Anag.ino</text>
</a>
</g>
</g>
<!-- Node3&#45;&gt;Node11 -->
<g id="edge13" class="edge"><title>Node3&#45;&gt;Node11</title>
<path fill="none" stroke="midnightblue" d="M2374.7,-156.011C2887.58,-114.315 4128.1,-180.502 4620.5,-120 4623.39,-119.645 4626.33,-119.232 4629.28,-118.773"/>
<polygon fill="midnightblue" stroke="midnightblue" points="2374.26,-152.535 2364.59,-156.855 2374.84,-159.511 2374.26,-152.535"/>
</g>
<!-- Node12 -->
<g id="node12" class="node"><title>Node12</title>
<g id="a_node12"><a xlink:href="_input_port_dig_8ino.html" target="_top" xlink:title="Definition of functions related to Digital input ports.">
<polygon fill="white" stroke="black" points="373.5,-78.5 373.5,-119.5 527.5,-119.5 527.5,-78.5 373.5,-78.5"/>
<text text-anchor="start" x="381.5" y="-107.5" font-family="Helvetica,sans-Serif" font-size="10.00">D:/Prog/Github/Befaco</text>
<text text-anchor="start" x="381.5" y="-96.5" font-family="Helvetica,sans-Serif" font-size="10.00">/VCMC/FirmwareTeen/InputPort</text>
<text text-anchor="middle" x="450.5" y="-85.5" font-family="Helvetica,sans-Serif" font-size="10.00">Dig.ino</text>
</a>
</g>
</g>
<!-- Node3&#45;&gt;Node12 -->
<g id="edge14" class="edge"><title>Node3&#45;&gt;Node12</title>
<path fill="none" stroke="midnightblue" d="M2186.27,-168.857C1847.25,-162.794 700.952,-140.947 537.5,-120 534.272,-119.586 530.988,-119.106 527.679,-118.572"/>
<polygon fill="midnightblue" stroke="midnightblue" points="2186.25,-172.357 2196.31,-169.036 2186.37,-165.358 2186.25,-172.357"/>
</g>
<!-- Node13 -->
<g id="node13" class="node"><title>Node13</title>
<g id="a_node13"><a xlink:href="_menu_anag_8ino.html" target="_top" xlink:title="Defines Menu functions callbacks response for Analog Ports configuration.">
<polygon fill="white" stroke="black" points="546,-84 546,-114 723,-114 723,-84 546,-84"/>
<text text-anchor="start" x="554" y="-102" font-family="Helvetica,sans-Serif" font-size="10.00">D:/Prog/Github/Befaco</text>
<text text-anchor="middle" x="634.5" y="-91" font-family="Helvetica,sans-Serif" font-size="10.00">/VCMC/FirmwareTeen/MenuAnag.ino</text>
</a>
</g>
</g>
<!-- Node3&#45;&gt;Node13 -->
<g id="edge15" class="edge"><title>Node3&#45;&gt;Node13</title>
<path fill="none" stroke="midnightblue" d="M2186.1,-169.508C1895.39,-166.124 1016.22,-153.337 732.5,-120 720.342,-118.571 707.448,-116.413 695.145,-114.035"/>
<polygon fill="midnightblue" stroke="midnightblue" points="2186.15,-173.009 2196.19,-169.625 2186.23,-166.009 2186.15,-173.009"/>
</g>
<!-- Node14 -->
<g id="node14" class="node"><title>Node14</title>
<g id="a_node14"><a xlink:href="_menu_block_8ino.html" target="_top" xlink:title="Defines Menu functions callbacks response for Bank configuration.">
<polygon fill="white" stroke="black" points="741,-84 741,-114 920,-114 920,-84 741,-84"/>
<text text-anchor="start" x="749" y="-102" font-family="Helvetica,sans-Serif" font-size="10.00">D:/Prog/Github/Befaco</text>
<text text-anchor="middle" x="830.5" y="-91" font-family="Helvetica,sans-Serif" font-size="10.00">/VCMC/FirmwareTeen/MenuBlock.ino</text>
</a>
</g>
</g>
<!-- Node3&#45;&gt;Node14 -->
<g id="edge16" class="edge"><title>Node3&#45;&gt;Node14</title>
<path fill="none" stroke="midnightblue" d="M2186.02,-168.961C1920.86,-164.323 1173.3,-148.989 929.5,-120 917.312,-118.551 904.387,-116.399 892.039,-114.037"/>
<polygon fill="midnightblue" stroke="midnightblue" points="2186.32,-172.466 2196.38,-169.141 2186.45,-165.467 2186.32,-172.466"/>
</g>
<!-- Node15 -->
<g id="node15" class="node"><title>Node15</title>
<g id="a_node15"><a xlink:href="_menu_gate_8ino.html" target="_top" xlink:title="Defines Menu functions callbacks response for Gate configuration.">
<polygon fill="white" stroke="black" points="938.5,-84 938.5,-114 1114.5,-114 1114.5,-84 938.5,-84"/>
<text text-anchor="start" x="946.5" y="-102" font-family="Helvetica,sans-Serif" font-size="10.00">D:/Prog/Github/Befaco</text>
<text text-anchor="middle" x="1026.5" y="-91" font-family="Helvetica,sans-Serif" font-size="10.00">/VCMC/FirmwareTeen/MenuGate.ino</text>
</a>
</g>
</g>
<!-- Node3&#45;&gt;Node15 -->
<g id="edge17" class="edge"><title>Node3&#45;&gt;Node15</title>
<path fill="none" stroke="midnightblue" d="M2186.44,-168.333C1948.73,-162.547 1328.32,-145.42 1123.5,-120 1111.64,-118.528 1099.07,-116.381 1087.05,-114.035"/>
<polygon fill="midnightblue" stroke="midnightblue" points="2186.36,-171.833 2196.44,-168.576 2186.53,-164.835 2186.36,-171.833"/>
</g>
<!-- Node16 -->
<g id="node16" class="node"><title>Node16</title>
<g id="a_node16"><a xlink:href="_menu_main_8ino.html" target="_top" xlink:title="Defines Menu functions callbacks response for Main/General configuration.">
<polygon fill="white" stroke="black" points="1132.5,-84 1132.5,-114 1308.5,-114 1308.5,-84 1132.5,-84"/>
<text text-anchor="start" x="1140.5" y="-102" font-family="Helvetica,sans-Serif" font-size="10.00">D:/Prog/Github/Befaco</text>
<text text-anchor="middle" x="1220.5" y="-91" font-family="Helvetica,sans-Serif" font-size="10.00">/VCMC/FirmwareTeen/MenuMain.ino</text>
</a>
</g>
</g>
<!-- Node3&#45;&gt;Node16 -->
<g id="edge18" class="edge"><title>Node3&#45;&gt;Node16</title>
<path fill="none" stroke="midnightblue" d="M2186.31,-170.266C2013.43,-168.792 1634.16,-160.712 1317.5,-120 1305.73,-118.487 1293.26,-116.337 1281.32,-114.003"/>
<polygon fill="midnightblue" stroke="midnightblue" points="2186.36,-173.766 2196.39,-170.346 2186.42,-166.766 2186.36,-173.766"/>
</g>
<!-- Node17 -->
<g id="node17" class="node"><title>Node17</title>
<g id="a_node17"><a xlink:href="_menu_range_8ino.html" target="_top" xlink:title="Defines Menu functions callbacks response for Input/Output Range configuration.">
<polygon fill="white" stroke="black" points="1326.5,-84 1326.5,-114 1508.5,-114 1508.5,-84 1326.5,-84"/>
<text text-anchor="start" x="1334.5" y="-102" font-family="Helvetica,sans-Serif" font-size="10.00">D:/Prog/Github/Befaco</text>
<text text-anchor="middle" x="1417.5" y="-91" font-family="Helvetica,sans-Serif" font-size="10.00">/VCMC/FirmwareTeen/MenuRange.ino</text>
</a>
</g>
</g>
<!-- Node3&#45;&gt;Node17 -->
<g id="edge19" class="edge"><title>Node3&#45;&gt;Node17</title>
<path fill="none" stroke="midnightblue" d="M2186.15,-168.237C2041.64,-163.874 1757.03,-151.74 1517.5,-120 1505.65,-118.43 1493.1,-116.298 1481.04,-114.008"/>
<polygon fill="midnightblue" stroke="midnightblue" points="2186.21,-171.74 2196.31,-168.538 2186.42,-164.743 2186.21,-171.74"/>
</g>
<!-- Node18 -->
<g id="node18" class="node"><title>Node18</title>
<g id="a_node18"><a xlink:href="_m_i_d_imerger_8ino.html" target="_top" xlink:title="MIDI Input/Output support.">
<polygon fill="white" stroke="black" points="1526.5,-84 1526.5,-114 1706.5,-114 1706.5,-84 1526.5,-84"/>
<text text-anchor="start" x="1534.5" y="-102" font-family="Helvetica,sans-Serif" font-size="10.00">D:/Prog/Github/Befaco</text>
<text text-anchor="middle" x="1616.5" y="-91" font-family="Helvetica,sans-Serif" font-size="10.00">/VCMC/FirmwareTeen/MIDImerger.ino</text>
</a>
</g>
</g>
<!-- Node3&#45;&gt;Node18 -->
<g id="edge20" class="edge"><title>Node3&#45;&gt;Node18</title>
<path fill="none" stroke="midnightblue" d="M2185.8,-165.157C2073.45,-158.095 1880.68,-143.697 1716.5,-120 1705.11,-118.356 1693.06,-116.257 1681.41,-114.041"/>
<polygon fill="midnightblue" stroke="midnightblue" points="2185.88,-168.669 2196.08,-165.797 2186.32,-161.682 2185.88,-168.669"/>
</g>
<!-- Node19 -->
<g id="node19" class="node"><title>Node19</title>
<g id="a_node19"><a xlink:href="_o_l_e_d_menu_8ino.html" target="_top" xlink:title="Defines Menu class functions for OLED screen.">
<polygon fill="white" stroke="black" points="1725,-84 1725,-114 1906,-114 1906,-84 1725,-84"/>
<text text-anchor="start" x="1733" y="-102" font-family="Helvetica,sans-Serif" font-size="10.00">D:/Prog/Github/Befaco</text>
<text text-anchor="middle" x="1815.5" y="-91" font-family="Helvetica,sans-Serif" font-size="10.00">/VCMC/FirmwareTeen/OLEDMenu.ino</text>
</a>
</g>
</g>
<!-- Node3&#45;&gt;Node19 -->
<g id="edge21" class="edge"><title>Node3&#45;&gt;Node19</title>
<path fill="none" stroke="midnightblue" d="M2185.99,-159.003C2112.16,-149.641 2007.07,-135.477 1915.5,-120 1904.85,-118.2 1893.6,-116.122 1882.64,-114.001"/>
<polygon fill="midnightblue" stroke="midnightblue" points="2185.84,-162.511 2196.2,-160.292 2186.71,-155.566 2185.84,-162.511"/>
</g>
<!-- Node20 -->
<g id="node20" class="node"><title>Node20</title>
<g id="a_node20"><a xlink:href="_o_l_e_d_menu_config_8ino.html" target="_top" xlink:title="Defines functions for configuration screen.">
<polygon fill="white" stroke="black" points="1924,-78.5 1924,-119.5 2089,-119.5 2089,-78.5 1924,-78.5"/>
<text text-anchor="start" x="1932" y="-107.5" font-family="Helvetica,sans-Serif" font-size="10.00">D:/Prog/Github/Befaco</text>
<text text-anchor="start" x="1932" y="-96.5" font-family="Helvetica,sans-Serif" font-size="10.00">/VCMC/FirmwareTeen/OLEDMenu</text>
<text text-anchor="middle" x="2006.5" y="-85.5" font-family="Helvetica,sans-Serif" font-size="10.00">Config.ino</text>
</a>
</g>
</g>
<!-- Node3&#45;&gt;Node20 -->
<g id="edge22" class="edge"><title>Node3&#45;&gt;Node20</title>
<path fill="none" stroke="midnightblue" d="M2216.12,-153.936C2176.09,-143.635 2124.41,-130.338 2082.38,-119.525"/>
<polygon fill="midnightblue" stroke="midnightblue" points="2215.48,-157.385 2226.04,-156.487 2217.23,-150.606 2215.48,-157.385"/>
</g>
<!-- Node21 -->
<g id="node21" class="node"><title>Node21</title>
<g id="a_node21"><a xlink:href="_o_s_c_config_port_8ino.html" target="_top" xlink:title="Functions for OSC processing.">
<polygon fill="white" stroke="black" points="2107,-78.5 2107,-119.5 2270,-119.5 2270,-78.5 2107,-78.5"/>
<text text-anchor="start" x="2115" y="-107.5" font-family="Helvetica,sans-Serif" font-size="10.00">D:/Prog/Github/Befaco</text>
<text text-anchor="start" x="2115" y="-96.5" font-family="Helvetica,sans-Serif" font-size="10.00">/VCMC/FirmwareTeen/OSCConfig</text>
<text text-anchor="middle" x="2188.5" y="-85.5" font-family="Helvetica,sans-Serif" font-size="10.00">Port.ino</text>
</a>
</g>
</g>
<!-- Node3&#45;&gt;Node21 -->
<g id="edge23" class="edge"><title>Node3&#45;&gt;Node21</title>
<path fill="none" stroke="midnightblue" d="M2253.66,-149.933C2241.17,-140.363 2226.39,-129.034 2214.06,-119.588"/>
<polygon fill="midnightblue" stroke="midnightblue" points="2251.82,-152.929 2261.88,-156.233 2256.07,-147.373 2251.82,-152.929"/>
</g>
<!-- Node22 -->
<g id="node22" class="node"><title>Node22</title>
<g id="a_node22"><a xlink:href="_o_s_c_merge_8h.html" target="_top" xlink:title="OSC I/O management.">
<polygon fill="white" stroke="black" points="2288,-84 2288,-114 2459,-114 2459,-84 2288,-84"/>
<text text-anchor="start" x="2296" y="-102" font-family="Helvetica,sans-Serif" font-size="10.00">D:/Prog/Github/Befaco</text>
<text text-anchor="middle" x="2373.5" y="-91" font-family="Helvetica,sans-Serif" font-size="10.00">/VCMC/FirmwareTeen/OSCMerge.h</text>
</a>
</g>
</g>
<!-- Node3&#45;&gt;Node22 -->
<g id="edge24" class="edge"><title>Node3&#45;&gt;Node22</title>
<path fill="none" stroke="midnightblue" d="M2307.4,-150.11C2322.67,-138.529 2341.41,-124.328 2355.03,-114.005"/>
<polygon fill="midnightblue" stroke="midnightblue" points="2305.17,-147.403 2299.32,-156.233 2309.4,-152.981 2305.17,-147.403"/>
</g>
<!-- Node23 -->
<g id="node23" class="node"><title>Node23</title>
<g id="a_node23"><a xlink:href="_o_s_c_merge_8ino.html" target="_top" xlink:title="OSC I/O management functions.">
<polygon fill="white" stroke="black" points="2477,-84 2477,-114 2656,-114 2656,-84 2477,-84"/>
<text text-anchor="start" x="2485" y="-102" font-family="Helvetica,sans-Serif" font-size="10.00">D:/Prog/Github/Befaco</text>
<text text-anchor="middle" x="2566.5" y="-91" font-family="Helvetica,sans-Serif" font-size="10.00">/VCMC/FirmwareTeen/OSCMerge.ino</text>
</a>
</g>
</g>
<!-- Node3&#45;&gt;Node23 -->
<g id="edge25" class="edge"><title>Node3&#45;&gt;Node23</title>
<path fill="none" stroke="midnightblue" d="M2347.25,-154.046C2396.4,-141.931 2462.53,-125.629 2509.27,-114.107"/>
<polygon fill="midnightblue" stroke="midnightblue" points="2346.22,-150.695 2337.35,-156.487 2347.89,-157.492 2346.22,-150.695"/>
</g>
<!-- Node24 -->
<g id="node24" class="node"><title>Node24</title>
<g id="a_node24"><a xlink:href="_save_load_8ino.html" target="_top" xlink:title="Configuration for Save/Load support.">
<polygon fill="white" stroke="black" points="2674,-84 2674,-114 2847,-114 2847,-84 2674,-84"/>
<text text-anchor="start" x="2682" y="-102" font-family="Helvetica,sans-Serif" font-size="10.00">D:/Prog/Github/Befaco</text>
<text text-anchor="middle" x="2760.5" y="-91" font-family="Helvetica,sans-Serif" font-size="10.00">/VCMC/FirmwareTeen/SaveLoad.ino</text>
</a>
</g>
</g>
<!-- Node3&#45;&gt;Node24 -->
<g id="edge26" class="edge"><title>Node3&#45;&gt;Node24</title>
<path fill="none" stroke="midnightblue" d="M2374.58,-155.883C2504.7,-138.085 2539.67,-140.964 2665.5,-120 2675.89,-118.269 2686.87,-116.191 2697.53,-114.039"/>
<polygon fill="midnightblue" stroke="midnightblue" points="2374.06,-152.422 2364.63,-157.259 2375.02,-159.356 2374.06,-152.422"/>
</g>
<!-- Node25 -->
<g id="node25" class="node"><title>Node25</title>
<g id="a_node25"><a xlink:href="set_values_8ino.html" target="_top" xlink:title="Definiton and support for pre defined set of configuration values.">
<polygon fill="white" stroke="black" points="2865.5,-84 2865.5,-114 3039.5,-114 3039.5,-84 2865.5,-84"/>
<text text-anchor="start" x="2873.5" y="-102" font-family="Helvetica,sans-Serif" font-size="10.00">D:/Prog/Github/Befaco</text>
<text text-anchor="middle" x="2952.5" y="-91" font-family="Helvetica,sans-Serif" font-size="10.00">/VCMC/FirmwareTeen/setValues.ino</text>
</a>
</g>
</g>
<!-- Node3&#45;&gt;Node25 -->
<g id="edge27" class="edge"><title>Node3&#45;&gt;Node25</title>
<path fill="none" stroke="midnightblue" d="M2374.61,-155.941C2589.08,-131.952 2646.57,-149.562 2856.5,-120 2867.79,-118.409 2879.75,-116.282 2891.25,-114.007"/>
<polygon fill="midnightblue" stroke="midnightblue" points="2374.15,-152.47 2364.61,-157.077 2374.94,-159.426 2374.15,-152.47"/>
</g>
<!-- Node26 -->
<g id="node26" class="node"><title>Node26</title>
<g id="a_node26"><a xlink:href="_sys_ex_config_port_8ino.html" target="_top" xlink:title="SysEx Send/Receive support for configuration classes.">
<polygon fill="white" stroke="black" points="3058,-78.5 3058,-119.5 3229,-119.5 3229,-78.5 3058,-78.5"/>
<text text-anchor="start" x="3066" y="-107.5" font-family="Helvetica,sans-Serif" font-size="10.00">D:/Prog/Github/Befaco</text>
<text text-anchor="start" x="3066" y="-96.5" font-family="Helvetica,sans-Serif" font-size="10.00">/VCMC/FirmwareTeen/SysExConfig</text>
<text text-anchor="middle" x="3143.5" y="-85.5" font-family="Helvetica,sans-Serif" font-size="10.00">Port.ino</text>
</a>
</g>
</g>
<!-- Node3&#45;&gt;Node26 -->
<g id="edge28" class="edge"><title>Node3&#45;&gt;Node26</title>
<path fill="none" stroke="midnightblue" d="M2374.88,-155.937C2674.09,-125.579 2753.97,-158.623 3048.5,-120 3051.59,-119.595 3054.73,-119.143 3057.9,-118.655"/>
<polygon fill="midnightblue" stroke="midnightblue" points="2374.19,-152.49 2364.6,-156.997 2374.91,-159.453 2374.19,-152.49"/>
</g>
<!-- Node27 -->
<g id="node27" class="node"><title>Node27</title>
<g id="a_node27"><a xlink:href="_sys_ex_send_rec_8ino.html" target="_top" xlink:title="SysEx Send/Receive support.">
<polygon fill="white" stroke="black" points="3247,-78.5 3247,-119.5 3414,-119.5 3414,-78.5 3247,-78.5"/>
<text text-anchor="start" x="3255" y="-107.5" font-family="Helvetica,sans-Serif" font-size="10.00">D:/Prog/Github/Befaco</text>
<text text-anchor="start" x="3255" y="-96.5" font-family="Helvetica,sans-Serif" font-size="10.00">/VCMC/FirmwareTeen/SysExSend</text>
<text text-anchor="middle" x="3330.5" y="-85.5" font-family="Helvetica,sans-Serif" font-size="10.00">Rec.ino</text>
</a>
</g>
</g>
<!-- Node3&#45;&gt;Node27 -->
<g id="edge29" class="edge"><title>Node3&#45;&gt;Node27</title>
<path fill="none" stroke="midnightblue" d="M2374.58,-155.981C2758.16,-119.162 2860.12,-168.632 3238.5,-120 3241.26,-119.646 3244.05,-119.25 3246.87,-118.821"/>
<polygon fill="midnightblue" stroke="midnightblue" points="2374.21,-152.5 2364.6,-156.952 2374.89,-159.467 2374.21,-152.5"/>
</g>
<!-- Node28 -->
<g id="node28" class="node"><title>Node28</title>
<g id="a_node28"><a xlink:href="_v_c_m_c_app_8ino.html" target="_top" xlink:title="Main App functions and interrupt handling.">
<polygon fill="white" stroke="black" points="3432.5,-84 3432.5,-114 3608.5,-114 3608.5,-84 3432.5,-84"/>
<text text-anchor="start" x="3440.5" y="-102" font-family="Helvetica,sans-Serif" font-size="10.00">D:/Prog/Github/Befaco</text>
<text text-anchor="middle" x="3520.5" y="-91" font-family="Helvetica,sans-Serif" font-size="10.00">/VCMC/FirmwareTeen/VCMCApp.ino</text>
</a>
</g>
</g>
<!-- Node3&#45;&gt;Node28 -->
<g id="edge30" class="edge"><title>Node3&#45;&gt;Node28</title>
<path fill="none" stroke="midnightblue" d="M2374.6,-155.985C2840.1,-112.845 2963.13,-174.952 3423.5,-120 3435.54,-118.563 3448.3,-116.401 3460.48,-114.022"/>
<polygon fill="midnightblue" stroke="midnightblue" points="2374.22,-152.506 2364.59,-156.924 2374.88,-159.475 2374.22,-152.506"/>
</g>
<!-- Node29 -->
<g id="node29" class="node"><title>Node29</title>
<g id="a_node29"><a xlink:href="_v_c_m_c_app_init_8ino.html" target="_top" xlink:title="Define the functions for App initialisation.">
<polygon fill="white" stroke="black" points="3627,-84 3627,-114 3816,-114 3816,-84 3627,-84"/>
<text text-anchor="start" x="3635" y="-102" font-family="Helvetica,sans-Serif" font-size="10.00">D:/Prog/Github/Befaco</text>
<text text-anchor="middle" x="3721.5" y="-91" font-family="Helvetica,sans-Serif" font-size="10.00">/VCMC/FirmwareTeen/VCMCAppInit.ino</text>
</a>
</g>
</g>
<!-- Node3&#45;&gt;Node29 -->
<g id="edge31" class="edge"><title>Node3&#45;&gt;Node29</title>
<path fill="none" stroke="midnightblue" d="M2374.79,-155.973C2926.06,-106.207 3071.05,-180.055 3617.5,-120 3630.48,-118.574 3644.25,-116.4 3657.39,-114.004"/>
<polygon fill="midnightblue" stroke="midnightblue" points="2374.23,-152.51 2364.59,-156.904 2374.87,-159.481 2374.23,-152.51"/>
</g>
<!-- Node5&#45;&gt;Node2 -->
<g id="edge5" class="edge"><title>Node5&#45;&gt;Node2</title>
<path fill="none" stroke="midnightblue" d="M156.94,-116.021C164.208,-117.446 171.49,-118.8 178.5,-120 406.01,-158.938 463.576,-166.703 693.5,-187 1062.78,-219.599 1505.08,-231.956 1687.94,-235.901"/>
<polygon fill="midnightblue" stroke="midnightblue" points="157.556,-112.575 147.063,-114.042 156.181,-119.438 157.556,-112.575"/>
</g>
<!-- Node6&#45;&gt;Node2 -->
<g id="edge7" class="edge"><title>Node6&#45;&gt;Node2</title>
<path fill="none" stroke="midnightblue" d="M341.196,-116.001C349.031,-117.498 356.919,-118.874 364.5,-120 622.476,-158.334 1423.01,-213.988 1687.62,-231.796"/>
<polygon fill="midnightblue" stroke="midnightblue" points="341.815,-112.556 331.326,-114.05 340.457,-119.423 341.815,-112.556"/>
</g>
<!-- Node6&#45;&gt;Node7 -->
<g id="edge8" class="edge"><title>Node6&#45;&gt;Node7</title>
<path fill="none" stroke="midnightblue" d="M338.798,-82.033C347.409,-80.4315 356.134,-79.0221 364.5,-78 702.741,-36.6738 1775.29,-25.0427 2073.75,-22.5689"/>
<polygon fill="midnightblue" stroke="midnightblue" points="337.917,-78.639 328.773,-83.9898 339.258,-85.5093 337.917,-78.639"/>
</g>
</g>
</svg>
