<?xml version="1.0" encoding="UTF-8" standalone="no"?>
<!DOCTYPE svg PUBLIC "-//W3C//DTD SVG 1.1//EN"
 "http://www.w3.org/Graphics/SVG/1.1/DTD/svg11.dtd">
<!-- Generated by graphviz version 2.38.0 (20140413.2041)
 -->
<!-- Title: D:/Prog/Github/Befaco/VCMC/FirmwareTeen/PrjIncludes.h Pages: 1 -->
<svg width="2132pt" height="151pt"
 viewBox="0.00 0.00 2132.23 151.00" xmlns="http://www.w3.org/2000/svg" xmlns:xlink="http://www.w3.org/1999/xlink">
<g id="graph0" class="graph" transform="scale(1 1) rotate(0) translate(4 147)">
<title>D:/Prog/Github/Befaco/VCMC/FirmwareTeen/PrjIncludes.h</title>
<polygon fill="white" stroke="none" points="-4,4 -4,-147 2128.23,-147 2128.23,4 -4,4"/>
<!-- Node0 -->
<g id="node1" class="node"><title>Node0</title>
<g id="a_node1"><a xlink:title="Includes for the project come here.">
<polygon fill="#bfbfbf" stroke="black" points="981.5,-112.5 981.5,-142.5 1152.5,-142.5 1152.5,-112.5 981.5,-112.5"/>
<text text-anchor="start" x="989.5" y="-130.5" font-family="Helvetica,sans-Serif" font-size="10.00">D:/Prog/Github/Befaco</text>
<text text-anchor="middle" x="1067" y="-119.5" font-family="Helvetica,sans-Serif" font-size="10.00">/VCMC/FirmwareTeen/PrjIncludes.h</text>
</a>
</g>
</g>
<!-- Node1 -->
<g id="node2" class="node"><title>Node1</title>
<g id="a_node2"><a xlink:title=" ">
<polygon fill="white" stroke="#bfbfbf" points="0,-56.5 0,-75.5 82,-75.5 82,-56.5 0,-56.5"/>
<text text-anchor="middle" x="41" y="-63.5" font-family="Helvetica,sans-Serif" font-size="10.00">Adafruit_GFX.h</text>
</a>
</g>
</g>
<!-- Node0&#45;&gt;Node1 -->
<g id="edge1" class="edge"><title>Node0&#45;&gt;Node1</title>
<path fill="none" stroke="midnightblue" d="M981.185,-125.698C812.64,-123.328 426.439,-113.979 92.5014,-76.0193"/>
<polygon fill="midnightblue" stroke="midnightblue" points="92.4734,-72.4933 82.1396,-74.8303 91.6754,-79.4476 92.4734,-72.4933"/>
</g>
<!-- Node2 -->
<g id="node3" class="node"><title>Node2</title>
<g id="a_node3"><a xlink:title=" ">
<polygon fill="white" stroke="#bfbfbf" points="100,-56.5 100,-75.5 204,-75.5 204,-56.5 100,-56.5"/>
<text text-anchor="middle" x="152" y="-63.5" font-family="Helvetica,sans-Serif" font-size="10.00">Adafruit_SSD1306.h</text>
</a>
</g>
</g>
<!-- Node0&#45;&gt;Node2 -->
<g id="edge2" class="edge"><title>Node0&#45;&gt;Node2</title>
<path fill="none" stroke="midnightblue" d="M981.344,-123.913C829.083,-118.77 501.137,-105.235 214.389,-76.0536"/>
<polygon fill="midnightblue" stroke="midnightblue" points="214.511,-72.5479 204.206,-75.0089 213.796,-79.5113 214.511,-72.5479"/>
</g>
<!-- Node3 -->
<g id="node4" class="node"><title>Node3</title>
<g id="a_node4"><a xlink:title=" ">
<polygon fill="white" stroke="#bfbfbf" points="222.5,-56.5 222.5,-75.5 263.5,-75.5 263.5,-56.5 222.5,-56.5"/>
<text text-anchor="middle" x="243" y="-63.5" font-family="Helvetica,sans-Serif" font-size="10.00">SPI.h</text>
</a>
</g>
</g>
<!-- Node0&#45;&gt;Node3 -->
<g id="edge3" class="edge"><title>Node0&#45;&gt;Node3</title>
<path fill="none" stroke="midnightblue" d="M981.466,-123.634C809.002,-117.444 423.866,-101.437 273.732,-75.8683"/>
<polygon fill="midnightblue" stroke="midnightblue" points="274.22,-72.4002 263.761,-74.0907 272.991,-79.2915 274.22,-72.4002"/>
</g>
<!-- Node4 -->
<g id="node5" class="node"><title>Node4</title>
<g id="a_node5"><a xlink:title=" ">
<polygon fill="white" stroke="#bfbfbf" points="281.5,-56.5 281.5,-75.5 326.5,-75.5 326.5,-56.5 281.5,-56.5"/>
<text text-anchor="middle" x="304" y="-63.5" font-family="Helvetica,sans-Serif" font-size="10.00">Wire.h</text>
</a>
</g>
</g>
<!-- Node0&#45;&gt;Node4 -->
<g id="edge4" class="edge"><title>Node0&#45;&gt;Node4</title>
<path fill="none" stroke="midnightblue" d="M981.346,-126.253C845.995,-124.614 574.5,-116.25 336.472,-75.6795"/>
<polygon fill="midnightblue" stroke="midnightblue" points="337.043,-72.2264 326.594,-73.9738 335.852,-79.1244 337.043,-72.2264"/>
</g>
<!-- Node5 -->
<g id="node6" class="node"><title>Node5</title>
<g id="a_node6"><a xlink:title=" ">
<polygon fill="white" stroke="#bfbfbf" points="345,-56.5 345,-75.5 393,-75.5 393,-56.5 345,-56.5"/>
<text text-anchor="middle" x="369" y="-63.5" font-family="Helvetica,sans-Serif" font-size="10.00">limits.h</text>
</a>
</g>
</g>
<!-- Node0&#45;&gt;Node5 -->
<g id="edge5" class="edge"><title>Node0&#45;&gt;Node5</title>
<path fill="none" stroke="midnightblue" d="M981.332,-125.195C856.056,-122.134 615.603,-111.895 403.128,-75.8581"/>
<polygon fill="midnightblue" stroke="midnightblue" points="403.48,-72.3674 393.031,-74.1225 402.294,-79.2662 403.48,-72.3674"/>
</g>
<!-- Node6 -->
<g id="node7" class="node"><title>Node6</title>
<g id="a_node7"><a xlink:title=" ">
<polygon fill="white" stroke="#bfbfbf" points="411,-56.5 411,-75.5 455,-75.5 455,-56.5 411,-56.5"/>
<text text-anchor="middle" x="433" y="-63.5" font-family="Helvetica,sans-Serif" font-size="10.00">MIDI.h</text>
</a>
</g>
</g>
<!-- Node0&#45;&gt;Node6 -->
<g id="edge6" class="edge"><title>Node0&#45;&gt;Node6</title>
<path fill="none" stroke="midnightblue" d="M981.409,-124.68C865.939,-121.034 653.94,-110.145 465.325,-75.8877"/>
<polygon fill="midnightblue" stroke="midnightblue" points="465.692,-72.3965 455.224,-74.0263 464.424,-79.2806 465.692,-72.3965"/>
</g>
<!-- Node7 -->
<g id="node8" class="node"><title>Node7</title>
<g id="a_node8"><a xlink:title=" ">
<polygon fill="white" stroke="#bfbfbf" points="473,-56.5 473,-75.5 541,-75.5 541,-56.5 473,-56.5"/>
<text text-anchor="middle" x="507" y="-63.5" font-family="Helvetica,sans-Serif" font-size="10.00">EEPROM.h</text>
</a>
</g>
</g>
<!-- Node0&#45;&gt;Node7 -->
<g id="edge7" class="edge"><title>Node0&#45;&gt;Node7</title>
<path fill="none" stroke="midnightblue" d="M981.11,-120.987C880.446,-113.877 708.467,-99.7138 551.521,-76.0806"/>
<polygon fill="midnightblue" stroke="midnightblue" points="551.619,-72.5553 541.206,-74.5102 550.566,-79.4755 551.619,-72.5553"/>
</g>
<!-- Node8 -->
<g id="node9" class="node"><title>Node8</title>
<g id="a_node9"><a xlink:title=" ">
<polygon fill="white" stroke="#bfbfbf" points="559.5,-56.5 559.5,-75.5 622.5,-75.5 622.5,-56.5 559.5,-56.5"/>
<text text-anchor="middle" x="591" y="-63.5" font-family="Helvetica,sans-Serif" font-size="10.00">Bounce2.h</text>
</a>
</g>
</g>
<!-- Node0&#45;&gt;Node8 -->
<g id="edge8" class="edge"><title>Node0&#45;&gt;Node8</title>
<path fill="none" stroke="midnightblue" d="M981.405,-119.289C895.54,-111.44 759.362,-97.3211 633.055,-76.2089"/>
<polygon fill="midnightblue" stroke="midnightblue" points="633.26,-72.6939 622.816,-74.4782 632.093,-79.596 633.26,-72.6939"/>
</g>
<!-- Node9 -->
<g id="node10" class="node"><title>Node9</title>
<g id="a_node10"><a xlink:title=" ">
<polygon fill="white" stroke="#bfbfbf" points="640.5,-56.5 640.5,-75.5 723.5,-75.5 723.5,-56.5 640.5,-56.5"/>
<text text-anchor="middle" x="682" y="-63.5" font-family="Helvetica,sans-Serif" font-size="10.00">ClickEncoder.h</text>
</a>
</g>
</g>
<!-- Node0&#45;&gt;Node9 -->
<g id="edge9" class="edge"><title>Node0&#45;&gt;Node9</title>
<path fill="none" stroke="midnightblue" d="M981.449,-114.157C916.292,-104.618 824.105,-90.828 733.617,-76.0682"/>
<polygon fill="midnightblue" stroke="midnightblue" points="734.168,-72.6118 723.734,-74.4511 733.038,-79.52 734.168,-72.6118"/>
</g>
<!-- Node10 -->
<g id="node11" class="node"><title>Node10</title>
<g id="a_node11"><a xlink:title=" ">
<polygon fill="white" stroke="#bfbfbf" points="741.5,-56.5 741.5,-75.5 786.5,-75.5 786.5,-56.5 741.5,-56.5"/>
<text text-anchor="middle" x="764" y="-63.5" font-family="Helvetica,sans-Serif" font-size="10.00">ADC.h</text>
</a>
</g>
</g>
<!-- Node0&#45;&gt;Node10 -->
<g id="edge10" class="edge"><title>Node0&#45;&gt;Node10</title>
<path fill="none" stroke="midnightblue" d="M981.455,-112.588C930.425,-103.812 864.189,-91.5905 796.635,-75.9738"/>
<polygon fill="midnightblue" stroke="midnightblue" points="797.194,-72.5102 786.66,-73.6451 795.603,-79.3269 797.194,-72.5102"/>
</g>
<!-- Node11 -->
<g id="node12" class="node"><title>Node11</title>
<g id="a_node12"><a xlink:title=" ">
<polygon fill="white" stroke="#bfbfbf" points="804.5,-56.5 804.5,-75.5 931.5,-75.5 931.5,-56.5 804.5,-56.5"/>
<text text-anchor="middle" x="868" y="-63.5" font-family="Helvetica,sans-Serif" font-size="10.00">ResponsiveAnalogRead.h</text>
</a>
</g>
</g>
<!-- Node0&#45;&gt;Node11 -->
<g id="edge11" class="edge"><title>Node0&#45;&gt;Node11</title>
<path fill="none" stroke="midnightblue" d="M1020.09,-112.475C985.31,-102.075 938.497,-88.0783 906.035,-78.3722"/>
<polygon fill="midnightblue" stroke="midnightblue" points="907.033,-75.0178 896.45,-75.5064 905.028,-81.7244 907.033,-75.0178"/>
</g>
<!-- Node12 -->
<g id="node13" class="node"><title>Node12</title>
<g id="a_node13"><a xlink:href="_blinker_8h.html" target="_top" xlink:title="Class helper to blink led.">
<polygon fill="white" stroke="black" points="949.5,-56.5 949.5,-75.5 1004.5,-75.5 1004.5,-56.5 949.5,-56.5"/>
<text text-anchor="middle" x="977" y="-63.5" font-family="Helvetica,sans-Serif" font-size="10.00">Blinker.h</text>
</a>
</g>
</g>
<!-- Node0&#45;&gt;Node12 -->
<g id="edge12" class="edge"><title>Node0&#45;&gt;Node12</title>
<path fill="none" stroke="midnightblue" d="M1045.67,-112.399C1031.51,-103.04 1012.99,-90.7924 998.747,-81.3771"/>
<polygon fill="midnightblue" stroke="midnightblue" points="1000.37,-78.2531 990.096,-75.6578 996.507,-84.0923 1000.37,-78.2531"/>
</g>
<!-- Node13 -->
<g id="node14" class="node"><title>Node13</title>
<g id="a_node14"><a xlink:href="_multi_point_conv_8h.html" target="_top" xlink:title="Helper class for MIDI to DAC conversions.">
<polygon fill="white" stroke="black" points="1022.5,-56.5 1022.5,-75.5 1111.5,-75.5 1111.5,-56.5 1022.5,-56.5"/>
<text text-anchor="middle" x="1067" y="-63.5" font-family="Helvetica,sans-Serif" font-size="10.00">MultiPointConv.h</text>
</a>
</g>
</g>
<!-- Node0&#45;&gt;Node13 -->
<g id="edge13" class="edge"><title>Node0&#45;&gt;Node13</title>
<path fill="none" stroke="midnightblue" d="M1067,-112.399C1067,-104.466 1067,-94.458 1067,-85.8583"/>
<polygon fill="midnightblue" stroke="midnightblue" points="1070.5,-85.6577 1067,-75.6578 1063.5,-85.6578 1070.5,-85.6577"/>
</g>
<!-- Node14 -->
<g id="node15" class="node"><title>Node14</title>
<g id="a_node15"><a xlink:href="_sys_ex_def_8h.html" target="_top" xlink:title="SysEx structures and definitions.">
<polygon fill="white" stroke="black" points="1130,-56.5 1130,-75.5 1198,-75.5 1198,-56.5 1130,-56.5"/>
<text text-anchor="middle" x="1164" y="-63.5" font-family="Helvetica,sans-Serif" font-size="10.00">SysExDef.h</text>
</a>
</g>
</g>
<!-- Node0&#45;&gt;Node14 -->
<g id="edge14" class="edge"><title>Node0&#45;&gt;Node14</title>
<path fill="none" stroke="midnightblue" d="M1089.99,-112.399C1105.39,-102.951 1125.59,-90.5589 1141,-81.1089"/>
<polygon fill="midnightblue" stroke="midnightblue" points="1143.19,-83.87 1149.89,-75.6578 1139.53,-77.9031 1143.19,-83.87"/>
</g>
<!-- Node15 -->
<g id="node16" class="node"><title>Node15</title>
<g id="a_node16"><a xlink:href="_menu_class_8h.html" target="_top" xlink:title="Defines Base Menu class.">
<polygon fill="white" stroke="black" points="1216,-56.5 1216,-75.5 1290,-75.5 1290,-56.5 1216,-56.5"/>
<text text-anchor="middle" x="1253" y="-63.5" font-family="Helvetica,sans-Serif" font-size="10.00">MenuClass.h</text>
</a>
</g>
</g>
<!-- Node0&#45;&gt;Node15 -->
<g id="edge15" class="edge"><title>Node0&#45;&gt;Node15</title>
<path fill="none" stroke="midnightblue" d="M1111.08,-112.399C1143.22,-102.118 1186.26,-88.3506 1216.48,-78.6818"/>
<polygon fill="midnightblue" stroke="midnightblue" points="1217.75,-81.9514 1226.21,-75.5709 1215.62,-75.2842 1217.75,-81.9514"/>
</g>
<!-- Node17 -->
<g id="node18" class="node"><title>Node17</title>
<g id="a_node18"><a xlink:href="_o_l_e_d_menu_8h.html" target="_top" xlink:title="Defines Menu class for OLED screen.">
<polygon fill="white" stroke="black" points="1308.5,-56.5 1308.5,-75.5 1383.5,-75.5 1383.5,-56.5 1308.5,-56.5"/>
<text text-anchor="middle" x="1346" y="-63.5" font-family="Helvetica,sans-Serif" font-size="10.00">OLEDMenu.h</text>
</a>
</g>
</g>
<!-- Node0&#45;&gt;Node17 -->
<g id="edge17" class="edge"><title>Node0&#45;&gt;Node17</title>
<path fill="none" stroke="midnightblue" d="M1132.77,-112.475C1183.54,-101.647 1252.6,-86.9183 1298.2,-77.1943"/>
<polygon fill="midnightblue" stroke="midnightblue" points="1299.07,-80.5866 1308.12,-75.0778 1297.61,-73.7405 1299.07,-80.5866"/>
</g>
<!-- Node18 -->
<g id="node19" class="node"><title>Node18</title>
<g id="a_node19"><a xlink:href="_cfg_classes_8h.html" target="_top" xlink:title="Definition of enums and classes for Input configuration.">
<polygon fill="white" stroke="black" points="1402,-56.5 1402,-75.5 1476,-75.5 1476,-56.5 1402,-56.5"/>
<text text-anchor="middle" x="1439" y="-63.5" font-family="Helvetica,sans-Serif" font-size="10.00">CfgClasses.h</text>
</a>
</g>
</g>
<!-- Node0&#45;&gt;Node18 -->
<g id="edge18" class="edge"><title>Node0&#45;&gt;Node18</title>
<path fill="none" stroke="midnightblue" d="M1152.61,-114.183C1216.01,-104.842 1304.75,-91.3072 1391.81,-76.1549"/>
<polygon fill="midnightblue" stroke="midnightblue" points="1392.62,-79.5665 1401.87,-74.396 1391.41,-72.6712 1392.62,-79.5665"/>
</g>
<!-- Node19 -->
<g id="node20" class="node"><title>Node19</title>
<g id="a_node20"><a xlink:href="_input_port_8h.html" target="_top" xlink:title="Definition for Port classes InputPort, DigitalPort, AnalogPort and DemuxAnalogPort.">
<polygon fill="white" stroke="black" points="1494,-56.5 1494,-75.5 1558,-75.5 1558,-56.5 1494,-56.5"/>
<text text-anchor="middle" x="1526" y="-63.5" font-family="Helvetica,sans-Serif" font-size="10.00">InputPort.h</text>
</a>
</g>
</g>
<!-- Node0&#45;&gt;Node19 -->
<g id="edge19" class="edge"><title>Node0&#45;&gt;Node19</title>
<path fill="none" stroke="midnightblue" d="M1152.61,-118.582C1235.02,-110.405 1363.34,-96.2236 1483.7,-76.0805"/>
<polygon fill="midnightblue" stroke="midnightblue" points="1484.55,-79.4859 1493.83,-74.3675 1483.38,-72.5838 1484.55,-79.4859"/>
</g>
<!-- Node20 -->
<g id="node21" class="node"><title>Node20</title>
<g id="a_node21"><a xlink:href="_input_control_8h.html" target="_top" xlink:title="Definition for class InputControl to aggregate one CV, Fader and Gate inputs.">
<polygon fill="white" stroke="black" points="1576.5,-56.5 1576.5,-75.5 1653.5,-75.5 1653.5,-56.5 1576.5,-56.5"/>
<text text-anchor="middle" x="1615" y="-63.5" font-family="Helvetica,sans-Serif" font-size="10.00">InputControl.h</text>
</a>
</g>
</g>
<!-- Node0&#45;&gt;Node20 -->
<g id="edge20" class="edge"><title>Node0&#45;&gt;Node20</title>
<path fill="none" stroke="midnightblue" d="M1152.64,-120.07C1250.29,-112.237 1414.88,-97.5084 1566.32,-75.9802"/>
<polygon fill="midnightblue" stroke="midnightblue" points="1566.87,-79.4367 1576.27,-74.5523 1565.88,-72.5076 1566.87,-79.4367"/>
</g>
<!-- Node21 -->
<g id="node22" class="node"><title>Node21</title>
<g id="a_node22"><a xlink:href="_save_load_8h.html" target="_top" xlink:title="Configuration for Save/Load support.">
<polygon fill="white" stroke="black" points="1671.5,-56.5 1671.5,-75.5 1738.5,-75.5 1738.5,-56.5 1671.5,-56.5"/>
<text text-anchor="middle" x="1705" y="-63.5" font-family="Helvetica,sans-Serif" font-size="10.00">SaveLoad.h</text>
</a>
</g>
</g>
<!-- Node0&#45;&gt;Node21 -->
<g id="edge21" class="edge"><title>Node0&#45;&gt;Node21</title>
<path fill="none" stroke="midnightblue" d="M1152.77,-122.647C1266.88,-116.758 1475.01,-103.36 1661.17,-76.1159"/>
<polygon fill="midnightblue" stroke="midnightblue" points="1661.76,-79.5666 1671.14,-74.6401 1660.74,-72.642 1661.76,-79.5666"/>
</g>
<!-- Node22 -->
<g id="node23" class="node"><title>Node22</title>
<g id="a_node23"><a xlink:href="_m_i_d_imerger_8h.html" target="_top" xlink:title="MIDI Input/Output support.">
<polygon fill="white" stroke="black" points="1757,-56.5 1757,-75.5 1831,-75.5 1831,-56.5 1757,-56.5"/>
<text text-anchor="middle" x="1794" y="-63.5" font-family="Helvetica,sans-Serif" font-size="10.00">MIDImerger.h</text>
</a>
</g>
</g>
<!-- Node0&#45;&gt;Node22 -->
<g id="edge22" class="edge"><title>Node0&#45;&gt;Node22</title>
<path fill="none" stroke="midnightblue" d="M1152.54,-123.431C1279.96,-118.131 1527.26,-105.05 1746.8,-76.0021"/>
<polygon fill="midnightblue" stroke="midnightblue" points="1747.46,-79.4458 1756.91,-74.6515 1746.53,-72.5076 1747.46,-79.4458"/>
</g>
<!-- Node23 -->
<g id="node24" class="node"><title>Node23</title>
<g id="a_node24"><a xlink:href="_v_c_m_c_app_8h.html" target="_top" xlink:title="Main App declarations.">
<polygon fill="white" stroke="black" points="1849.5,-56.5 1849.5,-75.5 1920.5,-75.5 1920.5,-56.5 1849.5,-56.5"/>
<text text-anchor="middle" x="1885" y="-63.5" font-family="Helvetica,sans-Serif" font-size="10.00">VCMCApp.h</text>
</a>
</g>
</g>
<!-- Node0&#45;&gt;Node23 -->
<g id="edge23" class="edge"><title>Node0&#45;&gt;Node23</title>
<path fill="none" stroke="midnightblue" d="M1152.58,-124.601C1293.64,-120.655 1583.89,-109.108 1839,-75.9424"/>
<polygon fill="midnightblue" stroke="midnightblue" points="1839.75,-79.3745 1849.21,-74.6015 1838.84,-72.4341 1839.75,-79.3745"/>
</g>
<!-- Node25 -->
<g id="node26" class="node"><title>Node25</title>
<g id="a_node26"><a xlink:href="_menu_lists_8h.html" target="_top" xlink:title="Predefine Menu functions callbacks and menu items.">
<polygon fill="white" stroke="black" points="1939,-56.5 1939,-75.5 2009,-75.5 2009,-56.5 1939,-56.5"/>
<text text-anchor="middle" x="1974" y="-63.5" font-family="Helvetica,sans-Serif" font-size="10.00">MenuLists.h</text>
</a>
</g>
</g>
<!-- Node0&#45;&gt;Node25 -->
<g id="edge26" class="edge"><title>Node0&#45;&gt;Node25</title>
<path fill="none" stroke="midnightblue" d="M1152.51,-125.548C1306.12,-122.95 1638.96,-113.275 1928.26,-76.0453"/>
<polygon fill="midnightblue" stroke="midnightblue" points="1929.07,-79.4699 1938.53,-74.7093 1928.16,-72.5283 1929.07,-79.4699"/>
</g>
<!-- Node26 -->
<g id="node27" class="node"><title>Node26</title>
<g id="a_node27"><a xlink:href="_par_type_map_8h_source.html" target="_top" xlink:title=" ">
<polygon fill="white" stroke="black" points="2027,-56.5 2027,-75.5 2107,-75.5 2107,-56.5 2027,-56.5"/>
<text text-anchor="middle" x="2067" y="-63.5" font-family="Helvetica,sans-Serif" font-size="10.00">ParTypeMap.h</text>
</a>
</g>
</g>
<!-- Node0&#45;&gt;Node26 -->
<g id="edge28" class="edge"><title>Node0&#45;&gt;Node26</title>
<path fill="none" stroke="midnightblue" d="M1152.56,-125.638C1317.82,-123.167 1692.49,-113.655 2016.89,-75.9695"/>
<polygon fill="midnightblue" stroke="midnightblue" points="2017.43,-79.4301 2026.95,-74.7891 2016.61,-72.4777 2017.43,-79.4301"/>
</g>
<!-- Node16 -->
<g id="node17" class="node"><title>Node16</title>
<g id="a_node17"><a xlink:title=" ">
<polygon fill="white" stroke="#bfbfbf" points="1224,-0.5 1224,-19.5 1282,-19.5 1282,-0.5 1224,-0.5"/>
<text text-anchor="middle" x="1253" y="-7.5" font-family="Helvetica,sans-Serif" font-size="10.00">Arduino.h</text>
</a>
</g>
</g>
<!-- Node15&#45;&gt;Node16 -->
<g id="edge16" class="edge"><title>Node15&#45;&gt;Node16</title>
<path fill="none" stroke="midnightblue" d="M1253,-56.083C1253,-49.0059 1253,-38.8611 1253,-29.9865"/>
<polygon fill="midnightblue" stroke="midnightblue" points="1256.5,-29.751 1253,-19.7511 1249.5,-29.7511 1256.5,-29.751"/>
</g>
<!-- Node24 -->
<g id="node25" class="node"><title>Node24</title>
<g id="a_node25"><a xlink:href="_definitions_8h.html" target="_top" xlink:title="Definitions and configuration flags.">
<polygon fill="white" stroke="black" points="1939,-0.5 1939,-19.5 2009,-19.5 2009,-0.5 1939,-0.5"/>
<text text-anchor="middle" x="1974" y="-7.5" font-family="Helvetica,sans-Serif" font-size="10.00">Definitions.h</text>
</a>
</g>
</g>
<!-- Node23&#45;&gt;Node24 -->
<g id="edge24" class="edge"><title>Node23&#45;&gt;Node24</title>
<path fill="none" stroke="midnightblue" d="M1899.3,-56.324C1913.18,-47.9002 1934.49,-34.9709 1950.8,-25.0741"/>
<polygon fill="midnightblue" stroke="midnightblue" points="1953,-27.8341 1959.74,-19.6545 1949.37,-21.8495 1953,-27.8341"/>
</g>
<!-- Node24&#45;&gt;Node0 -->
<g id="edge25" class="edge"><title>Node24&#45;&gt;Node0</title>
<path fill="none" stroke="midnightblue" d="M2009.12,-14.9046C2061.52,-22.0103 2150.51,-39.7879 2116,-76 2083.41,-110.194 1416.06,-122.121 1163.08,-125.424"/>
<polygon fill="midnightblue" stroke="midnightblue" points="1162.76,-121.927 1152.8,-125.556 1162.85,-128.927 1162.76,-121.927"/>
</g>
<!-- Node25&#45;&gt;Node24 -->
<g id="edge27" class="edge"><title>Node25&#45;&gt;Node24</title>
<path fill="none" stroke="midnightblue" d="M1974,-56.083C1974,-49.0059 1974,-38.8611 1974,-29.9865"/>
<polygon fill="midnightblue" stroke="midnightblue" points="1977.5,-29.751 1974,-19.7511 1970.5,-29.7511 1977.5,-29.751"/>
</g>
</g>
</svg>
