<?xml version="1.0" encoding="UTF-8" standalone="no"?>
<!DOCTYPE svg PUBLIC "-//W3C//DTD SVG 1.1//EN"
 "http://www.w3.org/Graphics/SVG/1.1/DTD/svg11.dtd">
<!-- Generated by graphviz version 2.38.0 (20140413.2041)
 -->
<!-- Title: D:/Prog/Github/Befaco/VCMC/FirmwareTeen/VCMCApp.h Pages: 1 -->
<svg width="2025pt" height="263pt"
 viewBox="0.00 0.00 2025.00 263.00" xmlns="http://www.w3.org/2000/svg" xmlns:xlink="http://www.w3.org/1999/xlink">
<g id="graph0" class="graph" transform="scale(1 1) rotate(0) translate(4 259)">
<title>D:/Prog/Github/Befaco/VCMC/FirmwareTeen/VCMCApp.h</title>
<polygon fill="white" stroke="none" points="-4,4 -4,-259 2021,-259 2021,4 -4,4"/>
<!-- Node0 -->
<g id="node1" class="node"><title>Node0</title>
<g id="a_node1"><a xlink:title="Main App declarations.">
<polygon fill="#bfbfbf" stroke="black" points="968.5,-224.5 968.5,-254.5 1137.5,-254.5 1137.5,-224.5 968.5,-224.5"/>
<text text-anchor="start" x="976.5" y="-242.5" font-family="Helvetica,sans-Serif" font-size="10.00">D:/Prog/Github/Befaco</text>
<text text-anchor="middle" x="1053" y="-231.5" font-family="Helvetica,sans-Serif" font-size="10.00">/VCMC/FirmwareTeen/VCMCApp.h</text>
</a>
</g>
</g>
<!-- Node1 -->
<g id="node2" class="node"><title>Node1</title>
<g id="a_node2"><a xlink:href="_definitions_8h.html" target="_top" xlink:title="Definitions and configuration flags.">
<polygon fill="white" stroke="black" points="1050,-168.5 1050,-187.5 1120,-187.5 1120,-168.5 1050,-168.5"/>
<text text-anchor="middle" x="1085" y="-175.5" font-family="Helvetica,sans-Serif" font-size="10.00">Definitions.h</text>
</a>
</g>
</g>
<!-- Node0&#45;&gt;Node1 -->
<g id="edge1" class="edge"><title>Node0&#45;&gt;Node1</title>
<path fill="none" stroke="midnightblue" d="M1060.58,-224.399C1065.04,-216.11 1070.72,-205.554 1075.48,-196.708"/>
<polygon fill="midnightblue" stroke="midnightblue" points="1078.69,-198.123 1080.34,-187.658 1072.52,-194.807 1078.69,-198.123"/>
</g>
<!-- Node2 -->
<g id="node3" class="node"><title>Node2</title>
<g id="a_node3"><a xlink:href="_prj_includes_8h.html" target="_top" xlink:title="Includes for the project come here.">
<polygon fill="white" stroke="black" points="985.5,-112.5 985.5,-131.5 1058.5,-131.5 1058.5,-112.5 985.5,-112.5"/>
<text text-anchor="middle" x="1022" y="-119.5" font-family="Helvetica,sans-Serif" font-size="10.00">PrjIncludes.h</text>
</a>
</g>
</g>
<!-- Node1&#45;&gt;Node2 -->
<g id="edge2" class="edge"><title>Node1&#45;&gt;Node2</title>
<path fill="none" stroke="midnightblue" d="M1074.88,-168.324C1065.47,-160.263 1051.26,-148.077 1039.93,-138.369"/>
<polygon fill="midnightblue" stroke="midnightblue" points="1042.18,-135.684 1032.31,-131.834 1037.62,-140.999 1042.18,-135.684"/>
</g>
<!-- Node2&#45;&gt;Node0 -->
<g id="edge25" class="edge"><title>Node2&#45;&gt;Node0</title>
<path fill="none" stroke="midnightblue" d="M1024.33,-131.669C1029,-149.064 1039.65,-188.76 1046.57,-214.56"/>
<polygon fill="midnightblue" stroke="midnightblue" points="1043.23,-215.587 1049.2,-224.337 1049.99,-213.772 1043.23,-215.587"/>
</g>
<!-- Node3 -->
<g id="node4" class="node"><title>Node3</title>
<g id="a_node4"><a xlink:title=" ">
<polygon fill="white" stroke="#bfbfbf" points="0,-56.5 0,-75.5 82,-75.5 82,-56.5 0,-56.5"/>
<text text-anchor="middle" x="41" y="-63.5" font-family="Helvetica,sans-Serif" font-size="10.00">Adafruit_GFX.h</text>
</a>
</g>
</g>
<!-- Node2&#45;&gt;Node3 -->
<g id="edge3" class="edge"><title>Node2&#45;&gt;Node3</title>
<path fill="none" stroke="midnightblue" d="M985.485,-120.935C861.551,-120.357 445.517,-115.484 92.3068,-75.9901"/>
<polygon fill="midnightblue" stroke="midnightblue" points="92.468,-72.4861 82.1383,-74.8415 91.6822,-79.4419 92.468,-72.4861"/>
</g>
<!-- Node4 -->
<g id="node5" class="node"><title>Node4</title>
<g id="a_node5"><a xlink:title=" ">
<polygon fill="white" stroke="#bfbfbf" points="100,-56.5 100,-75.5 204,-75.5 204,-56.5 100,-56.5"/>
<text text-anchor="middle" x="152" y="-63.5" font-family="Helvetica,sans-Serif" font-size="10.00">Adafruit_SSD1306.h</text>
</a>
</g>
</g>
<!-- Node2&#45;&gt;Node4 -->
<g id="edge4" class="edge"><title>Node2&#45;&gt;Node4</title>
<path fill="none" stroke="midnightblue" d="M985.219,-120.145C871.931,-117.258 518.115,-106.36 214.529,-76.061"/>
<polygon fill="midnightblue" stroke="midnightblue" points="214.505,-72.5409 204.204,-75.021 213.803,-79.5057 214.505,-72.5409"/>
</g>
<!-- Node5 -->
<g id="node6" class="node"><title>Node5</title>
<g id="a_node6"><a xlink:title=" ">
<polygon fill="white" stroke="#bfbfbf" points="222.5,-56.5 222.5,-75.5 263.5,-75.5 263.5,-56.5 222.5,-56.5"/>
<text text-anchor="middle" x="243" y="-63.5" font-family="Helvetica,sans-Serif" font-size="10.00">SPI.h</text>
</a>
</g>
</g>
<!-- Node2&#45;&gt;Node5 -->
<g id="edge5" class="edge"><title>Node2&#45;&gt;Node5</title>
<path fill="none" stroke="midnightblue" d="M985.231,-119.967C857.145,-116.188 430.282,-102.052 273.677,-75.8435"/>
<polygon fill="midnightblue" stroke="midnightblue" points="274.214,-72.3843 263.759,-74.0997 273.002,-79.2785 274.214,-72.3843"/>
</g>
<!-- Node6 -->
<g id="node7" class="node"><title>Node6</title>
<g id="a_node7"><a xlink:title=" ">
<polygon fill="white" stroke="#bfbfbf" points="281.5,-56.5 281.5,-75.5 326.5,-75.5 326.5,-56.5 281.5,-56.5"/>
<text text-anchor="middle" x="304" y="-63.5" font-family="Helvetica,sans-Serif" font-size="10.00">Wire.h</text>
</a>
</g>
</g>
<!-- Node2&#45;&gt;Node6 -->
<g id="edge6" class="edge"><title>Node2&#45;&gt;Node6</title>
<path fill="none" stroke="midnightblue" d="M985.244,-121.271C883.426,-121.456 589.168,-118.15 336.688,-75.7059"/>
<polygon fill="midnightblue" stroke="midnightblue" points="337.038,-72.2151 326.592,-73.9837 335.861,-79.1154 337.038,-72.2151"/>
</g>
<!-- Node7 -->
<g id="node8" class="node"><title>Node7</title>
<g id="a_node8"><a xlink:title=" ">
<polygon fill="white" stroke="#bfbfbf" points="345,-56.5 345,-75.5 393,-75.5 393,-56.5 345,-56.5"/>
<text text-anchor="middle" x="369" y="-63.5" font-family="Helvetica,sans-Serif" font-size="10.00">limits.h</text>
</a>
</g>
</g>
<!-- Node2&#45;&gt;Node7 -->
<g id="edge7" class="edge"><title>Node2&#45;&gt;Node7</title>
<path fill="none" stroke="midnightblue" d="M985.364,-120.809C890.475,-119.791 628.951,-113.654 403.079,-75.8396"/>
<polygon fill="midnightblue" stroke="midnightblue" points="403.475,-72.3567 393.03,-74.132 402.302,-79.2578 403.475,-72.3567"/>
</g>
<!-- Node8 -->
<g id="node9" class="node"><title>Node8</title>
<g id="a_node9"><a xlink:title=" ">
<polygon fill="white" stroke="#bfbfbf" points="411,-56.5 411,-75.5 455,-75.5 455,-56.5 411,-56.5"/>
<text text-anchor="middle" x="433" y="-63.5" font-family="Helvetica,sans-Serif" font-size="10.00">MIDI.h</text>
</a>
</g>
</g>
<!-- Node2&#45;&gt;Node8 -->
<g id="edge8" class="edge"><title>Node2&#45;&gt;Node8</title>
<path fill="none" stroke="midnightblue" d="M985.436,-120.598C897.249,-119.086 665.908,-111.896 465.065,-75.83"/>
<polygon fill="midnightblue" stroke="midnightblue" points="465.688,-72.386 455.222,-74.0347 464.432,-79.2724 465.688,-72.386"/>
</g>
<!-- Node9 -->
<g id="node10" class="node"><title>Node9</title>
<g id="a_node10"><a xlink:title=" ">
<polygon fill="white" stroke="#bfbfbf" points="473,-56.5 473,-75.5 541,-75.5 541,-56.5 473,-56.5"/>
<text text-anchor="middle" x="507" y="-63.5" font-family="Helvetica,sans-Serif" font-size="10.00">EEPROM.h</text>
</a>
</g>
</g>
<!-- Node2&#45;&gt;Node9 -->
<g id="edge9" class="edge"><title>Node2&#45;&gt;Node9</title>
<path fill="none" stroke="midnightblue" d="M985.41,-118.903C907.413,-114.135 718.897,-101.024 551.201,-76.0255"/>
<polygon fill="midnightblue" stroke="midnightblue" points="551.616,-72.5485 541.205,-74.5174 550.571,-79.4702 551.616,-72.5485"/>
</g>
<!-- Node10 -->
<g id="node11" class="node"><title>Node10</title>
<g id="a_node11"><a xlink:title=" ">
<polygon fill="white" stroke="#bfbfbf" points="559.5,-56.5 559.5,-75.5 622.5,-75.5 622.5,-56.5 559.5,-56.5"/>
<text text-anchor="middle" x="591" y="-63.5" font-family="Helvetica,sans-Serif" font-size="10.00">Bounce2.h</text>
</a>
</g>
</g>
<!-- Node2&#45;&gt;Node10 -->
<g id="edge10" class="edge"><title>Node2&#45;&gt;Node10</title>
<path fill="none" stroke="midnightblue" d="M985.43,-118.103C917.71,-112.456 768.058,-98.655 632.932,-76.1837"/>
<polygon fill="midnightblue" stroke="midnightblue" points="633.258,-72.6895 622.816,-74.4803 632.096,-79.5923 633.258,-72.6895"/>
</g>
<!-- Node11 -->
<g id="node12" class="node"><title>Node11</title>
<g id="a_node12"><a xlink:title=" ">
<polygon fill="white" stroke="#bfbfbf" points="640.5,-56.5 640.5,-75.5 723.5,-75.5 723.5,-56.5 640.5,-56.5"/>
<text text-anchor="middle" x="682" y="-63.5" font-family="Helvetica,sans-Serif" font-size="10.00">ClickEncoder.h</text>
</a>
</g>
</g>
<!-- Node2&#45;&gt;Node11 -->
<g id="edge11" class="edge"><title>Node2&#45;&gt;Node11</title>
<path fill="none" stroke="midnightblue" d="M985.331,-115.6C932.089,-107.696 830.02,-92.3058 733.637,-76.2457"/>
<polygon fill="midnightblue" stroke="midnightblue" points="734.169,-72.7862 723.729,-74.5889 733.015,-79.6903 734.169,-72.7862"/>
</g>
<!-- Node12 -->
<g id="node13" class="node"><title>Node12</title>
<g id="a_node13"><a xlink:title=" ">
<polygon fill="white" stroke="#bfbfbf" points="741.5,-56.5 741.5,-75.5 786.5,-75.5 786.5,-56.5 741.5,-56.5"/>
<text text-anchor="middle" x="764" y="-63.5" font-family="Helvetica,sans-Serif" font-size="10.00">ADC.h</text>
</a>
</g>
</g>
<!-- Node2&#45;&gt;Node12 -->
<g id="edge12" class="edge"><title>Node2&#45;&gt;Node12</title>
<path fill="none" stroke="midnightblue" d="M985.222,-114.724C942.171,-107.155 868.546,-93.5208 796.742,-76.2724"/>
<polygon fill="midnightblue" stroke="midnightblue" points="797.17,-72.7745 786.626,-73.8149 795.517,-79.5767 797.17,-72.7745"/>
</g>
<!-- Node13 -->
<g id="node14" class="node"><title>Node13</title>
<g id="a_node14"><a xlink:title=" ">
<polygon fill="white" stroke="#bfbfbf" points="804.5,-56.5 804.5,-75.5 931.5,-75.5 931.5,-56.5 804.5,-56.5"/>
<text text-anchor="middle" x="868" y="-63.5" font-family="Helvetica,sans-Serif" font-size="10.00">ResponsiveAnalogRead.h</text>
</a>
</g>
</g>
<!-- Node2&#45;&gt;Node13 -->
<g id="edge13" class="edge"><title>Node2&#45;&gt;Node13</title>
<path fill="none" stroke="midnightblue" d="M997.598,-112.444C971.803,-103.399 930.923,-89.064 901.982,-78.9158"/>
<polygon fill="midnightblue" stroke="midnightblue" points="902.882,-75.5226 892.288,-75.5164 900.566,-82.1283 902.882,-75.5226"/>
</g>
<!-- Node14 -->
<g id="node15" class="node"><title>Node14</title>
<g id="a_node15"><a xlink:href="_blinker_8h.html" target="_top" xlink:title="Class helper to blink led.">
<polygon fill="white" stroke="black" points="949.5,-56.5 949.5,-75.5 1004.5,-75.5 1004.5,-56.5 949.5,-56.5"/>
<text text-anchor="middle" x="977" y="-63.5" font-family="Helvetica,sans-Serif" font-size="10.00">Blinker.h</text>
</a>
</g>
</g>
<!-- Node2&#45;&gt;Node14 -->
<g id="edge14" class="edge"><title>Node2&#45;&gt;Node14</title>
<path fill="none" stroke="midnightblue" d="M1014.57,-112.083C1008.15,-104.377 998.694,-93.0333 990.878,-83.6531"/>
<polygon fill="midnightblue" stroke="midnightblue" points="993.383,-81.1927 984.293,-75.7511 988.006,-85.674 993.383,-81.1927"/>
</g>
<!-- Node15 -->
<g id="node16" class="node"><title>Node15</title>
<g id="a_node16"><a xlink:href="_multi_point_conv_8h.html" target="_top" xlink:title="Helper class for MIDI to DAC conversions.">
<polygon fill="white" stroke="black" points="1022.5,-56.5 1022.5,-75.5 1111.5,-75.5 1111.5,-56.5 1022.5,-56.5"/>
<text text-anchor="middle" x="1067" y="-63.5" font-family="Helvetica,sans-Serif" font-size="10.00">MultiPointConv.h</text>
</a>
</g>
</g>
<!-- Node2&#45;&gt;Node15 -->
<g id="edge15" class="edge"><title>Node2&#45;&gt;Node15</title>
<path fill="none" stroke="midnightblue" d="M1029.43,-112.083C1035.85,-104.377 1045.31,-93.0333 1053.12,-83.6531"/>
<polygon fill="midnightblue" stroke="midnightblue" points="1055.99,-85.674 1059.71,-75.7511 1050.62,-81.1927 1055.99,-85.674"/>
</g>
<!-- Node16 -->
<g id="node17" class="node"><title>Node16</title>
<g id="a_node17"><a xlink:href="_sys_ex_def_8h.html" target="_top" xlink:title="SysEx structures and definitions.">
<polygon fill="white" stroke="black" points="1130,-56.5 1130,-75.5 1198,-75.5 1198,-56.5 1130,-56.5"/>
<text text-anchor="middle" x="1164" y="-63.5" font-family="Helvetica,sans-Serif" font-size="10.00">SysExDef.h</text>
</a>
</g>
</g>
<!-- Node2&#45;&gt;Node16 -->
<g id="edge16" class="edge"><title>Node2&#45;&gt;Node16</title>
<path fill="none" stroke="midnightblue" d="M1044.5,-112.444C1068.08,-103.478 1105.32,-89.314 1131.96,-79.1827"/>
<polygon fill="midnightblue" stroke="midnightblue" points="1133.5,-82.3424 1141.6,-75.5164 1131.01,-75.7995 1133.5,-82.3424"/>
</g>
<!-- Node17 -->
<g id="node18" class="node"><title>Node17</title>
<g id="a_node18"><a xlink:href="_menu_class_8h.html" target="_top" xlink:title="Defines Base Menu class.">
<polygon fill="white" stroke="black" points="1216,-56.5 1216,-75.5 1290,-75.5 1290,-56.5 1216,-56.5"/>
<text text-anchor="middle" x="1253" y="-63.5" font-family="Helvetica,sans-Serif" font-size="10.00">MenuClass.h</text>
</a>
</g>
</g>
<!-- Node2&#45;&gt;Node17 -->
<g id="edge17" class="edge"><title>Node2&#45;&gt;Node17</title>
<path fill="none" stroke="midnightblue" d="M1058.6,-112.444C1098.73,-103.063 1163.2,-87.9926 1206.78,-77.8036"/>
<polygon fill="midnightblue" stroke="midnightblue" points="1207.63,-81.2009 1216.57,-75.5164 1206.03,-74.3847 1207.63,-81.2009"/>
</g>
<!-- Node19 -->
<g id="node20" class="node"><title>Node19</title>
<g id="a_node20"><a xlink:href="_o_l_e_d_menu_8h.html" target="_top" xlink:title="Defines Menu class for OLED screen.">
<polygon fill="white" stroke="black" points="1308.5,-56.5 1308.5,-75.5 1383.5,-75.5 1383.5,-56.5 1308.5,-56.5"/>
<text text-anchor="middle" x="1346" y="-63.5" font-family="Helvetica,sans-Serif" font-size="10.00">OLEDMenu.h</text>
</a>
</g>
</g>
<!-- Node2&#45;&gt;Node19 -->
<g id="edge19" class="edge"><title>Node2&#45;&gt;Node19</title>
<path fill="none" stroke="midnightblue" d="M1058.8,-115.36C1110.05,-107.43 1206.07,-92.3063 1298.25,-76.0911"/>
<polygon fill="midnightblue" stroke="midnightblue" points="1299.07,-79.5005 1308.31,-74.3145 1297.85,-72.6072 1299.07,-79.5005"/>
</g>
<!-- Node20 -->
<g id="node21" class="node"><title>Node20</title>
<g id="a_node21"><a xlink:href="_cfg_classes_8h.html" target="_top" xlink:title="Definition of enums and classes for Input configuration.">
<polygon fill="white" stroke="black" points="1402,-56.5 1402,-75.5 1476,-75.5 1476,-56.5 1402,-56.5"/>
<text text-anchor="middle" x="1439" y="-63.5" font-family="Helvetica,sans-Serif" font-size="10.00">CfgClasses.h</text>
</a>
</g>
</g>
<!-- Node2&#45;&gt;Node20 -->
<g id="edge20" class="edge"><title>Node2&#45;&gt;Node20</title>
<path fill="none" stroke="midnightblue" d="M1058.61,-117.383C1123.48,-110.795 1263.05,-95.8061 1391.8,-75.922"/>
<polygon fill="midnightblue" stroke="midnightblue" points="1392.5,-79.3556 1401.84,-74.358 1391.42,-72.439 1392.5,-79.3556"/>
</g>
<!-- Node21 -->
<g id="node22" class="node"><title>Node21</title>
<g id="a_node22"><a xlink:href="_input_port_8h.html" target="_top" xlink:title="Definition for Port classes InputPort, DigitalPort, AnalogPort and DemuxAnalogPort.">
<polygon fill="white" stroke="black" points="1494,-56.5 1494,-75.5 1558,-75.5 1558,-56.5 1494,-56.5"/>
<text text-anchor="middle" x="1526" y="-63.5" font-family="Helvetica,sans-Serif" font-size="10.00">InputPort.h</text>
</a>
</g>
</g>
<!-- Node2&#45;&gt;Node21 -->
<g id="edge21" class="edge"><title>Node2&#45;&gt;Node21</title>
<path fill="none" stroke="midnightblue" d="M1058.5,-118.937C1135.33,-114.276 1319.49,-101.431 1483.56,-76.05"/>
<polygon fill="midnightblue" stroke="midnightblue" points="1484.5,-79.4454 1493.84,-74.4392 1483.42,-72.5298 1484.5,-79.4454"/>
</g>
<!-- Node22 -->
<g id="node23" class="node"><title>Node22</title>
<g id="a_node23"><a xlink:href="_input_control_8h.html" target="_top" xlink:title="Definition for class InputControl to aggregate one CV, Fader and Gate inputs.">
<polygon fill="white" stroke="black" points="1576.5,-56.5 1576.5,-75.5 1653.5,-75.5 1653.5,-56.5 1576.5,-56.5"/>
<text text-anchor="middle" x="1615" y="-63.5" font-family="Helvetica,sans-Serif" font-size="10.00">InputControl.h</text>
</a>
</g>
</g>
<!-- Node2&#45;&gt;Node22 -->
<g id="edge22" class="edge"><title>Node2&#45;&gt;Node22</title>
<path fill="none" stroke="midnightblue" d="M1058.82,-119.271C1145.46,-114.922 1369.11,-102.064 1566.32,-75.9476"/>
<polygon fill="midnightblue" stroke="midnightblue" points="1566.84,-79.4097 1576.28,-74.6136 1565.91,-72.4716 1566.84,-79.4097"/>
</g>
<!-- Node23 -->
<g id="node24" class="node"><title>Node23</title>
<g id="a_node24"><a xlink:href="_save_load_8h.html" target="_top" xlink:title="Configuration for Save/Load support.">
<polygon fill="white" stroke="black" points="1671.5,-56.5 1671.5,-75.5 1738.5,-75.5 1738.5,-56.5 1671.5,-56.5"/>
<text text-anchor="middle" x="1705" y="-63.5" font-family="Helvetica,sans-Serif" font-size="10.00">SaveLoad.h</text>
</a>
</g>
</g>
<!-- Node2&#45;&gt;Node23 -->
<g id="edge23" class="edge"><title>Node2&#45;&gt;Node23</title>
<path fill="none" stroke="midnightblue" d="M1058.62,-120.168C1155.41,-117.6 1426.1,-108.015 1661.17,-75.909"/>
<polygon fill="midnightblue" stroke="midnightblue" points="1661.85,-79.3483 1671.27,-74.5115 1660.89,-72.4142 1661.85,-79.3483"/>
</g>
<!-- Node24 -->
<g id="node25" class="node"><title>Node24</title>
<g id="a_node25"><a xlink:href="_m_i_d_imerger_8h.html" target="_top" xlink:title="MIDI Input/Output support.">
<polygon fill="white" stroke="black" points="1757,-56.5 1757,-75.5 1831,-75.5 1831,-56.5 1757,-56.5"/>
<text text-anchor="middle" x="1794" y="-63.5" font-family="Helvetica,sans-Serif" font-size="10.00">MIDImerger.h</text>
</a>
</g>
</g>
<!-- Node2&#45;&gt;Node24 -->
<g id="edge24" class="edge"><title>Node2&#45;&gt;Node24</title>
<path fill="none" stroke="midnightblue" d="M1058.74,-120.369C1164.17,-118.208 1476.81,-109.354 1746.88,-75.8168"/>
<polygon fill="midnightblue" stroke="midnightblue" points="1747.38,-79.2808 1756.87,-74.5621 1746.51,-72.3354 1747.38,-79.2808"/>
</g>
<!-- Node25 -->
<g id="node26" class="node"><title>Node25</title>
<g id="a_node26"><a xlink:href="_menu_lists_8h.html" target="_top" xlink:title="Predefine Menu functions callbacks and menu items.">
<polygon fill="white" stroke="black" points="1947,-56.5 1947,-75.5 2017,-75.5 2017,-56.5 1947,-56.5"/>
<text text-anchor="middle" x="1982" y="-63.5" font-family="Helvetica,sans-Serif" font-size="10.00">MenuLists.h</text>
</a>
</g>
</g>
<!-- Node2&#45;&gt;Node25 -->
<g id="edge26" class="edge"><title>Node2&#45;&gt;Node25</title>
<path fill="none" stroke="midnightblue" d="M1058.83,-121.202C1181.94,-121.455 1590.49,-118.873 1936.57,-75.9862"/>
<polygon fill="midnightblue" stroke="midnightblue" points="1937.05,-79.454 1946.54,-74.7381 1936.18,-72.5083 1937.05,-79.454"/>
</g>
<!-- Node26 -->
<g id="node27" class="node"><title>Node26</title>
<g id="a_node27"><a xlink:href="_par_type_map_8h_source.html" target="_top" xlink:title=" ">
<polygon fill="white" stroke="black" points="1849,-56.5 1849,-75.5 1929,-75.5 1929,-56.5 1849,-56.5"/>
<text text-anchor="middle" x="1889" y="-63.5" font-family="Helvetica,sans-Serif" font-size="10.00">ParTypeMap.h</text>
</a>
</g>
</g>
<!-- Node2&#45;&gt;Node26 -->
<g id="edge28" class="edge"><title>Node2&#45;&gt;Node26</title>
<path fill="none" stroke="midnightblue" d="M1058.83,-120.634C1173.14,-119.145 1532.05,-111.832 1838.97,-75.9615"/>
<polygon fill="midnightblue" stroke="midnightblue" points="1839.43,-79.4317 1848.95,-74.7829 1838.61,-72.48 1839.43,-79.4317"/>
</g>
<!-- Node18 -->
<g id="node19" class="node"><title>Node18</title>
<g id="a_node19"><a xlink:title=" ">
<polygon fill="white" stroke="#bfbfbf" points="1224,-0.5 1224,-19.5 1282,-19.5 1282,-0.5 1224,-0.5"/>
<text text-anchor="middle" x="1253" y="-7.5" font-family="Helvetica,sans-Serif" font-size="10.00">Arduino.h</text>
</a>
</g>
</g>
<!-- Node17&#45;&gt;Node18 -->
<g id="edge18" class="edge"><title>Node17&#45;&gt;Node18</title>
<path fill="none" stroke="midnightblue" d="M1253,-56.083C1253,-49.0059 1253,-38.8611 1253,-29.9865"/>
<polygon fill="midnightblue" stroke="midnightblue" points="1256.5,-29.751 1253,-19.7511 1249.5,-29.7511 1256.5,-29.751"/>
</g>
<!-- Node25&#45;&gt;Node1 -->
<g id="edge27" class="edge"><title>Node25&#45;&gt;Node1</title>
<path fill="none" stroke="midnightblue" d="M1946.98,-74.4383C1943.95,-74.9987 1940.93,-75.5285 1938,-76 1630.84,-125.51 1257.78,-161.404 1130.25,-172.991"/>
<polygon fill="midnightblue" stroke="midnightblue" points="1129.73,-169.524 1120.08,-173.911 1130.36,-176.496 1129.73,-169.524"/>
</g>
</g>
</svg>
