<?xml version="1.0" encoding="UTF-8" standalone="no"?>
<!DOCTYPE svg PUBLIC "-//W3C//DTD SVG 1.1//EN"
 "http://www.w3.org/Graphics/SVG/1.1/DTD/svg11.dtd">
<!-- Generated by graphviz version 2.38.0 (20140413.2041)
 -->
<!-- Title: D:/Prog/Github/Befaco/VCMC/FirmwareTeen/VCMCApp.h Pages: 1 -->
<!--zoomable 329 -->
<svg id="main" version="1.1" xmlns="http://www.w3.org/2000/svg" xmlns:xlink="http://www.w3.org/1999/xlink" xml:space="preserve" onload="init(evt)">
<style type="text/css"><![CDATA[
.edge:hover path { stroke: red; }
.edge:hover polygon { stroke: red; fill: red; }
]]></style>
<script type="text/javascript"><![CDATA[
var edges = document.getElementsByTagName('g');
if (edges && edges.length) {
  for (var i=0;i<edges.length;i++) {
    if (edges[i].id.substr(0,4)=='edge') {
      edges[i].setAttribute('class','edge');
    }
  }
}
]]></script>
        <defs>
                <circle id="rim" cx="0" cy="0" r="7"/>
                <circle id="rim2" cx="0" cy="0" r="3.5"/>
                <g id="zoomPlus">
                        <use xlink:href="#rim" fill="#404040">
                                <set attributeName="fill" to="#808080" begin="zoomplus.mouseover" end="zoomplus.mouseout"/>
                        </use>
                        <path d="M-4,0h8M0,-4v8" fill="none" stroke="white" stroke-width="1.5" pointer-events="none"/>
                </g>
                <g id="zoomMin">
                        <use xlink:href="#rim" fill="#404040">
                                <set attributeName="fill" to="#808080" begin="zoomminus.mouseover" end="zoomminus.mouseout"/>
                        </use>
                        <path d="M-4,0h8" fill="none" stroke="white" stroke-width="1.5" pointer-events="none"/>
                </g>
                <g id="dirArrow">
                        <path fill="none" stroke="white" stroke-width="1.5" d="M0,-3.0v7 M-2.5,-0.5L0,-3.0L2.5,-0.5"/>
                </g>
               <g id="resetDef">
                       <use xlink:href="#rim2" fill="#404040">
                               <set attributeName="fill" to="#808080" begin="reset.mouseover" end="reset.mouseout"/>
                       </use>
               </g>
        </defs>

<script type="text/javascript">
var viewWidth = 4605;
var viewHeight = 329;
var sectionId = 'dynsection-1';
</script>
<script xlink:href="svgpan.js"/>
<svg id="graph" class="graph">
<g id="viewport">
<title>D:/Prog/Github/Befaco/VCMC/FirmwareTeen/VCMCApp.h</title>
<polygon fill="white" stroke="none" points="-4,4 -4,-325 4600.5,-325 4600.5,4 -4,4"/>
<!-- Node27 -->
<g id="node1" class="node"><title>Node27</title>
<g id="a_node1"><a xlink:title="Main App declarations.">
<polygon fill="#bfbfbf" stroke="black" points="2330,-290.5 2330,-320.5 2499,-320.5 2499,-290.5 2330,-290.5"/>
<text text-anchor="start" x="2338" y="-308.5" font-family="Helvetica,sans-Serif" font-size="10.00">D:/Prog/Github/Befaco</text>
<text text-anchor="middle" x="2414.5" y="-297.5" font-family="Helvetica,sans-Serif" font-size="10.00">/VCMC/FirmwareTeen/VCMCApp.h</text>
</a>
</g>
</g>
<!-- Node28 -->
<g id="node2" class="node"><title>Node28</title>
<g id="a_node2"><a xlink:href="_prj_includes_8h.html" target="_top" xlink:title="Includes for the project come here.">
<polygon fill="white" stroke="black" points="2396,-223.5 2396,-253.5 2567,-253.5 2567,-223.5 2396,-223.5"/>
<text text-anchor="start" x="2404" y="-241.5" font-family="Helvetica,sans-Serif" font-size="10.00">D:/Prog/Github/Befaco</text>
<text text-anchor="middle" x="2481.5" y="-230.5" font-family="Helvetica,sans-Serif" font-size="10.00">/VCMC/FirmwareTeen/PrjIncludes.h</text>
</a>
</g>
</g>
<!-- Node27&#45;&gt;Node28 -->
<g id="edge1" class="edge"><title>Node27&#45;&gt;Node28</title>
<path fill="none" stroke="midnightblue" d="M2436.34,-283.311C2446.39,-273.561 2458.04,-262.259 2466.99,-253.577"/>
<polygon fill="midnightblue" stroke="midnightblue" points="2433.78,-280.921 2429.04,-290.396 2438.65,-285.945 2433.78,-280.921"/>
</g>
<!-- Node29 -->
<g id="node3" class="node"><title>Node29</title>
<g id="a_node3"><a xlink:href="_definitions_8h.html" target="_top" xlink:title="Definitions and configuration flags.">
<polygon fill="white" stroke="black" points="2225.5,-156.5 2225.5,-186.5 2393.5,-186.5 2393.5,-156.5 2225.5,-156.5"/>
<text text-anchor="start" x="2233.5" y="-174.5" font-family="Helvetica,sans-Serif" font-size="10.00">D:/Prog/Github/Befaco</text>
<text text-anchor="middle" x="2309.5" y="-163.5" font-family="Helvetica,sans-Serif" font-size="10.00">/VCMC/FirmwareTeen/Definitions.h</text>
</a>
</g>
</g>
<!-- Node28&#45;&gt;Node29 -->
<g id="edge2" class="edge"><title>Node28&#45;&gt;Node29</title>
<path fill="none" stroke="midnightblue" d="M2434.71,-219.819C2407.07,-209.371 2372.54,-196.323 2346.75,-186.577"/>
<polygon fill="midnightblue" stroke="midnightblue" points="2433.59,-223.135 2444.18,-223.396 2436.06,-216.587 2433.59,-223.135"/>
</g>
<!-- Node55 -->
<g id="node29" class="node"><title>Node55</title>
<g id="a_node29"><a xlink:href="_cfg_classes_8ino.html" target="_top" xlink:title="Defines Configuration classes functions.">
<polygon fill="white" stroke="black" points="2411.5,-156.5 2411.5,-186.5 2591.5,-186.5 2591.5,-156.5 2411.5,-156.5"/>
<text text-anchor="start" x="2419.5" y="-174.5" font-family="Helvetica,sans-Serif" font-size="10.00">D:/Prog/Github/Befaco</text>
<text text-anchor="middle" x="2501.5" y="-163.5" font-family="Helvetica,sans-Serif" font-size="10.00">/VCMC/FirmwareTeen/CfgClasses.ino</text>
</a>
</g>
</g>
<!-- Node28&#45;&gt;Node55 -->
<g id="edge31" class="edge"><title>Node28&#45;&gt;Node55</title>
<path fill="none" stroke="midnightblue" d="M2488.82,-213.697C2491.63,-204.587 2494.73,-194.493 2497.17,-186.577"/>
<polygon fill="midnightblue" stroke="midnightblue" points="2485.44,-212.809 2485.84,-223.396 2492.13,-214.867 2485.44,-212.809"/>
</g>
<!-- Node29&#45;&gt;Node27 -->
<g id="edge4" class="edge"><title>Node29&#45;&gt;Node27</title>
<path fill="none" stroke="midnightblue" d="M2327.15,-194.689C2348.85,-221.966 2385.03,-267.448 2403.26,-290.374"/>
<polygon fill="midnightblue" stroke="midnightblue" points="2329.62,-192.172 2320.66,-186.525 2324.14,-196.53 2329.62,-192.172"/>
</g>
<!-- Node30 -->
<g id="node4" class="node"><title>Node30</title>
<g id="a_node4"><a xlink:href="_cal_menu_8ino.html" target="_top" xlink:title="Defines Menu functions callbacks response for calibration and clock configuration.">
<polygon fill="white" stroke="black" points="0,-84 0,-114 169,-114 169,-84 0,-84"/>
<text text-anchor="start" x="8" y="-102" font-family="Helvetica,sans-Serif" font-size="10.00">D:/Prog/Github/Befaco</text>
<text text-anchor="middle" x="84.5" y="-91" font-family="Helvetica,sans-Serif" font-size="10.00">/VCMC/FirmwareTeen/CalMenu.ino</text>
</a>
</g>
</g>
<!-- Node29&#45;&gt;Node30 -->
<g id="edge3" class="edge"><title>Node29&#45;&gt;Node30</title>
<path fill="none" stroke="midnightblue" d="M2215.29,-170.462C1857.88,-169.975 585.64,-165.043 183.5,-120 171.041,-118.604 157.818,-116.428 145.231,-114.016"/>
<polygon fill="midnightblue" stroke="midnightblue" points="2215.34,-173.962 2225.34,-170.475 2215.35,-166.962 2215.34,-173.962"/>
</g>
<!-- Node31 -->
<g id="node5" class="node"><title>Node31</title>
<g id="a_node5"><a xlink:href="_menu_lists_8h.html" target="_top" xlink:title="Predefine Menu functions callbacks and menu items.">
<polygon fill="white" stroke="black" points="4428.5,-84 4428.5,-114 4596.5,-114 4596.5,-84 4428.5,-84"/>
<text text-anchor="start" x="4436.5" y="-102" font-family="Helvetica,sans-Serif" font-size="10.00">D:/Prog/Github/Befaco</text>
<text text-anchor="middle" x="4512.5" y="-91" font-family="Helvetica,sans-Serif" font-size="10.00">/VCMC/FirmwareTeen/MenuLists.h</text>
</a>
</g>
</g>
<!-- Node29&#45;&gt;Node31 -->
<g id="edge5" class="edge"><title>Node29&#45;&gt;Node31</title>
<path fill="none" stroke="midnightblue" d="M2403.7,-156.009C2865.57,-118.164 3977.42,-170.991 4419.5,-120 4431.31,-118.637 4443.84,-116.459 4455.74,-114.032"/>
<polygon fill="midnightblue" stroke="midnightblue" points="2403.26,-152.535 2393.59,-156.862 2403.85,-159.51 2403.26,-152.535"/>
</g>
<!-- Node32 -->
<g id="node6" class="node"><title>Node32</title>
<g id="a_node6"><a xlink:href="_firmware_teen_8ino.html" target="_top" xlink:title="Project main loop.">
<polygon fill="white" stroke="black" points="2277,-0.5 2277,-41.5 2432,-41.5 2432,-0.5 2277,-0.5"/>
<text text-anchor="start" x="2285" y="-29.5" font-family="Helvetica,sans-Serif" font-size="10.00">D:/Prog/Github/Befaco</text>
<text text-anchor="start" x="2285" y="-18.5" font-family="Helvetica,sans-Serif" font-size="10.00">/VCMC/FirmwareTeen/Firmware</text>
<text text-anchor="middle" x="2354.5" y="-7.5" font-family="Helvetica,sans-Serif" font-size="10.00">Teen.ino</text>
</a>
</g>
</g>
<!-- Node29&#45;&gt;Node32 -->
<g id="edge8" class="edge"><title>Node29&#45;&gt;Node32</title>
<path fill="none" stroke="midnightblue" d="M2215.31,-170.003C1812.28,-167.654 251.87,-156.233 216.5,-120 203.461,-106.642 203.475,-91.371 216.5,-78 253.158,-40.3695 1896.79,-25.5016 2276.7,-22.5644"/>
<polygon fill="midnightblue" stroke="midnightblue" points="2215.45,-173.503 2225.47,-170.061 2215.49,-166.503 2215.45,-173.503"/>
</g>
<!-- Node33 -->
<g id="node7" class="node"><title>Node33</title>
<g id="a_node7"><a xlink:href="_graf_util_8ino.html" target="_top" xlink:title="Defines Helper functions for OLED screen user interface.">
<polygon fill="white" stroke="black" points="226,-84 226,-114 389,-114 389,-84 226,-84"/>
<text text-anchor="start" x="234" y="-102" font-family="Helvetica,sans-Serif" font-size="10.00">D:/Prog/Github/Befaco</text>
<text text-anchor="middle" x="307.5" y="-91" font-family="Helvetica,sans-Serif" font-size="10.00">/VCMC/FirmwareTeen/GrafUtil.ino</text>
</a>
</g>
</g>
<!-- Node29&#45;&gt;Node33 -->
<g id="edge9" class="edge"><title>Node29&#45;&gt;Node33</title>
<path fill="none" stroke="midnightblue" d="M2215.14,-170.377C1881.16,-169.574 756.053,-163.614 398.5,-120 387.1,-118.609 375.023,-116.452 363.523,-114.06"/>
<polygon fill="midnightblue" stroke="midnightblue" points="2215.26,-173.878 2225.26,-170.401 2215.27,-166.878 2215.26,-173.878"/>
</g>
<!-- Node34 -->
<g id="node8" class="node"><title>Node34</title>
<g id="a_node8"><a xlink:href="_input_control_8ino.html" target="_top" xlink:title="Functions definition for Input Control class.">
<polygon fill="white" stroke="black" points="407.5,-84 407.5,-114 589.5,-114 589.5,-84 407.5,-84"/>
<text text-anchor="start" x="415.5" y="-102" font-family="Helvetica,sans-Serif" font-size="10.00">D:/Prog/Github/Befaco</text>
<text text-anchor="middle" x="498.5" y="-91" font-family="Helvetica,sans-Serif" font-size="10.00">/VCMC/FirmwareTeen/InputControl.ino</text>
</a>
</g>
</g>
<!-- Node29&#45;&gt;Node34 -->
<g id="edge10" class="edge"><title>Node29&#45;&gt;Node34</title>
<path fill="none" stroke="midnightblue" d="M2214.96,-169.8C1904.12,-167.172 915.45,-156.113 598.5,-120 586.01,-118.577 572.757,-116.405 560.123,-114.009"/>
<polygon fill="midnightblue" stroke="midnightblue" points="2215.26,-173.303 2225.29,-169.887 2215.32,-166.303 2215.26,-173.303"/>
</g>
<!-- Node35 -->
<g id="node9" class="node"><title>Node35</title>
<g id="a_node9"><a xlink:href="_input_port_8ino.html" target="_top" xlink:title="Definition of base class functions related to both Analog and Digital input ports.">
<polygon fill="white" stroke="black" points="607.5,-84 607.5,-114 777.5,-114 777.5,-84 607.5,-84"/>
<text text-anchor="start" x="615.5" y="-102" font-family="Helvetica,sans-Serif" font-size="10.00">D:/Prog/Github/Befaco</text>
<text text-anchor="middle" x="692.5" y="-91" font-family="Helvetica,sans-Serif" font-size="10.00">/VCMC/FirmwareTeen/InputPort.ino</text>
</a>
</g>
</g>
<!-- Node29&#45;&gt;Node35 -->
<g id="edge11" class="edge"><title>Node29&#45;&gt;Node35</title>
<path fill="none" stroke="midnightblue" d="M2214.68,-169.547C1926.69,-166.306 1064.87,-153.959 786.5,-120 774.824,-118.576 762.45,-116.419 750.648,-114.041"/>
<polygon fill="midnightblue" stroke="midnightblue" points="2215.06,-173.051 2225.09,-169.663 2215.13,-166.052 2215.06,-173.051"/>
</g>
<!-- Node36 -->
<g id="node10" class="node"><title>Node36</title>
<g id="a_node10"><a xlink:href="_input_port_anag_8ino.html" target="_top" xlink:title="Definition of functions related to Analog (CV and Fader) input ports.">
<polygon fill="white" stroke="black" points="795.5,-78.5 795.5,-119.5 949.5,-119.5 949.5,-78.5 795.5,-78.5"/>
<text text-anchor="start" x="803.5" y="-107.5" font-family="Helvetica,sans-Serif" font-size="10.00">D:/Prog/Github/Befaco</text>
<text text-anchor="start" x="803.5" y="-96.5" font-family="Helvetica,sans-Serif" font-size="10.00">/VCMC/FirmwareTeen/InputPort</text>
<text text-anchor="middle" x="872.5" y="-85.5" font-family="Helvetica,sans-Serif" font-size="10.00">Anag.ino</text>
</a>
</g>
</g>
<!-- Node29&#45;&gt;Node36 -->
<g id="edge12" class="edge"><title>Node29&#45;&gt;Node36</title>
<path fill="none" stroke="midnightblue" d="M2214.97,-169.317C1949.7,-165.622 1201.85,-152.54 958.5,-120 955.613,-119.614 952.681,-119.175 949.727,-118.693"/>
<polygon fill="midnightblue" stroke="midnightblue" points="2215.3,-172.821 2225.34,-169.46 2215.39,-165.822 2215.3,-172.821"/>
</g>
<!-- Node37 -->
<g id="node11" class="node"><title>Node37</title>
<g id="a_node11"><a xlink:href="_input_port_dig_8ino.html" target="_top" xlink:title="Definition of functions related to Digital input ports.">
<polygon fill="white" stroke="black" points="967.5,-78.5 967.5,-119.5 1121.5,-119.5 1121.5,-78.5 967.5,-78.5"/>
<text text-anchor="start" x="975.5" y="-107.5" font-family="Helvetica,sans-Serif" font-size="10.00">D:/Prog/Github/Befaco</text>
<text text-anchor="start" x="975.5" y="-96.5" font-family="Helvetica,sans-Serif" font-size="10.00">/VCMC/FirmwareTeen/InputPort</text>
<text text-anchor="middle" x="1044.5" y="-85.5" font-family="Helvetica,sans-Serif" font-size="10.00">Dig.ino</text>
</a>
</g>
</g>
<!-- Node29&#45;&gt;Node37 -->
<g id="edge13" class="edge"><title>Node29&#45;&gt;Node37</title>
<path fill="none" stroke="midnightblue" d="M2215.35,-168.724C1974.33,-163.817 1339.37,-148.509 1130.5,-120 1127.61,-119.606 1124.68,-119.161 1121.73,-118.673"/>
<polygon fill="midnightblue" stroke="midnightblue" points="2215.42,-172.226 2225.49,-168.929 2215.56,-165.228 2215.42,-172.226"/>
</g>
<!-- Node38 -->
<g id="node12" class="node"><title>Node38</title>
<g id="a_node12"><a xlink:href="_menu_anag_8ino.html" target="_top" xlink:title="Defines Menu functions callbacks response for Analog Ports configuration.">
<polygon fill="white" stroke="black" points="1140,-84 1140,-114 1317,-114 1317,-84 1140,-84"/>
<text text-anchor="start" x="1148" y="-102" font-family="Helvetica,sans-Serif" font-size="10.00">D:/Prog/Github/Befaco</text>
<text text-anchor="middle" x="1228.5" y="-91" font-family="Helvetica,sans-Serif" font-size="10.00">/VCMC/FirmwareTeen/MenuAnag.ino</text>
</a>
</g>
</g>
<!-- Node29&#45;&gt;Node38 -->
<g id="edge14" class="edge"><title>Node29&#45;&gt;Node38</title>
<path fill="none" stroke="midnightblue" d="M2214.95,-170.415C2039.1,-169.201 1650.11,-161.55 1325.5,-120 1313.73,-118.494 1301.26,-116.346 1289.32,-114.013"/>
<polygon fill="midnightblue" stroke="midnightblue" points="2215.18,-173.916 2225.2,-170.48 2215.22,-166.917 2215.18,-173.916"/>
</g>
<!-- Node39 -->
<g id="node13" class="node"><title>Node39</title>
<g id="a_node13"><a xlink:href="_menu_block_8ino.html" target="_top" xlink:title="Defines Menu functions callbacks response for Bank configuration.">
<polygon fill="white" stroke="black" points="1335,-84 1335,-114 1514,-114 1514,-84 1335,-84"/>
<text text-anchor="start" x="1343" y="-102" font-family="Helvetica,sans-Serif" font-size="10.00">D:/Prog/Github/Befaco</text>
<text text-anchor="middle" x="1424.5" y="-91" font-family="Helvetica,sans-Serif" font-size="10.00">/VCMC/FirmwareTeen/MenuBlock.ino</text>
</a>
</g>
</g>
<!-- Node29&#45;&gt;Node39 -->
<g id="edge15" class="edge"><title>Node29&#45;&gt;Node39</title>
<path fill="none" stroke="midnightblue" d="M2214.98,-168.549C2066.96,-164.567 1771.71,-152.892 1523.5,-120 1511.77,-118.445 1499.34,-116.32 1487.4,-114.033"/>
<polygon fill="midnightblue" stroke="midnightblue" points="2215.29,-172.058 2225.38,-168.822 2215.48,-165.061 2215.29,-172.058"/>
</g>
<!-- Node40 -->
<g id="node14" class="node"><title>Node40</title>
<g id="a_node14"><a xlink:href="_menu_gate_8ino.html" target="_top" xlink:title="Defines Menu functions callbacks response for Gate configuration.">
<polygon fill="white" stroke="black" points="1532.5,-84 1532.5,-114 1708.5,-114 1708.5,-84 1532.5,-84"/>
<text text-anchor="start" x="1540.5" y="-102" font-family="Helvetica,sans-Serif" font-size="10.00">D:/Prog/Github/Befaco</text>
<text text-anchor="middle" x="1620.5" y="-91" font-family="Helvetica,sans-Serif" font-size="10.00">/VCMC/FirmwareTeen/MenuGate.ino</text>
</a>
</g>
</g>
<!-- Node29&#45;&gt;Node40 -->
<g id="edge16" class="edge"><title>Node29&#45;&gt;Node40</title>
<path fill="none" stroke="midnightblue" d="M2215.31,-165.909C2098.18,-159.409 1892.32,-145.388 1717.5,-120 1706.27,-118.369 1694.38,-116.25 1682.92,-114.002"/>
<polygon fill="midnightblue" stroke="midnightblue" points="2215.14,-169.405 2225.32,-166.458 2215.53,-162.415 2215.14,-169.405"/>
</g>
<!-- Node41 -->
<g id="node15" class="node"><title>Node41</title>
<g id="a_node15"><a xlink:href="_menu_main_8ino.html" target="_top" xlink:title="Defines Menu functions callbacks response for Main/General configuration.">
<polygon fill="white" stroke="black" points="1726.5,-84 1726.5,-114 1902.5,-114 1902.5,-84 1726.5,-84"/>
<text text-anchor="start" x="1734.5" y="-102" font-family="Helvetica,sans-Serif" font-size="10.00">D:/Prog/Github/Befaco</text>
<text text-anchor="middle" x="1814.5" y="-91" font-family="Helvetica,sans-Serif" font-size="10.00">/VCMC/FirmwareTeen/MenuMain.ino</text>
</a>
</g>
</g>
<!-- Node29&#45;&gt;Node41 -->
<g id="edge17" class="edge"><title>Node29&#45;&gt;Node41</title>
<path fill="none" stroke="midnightblue" d="M2215.21,-160.611C2134.38,-151.637 2014.95,-137.201 1911.5,-120 1900.98,-118.251 1889.87,-116.177 1879.07,-114.036"/>
<polygon fill="midnightblue" stroke="midnightblue" points="2215.04,-164.113 2225.37,-161.732 2215.81,-157.155 2215.04,-164.113"/>
</g>
<!-- Node42 -->
<g id="node16" class="node"><title>Node42</title>
<g id="a_node16"><a xlink:href="_menu_range_8ino.html" target="_top" xlink:title="Defines Menu functions callbacks response for Input/Output Range configuration.">
<polygon fill="white" stroke="black" points="1920.5,-84 1920.5,-114 2102.5,-114 2102.5,-84 1920.5,-84"/>
<text text-anchor="start" x="1928.5" y="-102" font-family="Helvetica,sans-Serif" font-size="10.00">D:/Prog/Github/Befaco</text>
<text text-anchor="middle" x="2011.5" y="-91" font-family="Helvetica,sans-Serif" font-size="10.00">/VCMC/FirmwareTeen/MenuRange.ino</text>
</a>
</g>
</g>
<!-- Node29&#45;&gt;Node42 -->
<g id="edge18" class="edge"><title>Node29&#45;&gt;Node42</title>
<path fill="none" stroke="midnightblue" d="M2240.25,-154.118C2188.92,-141.974 2119.69,-125.595 2070.87,-114.047"/>
<polygon fill="midnightblue" stroke="midnightblue" points="2239.73,-157.591 2250.27,-156.487 2241.34,-150.779 2239.73,-157.591"/>
</g>
<!-- Node43 -->
<g id="node17" class="node"><title>Node43</title>
<g id="a_node17"><a xlink:href="_m_i_d_imerger_8ino.html" target="_top" xlink:title="MIDI Input/Output support.">
<polygon fill="white" stroke="black" points="2120.5,-84 2120.5,-114 2300.5,-114 2300.5,-84 2120.5,-84"/>
<text text-anchor="start" x="2128.5" y="-102" font-family="Helvetica,sans-Serif" font-size="10.00">D:/Prog/Github/Befaco</text>
<text text-anchor="middle" x="2210.5" y="-91" font-family="Helvetica,sans-Serif" font-size="10.00">/VCMC/FirmwareTeen/MIDImerger.ino</text>
</a>
</g>
</g>
<!-- Node29&#45;&gt;Node43 -->
<g id="edge19" class="edge"><title>Node29&#45;&gt;Node43</title>
<path fill="none" stroke="midnightblue" d="M2281.32,-150.431C2264.97,-138.792 2244.8,-124.424 2230.17,-114.005"/>
<polygon fill="midnightblue" stroke="midnightblue" points="2279.29,-153.284 2289.47,-156.233 2283.35,-147.582 2279.29,-153.284"/>
</g>
<!-- Node44 -->
<g id="node18" class="node"><title>Node44</title>
<g id="a_node18"><a xlink:href="_o_l_e_d_menu_8ino.html" target="_top" xlink:title="Defines Menu class functions for OLED screen.">
<polygon fill="white" stroke="black" points="2319,-84 2319,-114 2500,-114 2500,-84 2319,-84"/>
<text text-anchor="start" x="2327" y="-102" font-family="Helvetica,sans-Serif" font-size="10.00">D:/Prog/Github/Befaco</text>
<text text-anchor="middle" x="2409.5" y="-91" font-family="Helvetica,sans-Serif" font-size="10.00">/VCMC/FirmwareTeen/OLEDMenu.ino</text>
</a>
</g>
</g>
<!-- Node29&#45;&gt;Node44 -->
<g id="edge20" class="edge"><title>Node29&#45;&gt;Node44</title>
<path fill="none" stroke="midnightblue" d="M2337.97,-150.431C2354.48,-138.792 2374.86,-124.424 2389.63,-114.005"/>
<polygon fill="midnightblue" stroke="midnightblue" points="2335.89,-147.611 2329.74,-156.233 2339.93,-153.332 2335.89,-147.611"/>
</g>
<!-- Node45 -->
<g id="node19" class="node"><title>Node45</title>
<g id="a_node19"><a xlink:href="_o_l_e_d_menu_config_8ino.html" target="_top" xlink:title="Defines functions for configuration screen.">
<polygon fill="white" stroke="black" points="2518,-78.5 2518,-119.5 2683,-119.5 2683,-78.5 2518,-78.5"/>
<text text-anchor="start" x="2526" y="-107.5" font-family="Helvetica,sans-Serif" font-size="10.00">D:/Prog/Github/Befaco</text>
<text text-anchor="start" x="2526" y="-96.5" font-family="Helvetica,sans-Serif" font-size="10.00">/VCMC/FirmwareTeen/OLEDMenu</text>
<text text-anchor="middle" x="2600.5" y="-85.5" font-family="Helvetica,sans-Serif" font-size="10.00">Config.ino</text>
</a>
</g>
</g>
<!-- Node29&#45;&gt;Node45 -->
<g id="edge21" class="edge"><title>Node29&#45;&gt;Node45</title>
<path fill="none" stroke="midnightblue" d="M2377.06,-154.132C2419.69,-143.804 2474.99,-130.407 2519.91,-119.525"/>
<polygon fill="midnightblue" stroke="midnightblue" points="2376.23,-150.731 2367.34,-156.487 2377.88,-157.534 2376.23,-150.731"/>
</g>
<!-- Node46 -->
<g id="node20" class="node"><title>Node46</title>
<g id="a_node20"><a xlink:href="_o_s_c_config_port_8ino.html" target="_top" xlink:title="Functions for OSC processing.">
<polygon fill="white" stroke="black" points="2701,-78.5 2701,-119.5 2864,-119.5 2864,-78.5 2701,-78.5"/>
<text text-anchor="start" x="2709" y="-107.5" font-family="Helvetica,sans-Serif" font-size="10.00">D:/Prog/Github/Befaco</text>
<text text-anchor="start" x="2709" y="-96.5" font-family="Helvetica,sans-Serif" font-size="10.00">/VCMC/FirmwareTeen/OSCConfig</text>
<text text-anchor="middle" x="2782.5" y="-85.5" font-family="Helvetica,sans-Serif" font-size="10.00">Port.ino</text>
</a>
</g>
</g>
<!-- Node29&#45;&gt;Node46 -->
<g id="edge22" class="edge"><title>Node29&#45;&gt;Node46</title>
<path fill="none" stroke="midnightblue" d="M2403.91,-155.839C2532.88,-138.186 2567.77,-141.551 2692.5,-120 2695.18,-119.537 2697.9,-119.047 2700.65,-118.536"/>
<polygon fill="midnightblue" stroke="midnightblue" points="2403.06,-152.423 2393.63,-157.262 2404.02,-159.357 2403.06,-152.423"/>
</g>
<!-- Node47 -->
<g id="node21" class="node"><title>Node47</title>
<g id="a_node21"><a xlink:href="_o_s_c_merge_8h.html" target="_top" xlink:title="OSC I/O management.">
<polygon fill="white" stroke="black" points="2882,-84 2882,-114 3053,-114 3053,-84 2882,-84"/>
<text text-anchor="start" x="2890" y="-102" font-family="Helvetica,sans-Serif" font-size="10.00">D:/Prog/Github/Befaco</text>
<text text-anchor="middle" x="2967.5" y="-91" font-family="Helvetica,sans-Serif" font-size="10.00">/VCMC/FirmwareTeen/OSCMerge.h</text>
</a>
</g>
</g>
<!-- Node29&#45;&gt;Node47 -->
<g id="edge23" class="edge"><title>Node29&#45;&gt;Node47</title>
<path fill="none" stroke="midnightblue" d="M2403.68,-155.93C2612.79,-132.364 2668.94,-149.445 2873.5,-120 2884.56,-118.407 2896.28,-116.278 2907.54,-114.003"/>
<polygon fill="midnightblue" stroke="midnightblue" points="2403.15,-152.469 2393.61,-157.084 2403.94,-159.424 2403.15,-152.469"/>
</g>
<!-- Node48 -->
<g id="node22" class="node"><title>Node48</title>
<g id="a_node22"><a xlink:href="_o_s_c_merge_8ino.html" target="_top" xlink:title="OSC I/O management functions.">
<polygon fill="white" stroke="black" points="3071,-84 3071,-114 3250,-114 3250,-84 3071,-84"/>
<text text-anchor="start" x="3079" y="-102" font-family="Helvetica,sans-Serif" font-size="10.00">D:/Prog/Github/Befaco</text>
<text text-anchor="middle" x="3160.5" y="-91" font-family="Helvetica,sans-Serif" font-size="10.00">/VCMC/FirmwareTeen/OSCMerge.ino</text>
</a>
</g>
</g>
<!-- Node29&#45;&gt;Node48 -->
<g id="edge24" class="edge"><title>Node29&#45;&gt;Node48</title>
<path fill="none" stroke="midnightblue" d="M2403.66,-155.958C2696.41,-126.047 2774.4,-157.051 3062.5,-120 3074.3,-118.483 3086.8,-116.346 3098.78,-114.029"/>
<polygon fill="midnightblue" stroke="midnightblue" points="2403.19,-152.488 2393.6,-157.001 2403.91,-159.451 2403.19,-152.488"/>
</g>
<!-- Node49 -->
<g id="node23" class="node"><title>Node49</title>
<g id="a_node23"><a xlink:href="_save_load_8ino.html" target="_top" xlink:title="Configuration for Save/Load support.">
<polygon fill="white" stroke="black" points="3268,-84 3268,-114 3441,-114 3441,-84 3268,-84"/>
<text text-anchor="start" x="3276" y="-102" font-family="Helvetica,sans-Serif" font-size="10.00">D:/Prog/Github/Befaco</text>
<text text-anchor="middle" x="3354.5" y="-91" font-family="Helvetica,sans-Serif" font-size="10.00">/VCMC/FirmwareTeen/SaveLoad.ino</text>
</a>
</g>
</g>
<!-- Node29&#45;&gt;Node49 -->
<g id="edge25" class="edge"><title>Node29&#45;&gt;Node49</title>
<path fill="none" stroke="midnightblue" d="M2403.77,-155.962C2783.65,-119.428 2884.56,-167.014 3259.5,-120 3271.21,-118.532 3283.61,-116.372 3295.46,-114.007"/>
<polygon fill="midnightblue" stroke="midnightblue" points="2403.21,-152.5 2393.6,-156.954 2403.89,-159.467 2403.21,-152.5"/>
</g>
<!-- Node50 -->
<g id="node24" class="node"><title>Node50</title>
<g id="a_node24"><a xlink:href="set_values_8ino.html" target="_top" xlink:title="Definiton and support for pre defined set of configuration values.">
<polygon fill="white" stroke="black" points="3459.5,-84 3459.5,-114 3633.5,-114 3633.5,-84 3459.5,-84"/>
<text text-anchor="start" x="3467.5" y="-102" font-family="Helvetica,sans-Serif" font-size="10.00">D:/Prog/Github/Befaco</text>
<text text-anchor="middle" x="3546.5" y="-91" font-family="Helvetica,sans-Serif" font-size="10.00">/VCMC/FirmwareTeen/setValues.ino</text>
</a>
</g>
</g>
<!-- Node29&#45;&gt;Node50 -->
<g id="edge26" class="edge"><title>Node29&#45;&gt;Node50</title>
<path fill="none" stroke="midnightblue" d="M2403.58,-155.987C2868.21,-112.918 2991.07,-175.336 3450.5,-120 3462.42,-118.565 3475.05,-116.403 3487.1,-114.024"/>
<polygon fill="midnightblue" stroke="midnightblue" points="2403.22,-152.506 2393.59,-156.925 2403.88,-159.475 2403.22,-152.506"/>
</g>
<!-- Node51 -->
<g id="node25" class="node"><title>Node51</title>
<g id="a_node25"><a xlink:href="_sys_ex_config_port_8ino.html" target="_top" xlink:title="SysEx Send/Receive support for configuration classes.">
<polygon fill="white" stroke="black" points="3652,-78.5 3652,-119.5 3823,-119.5 3823,-78.5 3652,-78.5"/>
<text text-anchor="start" x="3660" y="-107.5" font-family="Helvetica,sans-Serif" font-size="10.00">D:/Prog/Github/Befaco</text>
<text text-anchor="start" x="3660" y="-96.5" font-family="Helvetica,sans-Serif" font-size="10.00">/VCMC/FirmwareTeen/SysExConfig</text>
<text text-anchor="middle" x="3737.5" y="-85.5" font-family="Helvetica,sans-Serif" font-size="10.00">Port.ino</text>
</a>
</g>
</g>
<!-- Node29&#45;&gt;Node51 -->
<g id="edge27" class="edge"><title>Node29&#45;&gt;Node51</title>
<path fill="none" stroke="midnightblue" d="M2403.76,-155.977C2953.29,-106.399 3098.35,-184.653 3642.5,-120 3645.6,-119.632 3648.74,-119.213 3651.91,-118.752"/>
<polygon fill="midnightblue" stroke="midnightblue" points="2403.23,-152.51 2393.59,-156.904 2403.87,-159.481 2403.23,-152.51"/>
</g>
<!-- Node52 -->
<g id="node26" class="node"><title>Node52</title>
<g id="a_node26"><a xlink:href="_sys_ex_send_rec_8ino.html" target="_top" xlink:title="SysEx Send/Receive support.">
<polygon fill="white" stroke="black" points="3841,-78.5 3841,-119.5 4008,-119.5 4008,-78.5 3841,-78.5"/>
<text text-anchor="start" x="3849" y="-107.5" font-family="Helvetica,sans-Serif" font-size="10.00">D:/Prog/Github/Befaco</text>
<text text-anchor="start" x="3849" y="-96.5" font-family="Helvetica,sans-Serif" font-size="10.00">/VCMC/FirmwareTeen/SysExSend</text>
<text text-anchor="middle" x="3924.5" y="-85.5" font-family="Helvetica,sans-Serif" font-size="10.00">Rec.ino</text>
</a>
</g>
</g>
<!-- Node29&#45;&gt;Node52 -->
<g id="edge28" class="edge"><title>Node29&#45;&gt;Node52</title>
<path fill="none" stroke="midnightblue" d="M2403.89,-155.969C3037.48,-99.9468 3204.68,-195.457 3832.5,-120 3835.26,-119.668 3838.06,-119.293 3840.88,-118.88"/>
<polygon fill="midnightblue" stroke="midnightblue" points="2403.24,-152.514 2393.59,-156.89 2403.86,-159.486 2403.24,-152.514"/>
</g>
<!-- Node53 -->
<g id="node27" class="node"><title>Node53</title>
<g id="a_node27"><a xlink:href="_v_c_m_c_app_8ino.html" target="_top" xlink:title="Main App functions and interrupt handling.">
<polygon fill="white" stroke="black" points="4026.5,-84 4026.5,-114 4202.5,-114 4202.5,-84 4026.5,-84"/>
<text text-anchor="start" x="4034.5" y="-102" font-family="Helvetica,sans-Serif" font-size="10.00">D:/Prog/Github/Befaco</text>
<text text-anchor="middle" x="4114.5" y="-91" font-family="Helvetica,sans-Serif" font-size="10.00">/VCMC/FirmwareTeen/VCMCApp.ino</text>
</a>
</g>
</g>
<!-- Node29&#45;&gt;Node53 -->
<g id="edge29" class="edge"><title>Node29&#45;&gt;Node53</title>
<path fill="none" stroke="midnightblue" d="M2403.63,-155.995C3119.39,-93.5598 3307.42,-200.447 4017.5,-120 4029.72,-118.616 4042.67,-116.445 4055.01,-114.035"/>
<polygon fill="midnightblue" stroke="midnightblue" points="2403.24,-152.515 2393.59,-156.879 2403.86,-159.488 2403.24,-152.515"/>
</g>
<!-- Node54 -->
<g id="node28" class="node"><title>Node54</title>
<g id="a_node28"><a xlink:href="_v_c_m_c_app_init_8ino.html" target="_top" xlink:title="Define the functions for App initialisation.">
<polygon fill="white" stroke="black" points="4221,-84 4221,-114 4410,-114 4410,-84 4221,-84"/>
<text text-anchor="start" x="4229" y="-102" font-family="Helvetica,sans-Serif" font-size="10.00">D:/Prog/Github/Befaco</text>
<text text-anchor="middle" x="4315.5" y="-91" font-family="Helvetica,sans-Serif" font-size="10.00">/VCMC/FirmwareTeen/VCMCAppInit.ino</text>
</a>
</g>
</g>
<!-- Node29&#45;&gt;Node54 -->
<g id="edge30" class="edge"><title>Node29&#45;&gt;Node54</title>
<path fill="none" stroke="midnightblue" d="M2403.64,-155.996C3205.34,-86.8782 3415.08,-203.887 4211.5,-120 4224.57,-118.623 4238.46,-116.455 4251.68,-114.045"/>
<polygon fill="midnightblue" stroke="midnightblue" points="2403.25,-152.517 2393.59,-156.87 2403.85,-159.491 2403.25,-152.517"/>
</g>
<!-- Node31&#45;&gt;Node28 -->
<g id="edge6" class="edge"><title>Node31&#45;&gt;Node28</title>
<path fill="none" stroke="midnightblue" d="M4443.81,-115.99C4435.65,-117.528 4427.41,-118.916 4419.5,-120 3708.59,-217.422 2839.93,-234.07 2567.44,-236.914"/>
<polygon fill="midnightblue" stroke="midnightblue" points="4444.56,-119.409 4453.7,-114.049 4443.21,-112.54 4444.56,-119.409"/>
</g>
<!-- Node31&#45;&gt;Node32 -->
<g id="edge7" class="edge"><title>Node31&#45;&gt;Node32</title>
<path fill="none" stroke="midnightblue" d="M4445.21,-81.9991C4436.59,-80.4032 4427.87,-79.0045 4419.5,-78 4023.8,-30.5 2758.76,-23.2679 2432.08,-22.1866"/>
<polygon fill="midnightblue" stroke="midnightblue" points="4444.75,-85.4756 4455.23,-83.9513 4446.09,-78.6046 4444.75,-85.4756"/>
</g>
</g>
</svg>
        <g id="navigator" transform="translate(0 0)" fill="#404254">
                <rect fill="#f2f5e9" fill-opacity="0.5" stroke="#606060" stroke-width=".5" x="0" y="0" width="60" height="60"/>
                <use id="zoomplus" xlink:href="#zoomPlus" x="17" y="9" onmousedown="handleZoom(evt,'in')"/>
                <use id="zoomminus" xlink:href="#zoomMin" x="42" y="9" onmousedown="handleZoom(evt,'out')"/>
                <use id="reset" xlink:href="#resetDef" x="30" y="36" onmousedown="handleReset()"/>
                <g id="arrowUp" xlink:href="#dirArrow" transform="translate(30 24)" onmousedown="handlePan(0,-1)">
                  <use xlink:href="#rim" fill="#404040">
                        <set attributeName="fill" to="#808080" begin="arrowUp.mouseover" end="arrowUp.mouseout"/>
                  </use>
                  <path fill="none" stroke="white" stroke-width="1.5" d="M0,-3.0v7 M-2.5,-0.5L0,-3.0L2.5,-0.5"/>
                </g>
                <g id="arrowRight" xlink:href="#dirArrow" transform="rotate(90) translate(36 -43)" onmousedown="handlePan(1,0)">
                  <use xlink:href="#rim" fill="#404040">
                        <set attributeName="fill" to="#808080" begin="arrowRight.mouseover" end="arrowRight.mouseout"/>
                  </use>
                  <path fill="none" stroke="white" stroke-width="1.5" d="M0,-3.0v7 M-2.5,-0.5L0,-3.0L2.5,-0.5"/>
                </g>
                <g id="arrowDown" xlink:href="#dirArrow" transform="rotate(180) translate(-30 -48)" onmousedown="handlePan(0,1)">
                  <use xlink:href="#rim" fill="#404040">
                        <set attributeName="fill" to="#808080" begin="arrowDown.mouseover" end="arrowDown.mouseout"/>
                  </use>
                  <path fill="none" stroke="white" stroke-width="1.5" d="M0,-3.0v7 M-2.5,-0.5L0,-3.0L2.5,-0.5"/>
                </g>
                <g id="arrowLeft" xlink:href="#dirArrow" transform="rotate(270) translate(-36 17)" onmousedown="handlePan(-1,0)">
                  <use xlink:href="#rim" fill="#404040">
                        <set attributeName="fill" to="#808080" begin="arrowLeft.mouseover" end="arrowLeft.mouseout"/>
                  </use>
                  <path fill="none" stroke="white" stroke-width="1.5" d="M0,-3.0v7 M-2.5,-0.5L0,-3.0L2.5,-0.5"/>
                </g>
        </g>
        <svg viewBox="0 0 15 15" width="100%" height="30px" preserveAspectRatio="xMaxYMin meet">
         <g id="arrow_out" transform="scale(0.3 0.3)">
          <a xlink:href="_v_c_m_c_app_8h__dep__incl_org.svg" target="_base">
           <rect id="button" ry="5" rx="5" y="6" x="6" height="38" width="38"
                fill="#f2f5e9" fill-opacity="0.5" stroke="#606060" stroke-width="1.0"/>
           <path id="arrow"
             d="M 11.500037,31.436501 C 11.940474,20.09759 22.043105,11.32322 32.158766,21.979434 L 37.068811,17.246167 C 37.068811,17.246167 37.088388,32 37.088388,32 L 22.160133,31.978069 C 22.160133,31.978069 26.997745,27.140456 26.997745,27.140456 C 18.528582,18.264221 13.291696,25.230495 11.500037,31.436501 z"
             style="fill:#404040;"/>
          </a>
         </g>
        </svg>
</svg>
