<?xml version="1.0" encoding="UTF-8" standalone="no"?>
<!DOCTYPE svg PUBLIC "-//W3C//DTD SVG 1.1//EN"
 "http://www.w3.org/Graphics/SVG/1.1/DTD/svg11.dtd">
<!-- Generated by graphviz version 2.38.0 (20140413.2041)
 -->
<!-- Title: InputControl Pages: 1 -->
<svg width="329pt" height="297pt"
 viewBox="0.00 0.00 329.00 297.00" xmlns="http://www.w3.org/2000/svg" xmlns:xlink="http://www.w3.org/1999/xlink">
<g id="graph0" class="graph" transform="scale(1 1) rotate(0) translate(4 293)">
<title>InputControl</title>
<polygon fill="white" stroke="none" points="-4,4 -4,-293 325,-293 325,4 -4,4"/>
<!-- Node1 -->
<g id="node1" class="node"><title>Node1</title>
<g id="a_node1"><a xlink:title="InputControl class provides the core functionaly for each block of CV, Fader and Gate The function In...">
<polygon fill="#bfbfbf" stroke="black" points="98.5,-0.5 98.5,-19.5 166.5,-19.5 166.5,-0.5 98.5,-0.5"/>
<text text-anchor="middle" x="132.5" y="-7.5" font-family="Helvetica,sans-Serif" font-size="10.00">InputControl</text>
</a>
</g>
</g>
<!-- Node2 -->
<g id="node2" class="node"><title>Node2</title>
<g id="a_node2"><a xlink:href="class_input_ctrl_cfg.html" target="_top" xlink:title="InputControl configuration.">
<polygon fill="white" stroke="black" points="0,-78.5 0,-97.5 67,-97.5 67,-78.5 0,-78.5"/>
<text text-anchor="middle" x="33.5" y="-85.5" font-family="Helvetica,sans-Serif" font-size="10.00">InputCtrlCfg</text>
</a>
</g>
</g>
<!-- Node2&#45;&gt;Node1 -->
<g id="edge1" class="edge"><title>Node2&#45;&gt;Node1</title>
<path fill="none" stroke="#9a32cd" stroke-dasharray="5,2" d="M52.8435,-72.1505C73.2304,-56.4999 104.644,-32.3841 121.276,-19.6165"/>
<polygon fill="#9a32cd" stroke="#9a32cd" points="50.6575,-69.4162 44.8566,-78.2818 54.9201,-74.9687 50.6575,-69.4162"/>
<text text-anchor="middle" x="111" y="-46.5" font-family="Helvetica,sans-Serif" font-size="10.00"> Config</text>
</g>
<!-- Node3 -->
<g id="node3" class="node"><title>Node3</title>
<g id="a_node3"><a xlink:href="class_demux_analog_port.html" target="_top" xlink:title="Class for Muxed analog ports (CV and Faders) Demux will use defines for pins: PINDEMUXA,...">
<polygon fill="white" stroke="black" points="85,-78.5 85,-97.5 180,-97.5 180,-78.5 85,-78.5"/>
<text text-anchor="middle" x="132.5" y="-85.5" font-family="Helvetica,sans-Serif" font-size="10.00">DemuxAnalogPort</text>
</a>
</g>
</g>
<!-- Node3&#45;&gt;Node1 -->
<g id="edge2" class="edge"><title>Node3&#45;&gt;Node1</title>
<path fill="none" stroke="#9a32cd" stroke-dasharray="5,2" d="M132.5,-68.2239C132.5,-52.6974 132.5,-31.3582 132.5,-19.6165"/>
<polygon fill="#9a32cd" stroke="#9a32cd" points="129,-68.2818 132.5,-78.2818 136,-68.2819 129,-68.2818"/>
<text text-anchor="middle" x="150" y="-52" font-family="Helvetica,sans-Serif" font-size="10.00"> CVPort</text>
<text text-anchor="middle" x="150" y="-41" font-family="Helvetica,sans-Serif" font-size="10.00">Slider</text>
</g>
<!-- Node4 -->
<g id="node4" class="node"><title>Node4</title>
<g id="a_node4"><a xlink:href="class_analog_port.html" target="_top" xlink:title="Class for analog ports (CV and Faders)">
<polygon fill="white" stroke="black" points="100,-135.5 100,-154.5 165,-154.5 165,-135.5 100,-135.5"/>
<text text-anchor="middle" x="132.5" y="-142.5" font-family="Helvetica,sans-Serif" font-size="10.00">AnalogPort</text>
</a>
</g>
</g>
<!-- Node4&#45;&gt;Node3 -->
<g id="edge3" class="edge"><title>Node4&#45;&gt;Node3</title>
<path fill="none" stroke="midnightblue" d="M132.5,-125.117C132.5,-115.817 132.5,-105.056 132.5,-97.7149"/>
<polygon fill="midnightblue" stroke="midnightblue" points="129,-125.406 132.5,-135.406 136,-125.406 129,-125.406"/>
</g>
<!-- Node5 -->
<g id="node5" class="node"><title>Node5</title>
<g id="a_node5"><a xlink:href="class_input_port.html" target="_top" xlink:title="Base class for input ports (digital, analog,...)">
<polygon fill="white" stroke="black" points="118.5,-202.5 118.5,-221.5 174.5,-221.5 174.5,-202.5 118.5,-202.5"/>
<text text-anchor="middle" x="146.5" y="-209.5" font-family="Helvetica,sans-Serif" font-size="10.00">InputPort</text>
</a>
</g>
</g>
<!-- Node5&#45;&gt;Node4 -->
<g id="edge4" class="edge"><title>Node5&#45;&gt;Node4</title>
<path fill="none" stroke="midnightblue" d="M142.497,-192.415C139.821,-179.988 136.424,-164.217 134.358,-154.627"/>
<polygon fill="midnightblue" stroke="midnightblue" points="139.085,-193.195 144.612,-202.234 145.928,-191.721 139.085,-193.195"/>
</g>
<!-- Node9 -->
<g id="node9" class="node"><title>Node9</title>
<g id="a_node9"><a xlink:href="class_digital_port.html" target="_top" xlink:title="Class for digital ports (Gates)">
<polygon fill="white" stroke="black" points="185.5,-135.5 185.5,-154.5 247.5,-154.5 247.5,-135.5 185.5,-135.5"/>
<text text-anchor="middle" x="216.5" y="-142.5" font-family="Helvetica,sans-Serif" font-size="10.00">DigitalPort</text>
</a>
</g>
</g>
<!-- Node5&#45;&gt;Node9 -->
<g id="edge9" class="edge"><title>Node5&#45;&gt;Node9</title>
<path fill="none" stroke="midnightblue" d="M163.347,-195.356C177.109,-182.578 196.048,-164.992 207.209,-154.627"/>
<polygon fill="midnightblue" stroke="midnightblue" points="160.887,-192.864 155.941,-202.234 165.65,-197.994 160.887,-192.864"/>
</g>
<!-- Node6 -->
<g id="node6" class="node"><title>Node6</title>
<g id="a_node6"><a xlink:href="class_an_input_port_cfg.html" target="_top" xlink:title="Analog port configuration class.">
<polygon fill="white" stroke="black" points="18.5,-202.5 18.5,-221.5 100.5,-221.5 100.5,-202.5 18.5,-202.5"/>
<text text-anchor="middle" x="59.5" y="-209.5" font-family="Helvetica,sans-Serif" font-size="10.00">AnInputPortCfg</text>
</a>
</g>
</g>
<!-- Node6&#45;&gt;Node4 -->
<g id="edge5" class="edge"><title>Node6&#45;&gt;Node4</title>
<path fill="none" stroke="#9a32cd" stroke-dasharray="5,2" d="M75.3399,-194.851C82.2923,-187.953 90.6456,-179.914 98.5,-173 105.742,-166.625 114.242,-159.875 120.932,-154.719"/>
<polygon fill="#9a32cd" stroke="#9a32cd" points="72.5095,-192.734 67.9358,-202.291 77.4709,-197.672 72.5095,-192.734"/>
<text text-anchor="middle" x="116.5" y="-176" font-family="Helvetica,sans-Serif" font-size="10.00"> PortCfg</text>
</g>
<!-- Node7 -->
<g id="node7" class="node"><title>Node7</title>
<g id="a_node7"><a xlink:href="class_input_port_cfg.html" target="_top" xlink:title="Base port configuration class.">
<polygon fill="white" stroke="black" points="175.5,-269.5 175.5,-288.5 245.5,-288.5 245.5,-269.5 175.5,-269.5"/>
<text text-anchor="middle" x="210.5" y="-276.5" font-family="Helvetica,sans-Serif" font-size="10.00">InputPortCfg</text>
</a>
</g>
</g>
<!-- Node7&#45;&gt;Node6 -->
<g id="edge6" class="edge"><title>Node7&#45;&gt;Node6</title>
<path fill="none" stroke="midnightblue" d="M180.953,-265.281C151.049,-252.409 105.624,-232.855 79.6346,-221.667"/>
<polygon fill="midnightblue" stroke="midnightblue" points="179.879,-268.629 190.448,-269.369 182.647,-262.2 179.879,-268.629"/>
</g>
<!-- Node10 -->
<g id="node10" class="node"><title>Node10</title>
<g id="a_node10"><a xlink:href="class_dig_port_cfg.html" target="_top" xlink:title="Digital port configuration class.">
<polygon fill="white" stroke="black" points="258,-202.5 258,-221.5 321,-221.5 321,-202.5 258,-202.5"/>
<text text-anchor="middle" x="289.5" y="-209.5" font-family="Helvetica,sans-Serif" font-size="10.00">DigPortCfg</text>
</a>
</g>
</g>
<!-- Node7&#45;&gt;Node10 -->
<g id="edge11" class="edge"><title>Node7&#45;&gt;Node10</title>
<path fill="none" stroke="midnightblue" d="M229.079,-262.713C244.644,-249.907 266.3,-232.088 279.015,-221.627"/>
<polygon fill="midnightblue" stroke="midnightblue" points="226.653,-260.177 221.154,-269.234 231.1,-265.583 226.653,-260.177"/>
</g>
<!-- Node8 -->
<g id="node8" class="node"><title>Node8</title>
<g id="a_node8"><a xlink:href="class_range_conv.html" target="_top" xlink:title=" ">
<polygon fill="white" stroke="black" points="27,-269.5 27,-288.5 92,-288.5 92,-269.5 27,-269.5"/>
<text text-anchor="middle" x="59.5" y="-276.5" font-family="Helvetica,sans-Serif" font-size="10.00">RangeConv</text>
</a>
</g>
</g>
<!-- Node8&#45;&gt;Node6 -->
<g id="edge7" class="edge"><title>Node8&#45;&gt;Node6</title>
<path fill="none" stroke="#9a32cd" stroke-dasharray="5,2" d="M59.5,-259.037C59.5,-246.67 59.5,-231.12 59.5,-221.627"/>
<polygon fill="#9a32cd" stroke="#9a32cd" points="56.0001,-259.234 59.5,-269.234 63.0001,-259.234 56.0001,-259.234"/>
<text text-anchor="middle" x="78" y="-243" font-family="Helvetica,sans-Serif" font-size="10.00"> Ranges</text>
</g>
<!-- Node9&#45;&gt;Node1 -->
<g id="edge8" class="edge"><title>Node9&#45;&gt;Node1</title>
<path fill="none" stroke="#9a32cd" stroke-dasharray="5,2" d="M212.154,-125.431C206.114,-102.788 193.38,-64.2926 171.5,-38 165.284,-30.5306 156.512,-24.2106 148.862,-19.5673"/>
<polygon fill="#9a32cd" stroke="#9a32cd" points="208.829,-126.564 214.654,-135.414 215.62,-124.864 208.829,-126.564"/>
<text text-anchor="middle" x="222.5" y="-85.5" font-family="Helvetica,sans-Serif" font-size="10.00"> GateBut</text>
</g>
<!-- Node10&#45;&gt;Node9 -->
<g id="edge10" class="edge"><title>Node10&#45;&gt;Node9</title>
<path fill="none" stroke="#9a32cd" stroke-dasharray="5,2" d="M279.401,-193.625C274.823,-186.681 268.981,-178.94 262.5,-173 254.445,-165.617 244.042,-159.303 235.168,-154.642"/>
<polygon fill="#9a32cd" stroke="#9a32cd" points="276.565,-195.693 284.803,-202.356 282.518,-192.01 276.565,-195.693"/>
<text text-anchor="middle" x="289.5" y="-176" font-family="Helvetica,sans-Serif" font-size="10.00"> PortCfg</text>
</g>
<!-- Node11 -->
<g id="node11" class="node"><title>Node11</title>
<g id="a_node11"><a xlink:href="class_blinker.html" target="_top" xlink:title="Class helper to blink led.">
<polygon fill="white" stroke="black" points="193,-202.5 193,-221.5 240,-221.5 240,-202.5 193,-202.5"/>
<text text-anchor="middle" x="216.5" y="-209.5" font-family="Helvetica,sans-Serif" font-size="10.00">Blinker</text>
</a>
</g>
</g>
<!-- Node11&#45;&gt;Node9 -->
<g id="edge12" class="edge"><title>Node11&#45;&gt;Node9</title>
<path fill="none" stroke="#9a32cd" stroke-dasharray="5,2" d="M216.5,-192.037C216.5,-179.67 216.5,-164.12 216.5,-154.627"/>
<polygon fill="#9a32cd" stroke="#9a32cd" points="213,-192.234 216.5,-202.234 220,-192.234 213,-192.234"/>
<text text-anchor="middle" x="237.5" y="-176" font-family="Helvetica,sans-Serif" font-size="10.00"> blinkPort</text>
</g>
</g>
</svg>
