<?xml version="1.0" encoding="UTF-8" standalone="no"?>
<!DOCTYPE svg PUBLIC "-//W3C//DTD SVG 1.1//EN"
 "http://www.w3.org/Graphics/SVG/1.1/DTD/svg11.dtd">
<!-- Generated by graphviz version 2.38.0 (20140413.2041)
 -->
<!-- Title: OLEDMenu::EncoderChangeLong Pages: 1 -->
<svg width="363pt" height="180pt"
 viewBox="0.00 0.00 363.00 180.00" xmlns="http://www.w3.org/2000/svg" xmlns:xlink="http://www.w3.org/1999/xlink">
<g id="graph0" class="graph" transform="scale(1 1) rotate(0) translate(4 176)">
<title>OLEDMenu::EncoderChangeLong</title>
<polygon fill="white" stroke="none" points="-4,4 -4,-176 359,-176 359,4 -4,4"/>
<!-- Node0 -->
<g id="node1" class="node"><title>Node0</title>
<g id="a_node1"><a xlink:title="Change a long value and show in screen title and value.">
<polygon fill="#bfbfbf" stroke="black" points="0,-76.5 0,-95.5 163,-95.5 163,-76.5 0,-76.5"/>
<text text-anchor="middle" x="81.5" y="-83.5" font-family="Helvetica,sans-Serif" font-size="10.00">OLEDMenu::EncoderChangeLong</text>
</a>
</g>
</g>
<!-- Node1 -->
<g id="node2" class="node"><title>Node1</title>
<g id="a_node2"><a xlink:href="class_o_l_e_d_menu.html#a1be072ca04eaaacd9475e3c05c0dbb63" target="_top" xlink:title="Erase input area.">
<polygon fill="white" stroke="black" points="208.5,-152.5 208.5,-171.5 345.5,-171.5 345.5,-152.5 208.5,-152.5"/>
<text text-anchor="middle" x="277" y="-159.5" font-family="Helvetica,sans-Serif" font-size="10.00">OLEDMenu::ClearInputArea</text>
</a>
</g>
</g>
<!-- Node0&#45;&gt;Node1 -->
<g id="edge1" class="edge"><title>Node0&#45;&gt;Node1</title>
<path fill="none" stroke="midnightblue" d="M99.3669,-95.6803C121.589,-108.097 162.176,-129.622 199,-143 205.851,-145.489 213.161,-147.761 220.447,-149.799"/>
<polygon fill="midnightblue" stroke="midnightblue" points="219.759,-153.238 230.324,-152.433 221.563,-146.474 219.759,-153.238"/>
</g>
<!-- Node2 -->
<g id="node3" class="node"><title>Node2</title>
<g id="a_node3"><a xlink:href="class_o_l_e_d_menu.html#a52b3bbfe971b755192cc07d287b22a32" target="_top" xlink:title="Draw input area.">
<polygon fill="white" stroke="black" points="209,-114.5 209,-133.5 345,-133.5 345,-114.5 209,-114.5"/>
<text text-anchor="middle" x="277" y="-121.5" font-family="Helvetica,sans-Serif" font-size="10.00">OLEDMenu::DrawInputArea</text>
</a>
</g>
</g>
<!-- Node0&#45;&gt;Node2 -->
<g id="edge2" class="edge"><title>Node0&#45;&gt;Node2</title>
<path fill="none" stroke="midnightblue" d="M131.328,-95.589C157.553,-100.739 190.062,-107.123 217.616,-112.534"/>
<polygon fill="midnightblue" stroke="midnightblue" points="217.036,-115.987 227.523,-114.48 218.385,-109.118 217.036,-115.987"/>
</g>
<!-- Node3 -->
<g id="node4" class="node"><title>Node3</title>
<g id="a_node4"><a xlink:href="class_o_l_e_d_menu.html#a6c8d327556271d07a5c39813b4f4d162" target="_top" xlink:title="Print on screen value marking selected character.">
<polygon fill="white" stroke="black" points="214.5,-76.5 214.5,-95.5 339.5,-95.5 339.5,-76.5 214.5,-76.5"/>
<text text-anchor="middle" x="277" y="-83.5" font-family="Helvetica,sans-Serif" font-size="10.00">OLEDMenu::printStrInput</text>
</a>
</g>
</g>
<!-- Node0&#45;&gt;Node3 -->
<g id="edge3" class="edge"><title>Node0&#45;&gt;Node3</title>
<path fill="none" stroke="midnightblue" d="M163.16,-86C176.795,-86 190.869,-86 204.256,-86"/>
<polygon fill="midnightblue" stroke="midnightblue" points="204.342,-89.5001 214.342,-86 204.342,-82.5001 204.342,-89.5001"/>
</g>
<!-- Node4 -->
<g id="node5" class="node"><title>Node4</title>
<g id="a_node5"><a xlink:href="class_o_l_e_d_menu.html#a6e232cb8f72deafb16e8286ef6811faf" target="_top" xlink:title="Change a long value with the encoder.">
<polygon fill="white" stroke="black" points="199,-38.5 199,-57.5 355,-57.5 355,-38.5 199,-38.5"/>
<text text-anchor="middle" x="277" y="-45.5" font-family="Helvetica,sans-Serif" font-size="10.00">OLEDMenu::EncoderChangeVal</text>
</a>
</g>
</g>
<!-- Node0&#45;&gt;Node4 -->
<g id="edge4" class="edge"><title>Node0&#45;&gt;Node4</title>
<path fill="none" stroke="midnightblue" d="M131.328,-76.411C157.553,-71.261 190.062,-64.8768 217.616,-59.4656"/>
<polygon fill="midnightblue" stroke="midnightblue" points="218.385,-62.8815 227.523,-57.5201 217.036,-56.0127 218.385,-62.8815"/>
</g>
<!-- Node5 -->
<g id="node6" class="node"><title>Node5</title>
<g id="a_node6"><a xlink:href="class_o_l_e_d_menu.html#ac64c0d20c81a251a208655e598205055" target="_top" xlink:title="Change a long values digits individually with the encoder. Recommended to adjust bigger numbers.">
<polygon fill="white" stroke="black" points="199.5,-0.5 199.5,-19.5 354.5,-19.5 354.5,-0.5 199.5,-0.5"/>
<text text-anchor="middle" x="277" y="-7.5" font-family="Helvetica,sans-Serif" font-size="10.00">OLEDMenu::EncoderselDigitVal</text>
</a>
</g>
</g>
<!-- Node0&#45;&gt;Node5 -->
<g id="edge5" class="edge"><title>Node0&#45;&gt;Node5</title>
<path fill="none" stroke="midnightblue" d="M99.3669,-76.3197C121.589,-63.903 162.176,-42.3783 199,-29 205.851,-26.5111 213.161,-24.2391 220.447,-22.2007"/>
<polygon fill="midnightblue" stroke="midnightblue" points="221.563,-25.5256 230.324,-19.5674 219.759,-18.7619 221.563,-25.5256"/>
</g>
</g>
</svg>
