<?xml version="1.0" encoding="UTF-8" standalone="no"?>
<!DOCTYPE svg PUBLIC "-//W3C//DTD SVG 1.1//EN"
 "http://www.w3.org/Graphics/SVG/1.1/DTD/svg11.dtd">
<!-- Generated by graphviz version 2.38.0 (20140413.2041)
 -->
<!-- Title: OSCmerger Pages: 1 -->
<svg width="144pt" height="508pt"
 viewBox="0.00 0.00 144.00 508.00" xmlns="http://www.w3.org/2000/svg" xmlns:xlink="http://www.w3.org/1999/xlink">
<g id="graph0" class="graph" transform="scale(1 1) rotate(0) translate(4 504)">
<title>OSCmerger</title>
<polygon fill="white" stroke="none" points="-4,4 -4,-504 140,-504 140,4 -4,4"/>
<!-- Node1 -->
<g id="node1" class="node"><title>Node1</title>
<g id="a_node1"><a xlink:title=" ">
<polygon fill="#bfbfbf" stroke="black" points="12,-0.5 12,-178.5 124,-178.5 124,-0.5 12,-0.5"/>
<text text-anchor="middle" x="68" y="-166.5" font-family="Helvetica,sans-Serif" font-size="10.00">OSCmerger</text>
<polyline fill="none" stroke="black" points="12,-159.5 124,-159.5 "/>
<text text-anchor="start" x="20" y="-147.5" font-family="Helvetica,sans-Serif" font-size="10.00">+ databuf</text>
<text text-anchor="start" x="20" y="-136.5" font-family="Helvetica,sans-Serif" font-size="10.00">+ received</text>
<text text-anchor="start" x="20" y="-125.5" font-family="Helvetica,sans-Serif" font-size="10.00">+ ClientPort</text>
<text text-anchor="start" x="20" y="-114.5" font-family="Helvetica,sans-Serif" font-size="10.00">+ msgOut</text>
<polyline fill="none" stroke="black" points="12,-107.5 124,-107.5 "/>
<text text-anchor="start" x="20" y="-95.5" font-family="Helvetica,sans-Serif" font-size="10.00">+ OSCmerger()</text>
<text text-anchor="start" x="20" y="-84.5" font-family="Helvetica,sans-Serif" font-size="10.00">+ poll()</text>
<text text-anchor="start" x="20" y="-73.5" font-family="Helvetica,sans-Serif" font-size="10.00">+ begin()</text>
<text text-anchor="start" x="20" y="-62.5" font-family="Helvetica,sans-Serif" font-size="10.00">+ sendOSC()</text>
<text text-anchor="start" x="20" y="-51.5" font-family="Helvetica,sans-Serif" font-size="10.00">+ readOSC()</text>
<text text-anchor="start" x="20" y="-40.5" font-family="Helvetica,sans-Serif" font-size="10.00">+ ProcessOscMsg()</text>
<text text-anchor="start" x="20" y="-29.5" font-family="Helvetica,sans-Serif" font-size="10.00">+ SendOSCMsgint()</text>
<text text-anchor="start" x="20" y="-18.5" font-family="Helvetica,sans-Serif" font-size="10.00">+ SendOSCMsgfloat()</text>
<text text-anchor="start" x="20" y="-7.5" font-family="Helvetica,sans-Serif" font-size="10.00">+ getSLIPSerial()</text>
</a>
</g>
</g>
<!-- Node2 -->
<g id="node2" class="node"><title>Node2</title>
<g id="a_node2"><a xlink:href="class_s_l_i_p_encoded_u_s_b_serial.html" target="_top" xlink:title=" ">
<polygon fill="white" stroke="black" points="0,-226.5 0,-404.5 136,-404.5 136,-226.5 0,-226.5"/>
<text text-anchor="middle" x="68" y="-392.5" font-family="Helvetica,sans-Serif" font-size="10.00">SLIPEncodedUSBSerial</text>
<polyline fill="none" stroke="black" points="0,-385.5 136,-385.5 "/>
<text text-anchor="middle" x="68" y="-373.5" font-family="Helvetica,sans-Serif" font-size="10.00"> </text>
<polyline fill="none" stroke="black" points="0,-366.5 136,-366.5 "/>
<text text-anchor="start" x="8" y="-354.5" font-family="Helvetica,sans-Serif" font-size="10.00">+ SLIPEncodedUSBSerial()</text>
<text text-anchor="start" x="8" y="-343.5" font-family="Helvetica,sans-Serif" font-size="10.00">+ available()</text>
<text text-anchor="start" x="8" y="-332.5" font-family="Helvetica,sans-Serif" font-size="10.00">+ read()</text>
<text text-anchor="start" x="8" y="-321.5" font-family="Helvetica,sans-Serif" font-size="10.00">+ readBytes()</text>
<text text-anchor="start" x="8" y="-310.5" font-family="Helvetica,sans-Serif" font-size="10.00">+ peek()</text>
<text text-anchor="start" x="8" y="-299.5" font-family="Helvetica,sans-Serif" font-size="10.00">+ flush()</text>
<text text-anchor="start" x="8" y="-288.5" font-family="Helvetica,sans-Serif" font-size="10.00">+ begin()</text>
<text text-anchor="start" x="8" y="-277.5" font-family="Helvetica,sans-Serif" font-size="10.00">+ beginPacket()</text>
<text text-anchor="start" x="8" y="-266.5" font-family="Helvetica,sans-Serif" font-size="10.00">+ endPacket()</text>
<text text-anchor="start" x="8" y="-255.5" font-family="Helvetica,sans-Serif" font-size="10.00">+ endofPacket()</text>
<text text-anchor="start" x="8" y="-244.5" font-family="Helvetica,sans-Serif" font-size="10.00">+ write()</text>
<text text-anchor="start" x="8" y="-233.5" font-family="Helvetica,sans-Serif" font-size="10.00">+ write()</text>
</a>
</g>
</g>
<!-- Node2&#45;&gt;Node1 -->
<g id="edge1" class="edge"><title>Node2&#45;&gt;Node1</title>
<path fill="none" stroke="#404040" d="M68,-226.291C68,-214.66 68,-202.67 68,-190.856"/>
<polygon fill="none" stroke="#404040" points="68.0001,-190.629 64,-184.629 68,-178.629 72,-184.629 68.0001,-190.629"/>
<text text-anchor="middle" x="95.5" y="-200" font-family="Helvetica,sans-Serif" font-size="10.00"> +SLIPSerial</text>
</g>
<!-- Node3 -->
<g id="node3" class="node"><title>Node3</title>
<g id="a_node3"><a xlink:title=" ">
<polygon fill="white" stroke="#bfbfbf" points="44,-442.5 44,-499.5 92,-499.5 92,-442.5 44,-442.5"/>
<text text-anchor="middle" x="68" y="-487.5" font-family="Helvetica,sans-Serif" font-size="10.00">Stream</text>
<polyline fill="none" stroke="#bfbfbf" points="44,-480.5 92,-480.5 "/>
<text text-anchor="middle" x="68" y="-468.5" font-family="Helvetica,sans-Serif" font-size="10.00"> </text>
<polyline fill="none" stroke="#bfbfbf" points="44,-461.5 92,-461.5 "/>
<text text-anchor="middle" x="68" y="-449.5" font-family="Helvetica,sans-Serif" font-size="10.00"> </text>
</a>
</g>
</g>
<!-- Node3&#45;&gt;Node2 -->
<g id="edge2" class="edge"><title>Node3&#45;&gt;Node2</title>
<path fill="none" stroke="midnightblue" d="M68,-431.957C68,-423.471 68,-414.13 68,-404.549"/>
<polygon fill="none" stroke="midnightblue" points="64.5001,-432.202 68,-442.202 71.5001,-432.202 64.5001,-432.202"/>
</g>
</g>
</svg>
