<?xml version="1.0" encoding="UTF-8" standalone="no"?>
<!DOCTYPE svg PUBLIC "-//W3C//DTD SVG 1.1//EN"
 "http://www.w3.org/Graphics/SVG/1.1/DTD/svg11.dtd">
<!-- Generated by graphviz version 2.38.0 (20140413.2041)
 -->
<!-- Title: MenuClass Pages: 1 -->
<svg width="123pt" height="507pt"
 viewBox="0.00 0.00 123.00 507.00" xmlns="http://www.w3.org/2000/svg" xmlns:xlink="http://www.w3.org/1999/xlink">
<g id="graph0" class="graph" transform="scale(1 1) rotate(0) translate(4 503)">
<title>MenuClass</title>
<polygon fill="white" stroke="none" points="-4,4 -4,-503 119,-503 119,4 -4,4"/>
<!-- Node2 -->
<g id="node1" class="node"><title>Node2</title>
<g id="a_node1"><a xlink:title=" ">
<polygon fill="#bfbfbf" stroke="black" points="0,-0.5 0,-200.5 102,-200.5 102,-0.5 0,-0.5"/>
<text text-anchor="middle" x="51" y="-188.5" font-family="Helvetica,sans-Serif" font-size="10.00">MenuClass</text>
<polyline fill="none" stroke="black" points="0,-181.5 102,-181.5 "/>
<text text-anchor="start" x="8" y="-169.5" font-family="Helvetica,sans-Serif" font-size="10.00">+ currentItemIndex</text>
<polyline fill="none" stroke="black" points="0,-162.5 102,-162.5 "/>
<text text-anchor="start" x="8" y="-150.5" font-family="Helvetica,sans-Serif" font-size="10.00">+ MenuClass()</text>
<text text-anchor="start" x="8" y="-139.5" font-family="Helvetica,sans-Serif" font-size="10.00">+ MenuClass()</text>
<text text-anchor="start" x="8" y="-128.5" font-family="Helvetica,sans-Serif" font-size="10.00">+ doMenu()</text>
<text text-anchor="start" x="8" y="-117.5" font-family="Helvetica,sans-Serif" font-size="10.00">+ setCurrentMenu()</text>
<text text-anchor="start" x="8" y="-106.5" font-family="Helvetica,sans-Serif" font-size="10.00">+ getText()</text>
<text text-anchor="start" x="8" y="-95.5" font-family="Helvetica,sans-Serif" font-size="10.00">+ enableItem()</text>
<text text-anchor="start" x="8" y="-84.5" font-family="Helvetica,sans-Serif" font-size="10.00">+ disableItem()</text>
<text text-anchor="start" x="8" y="-73.5" font-family="Helvetica,sans-Serif" font-size="10.00">+ isEnabled()</text>
<text text-anchor="start" x="8" y="-62.5" font-family="Helvetica,sans-Serif" font-size="10.00">+ runFunction()</text>
<text text-anchor="start" x="8" y="-51.5" font-family="Helvetica,sans-Serif" font-size="10.00">+ displayMenu()</text>
<text text-anchor="start" x="8" y="-40.5" font-family="Helvetica,sans-Serif" font-size="10.00">+ checkForCancel()</text>
<text text-anchor="start" x="8" y="-29.5" font-family="Helvetica,sans-Serif" font-size="10.00">+ updateSelection()</text>
<text text-anchor="start" x="8" y="-18.5" font-family="Helvetica,sans-Serif" font-size="10.00">+ selectionMade()</text>
<text text-anchor="start" x="8" y="-7.5" font-family="Helvetica,sans-Serif" font-size="10.00">+ getItemStatus()</text>
</a>
</g>
</g>
<!-- Node3 -->
<g id="node2" class="node"><title>Node3</title>
<g id="a_node2"><a xlink:href="class_menu_list.html" target="_top" xlink:title=" ">
<polygon fill="white" stroke="black" points="5.5,-248.5 5.5,-371.5 96.5,-371.5 96.5,-248.5 5.5,-248.5"/>
<text text-anchor="middle" x="51" y="-359.5" font-family="Helvetica,sans-Serif" font-size="10.00">MenuList</text>
<polyline fill="none" stroke="black" points="5.5,-352.5 96.5,-352.5 "/>
<text text-anchor="start" x="13.5" y="-340.5" font-family="Helvetica,sans-Serif" font-size="10.00">+ listSize</text>
<text text-anchor="start" x="13.5" y="-329.5" font-family="Helvetica,sans-Serif" font-size="10.00">+ Style</text>
<polyline fill="none" stroke="black" points="5.5,-322.5 96.5,-322.5 "/>
<text text-anchor="start" x="13.5" y="-310.5" font-family="Helvetica,sans-Serif" font-size="10.00">+ getItem()</text>
<text text-anchor="start" x="13.5" y="-299.5" font-family="Helvetica,sans-Serif" font-size="10.00">+ MenuList()</text>
<text text-anchor="start" x="13.5" y="-288.5" font-family="Helvetica,sans-Serif" font-size="10.00">+ getSize()</text>
<text text-anchor="start" x="13.5" y="-277.5" font-family="Helvetica,sans-Serif" font-size="10.00">+ getActiveSize()</text>
<text text-anchor="start" x="13.5" y="-266.5" font-family="Helvetica,sans-Serif" font-size="10.00">+ enableItem()</text>
<text text-anchor="start" x="13.5" y="-255.5" font-family="Helvetica,sans-Serif" font-size="10.00">+ disableItem()</text>
</a>
</g>
</g>
<!-- Node3&#45;&gt;Node2 -->
<g id="edge1" class="edge"><title>Node3&#45;&gt;Node2</title>
<path fill="none" stroke="#404040" d="M51,-248.425C51,-237.21 51,-225.176 51,-212.999"/>
<polygon fill="none" stroke="#404040" points="51.0001,-212.8 47,-206.8 51,-200.8 55,-206.8 51.0001,-212.8"/>
<text text-anchor="middle" x="83" y="-222" font-family="Helvetica,sans-Serif" font-size="10.00"> +currentMenu</text>
</g>
<!-- Node4 -->
<g id="node3" class="node"><title>Node4</title>
<g id="a_node3"><a xlink:href="struct_menu_item__t.html" target="_top" xlink:title=" ">
<polygon fill="white" stroke="black" points="17,-419.5 17,-498.5 85,-498.5 85,-419.5 17,-419.5"/>
<text text-anchor="middle" x="51" y="-486.5" font-family="Helvetica,sans-Serif" font-size="10.00">MenuItem_t</text>
<polyline fill="none" stroke="black" points="17,-479.5 85,-479.5 "/>
<text text-anchor="start" x="25" y="-467.5" font-family="Helvetica,sans-Serif" font-size="10.00">+ text</text>
<text text-anchor="start" x="25" y="-456.5" font-family="Helvetica,sans-Serif" font-size="10.00">+ func</text>
<text text-anchor="start" x="25" y="-445.5" font-family="Helvetica,sans-Serif" font-size="10.00">+ Status</text>
<polyline fill="none" stroke="black" points="17,-438.5 85,-438.5 "/>
<text text-anchor="middle" x="51" y="-426.5" font-family="Helvetica,sans-Serif" font-size="10.00"> </text>
</a>
</g>
</g>
<!-- Node4&#45;&gt;Node3 -->
<g id="edge2" class="edge"><title>Node4&#45;&gt;Node3</title>
<path fill="none" stroke="#404040" d="M51,-419.377C51,-408.404 51,-396.08 51,-383.783"/>
<polygon fill="none" stroke="#404040" points="51.0001,-383.546 47,-377.546 51,-371.546 55,-377.546 51.0001,-383.546"/>
<text text-anchor="middle" x="80" y="-393" font-family="Helvetica,sans-Serif" font-size="10.00"> +menuItems</text>
</g>
</g>
</svg>
