<?xml version="1.0" encoding="UTF-8" standalone="no"?>
<!DOCTYPE svg PUBLIC "-//W3C//DTD SVG 1.1//EN"
 "http://www.w3.org/Graphics/SVG/1.1/DTD/svg11.dtd">
<!-- Generated by graphviz version 2.38.0 (20140413.2041)
 -->
<!-- Title: DemuxAnalogPort Pages: 1 -->
<svg width="293pt" height="811pt"
 viewBox="0.00 0.00 292.50 811.00" xmlns="http://www.w3.org/2000/svg" xmlns:xlink="http://www.w3.org/1999/xlink">
<g id="graph0" class="graph" transform="scale(1 1) rotate(0) translate(4 807)">
<title>DemuxAnalogPort</title>
<polygon fill="white" stroke="none" points="-4,4 -4,-807 288.5,-807 288.5,4 -4,4"/>
<!-- Node3 -->
<g id="node1" class="node"><title>Node3</title>
<g id="a_node1"><a xlink:title="Class for Muxed analog ports (CV and Faders) Demux will use defines for pins: PINDEMUXA,...">
<polygon fill="#bfbfbf" stroke="black" points="37,-0.5 37,-101.5 147,-101.5 147,-0.5 37,-0.5"/>
<text text-anchor="middle" x="92" y="-89.5" font-family="Helvetica,sans-Serif" font-size="10.00">DemuxAnalogPort</text>
<polyline fill="none" stroke="black" points="37,-82.5 147,-82.5 "/>
<text text-anchor="start" x="45" y="-70.5" font-family="Helvetica,sans-Serif" font-size="10.00">+ DemuxPort</text>
<polyline fill="none" stroke="black" points="37,-63.5 147,-63.5 "/>
<text text-anchor="start" x="45" y="-51.5" font-family="Helvetica,sans-Serif" font-size="10.00">+ DemuxAnalogPort()</text>
<text text-anchor="start" x="45" y="-40.5" font-family="Helvetica,sans-Serif" font-size="10.00">+ SetPort()</text>
<text text-anchor="start" x="45" y="-29.5" font-family="Helvetica,sans-Serif" font-size="10.00">+ ReadPort()</text>
<text text-anchor="start" x="45" y="-18.5" font-family="Helvetica,sans-Serif" font-size="10.00">+ SetDemux()</text>
<text text-anchor="start" x="45" y="-7.5" font-family="Helvetica,sans-Serif" font-size="10.00">+ SendMIDI()</text>
</a>
</g>
</g>
<!-- Node4 -->
<g id="node2" class="node"><title>Node4</title>
<g id="a_node2"><a xlink:href="class_analog_port.html" target="_top" xlink:title="Class for analog ports (CV and Faders)">
<polygon fill="white" stroke="black" points="43,-139.5 43,-306.5 141,-306.5 141,-139.5 43,-139.5"/>
<text text-anchor="middle" x="92" y="-294.5" font-family="Helvetica,sans-Serif" font-size="10.00">AnalogPort</text>
<polyline fill="none" stroke="black" points="43,-287.5 141,-287.5 "/>
<text text-anchor="start" x="51" y="-275.5" font-family="Helvetica,sans-Serif" font-size="10.00">+ adcNum</text>
<polyline fill="none" stroke="black" points="43,-268.5 141,-268.5 "/>
<text text-anchor="start" x="51" y="-256.5" font-family="Helvetica,sans-Serif" font-size="10.00">+ AnalogPort()</text>
<text text-anchor="start" x="51" y="-245.5" font-family="Helvetica,sans-Serif" font-size="10.00">+ SetPort()</text>
<text text-anchor="start" x="51" y="-234.5" font-family="Helvetica,sans-Serif" font-size="10.00">+ ReadPort()</text>
<text text-anchor="start" x="51" y="-223.5" font-family="Helvetica,sans-Serif" font-size="10.00">+ SendMIDI()</text>
<text text-anchor="start" x="51" y="-212.5" font-family="Helvetica,sans-Serif" font-size="10.00">+ TrimValue()</text>
<text text-anchor="start" x="51" y="-201.5" font-family="Helvetica,sans-Serif" font-size="10.00">+ getClockDivider()</text>
<text text-anchor="start" x="51" y="-190.5" font-family="Helvetica,sans-Serif" font-size="10.00">+ getClockShift()</text>
<text text-anchor="start" x="51" y="-179.5" font-family="Helvetica,sans-Serif" font-size="10.00">+ ClockReceived()</text>
<text text-anchor="start" x="51" y="-168.5" font-family="Helvetica,sans-Serif" font-size="10.00">+ IsHigh()</text>
<text text-anchor="start" x="51" y="-157.5" font-family="Helvetica,sans-Serif" font-size="10.00">+ SaveCfg()</text>
<text text-anchor="start" x="51" y="-146.5" font-family="Helvetica,sans-Serif" font-size="10.00">+ LoadCfg()</text>
</a>
</g>
</g>
<!-- Node4&#45;&gt;Node3 -->
<g id="edge1" class="edge"><title>Node4&#45;&gt;Node3</title>
<path fill="none" stroke="midnightblue" d="M92,-129.249C92,-119.837 92,-110.553 92,-101.864"/>
<polygon fill="none" stroke="midnightblue" points="88.5001,-129.49 92,-139.49 95.5001,-129.49 88.5001,-129.49"/>
</g>
<!-- Node5 -->
<g id="node3" class="node"><title>Node5</title>
<g id="a_node3"><a xlink:href="class_input_port.html" target="_top" xlink:title="Base class for input ports (digital, analog,...)">
<polygon fill="white" stroke="black" points="0,-354.5 0,-565.5 108,-565.5 108,-354.5 0,-354.5"/>
<text text-anchor="middle" x="54" y="-553.5" font-family="Helvetica,sans-Serif" font-size="10.00">InputPort</text>
<polyline fill="none" stroke="black" points="0,-546.5 108,-546.5 "/>
<text text-anchor="start" x="8" y="-534.5" font-family="Helvetica,sans-Serif" font-size="10.00">+ PortNumber</text>
<text text-anchor="start" x="8" y="-523.5" font-family="Helvetica,sans-Serif" font-size="10.00">+ PortValue</text>
<text text-anchor="start" x="8" y="-512.5" font-family="Helvetica,sans-Serif" font-size="10.00">+ MIDIData</text>
<text text-anchor="start" x="8" y="-501.5" font-family="Helvetica,sans-Serif" font-size="10.00">+ LastSentMIDIData</text>
<text text-anchor="start" x="8" y="-490.5" font-family="Helvetica,sans-Serif" font-size="10.00">+ GateStatus</text>
<text text-anchor="start" x="8" y="-479.5" font-family="Helvetica,sans-Serif" font-size="10.00">+ msecLastMIDISent</text>
<text text-anchor="start" x="8" y="-468.5" font-family="Helvetica,sans-Serif" font-size="10.00">+ IntervalMIDIClock</text>
<text text-anchor="start" x="8" y="-457.5" font-family="Helvetica,sans-Serif" font-size="10.00">+ IntervalClock</text>
<text text-anchor="start" x="8" y="-446.5" font-family="Helvetica,sans-Serif" font-size="10.00">+ CurrentClock</text>
<text text-anchor="start" x="8" y="-435.5" font-family="Helvetica,sans-Serif" font-size="10.00">+ PreviousClock</text>
<text text-anchor="start" x="8" y="-424.5" font-family="Helvetica,sans-Serif" font-size="10.00">and 6 more...</text>
<polyline fill="none" stroke="black" points="0,-417.5 108,-417.5 "/>
<text text-anchor="start" x="8" y="-405.5" font-family="Helvetica,sans-Serif" font-size="10.00">+ InputPort()</text>
<text text-anchor="start" x="8" y="-394.5" font-family="Helvetica,sans-Serif" font-size="10.00">+ SetPort()</text>
<text text-anchor="start" x="8" y="-383.5" font-family="Helvetica,sans-Serif" font-size="10.00">+ ReadPort()</text>
<text text-anchor="start" x="8" y="-372.5" font-family="Helvetica,sans-Serif" font-size="10.00">+ ClockReceived()</text>
<text text-anchor="start" x="8" y="-361.5" font-family="Helvetica,sans-Serif" font-size="10.00">+ ProcessClock()</text>
</a>
</g>
</g>
<!-- Node5&#45;&gt;Node4 -->
<g id="edge2" class="edge"><title>Node5&#45;&gt;Node4</title>
<path fill="none" stroke="midnightblue" d="M72.5772,-344.115C74.6176,-331.497 76.6645,-318.838 78.6237,-306.722"/>
<polygon fill="none" stroke="midnightblue" points="69.0853,-343.784 70.944,-354.215 75.9955,-344.902 69.0853,-343.784"/>
</g>
<!-- Node6 -->
<g id="node4" class="node"><title>Node6</title>
<g id="a_node4"><a xlink:href="class_an_input_port_cfg.html" target="_top" xlink:title="Analog port configuration class.">
<polygon fill="white" stroke="black" points="126,-365.5 126,-554.5 224,-554.5 224,-365.5 126,-365.5"/>
<text text-anchor="middle" x="175" y="-542.5" font-family="Helvetica,sans-Serif" font-size="10.00">AnInputPortCfg</text>
<polyline fill="none" stroke="black" points="126,-535.5 224,-535.5 "/>
<text text-anchor="start" x="134" y="-523.5" font-family="Helvetica,sans-Serif" font-size="10.00">+ MIDIfunction</text>
<text text-anchor="start" x="134" y="-512.5" font-family="Helvetica,sans-Serif" font-size="10.00">+ ClipLow</text>
<text text-anchor="start" x="134" y="-501.5" font-family="Helvetica,sans-Serif" font-size="10.00">+ ClipHigh</text>
<text text-anchor="start" x="134" y="-490.5" font-family="Helvetica,sans-Serif" font-size="10.00">+ RangeBipolar</text>
<text text-anchor="start" x="134" y="-479.5" font-family="Helvetica,sans-Serif" font-size="10.00">+ NRPNparMSB</text>
<text text-anchor="start" x="134" y="-468.5" font-family="Helvetica,sans-Serif" font-size="10.00">+ NRPNparLSB</text>
<text text-anchor="start" x="134" y="-457.5" font-family="Helvetica,sans-Serif" font-size="10.00">+ AutoOff</text>
<polyline fill="none" stroke="black" points="126,-450.5 224,-450.5 "/>
<text text-anchor="start" x="134" y="-438.5" font-family="Helvetica,sans-Serif" font-size="10.00">+ SaveCfgSysEx()</text>
<text text-anchor="start" x="134" y="-427.5" font-family="Helvetica,sans-Serif" font-size="10.00">+ ReadCfgSysEx()</text>
<text text-anchor="start" x="134" y="-416.5" font-family="Helvetica,sans-Serif" font-size="10.00">+ AnInputPortCfg()</text>
<text text-anchor="start" x="134" y="-405.5" font-family="Helvetica,sans-Serif" font-size="10.00">+ AnInputPortCfg()</text>
<text text-anchor="start" x="134" y="-394.5" font-family="Helvetica,sans-Serif" font-size="10.00">+ SetMIDIFunc()</text>
<text text-anchor="start" x="134" y="-383.5" font-family="Helvetica,sans-Serif" font-size="10.00">+ LimitValues()</text>
<text text-anchor="start" x="134" y="-372.5" font-family="Helvetica,sans-Serif" font-size="10.00">+ IsDigitalFunc()</text>
</a>
</g>
</g>
<!-- Node6&#45;&gt;Node4 -->
<g id="edge3" class="edge"><title>Node6&#45;&gt;Node4</title>
<path fill="none" stroke="#404040" d="M141.958,-365.447C136.482,-349.943 130.801,-333.859 125.319,-318.336"/>
<polygon fill="none" stroke="#404040" points="125.168,-317.909 119.398,-313.584 121.172,-306.594 126.941,-310.919 125.168,-317.909"/>
<text text-anchor="middle" x="152" y="-328" font-family="Helvetica,sans-Serif" font-size="10.00"> +PortCfg</text>
</g>
<!-- Node7 -->
<g id="node5" class="node"><title>Node7</title>
<g id="a_node5"><a xlink:href="class_input_port_cfg.html" target="_top" xlink:title="Base port configuration class.">
<polygon fill="white" stroke="black" points="64.5,-619 64.5,-797 165.5,-797 165.5,-619 64.5,-619"/>
<text text-anchor="middle" x="115" y="-785" font-family="Helvetica,sans-Serif" font-size="10.00">InputPortCfg</text>
<polyline fill="none" stroke="black" points="64.5,-778 165.5,-778 "/>
<text text-anchor="start" x="72.5" y="-766" font-family="Helvetica,sans-Serif" font-size="10.00">+ MIDIChannel</text>
<text text-anchor="start" x="72.5" y="-755" font-family="Helvetica,sans-Serif" font-size="10.00">+ ControllerNumber</text>
<text text-anchor="start" x="72.5" y="-744" font-family="Helvetica,sans-Serif" font-size="10.00">+ NoteToSend</text>
<text text-anchor="start" x="72.5" y="-733" font-family="Helvetica,sans-Serif" font-size="10.00">+ ControllerValue</text>
<text text-anchor="start" x="72.5" y="-722" font-family="Helvetica,sans-Serif" font-size="10.00">+ ClockDivider</text>
<text text-anchor="start" x="72.5" y="-711" font-family="Helvetica,sans-Serif" font-size="10.00">+ ClockShift</text>
<text text-anchor="start" x="72.5" y="-700" font-family="Helvetica,sans-Serif" font-size="10.00">+ charPrefix</text>
<text text-anchor="start" x="72.5" y="-689" font-family="Helvetica,sans-Serif" font-size="10.00">+ textPort</text>
<text text-anchor="start" x="72.5" y="-678" font-family="Helvetica,sans-Serif" font-size="10.00">+ charSufix</text>
<text text-anchor="start" x="72.5" y="-667" font-family="Helvetica,sans-Serif" font-size="10.00">+ DelayGate</text>
<polyline fill="none" stroke="black" points="64.5,-660 165.5,-660 "/>
<text text-anchor="start" x="72.5" y="-648" font-family="Helvetica,sans-Serif" font-size="10.00">+ InputPortCfg()</text>
<text text-anchor="start" x="72.5" y="-637" font-family="Helvetica,sans-Serif" font-size="10.00">+ InputPortCfg()</text>
<text text-anchor="start" x="72.5" y="-626" font-family="Helvetica,sans-Serif" font-size="10.00">+ getName()</text>
</a>
</g>
</g>
<!-- Node7&#45;&gt;Node6 -->
<g id="edge4" class="edge"><title>Node7&#45;&gt;Node6</title>
<path fill="none" stroke="midnightblue" d="M138.895,-609.029C143.26,-591.135 147.804,-572.504 152.137,-554.738"/>
<polygon fill="none" stroke="midnightblue" points="135.461,-608.339 136.492,-618.883 142.262,-609.997 135.461,-608.339"/>
</g>
<!-- Node8 -->
<g id="node6" class="node"><title>Node8</title>
<g id="a_node6"><a xlink:href="class_range_conv.html" target="_top" xlink:title=" ">
<polygon fill="white" stroke="black" points="183.5,-613.5 183.5,-802.5 284.5,-802.5 284.5,-613.5 183.5,-613.5"/>
<text text-anchor="middle" x="234" y="-790.5" font-family="Helvetica,sans-Serif" font-size="10.00">RangeConv</text>
<polyline fill="none" stroke="black" points="183.5,-783.5 284.5,-783.5 "/>
<text text-anchor="middle" x="234" y="-771.5" font-family="Helvetica,sans-Serif" font-size="10.00"> </text>
<polyline fill="none" stroke="black" points="183.5,-764.5 284.5,-764.5 "/>
<text text-anchor="start" x="191.5" y="-752.5" font-family="Helvetica,sans-Serif" font-size="10.00">+ RangeConv()</text>
<text text-anchor="start" x="191.5" y="-741.5" font-family="Helvetica,sans-Serif" font-size="10.00">+ RangeConv()</text>
<text text-anchor="start" x="191.5" y="-730.5" font-family="Helvetica,sans-Serif" font-size="10.00">+ Convert()</text>
<text text-anchor="start" x="191.5" y="-719.5" font-family="Helvetica,sans-Serif" font-size="10.00">+ invConvert()</text>
<text text-anchor="start" x="191.5" y="-708.5" font-family="Helvetica,sans-Serif" font-size="10.00">+ PercentScale()</text>
<text text-anchor="start" x="191.5" y="-697.5" font-family="Helvetica,sans-Serif" font-size="10.00">+ invPercentScale()</text>
<text text-anchor="start" x="191.5" y="-686.5" font-family="Helvetica,sans-Serif" font-size="10.00">+ getMaxDAC()</text>
<text text-anchor="start" x="191.5" y="-675.5" font-family="Helvetica,sans-Serif" font-size="10.00">+ getMaxMIDI()</text>
<text text-anchor="start" x="191.5" y="-664.5" font-family="Helvetica,sans-Serif" font-size="10.00">+ ResetCalPoints()</text>
<text text-anchor="start" x="191.5" y="-653.5" font-family="Helvetica,sans-Serif" font-size="10.00">+ SetDAC()</text>
<text text-anchor="start" x="191.5" y="-642.5" font-family="Helvetica,sans-Serif" font-size="10.00">+ SetMIDI()</text>
<text text-anchor="start" x="191.5" y="-631.5" font-family="Helvetica,sans-Serif" font-size="10.00">+ getDAC()</text>
<text text-anchor="start" x="191.5" y="-620.5" font-family="Helvetica,sans-Serif" font-size="10.00">+ getMIDI()</text>
</a>
</g>
</g>
<!-- Node8&#45;&gt;Node6 -->
<g id="edge5" class="edge"><title>Node8&#45;&gt;Node6</title>
<path fill="none" stroke="#404040" d="M211.526,-613.296C207.867,-598.04 204.055,-582.145 200.333,-566.627"/>
<polygon fill="none" stroke="#404040" points="200.308,-566.52 195.019,-561.618 197.509,-554.851 202.798,-559.752 200.308,-566.52"/>
<text text-anchor="middle" x="227.5" y="-587" font-family="Helvetica,sans-Serif" font-size="10.00"> +Ranges</text>
</g>
</g>
</svg>
