<?xml version="1.0" encoding="UTF-8" standalone="no"?>
<!DOCTYPE svg PUBLIC "-//W3C//DTD SVG 1.1//EN"
 "http://www.w3.org/Graphics/SVG/1.1/DTD/svg11.dtd">
<!-- Generated by graphviz version 2.38.0 (20140413.2041)
 -->
<!-- Title: InputPort::ClockReceived Pages: 1 -->
<svg width="303pt" height="66pt"
 viewBox="0.00 0.00 303.00 66.00" xmlns="http://www.w3.org/2000/svg" xmlns:xlink="http://www.w3.org/1999/xlink">
<g id="graph0" class="graph" transform="scale(1 1) rotate(0) translate(4 62)">
<title>InputPort::ClockReceived</title>
<polygon fill="white" stroke="none" points="-4,4 -4,-62 299,-62 299,4 -4,4"/>
<!-- Node1 -->
<g id="node1" class="node"><title>Node1</title>
<g id="a_node1"><a xlink:title="Every clock received, recalculate interval for MIDI Clock sent.">
<polygon fill="#bfbfbf" stroke="black" points="170,-19.5 170,-38.5 295,-38.5 295,-19.5 170,-19.5"/>
<text text-anchor="middle" x="232.5" y="-26.5" font-family="Helvetica,sans-Serif" font-size="10.00">InputPort::ClockReceived</text>
</a>
</g>
</g>
<!-- Node2 -->
<g id="node2" class="node"><title>Node2</title>
<g id="a_node2"><a xlink:href="class_analog_port.html#a474aa7bdcffc13d96472afd411c37463" target="_top" xlink:title="Return true if input is bigger than half the range.">
<polygon fill="white" stroke="black" points="0,-38.5 0,-57.5 134,-57.5 134,-38.5 0,-38.5"/>
<text text-anchor="middle" x="67" y="-45.5" font-family="Helvetica,sans-Serif" font-size="10.00">AnalogPort::ClockReceived</text>
</a>
</g>
</g>
<!-- Node1&#45;&gt;Node2 -->
<g id="edge1" class="edge"><title>Node1&#45;&gt;Node2</title>
<path fill="none" stroke="midnightblue" d="M159.532,-37.3633C151.129,-38.3397 142.586,-39.3325 134.266,-40.2994"/>
<polygon fill="midnightblue" stroke="midnightblue" points="160.159,-40.8141 169.688,-36.1831 159.35,-33.8609 160.159,-40.8141"/>
</g>
<!-- Node3 -->
<g id="node3" class="node"><title>Node3</title>
<g id="a_node3"><a xlink:href="class_digital_port.html#a040b1920f5a4abc056aee40c5aa2259d" target="_top" xlink:title="Every clock received, recalculate interval for MIDI Clock sent.">
<polygon fill="white" stroke="black" points="1.5,-0.5 1.5,-19.5 132.5,-19.5 132.5,-0.5 1.5,-0.5"/>
<text text-anchor="middle" x="67" y="-7.5" font-family="Helvetica,sans-Serif" font-size="10.00">DigitalPort::ClockReceived</text>
</a>
</g>
</g>
<!-- Node1&#45;&gt;Node3 -->
<g id="edge2" class="edge"><title>Node1&#45;&gt;Node3</title>
<path fill="none" stroke="midnightblue" d="M159.631,-20.6483C150.643,-19.6037 141.492,-18.5404 132.623,-17.5097"/>
<polygon fill="midnightblue" stroke="midnightblue" points="159.35,-24.1391 169.688,-21.8169 160.159,-17.1859 159.35,-24.1391"/>
</g>
</g>
</svg>
