<?xml version="1.0" encoding="UTF-8" standalone="no"?>
<!DOCTYPE svg PUBLIC "-//W3C//DTD SVG 1.1//EN"
 "http://www.w3.org/Graphics/SVG/1.1/DTD/svg11.dtd">
<!-- Generated by graphviz version 2.38.0 (20140413.2041)
 -->
<!-- Title: AnInputPortCfg Pages: 1 -->
<svg width="162pt" height="95pt"
 viewBox="0.00 0.00 161.50 95.00" xmlns="http://www.w3.org/2000/svg" xmlns:xlink="http://www.w3.org/1999/xlink">
<g id="graph0" class="graph" transform="scale(1 1) rotate(0) translate(4 91)">
<title>AnInputPortCfg</title>
<polygon fill="white" stroke="none" points="-4,4 -4,-91 157.5,-91 157.5,4 -4,4"/>
<!-- Node2 -->
<g id="node1" class="node"><title>Node2</title>
<g id="a_node1"><a xlink:title="Analog port configuration class.">
<polygon fill="#bfbfbf" stroke="black" points="37,-0.5 37,-19.5 119,-19.5 119,-0.5 37,-0.5"/>
<text text-anchor="middle" x="78" y="-7.5" font-family="Helvetica,sans-Serif" font-size="10.00">AnInputPortCfg</text>
</a>
</g>
</g>
<!-- Node3 -->
<g id="node2" class="node"><title>Node3</title>
<g id="a_node2"><a xlink:href="class_input_port_cfg.html" target="_top" xlink:title="Base port configuration class.">
<polygon fill="white" stroke="black" points="0,-67.5 0,-86.5 70,-86.5 70,-67.5 0,-67.5"/>
<text text-anchor="middle" x="35" y="-74.5" font-family="Helvetica,sans-Serif" font-size="10.00">InputPortCfg</text>
</a>
</g>
</g>
<!-- Node3&#45;&gt;Node2 -->
<g id="edge1" class="edge"><title>Node3&#45;&gt;Node2</title>
<path fill="none" stroke="midnightblue" d="M46.554,-58.5347C54.8793,-45.9499 65.7568,-29.5072 72.2927,-19.6273"/>
<polygon fill="midnightblue" stroke="midnightblue" points="43.3975,-56.9625 40.7992,-67.2338 49.2356,-60.8247 43.3975,-56.9625"/>
</g>
<!-- Node4 -->
<g id="node3" class="node"><title>Node4</title>
<g id="a_node3"><a xlink:href="class_range_conv.html" target="_top" xlink:title=" ">
<polygon fill="white" stroke="black" points="88.5,-67.5 88.5,-86.5 153.5,-86.5 153.5,-67.5 88.5,-67.5"/>
<text text-anchor="middle" x="121" y="-74.5" font-family="Helvetica,sans-Serif" font-size="10.00">RangeConv</text>
</a>
</g>
</g>
<!-- Node4&#45;&gt;Node2 -->
<g id="edge2" class="edge"><title>Node4&#45;&gt;Node2</title>
<path fill="none" stroke="#9a32cd" stroke-dasharray="5,2" d="M109.446,-58.5347C101.121,-45.9499 90.2432,-29.5072 83.7073,-19.6273"/>
<polygon fill="#9a32cd" stroke="#9a32cd" points="106.764,-60.8247 115.201,-67.2338 112.603,-56.9625 106.764,-60.8247"/>
<text text-anchor="middle" x="121.5" y="-41" font-family="Helvetica,sans-Serif" font-size="10.00"> Ranges</text>
</g>
</g>
</svg>
