<?xml version="1.0" encoding="UTF-8" standalone="no"?>
<!DOCTYPE svg PUBLIC "-//W3C//DTD SVG 1.1//EN"
 "http://www.w3.org/Graphics/SVG/1.1/DTD/svg11.dtd">
<!-- Generated by graphviz version 2.38.0 (20140413.2041)
 -->
<!-- Title: AnalogPort Pages: 1 -->
<svg width="199pt" height="162pt"
 viewBox="0.00 0.00 198.50 162.00" xmlns="http://www.w3.org/2000/svg" xmlns:xlink="http://www.w3.org/1999/xlink">
<g id="graph0" class="graph" transform="scale(1 1) rotate(0) translate(4 158)">
<title>AnalogPort</title>
<polygon fill="white" stroke="none" points="-4,4 -4,-158 194.5,-158 194.5,4 -4,4"/>
<!-- Node3 -->
<g id="node1" class="node"><title>Node3</title>
<g id="a_node1"><a xlink:title="Class for analog ports (CV and Faders)">
<polygon fill="#bfbfbf" stroke="black" points="25.5,-0.5 25.5,-19.5 90.5,-19.5 90.5,-0.5 25.5,-0.5"/>
<text text-anchor="middle" x="58" y="-7.5" font-family="Helvetica,sans-Serif" font-size="10.00">AnalogPort</text>
</a>
</g>
</g>
<!-- Node4 -->
<g id="node2" class="node"><title>Node4</title>
<g id="a_node2"><a xlink:href="class_input_port.html" target="_top" xlink:title="Base class for input ports (digital, analog,...)">
<polygon fill="white" stroke="black" points="0,-67.5 0,-86.5 56,-86.5 56,-67.5 0,-67.5"/>
<text text-anchor="middle" x="28" y="-74.5" font-family="Helvetica,sans-Serif" font-size="10.00">InputPort</text>
</a>
</g>
</g>
<!-- Node4&#45;&gt;Node3 -->
<g id="edge1" class="edge"><title>Node4&#45;&gt;Node3</title>
<path fill="none" stroke="midnightblue" d="M36.4046,-57.79C42.1657,-45.3076 49.5476,-29.3135 54.0182,-19.6273"/>
<polygon fill="midnightblue" stroke="midnightblue" points="33.0587,-56.6875 32.0459,-67.2338 39.4144,-59.6209 33.0587,-56.6875"/>
</g>
<!-- Node5 -->
<g id="node3" class="node"><title>Node5</title>
<g id="a_node3"><a xlink:href="class_an_input_port_cfg.html" target="_top" xlink:title="Analog port configuration class.">
<polygon fill="white" stroke="black" points="74,-67.5 74,-86.5 156,-86.5 156,-67.5 74,-67.5"/>
<text text-anchor="middle" x="115" y="-74.5" font-family="Helvetica,sans-Serif" font-size="10.00">AnInputPortCfg</text>
</a>
</g>
</g>
<!-- Node5&#45;&gt;Node3 -->
<g id="edge2" class="edge"><title>Node5&#45;&gt;Node3</title>
<path fill="none" stroke="#9a32cd" stroke-dasharray="5,2" d="M100.649,-59.6348C89.5015,-46.9228 74.4842,-29.7978 65.5655,-19.6273"/>
<polygon fill="#9a32cd" stroke="#9a32cd" points="98.0879,-62.0228 107.313,-67.2338 103.351,-57.4075 98.0879,-62.0228"/>
<text text-anchor="middle" x="108" y="-41" font-family="Helvetica,sans-Serif" font-size="10.00"> PortCfg</text>
</g>
<!-- Node6 -->
<g id="node4" class="node"><title>Node6</title>
<g id="a_node4"><a xlink:href="class_input_port_cfg.html" target="_top" xlink:title="Base port configuration class.">
<polygon fill="white" stroke="black" points="37,-134.5 37,-153.5 107,-153.5 107,-134.5 37,-134.5"/>
<text text-anchor="middle" x="72" y="-141.5" font-family="Helvetica,sans-Serif" font-size="10.00">InputPortCfg</text>
</a>
</g>
</g>
<!-- Node6&#45;&gt;Node5 -->
<g id="edge3" class="edge"><title>Node6&#45;&gt;Node5</title>
<path fill="none" stroke="midnightblue" d="M83.554,-125.535C91.8793,-112.95 102.757,-96.5072 109.293,-86.6273"/>
<polygon fill="midnightblue" stroke="midnightblue" points="80.3975,-123.963 77.7992,-134.234 86.2356,-127.825 80.3975,-123.963"/>
</g>
<!-- Node7 -->
<g id="node5" class="node"><title>Node7</title>
<g id="a_node5"><a xlink:href="class_range_conv.html" target="_top" xlink:title=" ">
<polygon fill="white" stroke="black" points="125.5,-134.5 125.5,-153.5 190.5,-153.5 190.5,-134.5 125.5,-134.5"/>
<text text-anchor="middle" x="158" y="-141.5" font-family="Helvetica,sans-Serif" font-size="10.00">RangeConv</text>
</a>
</g>
</g>
<!-- Node7&#45;&gt;Node5 -->
<g id="edge4" class="edge"><title>Node7&#45;&gt;Node5</title>
<path fill="none" stroke="#9a32cd" stroke-dasharray="5,2" d="M146.446,-125.535C138.121,-112.95 127.243,-96.5072 120.707,-86.6273"/>
<polygon fill="#9a32cd" stroke="#9a32cd" points="143.764,-127.825 152.201,-134.234 149.603,-123.963 143.764,-127.825"/>
<text text-anchor="middle" x="157.5" y="-108" font-family="Helvetica,sans-Serif" font-size="10.00"> Ranges</text>
</g>
</g>
</svg>
