<?xml version="1.0" encoding="UTF-8" standalone="no"?>
<!DOCTYPE svg PUBLIC "-//W3C//DTD SVG 1.1//EN"
 "http://www.w3.org/Graphics/SVG/1.1/DTD/svg11.dtd">
<!-- Generated by graphviz version 2.38.0 (20140413.2041)
 -->
<!-- Title: OLEDMenu Pages: 1 -->
<svg width="138pt" height="822pt"
 viewBox="0.00 0.00 138.00 822.00" xmlns="http://www.w3.org/2000/svg" xmlns:xlink="http://www.w3.org/1999/xlink">
<g id="graph0" class="graph" transform="scale(1 1) rotate(0) translate(4 818)">
<title>OLEDMenu</title>
<polygon fill="white" stroke="none" points="-4,4 -4,-818 134,-818 134,4 -4,4"/>
<!-- Node2 -->
<g id="node1" class="node"><title>Node2</title>
<g id="a_node1"><a xlink:title="Menu Class to handle encoder and OLED screen.">
<polygon fill="#bfbfbf" stroke="black" points="0,-0.5 0,-277.5 130,-277.5 130,-0.5 0,-0.5"/>
<text text-anchor="middle" x="65" y="-265.5" font-family="Helvetica,sans-Serif" font-size="10.00">OLEDMenu</text>
<polyline fill="none" stroke="black" points="0,-258.5 130,-258.5 "/>
<text text-anchor="start" x="8" y="-246.5" font-family="Helvetica,sans-Serif" font-size="10.00">+ MaxLines</text>
<text text-anchor="start" x="8" y="-235.5" font-family="Helvetica,sans-Serif" font-size="10.00">+ firstVisibleLine</text>
<text text-anchor="start" x="8" y="-224.5" font-family="Helvetica,sans-Serif" font-size="10.00">+ MenuPosX</text>
<text text-anchor="start" x="8" y="-213.5" font-family="Helvetica,sans-Serif" font-size="10.00">+ MenuPosY</text>
<text text-anchor="start" x="8" y="-202.5" font-family="Helvetica,sans-Serif" font-size="10.00">+ showPopUp</text>
<text text-anchor="start" x="8" y="-191.5" font-family="Helvetica,sans-Serif" font-size="10.00">+ PopupMsg</text>
<text text-anchor="start" x="8" y="-180.5" font-family="Helvetica,sans-Serif" font-size="10.00">+ PopupTime</text>
<text text-anchor="start" x="8" y="-169.5" font-family="Helvetica,sans-Serif" font-size="10.00">+ PopupXpos</text>
<text text-anchor="start" x="8" y="-158.5" font-family="Helvetica,sans-Serif" font-size="10.00">+ PopupYpos</text>
<text text-anchor="start" x="8" y="-147.5" font-family="Helvetica,sans-Serif" font-size="10.00">+ PopupWidth</text>
<text text-anchor="start" x="8" y="-136.5" font-family="Helvetica,sans-Serif" font-size="10.00">and 25 more...</text>
<polyline fill="none" stroke="black" points="0,-129.5 130,-129.5 "/>
<text text-anchor="start" x="8" y="-117.5" font-family="Helvetica,sans-Serif" font-size="10.00">+ setupPopup()</text>
<text text-anchor="start" x="8" y="-106.5" font-family="Helvetica,sans-Serif" font-size="10.00">+ setupPopupBMP()</text>
<text text-anchor="start" x="8" y="-95.5" font-family="Helvetica,sans-Serif" font-size="10.00">+ updateSelection()</text>
<text text-anchor="start" x="8" y="-84.5" font-family="Helvetica,sans-Serif" font-size="10.00">+ selectionMade()</text>
<text text-anchor="start" x="8" y="-73.5" font-family="Helvetica,sans-Serif" font-size="10.00">+ setCurrentMenu()</text>
<text text-anchor="start" x="8" y="-62.5" font-family="Helvetica,sans-Serif" font-size="10.00">+ FillNameMenuList()</text>
<text text-anchor="start" x="8" y="-51.5" font-family="Helvetica,sans-Serif" font-size="10.00">+ FillUserNameMenuList()</text>
<text text-anchor="start" x="8" y="-40.5" font-family="Helvetica,sans-Serif" font-size="10.00">+ displayMenu()</text>
<text text-anchor="start" x="8" y="-29.5" font-family="Helvetica,sans-Serif" font-size="10.00">+ displayMenuListLines()</text>
<text text-anchor="start" x="8" y="-18.5" font-family="Helvetica,sans-Serif" font-size="10.00">+ displayMenuCards()</text>
<text text-anchor="start" x="8" y="-7.5" font-family="Helvetica,sans-Serif" font-size="10.00">and 24 more...</text>
</a>
</g>
</g>
<!-- Node3 -->
<g id="node2" class="node"><title>Node3</title>
<g id="a_node2"><a xlink:href="class_menu_class.html" target="_top" xlink:title=" ">
<polygon fill="white" stroke="black" points="14,-315.5 14,-515.5 116,-515.5 116,-315.5 14,-315.5"/>
<text text-anchor="middle" x="65" y="-503.5" font-family="Helvetica,sans-Serif" font-size="10.00">MenuClass</text>
<polyline fill="none" stroke="black" points="14,-496.5 116,-496.5 "/>
<text text-anchor="start" x="22" y="-484.5" font-family="Helvetica,sans-Serif" font-size="10.00">+ currentItemIndex</text>
<polyline fill="none" stroke="black" points="14,-477.5 116,-477.5 "/>
<text text-anchor="start" x="22" y="-465.5" font-family="Helvetica,sans-Serif" font-size="10.00">+ MenuClass()</text>
<text text-anchor="start" x="22" y="-454.5" font-family="Helvetica,sans-Serif" font-size="10.00">+ MenuClass()</text>
<text text-anchor="start" x="22" y="-443.5" font-family="Helvetica,sans-Serif" font-size="10.00">+ doMenu()</text>
<text text-anchor="start" x="22" y="-432.5" font-family="Helvetica,sans-Serif" font-size="10.00">+ setCurrentMenu()</text>
<text text-anchor="start" x="22" y="-421.5" font-family="Helvetica,sans-Serif" font-size="10.00">+ getText()</text>
<text text-anchor="start" x="22" y="-410.5" font-family="Helvetica,sans-Serif" font-size="10.00">+ enableItem()</text>
<text text-anchor="start" x="22" y="-399.5" font-family="Helvetica,sans-Serif" font-size="10.00">+ disableItem()</text>
<text text-anchor="start" x="22" y="-388.5" font-family="Helvetica,sans-Serif" font-size="10.00">+ isEnabled()</text>
<text text-anchor="start" x="22" y="-377.5" font-family="Helvetica,sans-Serif" font-size="10.00">+ runFunction()</text>
<text text-anchor="start" x="22" y="-366.5" font-family="Helvetica,sans-Serif" font-size="10.00">+ displayMenu()</text>
<text text-anchor="start" x="22" y="-355.5" font-family="Helvetica,sans-Serif" font-size="10.00">+ checkForCancel()</text>
<text text-anchor="start" x="22" y="-344.5" font-family="Helvetica,sans-Serif" font-size="10.00">+ updateSelection()</text>
<text text-anchor="start" x="22" y="-333.5" font-family="Helvetica,sans-Serif" font-size="10.00">+ selectionMade()</text>
<text text-anchor="start" x="22" y="-322.5" font-family="Helvetica,sans-Serif" font-size="10.00">+ getItemStatus()</text>
</a>
</g>
</g>
<!-- Node3&#45;&gt;Node2 -->
<g id="edge1" class="edge"><title>Node3&#45;&gt;Node2</title>
<path fill="none" stroke="midnightblue" d="M65,-305.231C65,-296.152 65,-286.903 65,-277.652"/>
<polygon fill="none" stroke="midnightblue" points="61.5001,-305.399 65,-315.399 68.5001,-305.399 61.5001,-305.399"/>
</g>
<!-- Node4 -->
<g id="node3" class="node"><title>Node4</title>
<g id="a_node3"><a xlink:href="class_menu_list.html" target="_top" xlink:title=" ">
<polygon fill="white" stroke="black" points="19.5,-563.5 19.5,-686.5 110.5,-686.5 110.5,-563.5 19.5,-563.5"/>
<text text-anchor="middle" x="65" y="-674.5" font-family="Helvetica,sans-Serif" font-size="10.00">MenuList</text>
<polyline fill="none" stroke="black" points="19.5,-667.5 110.5,-667.5 "/>
<text text-anchor="start" x="27.5" y="-655.5" font-family="Helvetica,sans-Serif" font-size="10.00">+ listSize</text>
<text text-anchor="start" x="27.5" y="-644.5" font-family="Helvetica,sans-Serif" font-size="10.00">+ Style</text>
<polyline fill="none" stroke="black" points="19.5,-637.5 110.5,-637.5 "/>
<text text-anchor="start" x="27.5" y="-625.5" font-family="Helvetica,sans-Serif" font-size="10.00">+ getItem()</text>
<text text-anchor="start" x="27.5" y="-614.5" font-family="Helvetica,sans-Serif" font-size="10.00">+ MenuList()</text>
<text text-anchor="start" x="27.5" y="-603.5" font-family="Helvetica,sans-Serif" font-size="10.00">+ getSize()</text>
<text text-anchor="start" x="27.5" y="-592.5" font-family="Helvetica,sans-Serif" font-size="10.00">+ getActiveSize()</text>
<text text-anchor="start" x="27.5" y="-581.5" font-family="Helvetica,sans-Serif" font-size="10.00">+ enableItem()</text>
<text text-anchor="start" x="27.5" y="-570.5" font-family="Helvetica,sans-Serif" font-size="10.00">+ disableItem()</text>
</a>
</g>
</g>
<!-- Node4&#45;&gt;Node3 -->
<g id="edge2" class="edge"><title>Node4&#45;&gt;Node3</title>
<path fill="none" stroke="#404040" d="M65,-563.425C65,-552.21 65,-540.176 65,-527.999"/>
<polygon fill="none" stroke="#404040" points="65.0001,-527.8 61,-521.8 65,-515.8 69,-521.8 65.0001,-527.8"/>
<text text-anchor="middle" x="97" y="-537" font-family="Helvetica,sans-Serif" font-size="10.00"> +currentMenu</text>
</g>
<!-- Node5 -->
<g id="node4" class="node"><title>Node5</title>
<g id="a_node4"><a xlink:href="struct_menu_item__t.html" target="_top" xlink:title=" ">
<polygon fill="white" stroke="black" points="31,-734.5 31,-813.5 99,-813.5 99,-734.5 31,-734.5"/>
<text text-anchor="middle" x="65" y="-801.5" font-family="Helvetica,sans-Serif" font-size="10.00">MenuItem_t</text>
<polyline fill="none" stroke="black" points="31,-794.5 99,-794.5 "/>
<text text-anchor="start" x="39" y="-782.5" font-family="Helvetica,sans-Serif" font-size="10.00">+ text</text>
<text text-anchor="start" x="39" y="-771.5" font-family="Helvetica,sans-Serif" font-size="10.00">+ func</text>
<text text-anchor="start" x="39" y="-760.5" font-family="Helvetica,sans-Serif" font-size="10.00">+ Status</text>
<polyline fill="none" stroke="black" points="31,-753.5 99,-753.5 "/>
<text text-anchor="middle" x="65" y="-741.5" font-family="Helvetica,sans-Serif" font-size="10.00"> </text>
</a>
</g>
</g>
<!-- Node5&#45;&gt;Node4 -->
<g id="edge3" class="edge"><title>Node5&#45;&gt;Node4</title>
<path fill="none" stroke="#404040" d="M65,-734.377C65,-723.404 65,-711.08 65,-698.783"/>
<polygon fill="none" stroke="#404040" points="65.0001,-698.546 61,-692.546 65,-686.546 69,-692.546 65.0001,-698.546"/>
<text text-anchor="middle" x="94" y="-708" font-family="Helvetica,sans-Serif" font-size="10.00"> +menuItems</text>
</g>
</g>
</svg>
