<?xml version="1.0" encoding="UTF-8" standalone="no"?>
<!DOCTYPE svg PUBLIC "-//W3C//DTD SVG 1.1//EN"
 "http://www.w3.org/Graphics/SVG/1.1/DTD/svg11.dtd">
<!-- Generated by graphviz version 2.38.0 (20140413.2041)
 -->
<!-- Title: OLEDMenu::printStrInput Pages: 1 -->
<svg width="530pt" height="28pt"
 viewBox="0.00 0.00 530.00 28.00" xmlns="http://www.w3.org/2000/svg" xmlns:xlink="http://www.w3.org/1999/xlink">
<g id="graph0" class="graph" transform="scale(1 1) rotate(0) translate(4 24)">
<title>OLEDMenu::printStrInput</title>
<polygon fill="white" stroke="none" points="-4,4 -4,-24 526,-24 526,4 -4,4"/>
<!-- Node40 -->
<g id="node1" class="node"><title>Node40</title>
<g id="a_node1"><a xlink:title="Print on screen value marking selected character.">
<polygon fill="#bfbfbf" stroke="black" points="397,-0.5 397,-19.5 522,-19.5 522,-0.5 397,-0.5"/>
<text text-anchor="middle" x="459.5" y="-7.5" font-family="Helvetica,sans-Serif" font-size="10.00">OLEDMenu::printStrInput</text>
</a>
</g>
</g>
<!-- Node41 -->
<g id="node2" class="node"><title>Node41</title>
<g id="a_node2"><a xlink:href="class_o_l_e_d_menu.html#a97b7653ff603ccd69589a2fa9f41344f" target="_top" xlink:title="Change a long value and show in screen title and value.">
<polygon fill="white" stroke="black" points="198,-0.5 198,-19.5 361,-19.5 361,-0.5 198,-0.5"/>
<text text-anchor="middle" x="279.5" y="-7.5" font-family="Helvetica,sans-Serif" font-size="10.00">OLEDMenu::EncoderChangeLong</text>
</a>
</g>
</g>
<!-- Node40&#45;&gt;Node41 -->
<g id="edge1" class="edge"><title>Node40&#45;&gt;Node41</title>
<path fill="none" stroke="midnightblue" d="M386.671,-10C378.311,-10 369.741,-10 361.271,-10"/>
<polygon fill="midnightblue" stroke="midnightblue" points="386.744,-13.5001 396.744,-10 386.744,-6.5001 386.744,-13.5001"/>
</g>
<!-- Node42 -->
<g id="node3" class="node"><title>Node42</title>
<g id="a_node3"><a xlink:href="class_o_l_e_d_menu.html#af603cf3288b91fdec3d97d484704fe6e" target="_top" xlink:title="Change a long value digits indiviadully and show in screen title and value.">
<polygon fill="white" stroke="black" points="0,-0.5 0,-19.5 162,-19.5 162,-0.5 0,-0.5"/>
<text text-anchor="middle" x="81" y="-7.5" font-family="Helvetica,sans-Serif" font-size="10.00">OLEDMenu::EncoderselDigitLong</text>
</a>
</g>
</g>
<!-- Node41&#45;&gt;Node42 -->
<g id="edge2" class="edge"><title>Node41&#45;&gt;Node42</title>
<path fill="none" stroke="midnightblue" d="M187.467,-10C179.013,-10 170.488,-10 162.144,-10"/>
<polygon fill="midnightblue" stroke="midnightblue" points="187.725,-13.5001 197.725,-10 187.725,-6.5001 187.725,-13.5001"/>
</g>
</g>
</svg>
