<?xml version="1.0" encoding="UTF-8" standalone="no"?>
<!DOCTYPE svg PUBLIC "-//W3C//DTD SVG 1.1//EN"
 "http://www.w3.org/Graphics/SVG/1.1/DTD/svg11.dtd">
<!-- Generated by graphviz version 2.38.0 (20140413.2041)
 -->
<!-- Title: DigitalPort Pages: 1 -->
<svg width="211pt" height="152pt"
 viewBox="0.00 0.00 210.50 152.00" xmlns="http://www.w3.org/2000/svg" xmlns:xlink="http://www.w3.org/1999/xlink">
<g id="graph0" class="graph" transform="scale(1 1) rotate(0) translate(4 148)">
<title>DigitalPort</title>
<polygon fill="white" stroke="none" points="-4,4 -4,-148 206.5,-148 206.5,4 -4,4"/>
<!-- Node2 -->
<g id="node1" class="node"><title>Node2</title>
<g id="a_node1"><a xlink:title="Class for digital ports (Gates)">
<polygon fill="#bfbfbf" stroke="black" points="75,-0.5 75,-19.5 137,-19.5 137,-0.5 75,-0.5"/>
<text text-anchor="middle" x="106" y="-7.5" font-family="Helvetica,sans-Serif" font-size="10.00">DigitalPort</text>
</a>
</g>
</g>
<!-- Node3 -->
<g id="node2" class="node"><title>Node3</title>
<g id="a_node2"><a xlink:href="class_input_port.html" target="_top" xlink:title="Base class for input ports (digital, analog,...)">
<polygon fill="white" stroke="black" points="0,-67.5 0,-86.5 56,-86.5 56,-67.5 0,-67.5"/>
<text text-anchor="middle" x="28" y="-74.5" font-family="Helvetica,sans-Serif" font-size="10.00">InputPort</text>
</a>
</g>
</g>
<!-- Node3&#45;&gt;Node2 -->
<g id="edge1" class="edge"><title>Node3&#45;&gt;Node2</title>
<path fill="none" stroke="midnightblue" d="M46.3439,-60.7134C61.7116,-47.907 83.0939,-30.0884 95.6472,-19.6273"/>
<polygon fill="midnightblue" stroke="midnightblue" points="43.961,-58.1431 38.5194,-67.2338 48.4423,-63.5207 43.961,-58.1431"/>
</g>
<!-- Node4 -->
<g id="node3" class="node"><title>Node4</title>
<g id="a_node3"><a xlink:href="class_dig_port_cfg.html" target="_top" xlink:title="Digital port configuration class.">
<polygon fill="white" stroke="black" points="74.5,-67.5 74.5,-86.5 137.5,-86.5 137.5,-67.5 74.5,-67.5"/>
<text text-anchor="middle" x="106" y="-74.5" font-family="Helvetica,sans-Serif" font-size="10.00">DigPortCfg</text>
</a>
</g>
</g>
<!-- Node4&#45;&gt;Node2 -->
<g id="edge2" class="edge"><title>Node4&#45;&gt;Node2</title>
<path fill="none" stroke="#9a32cd" stroke-dasharray="5,2" d="M106,-57.037C106,-44.6703 106,-29.1198 106,-19.6273"/>
<polygon fill="#9a32cd" stroke="#9a32cd" points="102.5,-57.2338 106,-67.2338 109.5,-57.2338 102.5,-57.2338"/>
<text text-anchor="middle" x="124" y="-41" font-family="Helvetica,sans-Serif" font-size="10.00"> PortCfg</text>
</g>
<!-- Node5 -->
<g id="node4" class="node"><title>Node5</title>
<g id="a_node4"><a xlink:href="class_input_port_cfg.html" target="_top" xlink:title="Base port configuration class.">
<polygon fill="white" stroke="black" points="71,-124.5 71,-143.5 141,-143.5 141,-124.5 71,-124.5"/>
<text text-anchor="middle" x="106" y="-131.5" font-family="Helvetica,sans-Serif" font-size="10.00">InputPortCfg</text>
</a>
</g>
</g>
<!-- Node5&#45;&gt;Node4 -->
<g id="edge3" class="edge"><title>Node5&#45;&gt;Node4</title>
<path fill="none" stroke="midnightblue" d="M106,-114.117C106,-104.817 106,-94.0557 106,-86.7149"/>
<polygon fill="midnightblue" stroke="midnightblue" points="102.5,-114.406 106,-124.406 109.5,-114.406 102.5,-114.406"/>
</g>
<!-- Node6 -->
<g id="node5" class="node"><title>Node6</title>
<g id="a_node5"><a xlink:href="class_blinker.html" target="_top" xlink:title="Class helper to blink led.">
<polygon fill="white" stroke="black" points="155.5,-67.5 155.5,-86.5 202.5,-86.5 202.5,-67.5 155.5,-67.5"/>
<text text-anchor="middle" x="179" y="-74.5" font-family="Helvetica,sans-Serif" font-size="10.00">Blinker</text>
</a>
</g>
</g>
<!-- Node6&#45;&gt;Node2 -->
<g id="edge4" class="edge"><title>Node6&#45;&gt;Node2</title>
<path fill="none" stroke="#9a32cd" stroke-dasharray="5,2" d="M166.015,-59.1767C160.26,-52.2388 153.175,-44.3536 146,-38 138.222,-31.1126 128.594,-24.5627 120.733,-19.6392"/>
<polygon fill="#9a32cd" stroke="#9a32cd" points="163.516,-61.6549 172.499,-67.2714 168.979,-57.2785 163.516,-61.6549"/>
<text text-anchor="middle" x="178" y="-41" font-family="Helvetica,sans-Serif" font-size="10.00"> blinkPort</text>
</g>
</g>
</svg>
