<?xml version="1.0" encoding="UTF-8" standalone="no"?>
<!DOCTYPE svg PUBLIC "-//W3C//DTD SVG 1.1//EN"
 "http://www.w3.org/Graphics/SVG/1.1/DTD/svg11.dtd">
<!-- Generated by graphviz version 2.38.0 (20140413.2041)
 -->
<!-- Title: InputControl Pages: 1 -->
<svg width="446pt" height="1103pt"
 viewBox="0.00 0.00 445.50 1103.00" xmlns="http://www.w3.org/2000/svg" xmlns:xlink="http://www.w3.org/1999/xlink">
<g id="graph0" class="graph" transform="scale(1 1) rotate(0) translate(4 1099)">
<title>InputControl</title>
<polygon fill="white" stroke="none" points="-4,4 -4,-1099 441.5,-1099 441.5,4 -4,4"/>
<!-- Node1 -->
<g id="node1" class="node"><title>Node1</title>
<g id="a_node1"><a xlink:title="InputControl class provides the core functionaly for each block of CV, Fader and Gate The function In...">
<polygon fill="#bfbfbf" stroke="black" points="129,-0.5 129,-233.5 240,-233.5 240,-0.5 129,-0.5"/>
<text text-anchor="middle" x="184.5" y="-221.5" font-family="Helvetica,sans-Serif" font-size="10.00">InputControl</text>
<polyline fill="none" stroke="black" points="129,-214.5 240,-214.5 "/>
<text text-anchor="start" x="137" y="-202.5" font-family="Helvetica,sans-Serif" font-size="10.00">+ ControlNumber</text>
<text text-anchor="start" x="137" y="-191.5" font-family="Helvetica,sans-Serif" font-size="10.00">+ CVchanged</text>
<text text-anchor="start" x="137" y="-180.5" font-family="Helvetica,sans-Serif" font-size="10.00">+ Slidchanged</text>
<text text-anchor="start" x="137" y="-169.5" font-family="Helvetica,sans-Serif" font-size="10.00">+ Gatechanged</text>
<polyline fill="none" stroke="black" points="129,-162.5 240,-162.5 "/>
<text text-anchor="start" x="137" y="-150.5" font-family="Helvetica,sans-Serif" font-size="10.00">+ SaveCfgSysEx()</text>
<text text-anchor="start" x="137" y="-139.5" font-family="Helvetica,sans-Serif" font-size="10.00">+ ReadCfgSysEx()</text>
<text text-anchor="start" x="137" y="-128.5" font-family="Helvetica,sans-Serif" font-size="10.00">+ InputControl()</text>
<text text-anchor="start" x="137" y="-117.5" font-family="Helvetica,sans-Serif" font-size="10.00">+ SetControlNumber()</text>
<text text-anchor="start" x="137" y="-106.5" font-family="Helvetica,sans-Serif" font-size="10.00">+ SetPort()</text>
<text text-anchor="start" x="137" y="-95.5" font-family="Helvetica,sans-Serif" font-size="10.00">+ ReadPorts()</text>
<text text-anchor="start" x="137" y="-84.5" font-family="Helvetica,sans-Serif" font-size="10.00">+ ReadPorts()</text>
<text text-anchor="start" x="137" y="-73.5" font-family="Helvetica,sans-Serif" font-size="10.00">+ DoChanges()</text>
<text text-anchor="start" x="137" y="-62.5" font-family="Helvetica,sans-Serif" font-size="10.00">+ OnDataChange()</text>
<text text-anchor="start" x="137" y="-51.5" font-family="Helvetica,sans-Serif" font-size="10.00">+ DataCalc()</text>
<text text-anchor="start" x="137" y="-40.5" font-family="Helvetica,sans-Serif" font-size="10.00">+ GetGateState()</text>
<text text-anchor="start" x="137" y="-29.5" font-family="Helvetica,sans-Serif" font-size="10.00">+ Blink()</text>
<text text-anchor="start" x="137" y="-18.5" font-family="Helvetica,sans-Serif" font-size="10.00">+ SaveCfg()</text>
<text text-anchor="start" x="137" y="-7.5" font-family="Helvetica,sans-Serif" font-size="10.00">+ LoadCfg()</text>
</a>
</g>
</g>
<!-- Node2 -->
<g id="node2" class="node"><title>Node2</title>
<g id="a_node2"><a xlink:href="class_input_ctrl_cfg.html" target="_top" xlink:title="InputControl configuration.">
<polygon fill="white" stroke="black" points="13.5,-298 13.5,-388 111.5,-388 111.5,-298 13.5,-298"/>
<text text-anchor="middle" x="62.5" y="-376" font-family="Helvetica,sans-Serif" font-size="10.00">InputCtrlCfg</text>
<polyline fill="none" stroke="black" points="13.5,-369 111.5,-369 "/>
<text text-anchor="start" x="21.5" y="-357" font-family="Helvetica,sans-Serif" font-size="10.00">+ Chanfunction</text>
<polyline fill="none" stroke="black" points="13.5,-350 111.5,-350 "/>
<text text-anchor="start" x="21.5" y="-338" font-family="Helvetica,sans-Serif" font-size="10.00">+ InputCtrlCfg()</text>
<text text-anchor="start" x="21.5" y="-327" font-family="Helvetica,sans-Serif" font-size="10.00">+ InputCtrlCfg()</text>
<text text-anchor="start" x="21.5" y="-316" font-family="Helvetica,sans-Serif" font-size="10.00">+ SaveCfgSysEx()</text>
<text text-anchor="start" x="21.5" y="-305" font-family="Helvetica,sans-Serif" font-size="10.00">+ ReadCfgSysEx()</text>
</a>
</g>
</g>
<!-- Node2&#45;&gt;Node1 -->
<g id="edge1" class="edge"><title>Node2&#45;&gt;Node1</title>
<path fill="none" stroke="#404040" d="M86.6033,-297.745C97.1892,-278.308 110.15,-254.512 123.132,-230.675"/>
<polygon fill="none" stroke="#404040" points="123.15,-230.642 122.507,-223.46 128.89,-220.104 129.533,-227.286 123.15,-230.642"/>
<text text-anchor="middle" x="128" y="-260.5" font-family="Helvetica,sans-Serif" font-size="10.00"> +Config</text>
</g>
<!-- Node3 -->
<g id="node3" class="node"><title>Node3</title>
<g id="a_node3"><a xlink:href="class_demux_analog_port.html" target="_top" xlink:title="Class for Muxed analog ports (CV and Faders) Demux will use defines for pins: PINDEMUXA,...">
<polygon fill="white" stroke="black" points="129.5,-292.5 129.5,-393.5 239.5,-393.5 239.5,-292.5 129.5,-292.5"/>
<text text-anchor="middle" x="184.5" y="-381.5" font-family="Helvetica,sans-Serif" font-size="10.00">DemuxAnalogPort</text>
<polyline fill="none" stroke="black" points="129.5,-374.5 239.5,-374.5 "/>
<text text-anchor="start" x="137.5" y="-362.5" font-family="Helvetica,sans-Serif" font-size="10.00">+ DemuxPort</text>
<polyline fill="none" stroke="black" points="129.5,-355.5 239.5,-355.5 "/>
<text text-anchor="start" x="137.5" y="-343.5" font-family="Helvetica,sans-Serif" font-size="10.00">+ DemuxAnalogPort()</text>
<text text-anchor="start" x="137.5" y="-332.5" font-family="Helvetica,sans-Serif" font-size="10.00">+ SetPort()</text>
<text text-anchor="start" x="137.5" y="-321.5" font-family="Helvetica,sans-Serif" font-size="10.00">+ ReadPort()</text>
<text text-anchor="start" x="137.5" y="-310.5" font-family="Helvetica,sans-Serif" font-size="10.00">+ SetDemux()</text>
<text text-anchor="start" x="137.5" y="-299.5" font-family="Helvetica,sans-Serif" font-size="10.00">+ SendMIDI()</text>
</a>
</g>
</g>
<!-- Node3&#45;&gt;Node1 -->
<g id="edge2" class="edge"><title>Node3&#45;&gt;Node1</title>
<path fill="none" stroke="#404040" d="M184.5,-292.287C184.5,-278.182 184.5,-262.143 184.5,-245.643"/>
<polygon fill="none" stroke="#404040" points="184.5,-245.568 180.5,-239.568 184.5,-233.568 188.5,-239.568 184.5,-245.568"/>
<text text-anchor="middle" x="203.5" y="-266" font-family="Helvetica,sans-Serif" font-size="10.00"> +Slider</text>
<text text-anchor="middle" x="203.5" y="-255" font-family="Helvetica,sans-Serif" font-size="10.00">+CVPort</text>
</g>
<!-- Node4 -->
<g id="node4" class="node"><title>Node4</title>
<g id="a_node4"><a xlink:href="class_analog_port.html" target="_top" xlink:title="Class for analog ports (CV and Faders)">
<polygon fill="white" stroke="black" points="117.5,-431.5 117.5,-598.5 215.5,-598.5 215.5,-431.5 117.5,-431.5"/>
<text text-anchor="middle" x="166.5" y="-586.5" font-family="Helvetica,sans-Serif" font-size="10.00">AnalogPort</text>
<polyline fill="none" stroke="black" points="117.5,-579.5 215.5,-579.5 "/>
<text text-anchor="start" x="125.5" y="-567.5" font-family="Helvetica,sans-Serif" font-size="10.00">+ adcNum</text>
<polyline fill="none" stroke="black" points="117.5,-560.5 215.5,-560.5 "/>
<text text-anchor="start" x="125.5" y="-548.5" font-family="Helvetica,sans-Serif" font-size="10.00">+ AnalogPort()</text>
<text text-anchor="start" x="125.5" y="-537.5" font-family="Helvetica,sans-Serif" font-size="10.00">+ SetPort()</text>
<text text-anchor="start" x="125.5" y="-526.5" font-family="Helvetica,sans-Serif" font-size="10.00">+ ReadPort()</text>
<text text-anchor="start" x="125.5" y="-515.5" font-family="Helvetica,sans-Serif" font-size="10.00">+ SendMIDI()</text>
<text text-anchor="start" x="125.5" y="-504.5" font-family="Helvetica,sans-Serif" font-size="10.00">+ TrimValue()</text>
<text text-anchor="start" x="125.5" y="-493.5" font-family="Helvetica,sans-Serif" font-size="10.00">+ getClockDivider()</text>
<text text-anchor="start" x="125.5" y="-482.5" font-family="Helvetica,sans-Serif" font-size="10.00">+ getClockShift()</text>
<text text-anchor="start" x="125.5" y="-471.5" font-family="Helvetica,sans-Serif" font-size="10.00">+ ClockReceived()</text>
<text text-anchor="start" x="125.5" y="-460.5" font-family="Helvetica,sans-Serif" font-size="10.00">+ IsHigh()</text>
<text text-anchor="start" x="125.5" y="-449.5" font-family="Helvetica,sans-Serif" font-size="10.00">+ SaveCfg()</text>
<text text-anchor="start" x="125.5" y="-438.5" font-family="Helvetica,sans-Serif" font-size="10.00">+ LoadCfg()</text>
</a>
</g>
</g>
<!-- Node4&#45;&gt;Node3 -->
<g id="edge3" class="edge"><title>Node4&#45;&gt;Node3</title>
<path fill="none" stroke="midnightblue" d="M176.321,-421.249C177.317,-411.837 178.3,-402.553 179.22,-393.864"/>
<polygon fill="none" stroke="midnightblue" points="172.809,-421.177 175.236,-431.49 179.77,-421.914 172.809,-421.177"/>
</g>
<!-- Node5 -->
<g id="node5" class="node"><title>Node5</title>
<g id="a_node5"><a xlink:href="class_input_port.html" target="_top" xlink:title="Base class for input ports (digital, analog,...)">
<polygon fill="white" stroke="black" points="117.5,-646.5 117.5,-857.5 225.5,-857.5 225.5,-646.5 117.5,-646.5"/>
<text text-anchor="middle" x="171.5" y="-845.5" font-family="Helvetica,sans-Serif" font-size="10.00">InputPort</text>
<polyline fill="none" stroke="black" points="117.5,-838.5 225.5,-838.5 "/>
<text text-anchor="start" x="125.5" y="-826.5" font-family="Helvetica,sans-Serif" font-size="10.00">+ PortNumber</text>
<text text-anchor="start" x="125.5" y="-815.5" font-family="Helvetica,sans-Serif" font-size="10.00">+ PortValue</text>
<text text-anchor="start" x="125.5" y="-804.5" font-family="Helvetica,sans-Serif" font-size="10.00">+ MIDIData</text>
<text text-anchor="start" x="125.5" y="-793.5" font-family="Helvetica,sans-Serif" font-size="10.00">+ LastSentMIDIData</text>
<text text-anchor="start" x="125.5" y="-782.5" font-family="Helvetica,sans-Serif" font-size="10.00">+ GateStatus</text>
<text text-anchor="start" x="125.5" y="-771.5" font-family="Helvetica,sans-Serif" font-size="10.00">+ msecLastMIDISent</text>
<text text-anchor="start" x="125.5" y="-760.5" font-family="Helvetica,sans-Serif" font-size="10.00">+ IntervalMIDIClock</text>
<text text-anchor="start" x="125.5" y="-749.5" font-family="Helvetica,sans-Serif" font-size="10.00">+ IntervalClock</text>
<text text-anchor="start" x="125.5" y="-738.5" font-family="Helvetica,sans-Serif" font-size="10.00">+ CurrentClock</text>
<text text-anchor="start" x="125.5" y="-727.5" font-family="Helvetica,sans-Serif" font-size="10.00">+ PreviousClock</text>
<text text-anchor="start" x="125.5" y="-716.5" font-family="Helvetica,sans-Serif" font-size="10.00">and 6 more...</text>
<polyline fill="none" stroke="black" points="117.5,-709.5 225.5,-709.5 "/>
<text text-anchor="start" x="125.5" y="-697.5" font-family="Helvetica,sans-Serif" font-size="10.00">+ InputPort()</text>
<text text-anchor="start" x="125.5" y="-686.5" font-family="Helvetica,sans-Serif" font-size="10.00">+ SetPort()</text>
<text text-anchor="start" x="125.5" y="-675.5" font-family="Helvetica,sans-Serif" font-size="10.00">+ ReadPort()</text>
<text text-anchor="start" x="125.5" y="-664.5" font-family="Helvetica,sans-Serif" font-size="10.00">+ ClockReceived()</text>
<text text-anchor="start" x="125.5" y="-653.5" font-family="Helvetica,sans-Serif" font-size="10.00">+ ProcessClock()</text>
</a>
</g>
</g>
<!-- Node5&#45;&gt;Node4 -->
<g id="edge4" class="edge"><title>Node5&#45;&gt;Node4</title>
<path fill="none" stroke="midnightblue" d="M169.056,-636.115C168.787,-623.497 168.518,-610.838 168.26,-598.722"/>
<polygon fill="none" stroke="midnightblue" points="165.559,-636.291 169.271,-646.215 172.557,-636.142 165.559,-636.291"/>
</g>
<!-- Node9 -->
<g id="node9" class="node"><title>Node9</title>
<g id="a_node9"><a xlink:href="class_digital_port.html" target="_top" xlink:title="Class for digital ports (Gates)">
<polygon fill="white" stroke="black" points="233.5,-437 233.5,-593 331.5,-593 331.5,-437 233.5,-437"/>
<text text-anchor="middle" x="282.5" y="-581" font-family="Helvetica,sans-Serif" font-size="10.00">DigitalPort</text>
<polyline fill="none" stroke="black" points="233.5,-574 331.5,-574 "/>
<text text-anchor="start" x="241.5" y="-562" font-family="Helvetica,sans-Serif" font-size="10.00">+ LedPort</text>
<polyline fill="none" stroke="black" points="233.5,-555 331.5,-555 "/>
<text text-anchor="start" x="241.5" y="-543" font-family="Helvetica,sans-Serif" font-size="10.00">+ setBlink()</text>
<text text-anchor="start" x="241.5" y="-532" font-family="Helvetica,sans-Serif" font-size="10.00">+ DigitalPort()</text>
<text text-anchor="start" x="241.5" y="-521" font-family="Helvetica,sans-Serif" font-size="10.00">+ SetPort()</text>
<text text-anchor="start" x="241.5" y="-510" font-family="Helvetica,sans-Serif" font-size="10.00">+ ReadPort()</text>
<text text-anchor="start" x="241.5" y="-499" font-family="Helvetica,sans-Serif" font-size="10.00">+ SendMIDI()</text>
<text text-anchor="start" x="241.5" y="-488" font-family="Helvetica,sans-Serif" font-size="10.00">+ getClockDivider()</text>
<text text-anchor="start" x="241.5" y="-477" font-family="Helvetica,sans-Serif" font-size="10.00">+ getClockShift()</text>
<text text-anchor="start" x="241.5" y="-466" font-family="Helvetica,sans-Serif" font-size="10.00">+ ClockReceived()</text>
<text text-anchor="start" x="241.5" y="-455" font-family="Helvetica,sans-Serif" font-size="10.00">+ SaveCfg()</text>
<text text-anchor="start" x="241.5" y="-444" font-family="Helvetica,sans-Serif" font-size="10.00">+ LoadCfg()</text>
</a>
</g>
</g>
<!-- Node5&#45;&gt;Node9 -->
<g id="edge9" class="edge"><title>Node5&#45;&gt;Node9</title>
<path fill="none" stroke="midnightblue" d="M225.359,-636.974C232.383,-622.104 239.442,-607.159 246.085,-593.094"/>
<polygon fill="none" stroke="midnightblue" points="222.101,-635.678 220.994,-646.215 228.43,-638.667 222.101,-635.678"/>
</g>
<!-- Node6 -->
<g id="node6" class="node"><title>Node6</title>
<g id="a_node6"><a xlink:href="class_an_input_port_cfg.html" target="_top" xlink:title="Analog port configuration class.">
<polygon fill="white" stroke="black" points="1.5,-657.5 1.5,-846.5 99.5,-846.5 99.5,-657.5 1.5,-657.5"/>
<text text-anchor="middle" x="50.5" y="-834.5" font-family="Helvetica,sans-Serif" font-size="10.00">AnInputPortCfg</text>
<polyline fill="none" stroke="black" points="1.5,-827.5 99.5,-827.5 "/>
<text text-anchor="start" x="9.5" y="-815.5" font-family="Helvetica,sans-Serif" font-size="10.00">+ MIDIfunction</text>
<text text-anchor="start" x="9.5" y="-804.5" font-family="Helvetica,sans-Serif" font-size="10.00">+ ClipLow</text>
<text text-anchor="start" x="9.5" y="-793.5" font-family="Helvetica,sans-Serif" font-size="10.00">+ ClipHigh</text>
<text text-anchor="start" x="9.5" y="-782.5" font-family="Helvetica,sans-Serif" font-size="10.00">+ RangeBipolar</text>
<text text-anchor="start" x="9.5" y="-771.5" font-family="Helvetica,sans-Serif" font-size="10.00">+ NRPNparMSB</text>
<text text-anchor="start" x="9.5" y="-760.5" font-family="Helvetica,sans-Serif" font-size="10.00">+ NRPNparLSB</text>
<text text-anchor="start" x="9.5" y="-749.5" font-family="Helvetica,sans-Serif" font-size="10.00">+ AutoOff</text>
<polyline fill="none" stroke="black" points="1.5,-742.5 99.5,-742.5 "/>
<text text-anchor="start" x="9.5" y="-730.5" font-family="Helvetica,sans-Serif" font-size="10.00">+ SaveCfgSysEx()</text>
<text text-anchor="start" x="9.5" y="-719.5" font-family="Helvetica,sans-Serif" font-size="10.00">+ ReadCfgSysEx()</text>
<text text-anchor="start" x="9.5" y="-708.5" font-family="Helvetica,sans-Serif" font-size="10.00">+ AnInputPortCfg()</text>
<text text-anchor="start" x="9.5" y="-697.5" font-family="Helvetica,sans-Serif" font-size="10.00">+ AnInputPortCfg()</text>
<text text-anchor="start" x="9.5" y="-686.5" font-family="Helvetica,sans-Serif" font-size="10.00">+ SetMIDIFunc()</text>
<text text-anchor="start" x="9.5" y="-675.5" font-family="Helvetica,sans-Serif" font-size="10.00">+ LimitValues()</text>
<text text-anchor="start" x="9.5" y="-664.5" font-family="Helvetica,sans-Serif" font-size="10.00">+ IsDigitalFunc()</text>
</a>
</g>
</g>
<!-- Node6&#45;&gt;Node4 -->
<g id="edge5" class="edge"><title>Node6&#45;&gt;Node4</title>
<path fill="none" stroke="#404040" d="M96.6796,-657.447C104.482,-641.639 112.583,-625.228 120.385,-609.423"/>
<polygon fill="none" stroke="#404040" points="120.419,-609.354 119.488,-602.204 125.73,-598.594 126.661,-605.745 120.419,-609.354"/>
<text text-anchor="middle" x="136.5" y="-620" font-family="Helvetica,sans-Serif" font-size="10.00"> +PortCfg</text>
</g>
<!-- Node7 -->
<g id="node7" class="node"><title>Node7</title>
<g id="a_node7"><a xlink:href="class_input_port_cfg.html" target="_top" xlink:title="Base port configuration class.">
<polygon fill="white" stroke="black" points="218,-911 218,-1089 319,-1089 319,-911 218,-911"/>
<text text-anchor="middle" x="268.5" y="-1077" font-family="Helvetica,sans-Serif" font-size="10.00">InputPortCfg</text>
<polyline fill="none" stroke="black" points="218,-1070 319,-1070 "/>
<text text-anchor="start" x="226" y="-1058" font-family="Helvetica,sans-Serif" font-size="10.00">+ MIDIChannel</text>
<text text-anchor="start" x="226" y="-1047" font-family="Helvetica,sans-Serif" font-size="10.00">+ ControllerNumber</text>
<text text-anchor="start" x="226" y="-1036" font-family="Helvetica,sans-Serif" font-size="10.00">+ NoteToSend</text>
<text text-anchor="start" x="226" y="-1025" font-family="Helvetica,sans-Serif" font-size="10.00">+ ControllerValue</text>
<text text-anchor="start" x="226" y="-1014" font-family="Helvetica,sans-Serif" font-size="10.00">+ ClockDivider</text>
<text text-anchor="start" x="226" y="-1003" font-family="Helvetica,sans-Serif" font-size="10.00">+ ClockShift</text>
<text text-anchor="start" x="226" y="-992" font-family="Helvetica,sans-Serif" font-size="10.00">+ charPrefix</text>
<text text-anchor="start" x="226" y="-981" font-family="Helvetica,sans-Serif" font-size="10.00">+ textPort</text>
<text text-anchor="start" x="226" y="-970" font-family="Helvetica,sans-Serif" font-size="10.00">+ charSufix</text>
<text text-anchor="start" x="226" y="-959" font-family="Helvetica,sans-Serif" font-size="10.00">+ DelayGate</text>
<polyline fill="none" stroke="black" points="218,-952 319,-952 "/>
<text text-anchor="start" x="226" y="-940" font-family="Helvetica,sans-Serif" font-size="10.00">+ InputPortCfg()</text>
<text text-anchor="start" x="226" y="-929" font-family="Helvetica,sans-Serif" font-size="10.00">+ InputPortCfg()</text>
<text text-anchor="start" x="226" y="-918" font-family="Helvetica,sans-Serif" font-size="10.00">+ getName()</text>
</a>
</g>
</g>
<!-- Node7&#45;&gt;Node6 -->
<g id="edge6" class="edge"><title>Node7&#45;&gt;Node6</title>
<path fill="none" stroke="midnightblue" d="M209.804,-955.455C177.397,-929.519 137.884,-894.594 108.5,-858 105.436,-854.184 102.446,-850.184 99.5412,-846.065"/>
<polygon fill="none" stroke="midnightblue" points="207.867,-958.386 217.879,-961.851 212.213,-952.898 207.867,-958.386"/>
</g>
<!-- Node10 -->
<g id="node10" class="node"><title>Node10</title>
<g id="a_node10"><a xlink:href="class_dig_port_cfg.html" target="_top" xlink:title="Digital port configuration class.">
<polygon fill="white" stroke="black" points="339.5,-701.5 339.5,-802.5 437.5,-802.5 437.5,-701.5 339.5,-701.5"/>
<text text-anchor="middle" x="388.5" y="-790.5" font-family="Helvetica,sans-Serif" font-size="10.00">DigPortCfg</text>
<polyline fill="none" stroke="black" points="339.5,-783.5 437.5,-783.5 "/>
<text text-anchor="start" x="347.5" y="-771.5" font-family="Helvetica,sans-Serif" font-size="10.00">+ MIDIfunction</text>
<polyline fill="none" stroke="black" points="339.5,-764.5 437.5,-764.5 "/>
<text text-anchor="start" x="347.5" y="-752.5" font-family="Helvetica,sans-Serif" font-size="10.00">+ SaveCfgSysEx()</text>
<text text-anchor="start" x="347.5" y="-741.5" font-family="Helvetica,sans-Serif" font-size="10.00">+ ReadCfgSysEx()</text>
<text text-anchor="start" x="347.5" y="-730.5" font-family="Helvetica,sans-Serif" font-size="10.00">+ SetMIDIFunc()</text>
<text text-anchor="start" x="347.5" y="-719.5" font-family="Helvetica,sans-Serif" font-size="10.00">+ DigPortCfg()</text>
<text text-anchor="start" x="347.5" y="-708.5" font-family="Helvetica,sans-Serif" font-size="10.00">+ DigPortCfg()</text>
</a>
</g>
</g>
<!-- Node7&#45;&gt;Node10 -->
<g id="edge11" class="edge"><title>Node7&#45;&gt;Node10</title>
<path fill="none" stroke="midnightblue" d="M315.893,-901.844C332.474,-867.853 350.401,-831.103 364.293,-802.624"/>
<polygon fill="none" stroke="midnightblue" points="312.722,-900.361 311.484,-910.883 319.014,-903.43 312.722,-900.361"/>
</g>
<!-- Node8 -->
<g id="node8" class="node"><title>Node8</title>
<g id="a_node8"><a xlink:href="class_range_conv.html" target="_top" xlink:title=" ">
<polygon fill="white" stroke="black" points="0,-905.5 0,-1094.5 101,-1094.5 101,-905.5 0,-905.5"/>
<text text-anchor="middle" x="50.5" y="-1082.5" font-family="Helvetica,sans-Serif" font-size="10.00">RangeConv</text>
<polyline fill="none" stroke="black" points="0,-1075.5 101,-1075.5 "/>
<text text-anchor="middle" x="50.5" y="-1063.5" font-family="Helvetica,sans-Serif" font-size="10.00"> </text>
<polyline fill="none" stroke="black" points="0,-1056.5 101,-1056.5 "/>
<text text-anchor="start" x="8" y="-1044.5" font-family="Helvetica,sans-Serif" font-size="10.00">+ RangeConv()</text>
<text text-anchor="start" x="8" y="-1033.5" font-family="Helvetica,sans-Serif" font-size="10.00">+ RangeConv()</text>
<text text-anchor="start" x="8" y="-1022.5" font-family="Helvetica,sans-Serif" font-size="10.00">+ Convert()</text>
<text text-anchor="start" x="8" y="-1011.5" font-family="Helvetica,sans-Serif" font-size="10.00">+ invConvert()</text>
<text text-anchor="start" x="8" y="-1000.5" font-family="Helvetica,sans-Serif" font-size="10.00">+ PercentScale()</text>
<text text-anchor="start" x="8" y="-989.5" font-family="Helvetica,sans-Serif" font-size="10.00">+ invPercentScale()</text>
<text text-anchor="start" x="8" y="-978.5" font-family="Helvetica,sans-Serif" font-size="10.00">+ getMaxDAC()</text>
<text text-anchor="start" x="8" y="-967.5" font-family="Helvetica,sans-Serif" font-size="10.00">+ getMaxMIDI()</text>
<text text-anchor="start" x="8" y="-956.5" font-family="Helvetica,sans-Serif" font-size="10.00">+ ResetCalPoints()</text>
<text text-anchor="start" x="8" y="-945.5" font-family="Helvetica,sans-Serif" font-size="10.00">+ SetDAC()</text>
<text text-anchor="start" x="8" y="-934.5" font-family="Helvetica,sans-Serif" font-size="10.00">+ SetMIDI()</text>
<text text-anchor="start" x="8" y="-923.5" font-family="Helvetica,sans-Serif" font-size="10.00">+ getDAC()</text>
<text text-anchor="start" x="8" y="-912.5" font-family="Helvetica,sans-Serif" font-size="10.00">+ getMIDI()</text>
</a>
</g>
</g>
<!-- Node8&#45;&gt;Node6 -->
<g id="edge7" class="edge"><title>Node8&#45;&gt;Node6</title>
<path fill="none" stroke="#404040" d="M50.5,-905.296C50.5,-890.19 50.5,-874.457 50.5,-859.084"/>
<polygon fill="none" stroke="#404040" points="50.5001,-858.851 46.5,-852.851 50.5,-846.851 54.5,-852.851 50.5001,-858.851"/>
<text text-anchor="middle" x="72" y="-879" font-family="Helvetica,sans-Serif" font-size="10.00"> +Ranges</text>
</g>
<!-- Node9&#45;&gt;Node1 -->
<g id="edge8" class="edge"><title>Node9&#45;&gt;Node1</title>
<path fill="none" stroke="#404040" d="M274.554,-436.946C269.155,-393.881 260.736,-339.48 248.5,-292 244.525,-276.575 239.695,-260.612 234.489,-244.894"/>
<polygon fill="none" stroke="#404040" points="234.482,-244.872 228.771,-240.469 230.639,-233.504 236.35,-237.907 234.482,-244.872"/>
<text text-anchor="middle" x="291.5" y="-340.5" font-family="Helvetica,sans-Serif" font-size="10.00"> +GateBut</text>
</g>
<!-- Node10&#45;&gt;Node9 -->
<g id="edge10" class="edge"><title>Node10&#45;&gt;Node9</title>
<path fill="none" stroke="#404040" d="M369.702,-701.215C359.781,-675.781 347.079,-644.481 334.5,-617 332.547,-612.734 330.508,-608.389 328.416,-604.015"/>
<polygon fill="none" stroke="#404040" points="328.366,-603.912 322.147,-600.262 323.125,-593.117 329.344,-596.768 328.366,-603.912"/>
<text text-anchor="middle" x="359.5" y="-620" font-family="Helvetica,sans-Serif" font-size="10.00"> +PortCfg</text>
</g>
<!-- Node11 -->
<g id="node11" class="node"><title>Node11</title>
<g id="a_node11"><a xlink:href="class_blinker.html" target="_top" xlink:title=" ">
<polygon fill="white" stroke="black" points="244,-679.5 244,-824.5 321,-824.5 321,-679.5 244,-679.5"/>
<text text-anchor="middle" x="282.5" y="-812.5" font-family="Helvetica,sans-Serif" font-size="10.00">Blinker</text>
<polyline fill="none" stroke="black" points="244,-805.5 321,-805.5 "/>
<text text-anchor="start" x="252" y="-793.5" font-family="Helvetica,sans-Serif" font-size="10.00">+ status</text>
<text text-anchor="start" x="252" y="-782.5" font-family="Helvetica,sans-Serif" font-size="10.00">+ initblink</text>
<text text-anchor="start" x="252" y="-771.5" font-family="Helvetica,sans-Serif" font-size="10.00">+ periodon</text>
<text text-anchor="start" x="252" y="-760.5" font-family="Helvetica,sans-Serif" font-size="10.00">+ periodoff</text>
<text text-anchor="start" x="252" y="-749.5" font-family="Helvetica,sans-Serif" font-size="10.00">+ countBlinks</text>
<text text-anchor="start" x="252" y="-738.5" font-family="Helvetica,sans-Serif" font-size="10.00">+ pinLED</text>
<polyline fill="none" stroke="black" points="244,-731.5 321,-731.5 "/>
<text text-anchor="start" x="252" y="-719.5" font-family="Helvetica,sans-Serif" font-size="10.00">+ Blinker()</text>
<text text-anchor="start" x="252" y="-708.5" font-family="Helvetica,sans-Serif" font-size="10.00">+ Blinker()</text>
<text text-anchor="start" x="252" y="-697.5" font-family="Helvetica,sans-Serif" font-size="10.00">+ setBlink()</text>
<text text-anchor="start" x="252" y="-686.5" font-family="Helvetica,sans-Serif" font-size="10.00">+ playBlink()</text>
</a>
</g>
</g>
<!-- Node11&#45;&gt;Node9 -->
<g id="edge12" class="edge"><title>Node11&#45;&gt;Node9</title>
<path fill="none" stroke="#404040" d="M282.5,-679.215C282.5,-655.89 282.5,-629.718 282.5,-605.277"/>
<polygon fill="none" stroke="#404040" points="282.5,-605.06 278.5,-599.06 282.5,-593.06 286.5,-599.06 282.5,-605.06"/>
<text text-anchor="middle" x="306.5" y="-620" font-family="Helvetica,sans-Serif" font-size="10.00"> +blinkPort</text>
</g>
</g>
</svg>
