<?xml version="1.0" encoding="UTF-8" standalone="no"?>
<!DOCTYPE svg PUBLIC "-//W3C//DTD SVG 1.1//EN"
 "http://www.w3.org/Graphics/SVG/1.1/DTD/svg11.dtd">
<!-- Generated by graphviz version 2.38.0 (20140413.2041)
 -->
<!-- Title: InputControl::ReadPorts Pages: 1 -->
<svg width="647pt" height="85pt"
 viewBox="0.00 0.00 647.00 85.00" xmlns="http://www.w3.org/2000/svg" xmlns:xlink="http://www.w3.org/1999/xlink">
<g id="graph0" class="graph" transform="scale(1 1) rotate(0) translate(4 81)">
<title>InputControl::ReadPorts</title>
<polygon fill="white" stroke="none" points="-4,4 -4,-81 643,-81 643,4 -4,4"/>
<!-- Node21 -->
<g id="node1" class="node"><title>Node21</title>
<g id="a_node1"><a xlink:title="Read selected ports and store data change.">
<polygon fill="#bfbfbf" stroke="black" points="0,-38.5 0,-57.5 120,-57.5 120,-38.5 0,-38.5"/>
<text text-anchor="middle" x="60" y="-45.5" font-family="Helvetica,sans-Serif" font-size="10.00">InputControl::ReadPorts</text>
</a>
</g>
</g>
<!-- Node22 -->
<g id="node2" class="node"><title>Node22</title>
<g id="a_node2"><a xlink:href="class_digital_port.html#a93b3f37a3f8ce5e843b0f252a351281b" target="_top" xlink:title="Read digital Port (with debouncing function if selected) and process clock signal.">
<polygon fill="white" stroke="black" points="173,-57.5 173,-76.5 281,-76.5 281,-57.5 173,-57.5"/>
<text text-anchor="middle" x="227" y="-64.5" font-family="Helvetica,sans-Serif" font-size="10.00">DigitalPort::ReadPort</text>
</a>
</g>
</g>
<!-- Node21&#45;&gt;Node22 -->
<g id="edge1" class="edge"><title>Node21&#45;&gt;Node22</title>
<path fill="none" stroke="midnightblue" d="M120.103,-54.8058C133.943,-56.3995 148.741,-58.1035 162.754,-59.7171"/>
<polygon fill="midnightblue" stroke="midnightblue" points="162.459,-63.2062 172.794,-60.8733 163.26,-56.2522 162.459,-63.2062"/>
</g>
<!-- Node23 -->
<g id="node3" class="node"><title>Node23</title>
<g id="a_node3"><a xlink:href="class_demux_analog_port.html#a788844923cb40bf511ff62a92baeffd8" target="_top" xlink:title="Read multiplexed analog input.">
<polygon fill="white" stroke="black" points="156,-19.5 156,-38.5 298,-38.5 298,-19.5 156,-19.5"/>
<text text-anchor="middle" x="227" y="-26.5" font-family="Helvetica,sans-Serif" font-size="10.00">DemuxAnalogPort::ReadPort</text>
</a>
</g>
</g>
<!-- Node21&#45;&gt;Node23 -->
<g id="edge2" class="edge"><title>Node21&#45;&gt;Node23</title>
<path fill="none" stroke="midnightblue" d="M120.103,-41.1942C128.411,-40.2376 137.064,-39.2412 145.685,-38.2484"/>
<polygon fill="midnightblue" stroke="midnightblue" points="146.234,-41.7084 155.768,-37.0873 145.433,-34.7543 146.234,-41.7084"/>
</g>
<!-- Node24 -->
<g id="node4" class="node"><title>Node24</title>
<g id="a_node4"><a xlink:href="class_demux_analog_port.html#a61d48200118764d5298128f9624353ac" target="_top" xlink:title="Call base AnalogPort::SendMIDI() function.">
<polygon fill="white" stroke="black" points="334,-38.5 334,-57.5 481,-57.5 481,-38.5 334,-38.5"/>
<text text-anchor="middle" x="407.5" y="-45.5" font-family="Helvetica,sans-Serif" font-size="10.00">DemuxAnalogPort::SetDemux</text>
</a>
</g>
</g>
<!-- Node23&#45;&gt;Node24 -->
<g id="edge3" class="edge"><title>Node23&#45;&gt;Node24</title>
<path fill="none" stroke="midnightblue" d="M298.036,-36.4548C306.46,-37.3515 315.124,-38.2737 323.708,-39.1874"/>
<polygon fill="midnightblue" stroke="midnightblue" points="323.414,-42.6758 333.728,-40.254 324.155,-35.7151 323.414,-42.6758"/>
</g>
<!-- Node25 -->
<g id="node5" class="node"><title>Node25</title>
<g id="a_node5"><a xlink:href="class_analog_port.html#a43b704e6546e208117597f9718573ab1" target="_top" xlink:title="Read analog Port make conversion and check analog clock.">
<polygon fill="white" stroke="black" points="352,-0.5 352,-19.5 463,-19.5 463,-0.5 352,-0.5"/>
<text text-anchor="middle" x="407.5" y="-7.5" font-family="Helvetica,sans-Serif" font-size="10.00">AnalogPort::ReadPort</text>
</a>
</g>
</g>
<!-- Node23&#45;&gt;Node25 -->
<g id="edge4" class="edge"><title>Node23&#45;&gt;Node25</title>
<path fill="none" stroke="midnightblue" d="M298.036,-21.5452C312.418,-20.0143 327.5,-18.4089 341.689,-16.8986"/>
<polygon fill="midnightblue" stroke="midnightblue" points="342.267,-20.357 351.84,-15.8181 341.526,-13.3963 342.267,-20.357"/>
</g>
<!-- Node26 -->
<g id="node6" class="node"><title>Node26</title>
<g id="a_node6"><a xlink:href="class_input_port.html#a5e64a70a93bc7146ba6b52c022b3335a" target="_top" xlink:title="Process MIDI Clock.">
<polygon fill="white" stroke="black" points="517,-0.5 517,-19.5 639,-19.5 639,-0.5 517,-0.5"/>
<text text-anchor="middle" x="578" y="-7.5" font-family="Helvetica,sans-Serif" font-size="10.00">InputPort::ProcessClock</text>
</a>
</g>
</g>
<!-- Node25&#45;&gt;Node26 -->
<g id="edge5" class="edge"><title>Node25&#45;&gt;Node26</title>
<path fill="none" stroke="midnightblue" d="M463.207,-10C476.971,-10 491.94,-10 506.362,-10"/>
<polygon fill="midnightblue" stroke="midnightblue" points="506.742,-13.5001 516.742,-10 506.742,-6.5001 506.742,-13.5001"/>
</g>
</g>
</svg>
