<?xml version="1.0" encoding="UTF-8" standalone="no"?>
<!DOCTYPE svg PUBLIC "-//W3C//DTD SVG 1.1//EN"
 "http://www.w3.org/Graphics/SVG/1.1/DTD/svg11.dtd">
<!-- Generated by graphviz version 2.38.0 (20140413.2041)
 -->
<!-- Title: InputPortCfg Pages: 1 -->
<svg width="172pt" height="84pt"
 viewBox="0.00 0.00 171.50 84.00" xmlns="http://www.w3.org/2000/svg" xmlns:xlink="http://www.w3.org/1999/xlink">
<g id="graph0" class="graph" transform="scale(1 1) rotate(0) translate(4 80)">
<title>InputPortCfg</title>
<polygon fill="white" stroke="none" points="-4,4 -4,-80 167.5,-80 167.5,4 -4,4"/>
<!-- Node0 -->
<g id="node1" class="node"><title>Node0</title>
<g id="a_node1"><a xlink:title="Base port configuration class.">
<polygon fill="#bfbfbf" stroke="black" points="51,-56.5 51,-75.5 121,-75.5 121,-56.5 51,-56.5"/>
<text text-anchor="middle" x="86" y="-63.5" font-family="Helvetica,sans-Serif" font-size="10.00">InputPortCfg</text>
</a>
</g>
</g>
<!-- Node1 -->
<g id="node2" class="node"><title>Node1</title>
<g id="a_node2"><a xlink:href="class_an_input_port_cfg.html" target="_top" xlink:title="Analog port configuration class.">
<polygon fill="white" stroke="black" points="0,-0.5 0,-19.5 82,-19.5 82,-0.5 0,-0.5"/>
<text text-anchor="middle" x="41" y="-7.5" font-family="Helvetica,sans-Serif" font-size="10.00">AnInputPortCfg</text>
</a>
</g>
</g>
<!-- Node0&#45;&gt;Node1 -->
<g id="edge1" class="edge"><title>Node0&#45;&gt;Node1</title>
<path fill="none" stroke="midnightblue" d="M71.9533,-48.144C64.1131,-38.7357 54.6705,-27.4046 48.2926,-19.7511"/>
<polygon fill="midnightblue" stroke="midnightblue" points="69.4785,-50.6414 78.5692,-56.083 74.8561,-46.1601 69.4785,-50.6414"/>
</g>
<!-- Node2 -->
<g id="node3" class="node"><title>Node2</title>
<g id="a_node3"><a xlink:href="class_dig_port_cfg.html" target="_top" xlink:title="Digital port configuration class.">
<polygon fill="white" stroke="black" points="100.5,-0.5 100.5,-19.5 163.5,-19.5 163.5,-0.5 100.5,-0.5"/>
<text text-anchor="middle" x="132" y="-7.5" font-family="Helvetica,sans-Serif" font-size="10.00">DigPortCfg</text>
</a>
</g>
</g>
<!-- Node0&#45;&gt;Node2 -->
<g id="edge2" class="edge"><title>Node0&#45;&gt;Node2</title>
<path fill="none" stroke="midnightblue" d="M100.114,-48.4314C108.176,-38.9673 117.959,-27.4827 124.545,-19.7511"/>
<polygon fill="midnightblue" stroke="midnightblue" points="97.4163,-46.2009 93.596,-56.083 102.745,-50.7402 97.4163,-46.2009"/>
</g>
</g>
</svg>
