<?xml version="1.0" encoding="UTF-8" standalone="no"?>
<!DOCTYPE svg PUBLIC "-//W3C//DTD SVG 1.1//EN"
 "http://www.w3.org/Graphics/SVG/1.1/DTD/svg11.dtd">
<!-- Generated by graphviz version 2.38.0 (20140413.2041)
 -->
<!-- Title: InputPort Pages: 1 -->
<svg width="169pt" height="140pt"
 viewBox="0.00 0.00 168.50 140.00" xmlns="http://www.w3.org/2000/svg" xmlns:xlink="http://www.w3.org/1999/xlink">
<g id="graph0" class="graph" transform="scale(1 1) rotate(0) translate(4 136)">
<title>InputPort</title>
<polygon fill="white" stroke="none" points="-4,4 -4,-136 164.5,-136 164.5,4 -4,4"/>
<!-- Node0 -->
<g id="node1" class="node"><title>Node0</title>
<g id="a_node1"><a xlink:title="Base class for input ports (digital, analog,...)">
<polygon fill="#bfbfbf" stroke="black" points="60.5,-112.5 60.5,-131.5 116.5,-131.5 116.5,-112.5 60.5,-112.5"/>
<text text-anchor="middle" x="88.5" y="-119.5" font-family="Helvetica,sans-Serif" font-size="10.00">InputPort</text>
</a>
</g>
</g>
<!-- Node1 -->
<g id="node2" class="node"><title>Node1</title>
<g id="a_node2"><a xlink:href="class_analog_port.html" target="_top" xlink:title="Class for analog ports (CV and Faders)">
<polygon fill="white" stroke="black" points="15,-56.5 15,-75.5 80,-75.5 80,-56.5 15,-56.5"/>
<text text-anchor="middle" x="47.5" y="-63.5" font-family="Helvetica,sans-Serif" font-size="10.00">AnalogPort</text>
</a>
</g>
</g>
<!-- Node0&#45;&gt;Node1 -->
<g id="edge1" class="edge"><title>Node0&#45;&gt;Node1</title>
<path fill="none" stroke="midnightblue" d="M75.4828,-103.855C68.3833,-94.5048 59.896,-83.3265 54.1443,-75.7511"/>
<polygon fill="midnightblue" stroke="midnightblue" points="72.895,-106.235 81.7297,-112.083 78.4701,-102.002 72.895,-106.235"/>
</g>
<!-- Node3 -->
<g id="node4" class="node"><title>Node3</title>
<g id="a_node4"><a xlink:href="class_digital_port.html" target="_top" xlink:title="Class for digital ports (Gates)">
<polygon fill="white" stroke="black" points="98.5,-56.5 98.5,-75.5 160.5,-75.5 160.5,-56.5 98.5,-56.5"/>
<text text-anchor="middle" x="129.5" y="-63.5" font-family="Helvetica,sans-Serif" font-size="10.00">DigitalPort</text>
</a>
</g>
</g>
<!-- Node0&#45;&gt;Node3 -->
<g id="edge3" class="edge"><title>Node0&#45;&gt;Node3</title>
<path fill="none" stroke="midnightblue" d="M101.517,-103.855C108.617,-94.5048 117.104,-83.3265 122.856,-75.7511"/>
<polygon fill="midnightblue" stroke="midnightblue" points="98.5299,-102.002 95.2703,-112.083 104.105,-106.235 98.5299,-102.002"/>
</g>
<!-- Node2 -->
<g id="node3" class="node"><title>Node2</title>
<g id="a_node3"><a xlink:href="class_demux_analog_port.html" target="_top" xlink:title="Class for Muxed analog ports (CV and Faders) Demux will use defines for pins: PINDEMUXA,...">
<polygon fill="white" stroke="black" points="0,-0.5 0,-19.5 95,-19.5 95,-0.5 0,-0.5"/>
<text text-anchor="middle" x="47.5" y="-7.5" font-family="Helvetica,sans-Serif" font-size="10.00">DemuxAnalogPort</text>
</a>
</g>
</g>
<!-- Node1&#45;&gt;Node2 -->
<g id="edge2" class="edge"><title>Node1&#45;&gt;Node2</title>
<path fill="none" stroke="midnightblue" d="M47.5,-45.8045C47.5,-36.9102 47.5,-26.7798 47.5,-19.7511"/>
<polygon fill="midnightblue" stroke="midnightblue" points="44.0001,-46.083 47.5,-56.083 51.0001,-46.083 44.0001,-46.083"/>
</g>
</g>
</svg>
