<?xml version="1.0" encoding="UTF-8" standalone="no"?>
<!DOCTYPE svg PUBLIC "-//W3C//DTD SVG 1.1//EN"
 "http://www.w3.org/Graphics/SVG/1.1/DTD/svg11.dtd">
<!-- Generated by graphviz version 2.38.0 (20140413.2041)
 -->
<!-- Title: OLEDMenu::EncoderselDigitStr Pages: 1 -->
<svg width="526pt" height="66pt"
 viewBox="0.00 0.00 526.00 66.00" xmlns="http://www.w3.org/2000/svg" xmlns:xlink="http://www.w3.org/1999/xlink">
<g id="graph0" class="graph" transform="scale(1 1) rotate(0) translate(4 62)">
<title>OLEDMenu::EncoderselDigitStr</title>
<polygon fill="white" stroke="none" points="-4,4 -4,-62 522,-62 522,4 -4,4"/>
<!-- Node15 -->
<g id="node1" class="node"><title>Node15</title>
<g id="a_node1"><a xlink:title="Call this function to change input string chars indiviadully and show in screen title and value.">
<polygon fill="#bfbfbf" stroke="black" points="0,-19.5 0,-38.5 154,-38.5 154,-19.5 0,-19.5"/>
<text text-anchor="middle" x="77" y="-26.5" font-family="Helvetica,sans-Serif" font-size="10.00">OLEDMenu::EncoderselDigitStr</text>
</a>
</g>
</g>
<!-- Node16 -->
<g id="node2" class="node"><title>Node16</title>
<g id="a_node2"><a xlink:href="class_o_l_e_d_menu.html#a432069b95ee8a47dda7895cace5ab8e1" target="_top" xlink:title="Change input string chars indiviadully and show in screen title and value.">
<polygon fill="white" stroke="black" points="190,-19.5 190,-38.5 345,-38.5 345,-19.5 190,-19.5"/>
<text text-anchor="middle" x="267.5" y="-26.5" font-family="Helvetica,sans-Serif" font-size="10.00">OLEDMenu::EncoderChangeStr</text>
</a>
</g>
</g>
<!-- Node15&#45;&gt;Node16 -->
<g id="edge1" class="edge"><title>Node15&#45;&gt;Node16</title>
<path fill="none" stroke="midnightblue" d="M154.127,-29C162.481,-29 171.032,-29 179.505,-29"/>
<polygon fill="midnightblue" stroke="midnightblue" points="179.782,-32.5001 189.782,-29 179.782,-25.5001 179.782,-32.5001"/>
</g>
<!-- Node17 -->
<g id="node3" class="node"><title>Node17</title>
<g id="a_node3"><a xlink:href="class_o_l_e_d_menu.html#a1be072ca04eaaacd9475e3c05c0dbb63" target="_top" xlink:title="Erase input area.">
<polygon fill="white" stroke="black" points="381,-38.5 381,-57.5 518,-57.5 518,-38.5 381,-38.5"/>
<text text-anchor="middle" x="449.5" y="-45.5" font-family="Helvetica,sans-Serif" font-size="10.00">OLEDMenu::ClearInputArea</text>
</a>
</g>
</g>
<!-- Node16&#45;&gt;Node17 -->
<g id="edge2" class="edge"><title>Node16&#45;&gt;Node17</title>
<path fill="none" stroke="midnightblue" d="M345.097,-37.0853C353.533,-37.9757 362.129,-38.883 370.58,-39.7751"/>
<polygon fill="midnightblue" stroke="midnightblue" points="370.484,-43.2844 380.796,-40.8535 371.219,-36.323 370.484,-43.2844"/>
</g>
<!-- Node18 -->
<g id="node4" class="node"><title>Node18</title>
<g id="a_node4"><a xlink:href="class_o_l_e_d_menu.html#a52b3bbfe971b755192cc07d287b22a32" target="_top" xlink:title="Draw input area.">
<polygon fill="white" stroke="black" points="381.5,-0.5 381.5,-19.5 517.5,-19.5 517.5,-0.5 381.5,-0.5"/>
<text text-anchor="middle" x="449.5" y="-7.5" font-family="Helvetica,sans-Serif" font-size="10.00">OLEDMenu::DrawInputArea</text>
</a>
</g>
</g>
<!-- Node16&#45;&gt;Node18 -->
<g id="edge3" class="edge"><title>Node16&#45;&gt;Node18</title>
<path fill="none" stroke="midnightblue" d="M345.097,-20.9147C353.763,-20 362.598,-19.0674 371.272,-18.1519"/>
<polygon fill="midnightblue" stroke="midnightblue" points="371.782,-21.6175 381.36,-17.087 371.047,-14.6562 371.782,-21.6175"/>
</g>
</g>
</svg>
