<?xml version="1.0" encoding="UTF-8" standalone="no"?>
<!DOCTYPE svg PUBLIC "-//W3C//DTD SVG 1.1//EN"
 "http://www.w3.org/Graphics/SVG/1.1/DTD/svg11.dtd">
<!-- Generated by graphviz version 2.38.0 (20140413.2041)
 -->
<!-- Title: InputControl::OnDataChange Pages: 1 -->
<svg width="493pt" height="142pt"
 viewBox="0.00 0.00 493.00 142.00" xmlns="http://www.w3.org/2000/svg" xmlns:xlink="http://www.w3.org/1999/xlink">
<g id="graph0" class="graph" transform="scale(1 1) rotate(0) translate(4 138)">
<title>InputControl::OnDataChange</title>
<polygon fill="white" stroke="none" points="-4,4 -4,-138 489,-138 489,4 -4,4"/>
<!-- Node12 -->
<g id="node1" class="node"><title>Node12</title>
<g id="a_node1"><a xlink:title="Provides functionality when inputs or gate change.">
<polygon fill="#bfbfbf" stroke="black" points="0,-57.5 0,-76.5 140,-76.5 140,-57.5 0,-57.5"/>
<text text-anchor="middle" x="70" y="-64.5" font-family="Helvetica,sans-Serif" font-size="10.00">InputControl::OnDataChange</text>
</a>
</g>
</g>
<!-- Node13 -->
<g id="node2" class="node"><title>Node13</title>
<g id="a_node2"><a xlink:href="class_input_control.html#abf6d62ead1829e08ddc46636dd8a288b" target="_top" xlink:title="Provides the calculation in case Sum or Multiplication is selected.">
<polygon fill="white" stroke="black" points="186,-114.5 186,-133.5 300,-133.5 300,-114.5 186,-114.5"/>
<text text-anchor="middle" x="243" y="-121.5" font-family="Helvetica,sans-Serif" font-size="10.00">InputControl::DataCalc</text>
</a>
</g>
</g>
<!-- Node12&#45;&gt;Node13 -->
<g id="edge1" class="edge"><title>Node12&#45;&gt;Node13</title>
<path fill="none" stroke="midnightblue" d="M95.8716,-76.5334C117.046,-84.5211 148.34,-96.0247 176,-105 182.94,-107.252 190.332,-109.513 197.565,-111.65"/>
<polygon fill="midnightblue" stroke="midnightblue" points="196.692,-115.04 207.271,-114.474 198.648,-108.319 196.692,-115.04"/>
</g>
<!-- Node14 -->
<g id="node3" class="node"><title>Node14</title>
<g id="a_node3"><a xlink:href="class_input_control.html#a758bb45eea53dabf378cac7ed0af16dd" target="_top" xlink:title="Return State of the gate/button.">
<polygon fill="white" stroke="black" points="176,-76.5 176,-95.5 310,-95.5 310,-76.5 176,-76.5"/>
<text text-anchor="middle" x="243" y="-83.5" font-family="Helvetica,sans-Serif" font-size="10.00">InputControl::GetGateState</text>
</a>
</g>
</g>
<!-- Node12&#45;&gt;Node14 -->
<g id="edge2" class="edge"><title>Node12&#45;&gt;Node14</title>
<path fill="none" stroke="midnightblue" d="M140.059,-74.6733C148.52,-75.6134 157.205,-76.5783 165.764,-77.5293"/>
<polygon fill="midnightblue" stroke="midnightblue" points="165.408,-81.0112 175.733,-78.637 166.181,-74.054 165.408,-81.0112"/>
</g>
<!-- Node15 -->
<g id="node4" class="node"><title>Node15</title>
<g id="a_node4"><a xlink:href="class_analog_port.html#a3795b5c2de378a3ce6209d78cdd8f197" target="_top" xlink:title="Return the member InputPortCfg::ClockDivider.">
<polygon fill="white" stroke="black" points="186,-38.5 186,-57.5 300,-57.5 300,-38.5 186,-38.5"/>
<text text-anchor="middle" x="243" y="-45.5" font-family="Helvetica,sans-Serif" font-size="10.00">AnalogPort::TrimValue</text>
</a>
</g>
</g>
<!-- Node12&#45;&gt;Node15 -->
<g id="edge3" class="edge"><title>Node12&#45;&gt;Node15</title>
<path fill="none" stroke="midnightblue" d="M140.059,-59.3267C151.817,-58.0203 164.005,-56.6661 175.69,-55.3678"/>
<polygon fill="midnightblue" stroke="midnightblue" points="176.252,-58.8269 185.805,-54.2439 175.479,-51.8697 176.252,-58.8269"/>
</g>
<!-- Node17 -->
<g id="node6" class="node"><title>Node17</title>
<g id="a_node6"><a xlink:href="class_digital_port.html#a326ec16ec1817bd4ecb08b79225ef778" target="_top" xlink:title="Return the member InputPortCfg::ClockDivider.">
<polygon fill="white" stroke="black" points="188,-0.5 188,-19.5 298,-19.5 298,-0.5 188,-0.5"/>
<text text-anchor="middle" x="243" y="-7.5" font-family="Helvetica,sans-Serif" font-size="10.00">DigitalPort::SendMIDI</text>
</a>
</g>
</g>
<!-- Node12&#45;&gt;Node17 -->
<g id="edge5" class="edge"><title>Node12&#45;&gt;Node17</title>
<path fill="none" stroke="midnightblue" d="M95.8716,-57.4666C117.046,-49.4789 148.34,-37.9753 176,-29 182.94,-26.7482 190.332,-24.4874 197.565,-22.3505"/>
<polygon fill="midnightblue" stroke="midnightblue" points="198.648,-25.6808 207.271,-19.5259 196.692,-18.9596 198.648,-25.6808"/>
</g>
<!-- Node16 -->
<g id="node5" class="node"><title>Node16</title>
<g id="a_node5"><a xlink:href="group___config_group.html#ga9fb2c067887a36506906793e609d5a28" target="_top" xlink:title="Retreive limit values based on analog port configuration.">
<polygon fill="white" stroke="black" points="346,-38.5 346,-57.5 485,-57.5 485,-38.5 346,-38.5"/>
<text text-anchor="middle" x="415.5" y="-45.5" font-family="Helvetica,sans-Serif" font-size="10.00">AnInputPortCfg::LimitValues</text>
</a>
</g>
</g>
<!-- Node15&#45;&gt;Node16 -->
<g id="edge4" class="edge"><title>Node15&#45;&gt;Node16</title>
<path fill="none" stroke="midnightblue" d="M300.301,-48C311.554,-48 323.571,-48 335.428,-48"/>
<polygon fill="midnightblue" stroke="midnightblue" points="335.783,-51.5001 345.783,-48 335.783,-44.5001 335.783,-51.5001"/>
</g>
</g>
</svg>
