<?xml version="1.0" encoding="UTF-8" standalone="no"?>
<!DOCTYPE svg PUBLIC "-//W3C//DTD SVG 1.1//EN"
 "http://www.w3.org/Graphics/SVG/1.1/DTD/svg11.dtd">
<!-- Generated by graphviz version 2.38.0 (20140413.2041)
 -->
<!-- Title: DigitalPort Pages: 1 -->
<svg width="328pt" height="640pt"
 viewBox="0.00 0.00 327.50 640.00" xmlns="http://www.w3.org/2000/svg" xmlns:xlink="http://www.w3.org/1999/xlink">
<g id="graph0" class="graph" transform="scale(1 1) rotate(0) translate(4 636)">
<title>DigitalPort</title>
<polygon fill="white" stroke="none" points="-4,4 -4,-636 323.5,-636 323.5,4 -4,4"/>
<!-- Node2 -->
<g id="node1" class="node"><title>Node2</title>
<g id="a_node1"><a xlink:title="Class for digital ports (Gates)">
<polygon fill="#bfbfbf" stroke="black" points="126,-0.5 126,-156.5 224,-156.5 224,-0.5 126,-0.5"/>
<text text-anchor="middle" x="175" y="-144.5" font-family="Helvetica,sans-Serif" font-size="10.00">DigitalPort</text>
<polyline fill="none" stroke="black" points="126,-137.5 224,-137.5 "/>
<text text-anchor="start" x="134" y="-125.5" font-family="Helvetica,sans-Serif" font-size="10.00">+ LedPort</text>
<polyline fill="none" stroke="black" points="126,-118.5 224,-118.5 "/>
<text text-anchor="start" x="134" y="-106.5" font-family="Helvetica,sans-Serif" font-size="10.00">+ setBlink()</text>
<text text-anchor="start" x="134" y="-95.5" font-family="Helvetica,sans-Serif" font-size="10.00">+ DigitalPort()</text>
<text text-anchor="start" x="134" y="-84.5" font-family="Helvetica,sans-Serif" font-size="10.00">+ SetPort()</text>
<text text-anchor="start" x="134" y="-73.5" font-family="Helvetica,sans-Serif" font-size="10.00">+ ReadPort()</text>
<text text-anchor="start" x="134" y="-62.5" font-family="Helvetica,sans-Serif" font-size="10.00">+ SendMIDI()</text>
<text text-anchor="start" x="134" y="-51.5" font-family="Helvetica,sans-Serif" font-size="10.00">+ getClockDivider()</text>
<text text-anchor="start" x="134" y="-40.5" font-family="Helvetica,sans-Serif" font-size="10.00">+ getClockShift()</text>
<text text-anchor="start" x="134" y="-29.5" font-family="Helvetica,sans-Serif" font-size="10.00">+ ClockReceived()</text>
<text text-anchor="start" x="134" y="-18.5" font-family="Helvetica,sans-Serif" font-size="10.00">+ SaveCfg()</text>
<text text-anchor="start" x="134" y="-7.5" font-family="Helvetica,sans-Serif" font-size="10.00">+ LoadCfg()</text>
</a>
</g>
</g>
<!-- Node3 -->
<g id="node2" class="node"><title>Node3</title>
<g id="a_node2"><a xlink:href="class_input_port.html" target="_top" xlink:title="Base class for input ports (digital, analog,...)">
<polygon fill="white" stroke="black" points="0,-204.5 0,-415.5 108,-415.5 108,-204.5 0,-204.5"/>
<text text-anchor="middle" x="54" y="-403.5" font-family="Helvetica,sans-Serif" font-size="10.00">InputPort</text>
<polyline fill="none" stroke="black" points="0,-396.5 108,-396.5 "/>
<text text-anchor="start" x="8" y="-384.5" font-family="Helvetica,sans-Serif" font-size="10.00">+ PortNumber</text>
<text text-anchor="start" x="8" y="-373.5" font-family="Helvetica,sans-Serif" font-size="10.00">+ PortValue</text>
<text text-anchor="start" x="8" y="-362.5" font-family="Helvetica,sans-Serif" font-size="10.00">+ MIDIData</text>
<text text-anchor="start" x="8" y="-351.5" font-family="Helvetica,sans-Serif" font-size="10.00">+ LastSentMIDIData</text>
<text text-anchor="start" x="8" y="-340.5" font-family="Helvetica,sans-Serif" font-size="10.00">+ GateStatus</text>
<text text-anchor="start" x="8" y="-329.5" font-family="Helvetica,sans-Serif" font-size="10.00">+ msecLastMIDISent</text>
<text text-anchor="start" x="8" y="-318.5" font-family="Helvetica,sans-Serif" font-size="10.00">+ IntervalMIDIClock</text>
<text text-anchor="start" x="8" y="-307.5" font-family="Helvetica,sans-Serif" font-size="10.00">+ IntervalClock</text>
<text text-anchor="start" x="8" y="-296.5" font-family="Helvetica,sans-Serif" font-size="10.00">+ CurrentClock</text>
<text text-anchor="start" x="8" y="-285.5" font-family="Helvetica,sans-Serif" font-size="10.00">+ PreviousClock</text>
<text text-anchor="start" x="8" y="-274.5" font-family="Helvetica,sans-Serif" font-size="10.00">and 6 more...</text>
<polyline fill="none" stroke="black" points="0,-267.5 108,-267.5 "/>
<text text-anchor="start" x="8" y="-255.5" font-family="Helvetica,sans-Serif" font-size="10.00">+ InputPort()</text>
<text text-anchor="start" x="8" y="-244.5" font-family="Helvetica,sans-Serif" font-size="10.00">+ SetPort()</text>
<text text-anchor="start" x="8" y="-233.5" font-family="Helvetica,sans-Serif" font-size="10.00">+ ReadPort()</text>
<text text-anchor="start" x="8" y="-222.5" font-family="Helvetica,sans-Serif" font-size="10.00">+ ClockReceived()</text>
<text text-anchor="start" x="8" y="-211.5" font-family="Helvetica,sans-Serif" font-size="10.00">+ ProcessClock()</text>
</a>
</g>
</g>
<!-- Node3&#45;&gt;Node2 -->
<g id="edge1" class="edge"><title>Node3&#45;&gt;Node2</title>
<path fill="none" stroke="midnightblue" d="M112.892,-197.301C120.152,-183.531 127.443,-169.702 134.346,-156.609"/>
<polygon fill="none" stroke="midnightblue" points="109.697,-195.854 108.13,-206.333 115.89,-199.119 109.697,-195.854"/>
</g>
<!-- Node4 -->
<g id="node3" class="node"><title>Node4</title>
<g id="a_node3"><a xlink:href="class_dig_port_cfg.html" target="_top" xlink:title="Digital port configuration class.">
<polygon fill="white" stroke="black" points="126,-259.5 126,-360.5 224,-360.5 224,-259.5 126,-259.5"/>
<text text-anchor="middle" x="175" y="-348.5" font-family="Helvetica,sans-Serif" font-size="10.00">DigPortCfg</text>
<polyline fill="none" stroke="black" points="126,-341.5 224,-341.5 "/>
<text text-anchor="start" x="134" y="-329.5" font-family="Helvetica,sans-Serif" font-size="10.00">+ MIDIfunction</text>
<polyline fill="none" stroke="black" points="126,-322.5 224,-322.5 "/>
<text text-anchor="start" x="134" y="-310.5" font-family="Helvetica,sans-Serif" font-size="10.00">+ SaveCfgSysEx()</text>
<text text-anchor="start" x="134" y="-299.5" font-family="Helvetica,sans-Serif" font-size="10.00">+ ReadCfgSysEx()</text>
<text text-anchor="start" x="134" y="-288.5" font-family="Helvetica,sans-Serif" font-size="10.00">+ SetMIDIFunc()</text>
<text text-anchor="start" x="134" y="-277.5" font-family="Helvetica,sans-Serif" font-size="10.00">+ DigPortCfg()</text>
<text text-anchor="start" x="134" y="-266.5" font-family="Helvetica,sans-Serif" font-size="10.00">+ DigPortCfg()</text>
</a>
</g>
</g>
<!-- Node4&#45;&gt;Node2 -->
<g id="edge2" class="edge"><title>Node4&#45;&gt;Node2</title>
<path fill="none" stroke="#404040" d="M175,-259.484C175,-233.078 175,-199.769 175,-169.008"/>
<polygon fill="none" stroke="#404040" points="175,-168.914 171,-162.914 175,-156.914 179,-162.914 175,-168.914"/>
<text text-anchor="middle" x="196" y="-178" font-family="Helvetica,sans-Serif" font-size="10.00"> +PortCfg</text>
</g>
<!-- Node5 -->
<g id="node4" class="node"><title>Node5</title>
<g id="a_node4"><a xlink:href="class_input_port_cfg.html" target="_top" xlink:title="Base port configuration class.">
<polygon fill="white" stroke="black" points="124.5,-453.5 124.5,-631.5 225.5,-631.5 225.5,-453.5 124.5,-453.5"/>
<text text-anchor="middle" x="175" y="-619.5" font-family="Helvetica,sans-Serif" font-size="10.00">InputPortCfg</text>
<polyline fill="none" stroke="black" points="124.5,-612.5 225.5,-612.5 "/>
<text text-anchor="start" x="132.5" y="-600.5" font-family="Helvetica,sans-Serif" font-size="10.00">+ MIDIChannel</text>
<text text-anchor="start" x="132.5" y="-589.5" font-family="Helvetica,sans-Serif" font-size="10.00">+ ControllerNumber</text>
<text text-anchor="start" x="132.5" y="-578.5" font-family="Helvetica,sans-Serif" font-size="10.00">+ NoteToSend</text>
<text text-anchor="start" x="132.5" y="-567.5" font-family="Helvetica,sans-Serif" font-size="10.00">+ ControllerValue</text>
<text text-anchor="start" x="132.5" y="-556.5" font-family="Helvetica,sans-Serif" font-size="10.00">+ ClockDivider</text>
<text text-anchor="start" x="132.5" y="-545.5" font-family="Helvetica,sans-Serif" font-size="10.00">+ ClockShift</text>
<text text-anchor="start" x="132.5" y="-534.5" font-family="Helvetica,sans-Serif" font-size="10.00">+ charPrefix</text>
<text text-anchor="start" x="132.5" y="-523.5" font-family="Helvetica,sans-Serif" font-size="10.00">+ textPort</text>
<text text-anchor="start" x="132.5" y="-512.5" font-family="Helvetica,sans-Serif" font-size="10.00">+ charSufix</text>
<text text-anchor="start" x="132.5" y="-501.5" font-family="Helvetica,sans-Serif" font-size="10.00">+ DelayGate</text>
<polyline fill="none" stroke="black" points="124.5,-494.5 225.5,-494.5 "/>
<text text-anchor="start" x="132.5" y="-482.5" font-family="Helvetica,sans-Serif" font-size="10.00">+ InputPortCfg()</text>
<text text-anchor="start" x="132.5" y="-471.5" font-family="Helvetica,sans-Serif" font-size="10.00">+ InputPortCfg()</text>
<text text-anchor="start" x="132.5" y="-460.5" font-family="Helvetica,sans-Serif" font-size="10.00">+ getName()</text>
</a>
</g>
</g>
<!-- Node5&#45;&gt;Node4 -->
<g id="edge3" class="edge"><title>Node5&#45;&gt;Node4</title>
<path fill="none" stroke="midnightblue" d="M175,-443.355C175,-414.838 175,-384.891 175,-360.71"/>
<polygon fill="none" stroke="midnightblue" points="171.5,-443.371 175,-453.371 178.5,-443.371 171.5,-443.371"/>
</g>
<!-- Node6 -->
<g id="node5" class="node"><title>Node6</title>
<g id="a_node5"><a xlink:href="class_blinker.html" target="_top" xlink:title=" ">
<polygon fill="white" stroke="black" points="242.5,-237.5 242.5,-382.5 319.5,-382.5 319.5,-237.5 242.5,-237.5"/>
<text text-anchor="middle" x="281" y="-370.5" font-family="Helvetica,sans-Serif" font-size="10.00">Blinker</text>
<polyline fill="none" stroke="black" points="242.5,-363.5 319.5,-363.5 "/>
<text text-anchor="start" x="250.5" y="-351.5" font-family="Helvetica,sans-Serif" font-size="10.00">+ status</text>
<text text-anchor="start" x="250.5" y="-340.5" font-family="Helvetica,sans-Serif" font-size="10.00">+ initblink</text>
<text text-anchor="start" x="250.5" y="-329.5" font-family="Helvetica,sans-Serif" font-size="10.00">+ periodon</text>
<text text-anchor="start" x="250.5" y="-318.5" font-family="Helvetica,sans-Serif" font-size="10.00">+ periodoff</text>
<text text-anchor="start" x="250.5" y="-307.5" font-family="Helvetica,sans-Serif" font-size="10.00">+ countBlinks</text>
<text text-anchor="start" x="250.5" y="-296.5" font-family="Helvetica,sans-Serif" font-size="10.00">+ pinLED</text>
<polyline fill="none" stroke="black" points="242.5,-289.5 319.5,-289.5 "/>
<text text-anchor="start" x="250.5" y="-277.5" font-family="Helvetica,sans-Serif" font-size="10.00">+ Blinker()</text>
<text text-anchor="start" x="250.5" y="-266.5" font-family="Helvetica,sans-Serif" font-size="10.00">+ Blinker()</text>
<text text-anchor="start" x="250.5" y="-255.5" font-family="Helvetica,sans-Serif" font-size="10.00">+ setBlink()</text>
<text text-anchor="start" x="250.5" y="-244.5" font-family="Helvetica,sans-Serif" font-size="10.00">+ playBlink()</text>
</a>
</g>
</g>
<!-- Node6&#45;&gt;Node2 -->
<g id="edge4" class="edge"><title>Node6&#45;&gt;Node2</title>
<path fill="none" stroke="#404040" d="M249.295,-237.203C240.266,-217.029 230.344,-195.111 221,-175 219.866,-172.559 218.711,-170.085 217.542,-167.591"/>
<polygon fill="none" stroke="#404040" points="217.457,-167.409 211.281,-163.686 212.342,-156.554 218.518,-160.277 217.457,-167.409"/>
<text text-anchor="middle" x="250" y="-178" font-family="Helvetica,sans-Serif" font-size="10.00"> +blinkPort</text>
</g>
</g>
</svg>
