<?xml version="1.0" encoding="UTF-8" standalone="no"?>
<!DOCTYPE svg PUBLIC "-//W3C//DTD SVG 1.1//EN"
 "http://www.w3.org/Graphics/SVG/1.1/DTD/svg11.dtd">
<!-- Generated by graphviz version 2.38.0 (20140413.2041)
 -->
<!-- Title: OLEDMenu::displayMenu Pages: 1 -->
<!--zoomable 192 -->
<svg id="main" version="1.1" xmlns="http://www.w3.org/2000/svg" xmlns:xlink="http://www.w3.org/1999/xlink" xml:space="preserve" onload="init(evt)">
<style type="text/css"><![CDATA[
.edge:hover path { stroke: red; }
.edge:hover polygon { stroke: red; fill: red; }
]]></style>
<script type="text/javascript"><![CDATA[
var edges = document.getElementsByTagName('g');
if (edges && edges.length) {
  for (var i=0;i<edges.length;i++) {
    if (edges[i].id.substr(0,4)=='edge') {
      edges[i].setAttribute('class','edge');
    }
  }
}
]]></script>
        <defs>
                <circle id="rim" cx="0" cy="0" r="7"/>
                <circle id="rim2" cx="0" cy="0" r="3.5"/>
                <g id="zoomPlus">
                        <use xlink:href="#rim" fill="#404040">
                                <set attributeName="fill" to="#808080" begin="zoomplus.mouseover" end="zoomplus.mouseout"/>
                        </use>
                        <path d="M-4,0h8M0,-4v8" fill="none" stroke="white" stroke-width="1.5" pointer-events="none"/>
                </g>
                <g id="zoomMin">
                        <use xlink:href="#rim" fill="#404040">
                                <set attributeName="fill" to="#808080" begin="zoomminus.mouseover" end="zoomminus.mouseout"/>
                        </use>
                        <path d="M-4,0h8" fill="none" stroke="white" stroke-width="1.5" pointer-events="none"/>
                </g>
                <g id="dirArrow">
                        <path fill="none" stroke="white" stroke-width="1.5" d="M0,-3.0v7 M-2.5,-0.5L0,-3.0L2.5,-0.5"/>
                </g>
               <g id="resetDef">
                       <use xlink:href="#rim2" fill="#404040">
                               <set attributeName="fill" to="#808080" begin="reset.mouseover" end="reset.mouseout"/>
                       </use>
               </g>
        </defs>

<script type="text/javascript">
var viewWidth = 524;
var viewHeight = 192;
var sectionId = 'dynsection-2';
</script>
<script xlink:href="svgpan.js"/>
<svg id="graph" class="graph">
<g id="viewport">
<title>OLEDMenu::displayMenu</title>
<polygon fill="white" stroke="none" points="-4,4 -4,-188 520,-188 520,4 -4,4"/>
<!-- Node2 -->
<g id="node1" class="node"><title>Node2</title>
<g id="a_node1"><a xlink:title="Main Display Menu Functions.">
<polygon fill="#bfbfbf" stroke="black" points="0,-88.5 0,-107.5 128,-107.5 128,-88.5 0,-88.5"/>
<text text-anchor="middle" x="64" y="-95.5" font-family="Helvetica,sans-Serif" font-size="10.00">OLEDMenu::displayMenu</text>
</a>
</g>
</g>
<!-- Node3 -->
<g id="node2" class="node"><title>Node3</title>
<g id="a_node2"><a xlink:href="class_o_l_e_d_menu.html#ad107df198b65221d8a56efeb627c2746" target="_top" xlink:title="Display columns for the performance screen.">
<polygon fill="white" stroke="black" points="164,-164.5 164,-183.5 330,-183.5 330,-164.5 164,-164.5"/>
<text text-anchor="middle" x="247" y="-171.5" font-family="Helvetica,sans-Serif" font-size="10.00">OLEDMenu::displayMenuColumns</text>
</a>
</g>
</g>
<!-- Node2&#45;&gt;Node3 -->
<g id="edge1" class="edge"><title>Node2&#45;&gt;Node3</title>
<path fill="none" stroke="midnightblue" d="M78.7622,-107.69C97.3007,-120.318 131.705,-142.286 164,-155 170.395,-157.518 177.208,-159.751 184.069,-161.721"/>
<polygon fill="midnightblue" stroke="midnightblue" points="183.548,-165.205 194.114,-164.419 185.364,-158.445 183.548,-165.205"/>
</g>
<!-- Node4 -->
<g id="node3" class="node"><title>Node4</title>
<g id="a_node3"><a xlink:href="class_o_l_e_d_menu.html#a7d5f79d1bff3dd85ebc86b2d86b2e969" target="_top" xlink:title="Performance Display one item at a time.">
<polygon fill="white" stroke="black" points="170.5,-126.5 170.5,-145.5 323.5,-145.5 323.5,-126.5 170.5,-126.5"/>
<text text-anchor="middle" x="247" y="-133.5" font-family="Helvetica,sans-Serif" font-size="10.00">OLEDMenu::displayMenuCards</text>
</a>
</g>
</g>
<!-- Node2&#45;&gt;Node4 -->
<g id="edge2" class="edge"><title>Node2&#45;&gt;Node4</title>
<path fill="none" stroke="midnightblue" d="M110.674,-107.589C134.989,-112.694 165.08,-119.011 190.708,-124.392"/>
<polygon fill="midnightblue" stroke="midnightblue" points="190.149,-127.851 200.654,-126.48 191.587,-121 190.149,-127.851"/>
</g>
<!-- Node6 -->
<g id="node5" class="node"><title>Node6</title>
<g id="a_node5"><a xlink:href="class_o_l_e_d_menu.html#adbd5b7204a51608a5d9f2e8641c15f80" target="_top" xlink:title="Show Ports configuration data.">
<polygon fill="white" stroke="black" points="169.5,-88.5 169.5,-107.5 324.5,-107.5 324.5,-88.5 169.5,-88.5"/>
<text text-anchor="middle" x="247" y="-95.5" font-family="Helvetica,sans-Serif" font-size="10.00">OLEDMenu::displayMenuConfig</text>
</a>
</g>
</g>
<!-- Node2&#45;&gt;Node6 -->
<g id="edge4" class="edge"><title>Node2&#45;&gt;Node6</title>
<path fill="none" stroke="midnightblue" d="M128.051,-98C138.179,-98 148.814,-98 159.378,-98"/>
<polygon fill="midnightblue" stroke="midnightblue" points="159.467,-101.5 169.467,-98 159.467,-94.5001 159.467,-101.5"/>
</g>
<!-- Node7 -->
<g id="node6" class="node"><title>Node7</title>
<g id="a_node6"><a xlink:href="class_o_l_e_d_menu.html#ace64662b48293e799eb6aceae9cc5c5e" target="_top" xlink:title="Display Drop list menu.">
<polygon fill="white" stroke="black" points="175.5,-39 175.5,-69 318.5,-69 318.5,-39 175.5,-39"/>
<text text-anchor="start" x="183.5" y="-57" font-family="Helvetica,sans-Serif" font-size="10.00">OLEDMenu::displayMenuList</text>
<text text-anchor="middle" x="247" y="-46" font-family="Helvetica,sans-Serif" font-size="10.00">Lines</text>
</a>
</g>
</g>
<!-- Node2&#45;&gt;Node7 -->
<g id="edge6" class="edge"><title>Node2&#45;&gt;Node7</title>
<path fill="none" stroke="midnightblue" d="M104.274,-88.4527C124.744,-83.4767 150.426,-77.2334 174.287,-71.4331"/>
<polygon fill="midnightblue" stroke="midnightblue" points="175.136,-74.8285 184.027,-69.0654 173.483,-68.0266 175.136,-74.8285"/>
</g>
<!-- Node8 -->
<g id="node7" class="node"><title>Node8</title>
<g id="a_node7"><a xlink:href="class_o_l_e_d_menu.html#a15544a71bc7d6b4f51214b0dc1c2afbc" target="_top" xlink:title="Show a message for a number of milliseconds or until encoder pressed. will show a bitmap if it is set...">
<polygon fill="white" stroke="black" points="169.5,-0.5 169.5,-19.5 324.5,-19.5 324.5,-0.5 169.5,-0.5"/>
<text text-anchor="middle" x="247" y="-7.5" font-family="Helvetica,sans-Serif" font-size="10.00">OLEDMenu::EncoderPopupMsg</text>
</a>
</g>
</g>
<!-- Node2&#45;&gt;Node8 -->
<g id="edge7" class="edge"><title>Node2&#45;&gt;Node8</title>
<path fill="none" stroke="midnightblue" d="M76.0619,-88.3656C93.545,-73.6326 129.167,-45.5783 164,-30 170.529,-27.0798 177.55,-24.5462 184.637,-22.3577"/>
<polygon fill="midnightblue" stroke="midnightblue" points="185.657,-25.7065 194.303,-19.5836 183.726,-18.9782 185.657,-25.7065"/>
</g>
<!-- Node5 -->
<g id="node4" class="node"><title>Node5</title>
<g id="a_node4"><a xlink:href="class_o_l_e_d_menu.html#a41842f90a67e0be0755c9f8c08b90ec6" target="_top" xlink:title="Show Header Info for Bank Selected.">
<polygon fill="white" stroke="black" points="366,-102 366,-132 516,-132 516,-102 366,-102"/>
<text text-anchor="start" x="374" y="-120" font-family="Helvetica,sans-Serif" font-size="10.00">OLEDMenu::displayMenuBank</text>
<text text-anchor="middle" x="441" y="-109" font-family="Helvetica,sans-Serif" font-size="10.00">Header</text>
</a>
</g>
</g>
<!-- Node4&#45;&gt;Node5 -->
<g id="edge3" class="edge"><title>Node4&#45;&gt;Node5</title>
<path fill="none" stroke="midnightblue" d="M323.608,-128.518C334.105,-127.479 344.943,-126.407 355.589,-125.353"/>
<polygon fill="midnightblue" stroke="midnightblue" points="356.112,-128.819 365.718,-124.351 355.422,-121.853 356.112,-128.819"/>
</g>
<!-- Node6&#45;&gt;Node5 -->
<g id="edge5" class="edge"><title>Node6&#45;&gt;Node5</title>
<path fill="none" stroke="midnightblue" d="M324.711,-105.591C334.895,-106.599 345.381,-107.637 355.685,-108.656"/>
<polygon fill="midnightblue" stroke="midnightblue" points="355.614,-112.166 365.91,-109.668 356.304,-105.2 355.614,-112.166"/>
</g>
</g>
</svg>
        <g id="navigator" transform="translate(0 0)" fill="#404254">
                <rect fill="#f2f5e9" fill-opacity="0.5" stroke="#606060" stroke-width=".5" x="0" y="0" width="60" height="60"/>
                <use id="zoomplus" xlink:href="#zoomPlus" x="17" y="9" onmousedown="handleZoom(evt,'in')"/>
                <use id="zoomminus" xlink:href="#zoomMin" x="42" y="9" onmousedown="handleZoom(evt,'out')"/>
                <use id="reset" xlink:href="#resetDef" x="30" y="36" onmousedown="handleReset()"/>
                <g id="arrowUp" xlink:href="#dirArrow" transform="translate(30 24)" onmousedown="handlePan(0,-1)">
                  <use xlink:href="#rim" fill="#404040">
                        <set attributeName="fill" to="#808080" begin="arrowUp.mouseover" end="arrowUp.mouseout"/>
                  </use>
                  <path fill="none" stroke="white" stroke-width="1.5" d="M0,-3.0v7 M-2.5,-0.5L0,-3.0L2.5,-0.5"/>
                </g>
                <g id="arrowRight" xlink:href="#dirArrow" transform="rotate(90) translate(36 -43)" onmousedown="handlePan(1,0)">
                  <use xlink:href="#rim" fill="#404040">
                        <set attributeName="fill" to="#808080" begin="arrowRight.mouseover" end="arrowRight.mouseout"/>
                  </use>
                  <path fill="none" stroke="white" stroke-width="1.5" d="M0,-3.0v7 M-2.5,-0.5L0,-3.0L2.5,-0.5"/>
                </g>
                <g id="arrowDown" xlink:href="#dirArrow" transform="rotate(180) translate(-30 -48)" onmousedown="handlePan(0,1)">
                  <use xlink:href="#rim" fill="#404040">
                        <set attributeName="fill" to="#808080" begin="arrowDown.mouseover" end="arrowDown.mouseout"/>
                  </use>
                  <path fill="none" stroke="white" stroke-width="1.5" d="M0,-3.0v7 M-2.5,-0.5L0,-3.0L2.5,-0.5"/>
                </g>
                <g id="arrowLeft" xlink:href="#dirArrow" transform="rotate(270) translate(-36 17)" onmousedown="handlePan(-1,0)">
                  <use xlink:href="#rim" fill="#404040">
                        <set attributeName="fill" to="#808080" begin="arrowLeft.mouseover" end="arrowLeft.mouseout"/>
                  </use>
                  <path fill="none" stroke="white" stroke-width="1.5" d="M0,-3.0v7 M-2.5,-0.5L0,-3.0L2.5,-0.5"/>
                </g>
        </g>
        <svg viewBox="0 0 15 15" width="100%" height="30px" preserveAspectRatio="xMaxYMin meet">
         <g id="arrow_out" transform="scale(0.3 0.3)">
          <a xlink:href="class_o_l_e_d_menu_a451a9b37ad724e7103a6d8656a89ac8b_cgraph_org.svg" target="_base">
           <rect id="button" ry="5" rx="5" y="6" x="6" height="38" width="38"
                fill="#f2f5e9" fill-opacity="0.5" stroke="#606060" stroke-width="1.0"/>
           <path id="arrow"
             d="M 11.500037,31.436501 C 11.940474,20.09759 22.043105,11.32322 32.158766,21.979434 L 37.068811,17.246167 C 37.068811,17.246167 37.088388,32 37.088388,32 L 22.160133,31.978069 C 22.160133,31.978069 26.997745,27.140456 26.997745,27.140456 C 18.528582,18.264221 13.291696,25.230495 11.500037,31.436501 z"
             style="fill:#404040;"/>
          </a>
         </g>
        </svg>
</svg>
