<?xml version="1.0" encoding="UTF-8" standalone="no"?>
<!DOCTYPE svg PUBLIC "-//W3C//DTD SVG 1.1//EN"
 "http://www.w3.org/Graphics/SVG/1.1/DTD/svg11.dtd">
<!-- Generated by graphviz version 2.38.0 (20140413.2041)
 -->
<!-- Title: OLEDMenu::EncoderselDigitVal Pages: 1 -->
<svg width="560pt" height="28pt"
 viewBox="0.00 0.00 560.00 28.00" xmlns="http://www.w3.org/2000/svg" xmlns:xlink="http://www.w3.org/1999/xlink">
<g id="graph0" class="graph" transform="scale(1 1) rotate(0) translate(4 24)">
<title>OLEDMenu::EncoderselDigitVal</title>
<polygon fill="white" stroke="none" points="-4,4 -4,-24 556,-24 556,4 -4,4"/>
<!-- Node36 -->
<g id="node1" class="node"><title>Node36</title>
<g id="a_node1"><a xlink:title="Change a long values digits individually with the encoder. Recommended to adjust bigger numbers.">
<polygon fill="#bfbfbf" stroke="black" points="397,-0.5 397,-19.5 552,-19.5 552,-0.5 397,-0.5"/>
<text text-anchor="middle" x="474.5" y="-7.5" font-family="Helvetica,sans-Serif" font-size="10.00">OLEDMenu::EncoderselDigitVal</text>
</a>
</g>
</g>
<!-- Node37 -->
<g id="node2" class="node"><title>Node37</title>
<g id="a_node2"><a xlink:href="class_o_l_e_d_menu.html#a97b7653ff603ccd69589a2fa9f41344f" target="_top" xlink:title="Change a long value and show in screen title and value.">
<polygon fill="white" stroke="black" points="198,-0.5 198,-19.5 361,-19.5 361,-0.5 198,-0.5"/>
<text text-anchor="middle" x="279.5" y="-7.5" font-family="Helvetica,sans-Serif" font-size="10.00">OLEDMenu::EncoderChangeLong</text>
</a>
</g>
</g>
<!-- Node36&#45;&gt;Node37 -->
<g id="edge1" class="edge"><title>Node36&#45;&gt;Node37</title>
<path fill="none" stroke="midnightblue" d="M386.917,-10C378.319,-10 369.616,-10 361.083,-10"/>
<polygon fill="midnightblue" stroke="midnightblue" points="386.944,-13.5001 396.944,-10 386.944,-6.5001 386.944,-13.5001"/>
</g>
<!-- Node38 -->
<g id="node3" class="node"><title>Node38</title>
<g id="a_node3"><a xlink:href="class_o_l_e_d_menu.html#af603cf3288b91fdec3d97d484704fe6e" target="_top" xlink:title="Change a long value digits indiviadully and show in screen title and value.">
<polygon fill="white" stroke="black" points="0,-0.5 0,-19.5 162,-19.5 162,-0.5 0,-0.5"/>
<text text-anchor="middle" x="81" y="-7.5" font-family="Helvetica,sans-Serif" font-size="10.00">OLEDMenu::EncoderselDigitLong</text>
</a>
</g>
</g>
<!-- Node37&#45;&gt;Node38 -->
<g id="edge2" class="edge"><title>Node37&#45;&gt;Node38</title>
<path fill="none" stroke="midnightblue" d="M187.467,-10C179.013,-10 170.488,-10 162.144,-10"/>
<polygon fill="midnightblue" stroke="midnightblue" points="187.725,-13.5001 197.725,-10 187.725,-6.5001 187.725,-13.5001"/>
</g>
</g>
</svg>
