<?xml version="1.0" encoding="UTF-8" standalone="no"?>
<!DOCTYPE svg PUBLIC "-//W3C//DTD SVG 1.1//EN"
 "http://www.w3.org/Graphics/SVG/1.1/DTD/svg11.dtd">
<!-- Generated by graphviz version 2.38.0 (20140413.2041)
 -->
<!-- Title: AnalogPort Pages: 1 -->
<svg width="118pt" height="573pt"
 viewBox="0.00 0.00 118.00 573.00" xmlns="http://www.w3.org/2000/svg" xmlns:xlink="http://www.w3.org/1999/xlink">
<g id="graph0" class="graph" transform="scale(1 1) rotate(0) translate(4 569)">
<title>AnalogPort</title>
<polygon fill="white" stroke="none" points="-4,4 -4,-569 114,-569 114,4 -4,4"/>
<!-- Node0 -->
<g id="node1" class="node"><title>Node0</title>
<g id="a_node1"><a xlink:title="Class for analog ports (CV and Faders)">
<polygon fill="#bfbfbf" stroke="black" points="6,-138.5 6,-316.5 104,-316.5 104,-138.5 6,-138.5"/>
<text text-anchor="middle" x="55" y="-304.5" font-family="Helvetica,sans-Serif" font-size="10.00">AnalogPort</text>
<polyline fill="none" stroke="black" points="6,-297.5 104,-297.5 "/>
<text text-anchor="start" x="14" y="-285.5" font-family="Helvetica,sans-Serif" font-size="10.00">+ PortCfg</text>
<text text-anchor="start" x="14" y="-274.5" font-family="Helvetica,sans-Serif" font-size="10.00">+ adcNum</text>
<polyline fill="none" stroke="black" points="6,-267.5 104,-267.5 "/>
<text text-anchor="start" x="14" y="-255.5" font-family="Helvetica,sans-Serif" font-size="10.00">+ AnalogPort()</text>
<text text-anchor="start" x="14" y="-244.5" font-family="Helvetica,sans-Serif" font-size="10.00">+ SetPort()</text>
<text text-anchor="start" x="14" y="-233.5" font-family="Helvetica,sans-Serif" font-size="10.00">+ ReadPort()</text>
<text text-anchor="start" x="14" y="-222.5" font-family="Helvetica,sans-Serif" font-size="10.00">+ SendMIDI()</text>
<text text-anchor="start" x="14" y="-211.5" font-family="Helvetica,sans-Serif" font-size="10.00">+ TrimValue()</text>
<text text-anchor="start" x="14" y="-200.5" font-family="Helvetica,sans-Serif" font-size="10.00">+ getClockDivider()</text>
<text text-anchor="start" x="14" y="-189.5" font-family="Helvetica,sans-Serif" font-size="10.00">+ getClockShift()</text>
<text text-anchor="start" x="14" y="-178.5" font-family="Helvetica,sans-Serif" font-size="10.00">+ ClockReceived()</text>
<text text-anchor="start" x="14" y="-167.5" font-family="Helvetica,sans-Serif" font-size="10.00">+ IsHigh()</text>
<text text-anchor="start" x="14" y="-156.5" font-family="Helvetica,sans-Serif" font-size="10.00">+ SaveCfg()</text>
<text text-anchor="start" x="14" y="-145.5" font-family="Helvetica,sans-Serif" font-size="10.00">+ LoadCfg()</text>
</a>
</g>
</g>
<!-- Node2 -->
<g id="node3" class="node"><title>Node2</title>
<g id="a_node3"><a xlink:href="class_demux_analog_port.html" target="_top" xlink:title="Class for Muxed analog ports (CV and Faders) Demux will use defines for pins: PINDEMUXA,...">
<polygon fill="white" stroke="black" points="0,-0.5 0,-101.5 110,-101.5 110,-0.5 0,-0.5"/>
<text text-anchor="middle" x="55" y="-89.5" font-family="Helvetica,sans-Serif" font-size="10.00">DemuxAnalogPort</text>
<polyline fill="none" stroke="black" points="0,-82.5 110,-82.5 "/>
<text text-anchor="start" x="8" y="-70.5" font-family="Helvetica,sans-Serif" font-size="10.00">+ DemuxPort</text>
<polyline fill="none" stroke="black" points="0,-63.5 110,-63.5 "/>
<text text-anchor="start" x="8" y="-51.5" font-family="Helvetica,sans-Serif" font-size="10.00">+ DemuxAnalogPort()</text>
<text text-anchor="start" x="8" y="-40.5" font-family="Helvetica,sans-Serif" font-size="10.00">+ SetPort()</text>
<text text-anchor="start" x="8" y="-29.5" font-family="Helvetica,sans-Serif" font-size="10.00">+ ReadPort()</text>
<text text-anchor="start" x="8" y="-18.5" font-family="Helvetica,sans-Serif" font-size="10.00">+ SetDemux()</text>
<text text-anchor="start" x="8" y="-7.5" font-family="Helvetica,sans-Serif" font-size="10.00">+ SendMIDI()</text>
</a>
</g>
</g>
<!-- Node0&#45;&gt;Node2 -->
<g id="edge2" class="edge"><title>Node0&#45;&gt;Node2</title>
<path fill="none" stroke="midnightblue" d="M55,-128.383C55,-119.117 55,-110.017 55,-101.51"/>
<polygon fill="none" stroke="midnightblue" points="51.5001,-128.483 55,-138.483 58.5001,-128.483 51.5001,-128.483"/>
</g>
<!-- Node1 -->
<g id="node2" class="node"><title>Node1</title>
<g id="a_node2"><a xlink:href="class_input_port.html" target="_top" xlink:title="Base class for input ports (digital, analog,...)">
<polygon fill="white" stroke="black" points="1,-353.5 1,-564.5 109,-564.5 109,-353.5 1,-353.5"/>
<text text-anchor="middle" x="55" y="-552.5" font-family="Helvetica,sans-Serif" font-size="10.00">InputPort</text>
<polyline fill="none" stroke="black" points="1,-545.5 109,-545.5 "/>
<text text-anchor="start" x="9" y="-533.5" font-family="Helvetica,sans-Serif" font-size="10.00">+ PortNumber</text>
<text text-anchor="start" x="9" y="-522.5" font-family="Helvetica,sans-Serif" font-size="10.00">+ PortValue</text>
<text text-anchor="start" x="9" y="-511.5" font-family="Helvetica,sans-Serif" font-size="10.00">+ MIDIData</text>
<text text-anchor="start" x="9" y="-500.5" font-family="Helvetica,sans-Serif" font-size="10.00">+ LastSentMIDIData</text>
<text text-anchor="start" x="9" y="-489.5" font-family="Helvetica,sans-Serif" font-size="10.00">+ GateStatus</text>
<text text-anchor="start" x="9" y="-478.5" font-family="Helvetica,sans-Serif" font-size="10.00">+ msecLastMIDISent</text>
<text text-anchor="start" x="9" y="-467.5" font-family="Helvetica,sans-Serif" font-size="10.00">+ IntervalMIDIClock</text>
<text text-anchor="start" x="9" y="-456.5" font-family="Helvetica,sans-Serif" font-size="10.00">+ IntervalClock</text>
<text text-anchor="start" x="9" y="-445.5" font-family="Helvetica,sans-Serif" font-size="10.00">+ CurrentClock</text>
<text text-anchor="start" x="9" y="-434.5" font-family="Helvetica,sans-Serif" font-size="10.00">+ PreviousClock</text>
<text text-anchor="start" x="9" y="-423.5" font-family="Helvetica,sans-Serif" font-size="10.00">and 6 more...</text>
<polyline fill="none" stroke="black" points="1,-416.5 109,-416.5 "/>
<text text-anchor="start" x="9" y="-404.5" font-family="Helvetica,sans-Serif" font-size="10.00">+ InputPort()</text>
<text text-anchor="start" x="9" y="-393.5" font-family="Helvetica,sans-Serif" font-size="10.00">+ SetPort()</text>
<text text-anchor="start" x="9" y="-382.5" font-family="Helvetica,sans-Serif" font-size="10.00">+ ReadPort()</text>
<text text-anchor="start" x="9" y="-371.5" font-family="Helvetica,sans-Serif" font-size="10.00">+ ClockReceived()</text>
<text text-anchor="start" x="9" y="-360.5" font-family="Helvetica,sans-Serif" font-size="10.00">+ ProcessClock()</text>
</a>
</g>
</g>
<!-- Node1&#45;&gt;Node0 -->
<g id="edge1" class="edge"><title>Node1&#45;&gt;Node0</title>
<path fill="none" stroke="midnightblue" d="M55,-343.215C55,-334.251 55,-325.288 55,-316.544"/>
<polygon fill="none" stroke="midnightblue" points="51.5001,-343.324 55,-353.324 58.5001,-343.324 51.5001,-343.324"/>
</g>
</g>
</svg>
