<?xml version="1.0" encoding="UTF-8" standalone="no"?>
<!DOCTYPE svg PUBLIC "-//W3C//DTD SVG 1.1//EN"
 "http://www.w3.org/Graphics/SVG/1.1/DTD/svg11.dtd">
<!-- Generated by graphviz version 2.38.0 (20140413.2041)
 -->
<!-- Title: OLEDMenu Pages: 1 -->
<svg width="100pt" height="219pt"
 viewBox="0.00 0.00 100.00 219.00" xmlns="http://www.w3.org/2000/svg" xmlns:xlink="http://www.w3.org/1999/xlink">
<g id="graph0" class="graph" transform="scale(1 1) rotate(0) translate(4 215)">
<title>OLEDMenu</title>
<polygon fill="white" stroke="none" points="-4,4 -4,-215 96,-215 96,4 -4,4"/>
<!-- Node2 -->
<g id="node1" class="node"><title>Node2</title>
<g id="a_node1"><a xlink:title="Menu Class to handle encoder and OLED screen.">
<polygon fill="#bfbfbf" stroke="black" points="0.5,-0.5 0.5,-19.5 67.5,-19.5 67.5,-0.5 0.5,-0.5"/>
<text text-anchor="middle" x="34" y="-7.5" font-family="Helvetica,sans-Serif" font-size="10.00">OLEDMenu</text>
</a>
</g>
</g>
<!-- Node3 -->
<g id="node2" class="node"><title>Node3</title>
<g id="a_node2"><a xlink:href="class_menu_class.html" target="_top" xlink:title=" ">
<polygon fill="white" stroke="black" points="1.5,-57.5 1.5,-76.5 66.5,-76.5 66.5,-57.5 1.5,-57.5"/>
<text text-anchor="middle" x="34" y="-64.5" font-family="Helvetica,sans-Serif" font-size="10.00">MenuClass</text>
</a>
</g>
</g>
<!-- Node3&#45;&gt;Node2 -->
<g id="edge1" class="edge"><title>Node3&#45;&gt;Node2</title>
<path fill="none" stroke="midnightblue" d="M34,-47.1166C34,-37.8173 34,-27.0557 34,-19.7149"/>
<polygon fill="midnightblue" stroke="midnightblue" points="30.5001,-47.4062 34,-57.4063 37.5001,-47.4063 30.5001,-47.4062"/>
</g>
<!-- Node4 -->
<g id="node3" class="node"><title>Node4</title>
<g id="a_node3"><a xlink:href="class_menu_list.html" target="_top" xlink:title=" ">
<polygon fill="white" stroke="black" points="6,-124.5 6,-143.5 62,-143.5 62,-124.5 6,-124.5"/>
<text text-anchor="middle" x="34" y="-131.5" font-family="Helvetica,sans-Serif" font-size="10.00">MenuList</text>
</a>
</g>
</g>
<!-- Node4&#45;&gt;Node3 -->
<g id="edge2" class="edge"><title>Node4&#45;&gt;Node3</title>
<path fill="none" stroke="#9a32cd" stroke-dasharray="5,2" d="M34,-114.037C34,-101.67 34,-86.1198 34,-76.6273"/>
<polygon fill="#9a32cd" stroke="#9a32cd" points="30.5001,-114.234 34,-124.234 37.5001,-114.234 30.5001,-114.234"/>
<text text-anchor="middle" x="63" y="-98" font-family="Helvetica,sans-Serif" font-size="10.00"> currentMenu</text>
</g>
<!-- Node5 -->
<g id="node4" class="node"><title>Node5</title>
<g id="a_node4"><a xlink:href="struct_menu_item__t.html" target="_top" xlink:title=" ">
<polygon fill="white" stroke="black" points="0,-191.5 0,-210.5 68,-210.5 68,-191.5 0,-191.5"/>
<text text-anchor="middle" x="34" y="-198.5" font-family="Helvetica,sans-Serif" font-size="10.00">MenuItem_t</text>
</a>
</g>
</g>
<!-- Node5&#45;&gt;Node4 -->
<g id="edge3" class="edge"><title>Node5&#45;&gt;Node4</title>
<path fill="none" stroke="#9a32cd" stroke-dasharray="5,2" d="M34,-181.037C34,-168.67 34,-153.12 34,-143.627"/>
<polygon fill="#9a32cd" stroke="#9a32cd" points="30.5001,-181.234 34,-191.234 37.5001,-181.234 30.5001,-181.234"/>
<text text-anchor="middle" x="60" y="-165" font-family="Helvetica,sans-Serif" font-size="10.00"> menuItems</text>
</g>
</g>
</svg>
