<?xml version="1.0" encoding="UTF-8" standalone="no"?>
<!DOCTYPE svg PUBLIC "-//W3C//DTD SVG 1.1//EN"
 "http://www.w3.org/Graphics/SVG/1.1/DTD/svg11.dtd">
<!-- Generated by graphviz version 2.38.0 (20140413.2041)
 -->
<!-- Title: OLEDMenu::displayMenuBankHeader Pages: 1 -->
<svg width="513pt" height="66pt"
 viewBox="0.00 0.00 513.00 66.00" xmlns="http://www.w3.org/2000/svg" xmlns:xlink="http://www.w3.org/1999/xlink">
<g id="graph0" class="graph" transform="scale(1 1) rotate(0) translate(4 62)">
<title>OLEDMenu::displayMenuBankHeader</title>
<polygon fill="white" stroke="none" points="-4,4 -4,-62 509,-62 509,4 -4,4"/>
<!-- Node11 -->
<g id="node1" class="node"><title>Node11</title>
<g id="a_node1"><a xlink:title="Show Header Info for Bank Selected.">
<polygon fill="#bfbfbf" stroke="black" points="355,-14 355,-44 505,-44 505,-14 355,-14"/>
<text text-anchor="start" x="363" y="-32" font-family="Helvetica,sans-Serif" font-size="10.00">OLEDMenu::displayMenuBank</text>
<text text-anchor="middle" x="430" y="-21" font-family="Helvetica,sans-Serif" font-size="10.00">Header</text>
</a>
</g>
</g>
<!-- Node12 -->
<g id="node2" class="node"><title>Node12</title>
<g id="a_node2"><a xlink:href="class_o_l_e_d_menu.html#a7d5f79d1bff3dd85ebc86b2d86b2e969" target="_top" xlink:title="Performance Display one item at a time.">
<polygon fill="white" stroke="black" points="165,-38.5 165,-57.5 318,-57.5 318,-38.5 165,-38.5"/>
<text text-anchor="middle" x="241.5" y="-45.5" font-family="Helvetica,sans-Serif" font-size="10.00">OLEDMenu::displayMenuCards</text>
</a>
</g>
</g>
<!-- Node11&#45;&gt;Node12 -->
<g id="edge1" class="edge"><title>Node11&#45;&gt;Node12</title>
<path fill="none" stroke="midnightblue" d="M344.756,-37.5825C335.843,-38.4905 326.82,-39.4098 318.015,-40.3067"/>
<polygon fill="midnightblue" stroke="midnightblue" points="345.161,-41.0595 354.754,-36.5639 344.451,-34.0955 345.161,-41.0595"/>
</g>
<!-- Node14 -->
<g id="node4" class="node"><title>Node14</title>
<g id="a_node4"><a xlink:href="class_o_l_e_d_menu.html#adbd5b7204a51608a5d9f2e8641c15f80" target="_top" xlink:title="Show Ports configuration data.">
<polygon fill="white" stroke="black" points="164,-0.5 164,-19.5 319,-19.5 319,-0.5 164,-0.5"/>
<text text-anchor="middle" x="241.5" y="-7.5" font-family="Helvetica,sans-Serif" font-size="10.00">OLEDMenu::displayMenuConfig</text>
</a>
</g>
</g>
<!-- Node11&#45;&gt;Node14 -->
<g id="edge3" class="edge"><title>Node11&#45;&gt;Node14</title>
<path fill="none" stroke="midnightblue" d="M344.539,-20.3954C336.109,-19.5366 327.583,-18.668 319.239,-17.8179"/>
<polygon fill="midnightblue" stroke="midnightblue" points="344.451,-23.9045 354.754,-21.4361 345.161,-16.9405 344.451,-23.9045"/>
</g>
<!-- Node13 -->
<g id="node3" class="node"><title>Node13</title>
<g id="a_node3"><a xlink:href="class_o_l_e_d_menu.html#a451a9b37ad724e7103a6d8656a89ac8b" target="_top" xlink:title="Main Display Menu Functions.">
<polygon fill="white" stroke="black" points="0,-19.5 0,-38.5 128,-38.5 128,-19.5 0,-19.5"/>
<text text-anchor="middle" x="64" y="-26.5" font-family="Helvetica,sans-Serif" font-size="10.00">OLEDMenu::displayMenu</text>
</a>
</g>
</g>
<!-- Node12&#45;&gt;Node13 -->
<g id="edge2" class="edge"><title>Node12&#45;&gt;Node13</title>
<path fill="none" stroke="midnightblue" d="M154.702,-38.7113C145.731,-37.7401 136.733,-36.7659 128.083,-35.8294"/>
<polygon fill="midnightblue" stroke="midnightblue" points="154.48,-42.2077 164.799,-39.8044 155.234,-35.2483 154.48,-42.2077"/>
</g>
<!-- Node14&#45;&gt;Node13 -->
<g id="edge4" class="edge"><title>Node14&#45;&gt;Node13</title>
<path fill="none" stroke="midnightblue" d="M153.694,-19.3978C145.082,-20.3302 136.457,-21.2639 128.153,-22.163"/>
<polygon fill="midnightblue" stroke="midnightblue" points="154.213,-22.8621 163.778,-18.306 153.46,-15.9028 154.213,-22.8621"/>
</g>
</g>
</svg>
