<?xml version="1.0" encoding="UTF-8" standalone="no"?>
<!DOCTYPE svg PUBLIC "-//W3C//DTD SVG 1.1//EN"
 "http://www.w3.org/Graphics/SVG/1.1/DTD/svg11.dtd">
<!-- Generated by graphviz version 2.38.0 (20140413.2041)
 -->
<!-- Title: OLEDMenu::EncoderselDigitLong Pages: 1 -->
<!--zoomable 180 -->
<svg id="main" version="1.1" xmlns="http://www.w3.org/2000/svg" xmlns:xlink="http://www.w3.org/1999/xlink" xml:space="preserve" onload="init(evt)">
<style type="text/css"><![CDATA[
.edge:hover path { stroke: red; }
.edge:hover polygon { stroke: red; fill: red; }
]]></style>
<script type="text/javascript"><![CDATA[
var edges = document.getElementsByTagName('g');
if (edges && edges.length) {
  for (var i=0;i<edges.length;i++) {
    if (edges[i].id.substr(0,4)=='edge') {
      edges[i].setAttribute('class','edge');
    }
  }
}
]]></script>
        <defs>
                <circle id="rim" cx="0" cy="0" r="7"/>
                <circle id="rim2" cx="0" cy="0" r="3.5"/>
                <g id="zoomPlus">
                        <use xlink:href="#rim" fill="#404040">
                                <set attributeName="fill" to="#808080" begin="zoomplus.mouseover" end="zoomplus.mouseout"/>
                        </use>
                        <path d="M-4,0h8M0,-4v8" fill="none" stroke="white" stroke-width="1.5" pointer-events="none"/>
                </g>
                <g id="zoomMin">
                        <use xlink:href="#rim" fill="#404040">
                                <set attributeName="fill" to="#808080" begin="zoomminus.mouseover" end="zoomminus.mouseout"/>
                        </use>
                        <path d="M-4,0h8" fill="none" stroke="white" stroke-width="1.5" pointer-events="none"/>
                </g>
                <g id="dirArrow">
                        <path fill="none" stroke="white" stroke-width="1.5" d="M0,-3.0v7 M-2.5,-0.5L0,-3.0L2.5,-0.5"/>
                </g>
               <g id="resetDef">
                       <use xlink:href="#rim2" fill="#404040">
                               <set attributeName="fill" to="#808080" begin="reset.mouseover" end="reset.mouseout"/>
                       </use>
               </g>
        </defs>

<script type="text/javascript">
var viewWidth = 561;
var viewHeight = 180;
var sectionId = 'dynsection-8';
</script>
<script xlink:href="svgpan.js"/>
<svg id="graph" class="graph">
<g id="viewport">
<title>OLEDMenu::EncoderselDigitLong</title>
<polygon fill="white" stroke="none" points="-4,4 -4,-176 557,-176 557,4 -4,4"/>
<!-- Node22 -->
<g id="node1" class="node"><title>Node22</title>
<g id="a_node1"><a xlink:title="Change a long value digits indiviadully and show in screen title and value.">
<polygon fill="#bfbfbf" stroke="black" points="0,-76.5 0,-95.5 162,-95.5 162,-76.5 0,-76.5"/>
<text text-anchor="middle" x="81" y="-83.5" font-family="Helvetica,sans-Serif" font-size="10.00">OLEDMenu::EncoderselDigitLong</text>
</a>
</g>
</g>
<!-- Node23 -->
<g id="node2" class="node"><title>Node23</title>
<g id="a_node2"><a xlink:href="class_o_l_e_d_menu.html#a97b7653ff603ccd69589a2fa9f41344f" target="_top" xlink:title="Change a long value and show in screen title and value.">
<polygon fill="white" stroke="black" points="198,-76.5 198,-95.5 361,-95.5 361,-76.5 198,-76.5"/>
<text text-anchor="middle" x="279.5" y="-83.5" font-family="Helvetica,sans-Serif" font-size="10.00">OLEDMenu::EncoderChangeLong</text>
</a>
</g>
</g>
<!-- Node22&#45;&gt;Node23 -->
<g id="edge1" class="edge"><title>Node22&#45;&gt;Node23</title>
<path fill="none" stroke="midnightblue" d="M162.207,-86C170.674,-86 179.326,-86 187.899,-86"/>
<polygon fill="midnightblue" stroke="midnightblue" points="187.912,-89.5001 197.912,-86 187.912,-82.5001 187.912,-89.5001"/>
</g>
<!-- Node24 -->
<g id="node3" class="node"><title>Node24</title>
<g id="a_node3"><a xlink:href="class_o_l_e_d_menu.html#a1be072ca04eaaacd9475e3c05c0dbb63" target="_top" xlink:title="Erase input area.">
<polygon fill="white" stroke="black" points="406.5,-152.5 406.5,-171.5 543.5,-171.5 543.5,-152.5 406.5,-152.5"/>
<text text-anchor="middle" x="475" y="-159.5" font-family="Helvetica,sans-Serif" font-size="10.00">OLEDMenu::ClearInputArea</text>
</a>
</g>
</g>
<!-- Node23&#45;&gt;Node24 -->
<g id="edge2" class="edge"><title>Node23&#45;&gt;Node24</title>
<path fill="none" stroke="midnightblue" d="M297.367,-95.6803C319.589,-108.097 360.176,-129.622 397,-143 403.851,-145.489 411.161,-147.761 418.447,-149.799"/>
<polygon fill="midnightblue" stroke="midnightblue" points="417.759,-153.238 428.324,-152.433 419.563,-146.474 417.759,-153.238"/>
</g>
<!-- Node25 -->
<g id="node4" class="node"><title>Node25</title>
<g id="a_node4"><a xlink:href="class_o_l_e_d_menu.html#a52b3bbfe971b755192cc07d287b22a32" target="_top" xlink:title="Draw input area.">
<polygon fill="white" stroke="black" points="407,-114.5 407,-133.5 543,-133.5 543,-114.5 407,-114.5"/>
<text text-anchor="middle" x="475" y="-121.5" font-family="Helvetica,sans-Serif" font-size="10.00">OLEDMenu::DrawInputArea</text>
</a>
</g>
</g>
<!-- Node23&#45;&gt;Node25 -->
<g id="edge3" class="edge"><title>Node23&#45;&gt;Node25</title>
<path fill="none" stroke="midnightblue" d="M329.328,-95.589C355.553,-100.739 388.062,-107.123 415.616,-112.534"/>
<polygon fill="midnightblue" stroke="midnightblue" points="415.036,-115.987 425.523,-114.48 416.385,-109.118 415.036,-115.987"/>
</g>
<!-- Node26 -->
<g id="node5" class="node"><title>Node26</title>
<g id="a_node5"><a xlink:href="class_o_l_e_d_menu.html#a6c8d327556271d07a5c39813b4f4d162" target="_top" xlink:title="Print on screen value marking selected character.">
<polygon fill="white" stroke="black" points="412.5,-76.5 412.5,-95.5 537.5,-95.5 537.5,-76.5 412.5,-76.5"/>
<text text-anchor="middle" x="475" y="-83.5" font-family="Helvetica,sans-Serif" font-size="10.00">OLEDMenu::printStrInput</text>
</a>
</g>
</g>
<!-- Node23&#45;&gt;Node26 -->
<g id="edge4" class="edge"><title>Node23&#45;&gt;Node26</title>
<path fill="none" stroke="midnightblue" d="M361.16,-86C374.795,-86 388.869,-86 402.256,-86"/>
<polygon fill="midnightblue" stroke="midnightblue" points="402.342,-89.5001 412.342,-86 402.342,-82.5001 402.342,-89.5001"/>
</g>
<!-- Node27 -->
<g id="node6" class="node"><title>Node27</title>
<g id="a_node6"><a xlink:href="class_o_l_e_d_menu.html#a6e232cb8f72deafb16e8286ef6811faf" target="_top" xlink:title="Change a long value with the encoder.">
<polygon fill="white" stroke="black" points="397,-38.5 397,-57.5 553,-57.5 553,-38.5 397,-38.5"/>
<text text-anchor="middle" x="475" y="-45.5" font-family="Helvetica,sans-Serif" font-size="10.00">OLEDMenu::EncoderChangeVal</text>
</a>
</g>
</g>
<!-- Node23&#45;&gt;Node27 -->
<g id="edge5" class="edge"><title>Node23&#45;&gt;Node27</title>
<path fill="none" stroke="midnightblue" d="M329.328,-76.411C355.553,-71.261 388.062,-64.8768 415.616,-59.4656"/>
<polygon fill="midnightblue" stroke="midnightblue" points="416.385,-62.8815 425.523,-57.5201 415.036,-56.0127 416.385,-62.8815"/>
</g>
<!-- Node28 -->
<g id="node7" class="node"><title>Node28</title>
<g id="a_node7"><a xlink:href="class_o_l_e_d_menu.html#ac64c0d20c81a251a208655e598205055" target="_top" xlink:title="Change a long values digits individually with the encoder. Recommended to adjust bigger numbers.">
<polygon fill="white" stroke="black" points="397.5,-0.5 397.5,-19.5 552.5,-19.5 552.5,-0.5 397.5,-0.5"/>
<text text-anchor="middle" x="475" y="-7.5" font-family="Helvetica,sans-Serif" font-size="10.00">OLEDMenu::EncoderselDigitVal</text>
</a>
</g>
</g>
<!-- Node23&#45;&gt;Node28 -->
<g id="edge6" class="edge"><title>Node23&#45;&gt;Node28</title>
<path fill="none" stroke="midnightblue" d="M297.367,-76.3197C319.589,-63.903 360.176,-42.3783 397,-29 403.851,-26.5111 411.161,-24.2391 418.447,-22.2007"/>
<polygon fill="midnightblue" stroke="midnightblue" points="419.563,-25.5256 428.324,-19.5674 417.759,-18.7619 419.563,-25.5256"/>
</g>
</g>
</svg>
        <g id="navigator" transform="translate(0 0)" fill="#404254">
                <rect fill="#f2f5e9" fill-opacity="0.5" stroke="#606060" stroke-width=".5" x="0" y="0" width="60" height="60"/>
                <use id="zoomplus" xlink:href="#zoomPlus" x="17" y="9" onmousedown="handleZoom(evt,'in')"/>
                <use id="zoomminus" xlink:href="#zoomMin" x="42" y="9" onmousedown="handleZoom(evt,'out')"/>
                <use id="reset" xlink:href="#resetDef" x="30" y="36" onmousedown="handleReset()"/>
                <g id="arrowUp" xlink:href="#dirArrow" transform="translate(30 24)" onmousedown="handlePan(0,-1)">
                  <use xlink:href="#rim" fill="#404040">
                        <set attributeName="fill" to="#808080" begin="arrowUp.mouseover" end="arrowUp.mouseout"/>
                  </use>
                  <path fill="none" stroke="white" stroke-width="1.5" d="M0,-3.0v7 M-2.5,-0.5L0,-3.0L2.5,-0.5"/>
                </g>
                <g id="arrowRight" xlink:href="#dirArrow" transform="rotate(90) translate(36 -43)" onmousedown="handlePan(1,0)">
                  <use xlink:href="#rim" fill="#404040">
                        <set attributeName="fill" to="#808080" begin="arrowRight.mouseover" end="arrowRight.mouseout"/>
                  </use>
                  <path fill="none" stroke="white" stroke-width="1.5" d="M0,-3.0v7 M-2.5,-0.5L0,-3.0L2.5,-0.5"/>
                </g>
                <g id="arrowDown" xlink:href="#dirArrow" transform="rotate(180) translate(-30 -48)" onmousedown="handlePan(0,1)">
                  <use xlink:href="#rim" fill="#404040">
                        <set attributeName="fill" to="#808080" begin="arrowDown.mouseover" end="arrowDown.mouseout"/>
                  </use>
                  <path fill="none" stroke="white" stroke-width="1.5" d="M0,-3.0v7 M-2.5,-0.5L0,-3.0L2.5,-0.5"/>
                </g>
                <g id="arrowLeft" xlink:href="#dirArrow" transform="rotate(270) translate(-36 17)" onmousedown="handlePan(-1,0)">
                  <use xlink:href="#rim" fill="#404040">
                        <set attributeName="fill" to="#808080" begin="arrowLeft.mouseover" end="arrowLeft.mouseout"/>
                  </use>
                  <path fill="none" stroke="white" stroke-width="1.5" d="M0,-3.0v7 M-2.5,-0.5L0,-3.0L2.5,-0.5"/>
                </g>
        </g>
        <svg viewBox="0 0 15 15" width="100%" height="30px" preserveAspectRatio="xMaxYMin meet">
         <g id="arrow_out" transform="scale(0.3 0.3)">
          <a xlink:href="class_o_l_e_d_menu_af603cf3288b91fdec3d97d484704fe6e_cgraph_org.svg" target="_base">
           <rect id="button" ry="5" rx="5" y="6" x="6" height="38" width="38"
                fill="#f2f5e9" fill-opacity="0.5" stroke="#606060" stroke-width="1.0"/>
           <path id="arrow"
             d="M 11.500037,31.436501 C 11.940474,20.09759 22.043105,11.32322 32.158766,21.979434 L 37.068811,17.246167 C 37.068811,17.246167 37.088388,32 37.088388,32 L 22.160133,31.978069 C 22.160133,31.978069 26.997745,27.140456 26.997745,27.140456 C 18.528582,18.264221 13.291696,25.230495 11.500037,31.436501 z"
             style="fill:#404040;"/>
          </a>
         </g>
        </svg>
</svg>
