<?xml version="1.0" encoding="UTF-8" standalone="no"?>
<!DOCTYPE svg PUBLIC "-//W3C//DTD SVG 1.1//EN"
 "http://www.w3.org/Graphics/SVG/1.1/DTD/svg11.dtd">
<!-- Generated by graphviz version 2.38.0 (20140413.2041)
 -->
<!-- Title: DemuxAnalogPort Pages: 1 -->
<svg width="199pt" height="219pt"
 viewBox="0.00 0.00 198.50 219.00" xmlns="http://www.w3.org/2000/svg" xmlns:xlink="http://www.w3.org/1999/xlink">
<g id="graph0" class="graph" transform="scale(1 1) rotate(0) translate(4 215)">
<title>DemuxAnalogPort</title>
<polygon fill="white" stroke="none" points="-4,4 -4,-215 194.5,-215 194.5,4 -4,4"/>
<!-- Node3 -->
<g id="node1" class="node"><title>Node3</title>
<g id="a_node1"><a xlink:title="Class for Muxed analog ports (CV and Faders) Demux will use defines for pins: PINDEMUXA,...">
<polygon fill="#bfbfbf" stroke="black" points="10.5,-0.5 10.5,-19.5 105.5,-19.5 105.5,-0.5 10.5,-0.5"/>
<text text-anchor="middle" x="58" y="-7.5" font-family="Helvetica,sans-Serif" font-size="10.00">DemuxAnalogPort</text>
</a>
</g>
</g>
<!-- Node4 -->
<g id="node2" class="node"><title>Node4</title>
<g id="a_node2"><a xlink:href="class_analog_port.html" target="_top" xlink:title="Class for analog ports (CV and Faders)">
<polygon fill="white" stroke="black" points="25.5,-57.5 25.5,-76.5 90.5,-76.5 90.5,-57.5 25.5,-57.5"/>
<text text-anchor="middle" x="58" y="-64.5" font-family="Helvetica,sans-Serif" font-size="10.00">AnalogPort</text>
</a>
</g>
</g>
<!-- Node4&#45;&gt;Node3 -->
<g id="edge1" class="edge"><title>Node4&#45;&gt;Node3</title>
<path fill="none" stroke="midnightblue" d="M58,-47.1166C58,-37.8173 58,-27.0557 58,-19.7149"/>
<polygon fill="midnightblue" stroke="midnightblue" points="54.5001,-47.4062 58,-57.4063 61.5001,-47.4063 54.5001,-47.4062"/>
</g>
<!-- Node5 -->
<g id="node3" class="node"><title>Node5</title>
<g id="a_node3"><a xlink:href="class_input_port.html" target="_top" xlink:title="Base class for input ports (digital, analog,...)">
<polygon fill="white" stroke="black" points="0,-124.5 0,-143.5 56,-143.5 56,-124.5 0,-124.5"/>
<text text-anchor="middle" x="28" y="-131.5" font-family="Helvetica,sans-Serif" font-size="10.00">InputPort</text>
</a>
</g>
</g>
<!-- Node5&#45;&gt;Node4 -->
<g id="edge2" class="edge"><title>Node5&#45;&gt;Node4</title>
<path fill="none" stroke="midnightblue" d="M36.4046,-114.79C42.1657,-102.308 49.5476,-86.3135 54.0182,-76.6273"/>
<polygon fill="midnightblue" stroke="midnightblue" points="33.0587,-113.687 32.0459,-124.234 39.4144,-116.621 33.0587,-113.687"/>
</g>
<!-- Node6 -->
<g id="node4" class="node"><title>Node6</title>
<g id="a_node4"><a xlink:href="class_an_input_port_cfg.html" target="_top" xlink:title="Analog port configuration class.">
<polygon fill="white" stroke="black" points="74,-124.5 74,-143.5 156,-143.5 156,-124.5 74,-124.5"/>
<text text-anchor="middle" x="115" y="-131.5" font-family="Helvetica,sans-Serif" font-size="10.00">AnInputPortCfg</text>
</a>
</g>
</g>
<!-- Node6&#45;&gt;Node4 -->
<g id="edge3" class="edge"><title>Node6&#45;&gt;Node4</title>
<path fill="none" stroke="#9a32cd" stroke-dasharray="5,2" d="M100.649,-116.635C89.5015,-103.923 74.4842,-86.7978 65.5655,-76.6273"/>
<polygon fill="#9a32cd" stroke="#9a32cd" points="98.0879,-119.023 107.313,-124.234 103.351,-114.408 98.0879,-119.023"/>
<text text-anchor="middle" x="108" y="-98" font-family="Helvetica,sans-Serif" font-size="10.00"> PortCfg</text>
</g>
<!-- Node7 -->
<g id="node5" class="node"><title>Node7</title>
<g id="a_node5"><a xlink:href="class_input_port_cfg.html" target="_top" xlink:title="Base port configuration class.">
<polygon fill="white" stroke="black" points="37,-191.5 37,-210.5 107,-210.5 107,-191.5 37,-191.5"/>
<text text-anchor="middle" x="72" y="-198.5" font-family="Helvetica,sans-Serif" font-size="10.00">InputPortCfg</text>
</a>
</g>
</g>
<!-- Node7&#45;&gt;Node6 -->
<g id="edge4" class="edge"><title>Node7&#45;&gt;Node6</title>
<path fill="none" stroke="midnightblue" d="M83.554,-182.535C91.8793,-169.95 102.757,-153.507 109.293,-143.627"/>
<polygon fill="midnightblue" stroke="midnightblue" points="80.3975,-180.963 77.7992,-191.234 86.2356,-184.825 80.3975,-180.963"/>
</g>
<!-- Node8 -->
<g id="node6" class="node"><title>Node8</title>
<g id="a_node6"><a xlink:href="class_range_conv.html" target="_top" xlink:title=" ">
<polygon fill="white" stroke="black" points="125.5,-191.5 125.5,-210.5 190.5,-210.5 190.5,-191.5 125.5,-191.5"/>
<text text-anchor="middle" x="158" y="-198.5" font-family="Helvetica,sans-Serif" font-size="10.00">RangeConv</text>
</a>
</g>
</g>
<!-- Node8&#45;&gt;Node6 -->
<g id="edge5" class="edge"><title>Node8&#45;&gt;Node6</title>
<path fill="none" stroke="#9a32cd" stroke-dasharray="5,2" d="M146.446,-182.535C138.121,-169.95 127.243,-153.507 120.707,-143.627"/>
<polygon fill="#9a32cd" stroke="#9a32cd" points="143.764,-184.825 152.201,-191.234 149.603,-180.963 143.764,-184.825"/>
<text text-anchor="middle" x="157.5" y="-165" font-family="Helvetica,sans-Serif" font-size="10.00"> Ranges</text>
</g>
</g>
</svg>
