<?xml version="1.0" encoding="UTF-8" standalone="no"?>
<!DOCTYPE svg PUBLIC "-//W3C//DTD SVG 1.1//EN"
 "http://www.w3.org/Graphics/SVG/1.1/DTD/svg11.dtd">
<!-- Generated by graphviz version 2.38.0 (20140413.2041)
 -->
<!-- Title: VCMCApp Pages: 1 -->
<svg width="567pt" height="374pt"
 viewBox="0.00 0.00 567.00 374.00" xmlns="http://www.w3.org/2000/svg" xmlns:xlink="http://www.w3.org/1999/xlink">
<g id="graph0" class="graph" transform="scale(1 1) rotate(0) translate(4 370)">
<title>VCMCApp</title>
<polygon fill="white" stroke="none" points="-4,4 -4,-370 563,-370 563,4 -4,4"/>
<!-- Node1 -->
<g id="node1" class="node"><title>Node1</title>
<g id="a_node1"><a xlink:title="Main Class for the VCMC Application.">
<polygon fill="#bfbfbf" stroke="black" points="172.5,-0.5 172.5,-19.5 234.5,-19.5 234.5,-0.5 172.5,-0.5"/>
<text text-anchor="middle" x="203.5" y="-7.5" font-family="Helvetica,sans-Serif" font-size="10.00">VCMCApp</text>
</a>
</g>
</g>
<!-- Node2 -->
<g id="node2" class="node"><title>Node2</title>
<g id="a_node2"><a xlink:href="class_global_cfg.html" target="_top" xlink:title="Global Configuration for VCMC module.">
<polygon fill="white" stroke="black" points="0,-67.5 0,-86.5 59,-86.5 59,-67.5 0,-67.5"/>
<text text-anchor="middle" x="29.5" y="-74.5" font-family="Helvetica,sans-Serif" font-size="10.00">GlobalCfg</text>
</a>
</g>
</g>
<!-- Node2&#45;&gt;Node1 -->
<g id="edge1" class="edge"><title>Node2&#45;&gt;Node1</title>
<path fill="none" stroke="#9a32cd" stroke-dasharray="5,2" d="M45.8724,-60.6318C55.1024,-52.7592 67.22,-43.6636 79.5,-38 109.31,-24.2514 146.426,-17.3605 172.244,-14.002"/>
<polygon fill="#9a32cd" stroke="#9a32cd" points="43.4285,-58.1214 38.2858,-67.3844 48.0826,-63.3502 43.4285,-58.1214"/>
<text text-anchor="middle" x="109" y="-41" font-family="Helvetica,sans-Serif" font-size="10.00"> theGlobalCfg</text>
</g>
<!-- Node3 -->
<g id="node3" class="node"><title>Node3</title>
<g id="a_node3"><a xlink:href="class_m_i_d_imerger.html" target="_top" xlink:title="Class support for Serial MIDI and USB MIDI.">
<polygon fill="white" stroke="black" points="77.5,-67.5 77.5,-86.5 143.5,-86.5 143.5,-67.5 77.5,-67.5"/>
<text text-anchor="middle" x="110.5" y="-74.5" font-family="Helvetica,sans-Serif" font-size="10.00">MIDImerger</text>
</a>
</g>
</g>
<!-- Node3&#45;&gt;Node1 -->
<g id="edge2" class="edge"><title>Node3&#45;&gt;Node1</title>
<path fill="none" stroke="#9a32cd" stroke-dasharray="5,2" d="M127.647,-60.6617C136.074,-53.4331 146.538,-44.9025 156.5,-38 166.246,-31.247 177.784,-24.6008 186.989,-19.5921"/>
<polygon fill="#9a32cd" stroke="#9a32cd" points="125.222,-58.1329 119.993,-67.3479 129.827,-63.4046 125.222,-58.1329"/>
<text text-anchor="middle" x="178" y="-41" font-family="Helvetica,sans-Serif" font-size="10.00"> MidiMerg</text>
</g>
<!-- Node4 -->
<g id="node4" class="node"><title>Node4</title>
<g id="a_node4"><a xlink:href="class_save_load_class.html" target="_top" xlink:title="Save and Load to EEPROM and SysEx.">
<polygon fill="white" stroke="black" points="162,-67.5 162,-86.5 245,-86.5 245,-67.5 162,-67.5"/>
<text text-anchor="middle" x="203.5" y="-74.5" font-family="Helvetica,sans-Serif" font-size="10.00">SaveLoadClass</text>
</a>
</g>
</g>
<!-- Node4&#45;&gt;Node1 -->
<g id="edge3" class="edge"><title>Node4&#45;&gt;Node1</title>
<path fill="none" stroke="#9a32cd" stroke-dasharray="5,2" d="M203.5,-57.037C203.5,-44.6703 203.5,-29.1198 203.5,-19.6273"/>
<polygon fill="#9a32cd" stroke="#9a32cd" points="200,-57.2338 203.5,-67.2338 207,-57.2338 200,-57.2338"/>
<text text-anchor="middle" x="226" y="-41" font-family="Helvetica,sans-Serif" font-size="10.00"> FlashAcc</text>
</g>
<!-- Node5 -->
<g id="node5" class="node"><title>Node5</title>
<g id="a_node5"><a xlink:href="class_o_l_e_d_menu.html" target="_top" xlink:title="Menu Class to handle encoder and OLED screen.">
<polygon fill="white" stroke="black" points="263,-67.5 263,-86.5 330,-86.5 330,-67.5 263,-67.5"/>
<text text-anchor="middle" x="296.5" y="-74.5" font-family="Helvetica,sans-Serif" font-size="10.00">OLEDMenu</text>
</a>
</g>
</g>
<!-- Node5&#45;&gt;Node1 -->
<g id="edge4" class="edge"><title>Node5&#45;&gt;Node1</title>
<path fill="none" stroke="#9a32cd" stroke-dasharray="5,2" d="M279.992,-60.2957C272.008,-53.0855 262.092,-44.6754 252.5,-38 242.614,-31.1202 230.809,-24.5705 221.263,-19.6452"/>
<polygon fill="#9a32cd" stroke="#9a32cd" points="277.8,-63.0354 287.52,-67.2522 282.551,-57.8946 277.8,-63.0354"/>
<text text-anchor="middle" x="282" y="-41" font-family="Helvetica,sans-Serif" font-size="10.00"> vMenu</text>
</g>
<!-- Node6 -->
<g id="node6" class="node"><title>Node6</title>
<g id="a_node6"><a xlink:href="class_menu_class.html" target="_top" xlink:title=" ">
<polygon fill="white" stroke="black" points="214,-145.5 214,-164.5 279,-164.5 279,-145.5 214,-145.5"/>
<text text-anchor="middle" x="246.5" y="-152.5" font-family="Helvetica,sans-Serif" font-size="10.00">MenuClass</text>
</a>
</g>
</g>
<!-- Node6&#45;&gt;Node5 -->
<g id="edge5" class="edge"><title>Node6&#45;&gt;Node5</title>
<path fill="none" stroke="midnightblue" d="M257.97,-136.565C268.244,-120.949 282.881,-98.7002 290.831,-86.6165"/>
<polygon fill="midnightblue" stroke="midnightblue" points="254.808,-135.004 252.236,-145.282 260.656,-138.851 254.808,-135.004"/>
</g>
<!-- Node7 -->
<g id="node7" class="node"><title>Node7</title>
<g id="a_node7"><a xlink:href="class_menu_list.html" target="_top" xlink:title=" ">
<polygon fill="white" stroke="black" points="201.5,-212.5 201.5,-231.5 257.5,-231.5 257.5,-212.5 201.5,-212.5"/>
<text text-anchor="middle" x="229.5" y="-219.5" font-family="Helvetica,sans-Serif" font-size="10.00">MenuList</text>
</a>
</g>
</g>
<!-- Node7&#45;&gt;Node6 -->
<g id="edge6" class="edge"><title>Node7&#45;&gt;Node6</title>
<path fill="none" stroke="#9a32cd" stroke-dasharray="5,2" d="M234.361,-202.415C237.611,-189.988 241.736,-174.217 244.244,-164.627"/>
<polygon fill="#9a32cd" stroke="#9a32cd" points="230.937,-201.674 231.793,-212.234 237.709,-203.445 230.937,-201.674"/>
<text text-anchor="middle" x="268.5" y="-186" font-family="Helvetica,sans-Serif" font-size="10.00"> currentMenu</text>
</g>
<!-- Node8 -->
<g id="node8" class="node"><title>Node8</title>
<g id="a_node8"><a xlink:href="struct_menu_item__t.html" target="_top" xlink:title=" ">
<polygon fill="white" stroke="black" points="170.5,-279.5 170.5,-298.5 238.5,-298.5 238.5,-279.5 170.5,-279.5"/>
<text text-anchor="middle" x="204.5" y="-286.5" font-family="Helvetica,sans-Serif" font-size="10.00">MenuItem_t</text>
</a>
</g>
</g>
<!-- Node8&#45;&gt;Node7 -->
<g id="edge7" class="edge"><title>Node8&#45;&gt;Node7</title>
<path fill="none" stroke="#9a32cd" stroke-dasharray="5,2" d="M211.504,-269.79C216.305,-257.308 222.456,-241.314 226.182,-231.627"/>
<polygon fill="#9a32cd" stroke="#9a32cd" points="208.195,-268.644 207.872,-279.234 214.728,-271.157 208.195,-268.644"/>
<text text-anchor="middle" x="244.5" y="-253" font-family="Helvetica,sans-Serif" font-size="10.00"> menuItems</text>
</g>
<!-- Node9 -->
<g id="node9" class="node"><title>Node9</title>
<g id="a_node9"><a xlink:href="class_input_control.html" target="_top" xlink:title="InputControl class provides the core functionaly for each block of CV, Fader and Gate The function In...">
<polygon fill="white" stroke="black" points="380.5,-67.5 380.5,-86.5 448.5,-86.5 448.5,-67.5 380.5,-67.5"/>
<text text-anchor="middle" x="414.5" y="-74.5" font-family="Helvetica,sans-Serif" font-size="10.00">InputControl</text>
</a>
</g>
</g>
<!-- Node9&#45;&gt;Node1 -->
<g id="edge8" class="edge"><title>Node9&#45;&gt;Node1</title>
<path fill="none" stroke="#9a32cd" stroke-dasharray="5,2" d="M380.679,-64.0791C358.309,-56.3302 328.277,-46.1842 301.5,-38 279.222,-31.191 253.863,-24.2254 234.523,-19.0749"/>
<polygon fill="#9a32cd" stroke="#9a32cd" points="379.783,-67.4734 390.378,-67.4551 382.085,-60.8624 379.783,-67.4734"/>
<text text-anchor="middle" x="355.5" y="-41" font-family="Helvetica,sans-Serif" font-size="10.00"> Controls</text>
</g>
<!-- Node10 -->
<g id="node10" class="node"><title>Node10</title>
<g id="a_node10"><a xlink:href="class_input_ctrl_cfg.html" target="_top" xlink:title="InputControl configuration.">
<polygon fill="white" stroke="black" points="489,-145.5 489,-164.5 556,-164.5 556,-145.5 489,-145.5"/>
<text text-anchor="middle" x="522.5" y="-152.5" font-family="Helvetica,sans-Serif" font-size="10.00">InputCtrlCfg</text>
</a>
</g>
</g>
<!-- Node10&#45;&gt;Node9 -->
<g id="edge9" class="edge"><title>Node10&#45;&gt;Node9</title>
<path fill="none" stroke="#9a32cd" stroke-dasharray="5,2" d="M501.695,-139.36C479.464,-123.715 444.969,-99.4411 426.744,-86.6165"/>
<polygon fill="#9a32cd" stroke="#9a32cd" points="499.919,-142.389 510.111,-145.282 503.947,-136.665 499.919,-142.389"/>
<text text-anchor="middle" x="496" y="-113.5" font-family="Helvetica,sans-Serif" font-size="10.00"> Config</text>
</g>
<!-- Node11 -->
<g id="node11" class="node"><title>Node11</title>
<g id="a_node11"><a xlink:href="class_demux_analog_port.html" target="_top" xlink:title="Class for Muxed analog ports (CV and Faders) Demux will use defines for pins: PINDEMUXA,...">
<polygon fill="white" stroke="black" points="299,-145.5 299,-164.5 394,-164.5 394,-145.5 299,-145.5"/>
<text text-anchor="middle" x="346.5" y="-152.5" font-family="Helvetica,sans-Serif" font-size="10.00">DemuxAnalogPort</text>
</a>
</g>
</g>
<!-- Node11&#45;&gt;Node9 -->
<g id="edge10" class="edge"><title>Node11&#45;&gt;Node9</title>
<path fill="none" stroke="#9a32cd" stroke-dasharray="5,2" d="M357.244,-136.667C363.697,-126.885 372.402,-114.714 381.5,-105 387.876,-98.1924 395.97,-91.5453 402.546,-86.5499"/>
<polygon fill="#9a32cd" stroke="#9a32cd" points="354.254,-134.846 351.808,-145.155 360.148,-138.621 354.254,-134.846"/>
<text text-anchor="middle" x="399" y="-119" font-family="Helvetica,sans-Serif" font-size="10.00"> CVPort</text>
<text text-anchor="middle" x="399" y="-108" font-family="Helvetica,sans-Serif" font-size="10.00">Slider</text>
</g>
<!-- Node12 -->
<g id="node12" class="node"><title>Node12</title>
<g id="a_node12"><a xlink:href="class_analog_port.html" target="_top" xlink:title="Class for analog ports (CV and Faders)">
<polygon fill="white" stroke="black" points="314,-212.5 314,-231.5 379,-231.5 379,-212.5 314,-212.5"/>
<text text-anchor="middle" x="346.5" y="-219.5" font-family="Helvetica,sans-Serif" font-size="10.00">AnalogPort</text>
</a>
</g>
</g>
<!-- Node12&#45;&gt;Node11 -->
<g id="edge11" class="edge"><title>Node12&#45;&gt;Node11</title>
<path fill="none" stroke="midnightblue" d="M346.5,-202.037C346.5,-189.67 346.5,-174.12 346.5,-164.627"/>
<polygon fill="midnightblue" stroke="midnightblue" points="343,-202.234 346.5,-212.234 350,-202.234 343,-202.234"/>
</g>
<!-- Node13 -->
<g id="node13" class="node"><title>Node13</title>
<g id="a_node13"><a xlink:href="class_input_port.html" target="_top" xlink:title="Base class for input ports (digital, analog,...)">
<polygon fill="white" stroke="black" points="356.5,-279.5 356.5,-298.5 412.5,-298.5 412.5,-279.5 356.5,-279.5"/>
<text text-anchor="middle" x="384.5" y="-286.5" font-family="Helvetica,sans-Serif" font-size="10.00">InputPort</text>
</a>
</g>
</g>
<!-- Node13&#45;&gt;Node12 -->
<g id="edge12" class="edge"><title>Node13&#45;&gt;Node12</title>
<path fill="none" stroke="midnightblue" d="M374.29,-270.535C366.932,-257.95 357.32,-241.507 351.544,-231.627"/>
<polygon fill="midnightblue" stroke="midnightblue" points="371.307,-272.367 379.375,-279.234 377.35,-268.834 371.307,-272.367"/>
</g>
<!-- Node17 -->
<g id="node17" class="node"><title>Node17</title>
<g id="a_node17"><a xlink:href="class_digital_port.html" target="_top" xlink:title="Class for digital ports (Gates)">
<polygon fill="white" stroke="black" points="406.5,-212.5 406.5,-231.5 468.5,-231.5 468.5,-212.5 406.5,-212.5"/>
<text text-anchor="middle" x="437.5" y="-219.5" font-family="Helvetica,sans-Serif" font-size="10.00">DigitalPort</text>
</a>
</g>
</g>
<!-- Node13&#45;&gt;Node17 -->
<g id="edge17" class="edge"><title>Node13&#45;&gt;Node17</title>
<path fill="none" stroke="midnightblue" d="M398.141,-271.27C408.475,-258.597 422.252,-241.701 430.465,-231.627"/>
<polygon fill="midnightblue" stroke="midnightblue" points="395.255,-269.272 391.648,-279.234 400.68,-273.695 395.255,-269.272"/>
</g>
<!-- Node14 -->
<g id="node14" class="node"><title>Node14</title>
<g id="a_node14"><a xlink:href="class_an_input_port_cfg.html" target="_top" xlink:title="Analog port configuration class.">
<polygon fill="white" stroke="black" points="256.5,-279.5 256.5,-298.5 338.5,-298.5 338.5,-279.5 256.5,-279.5"/>
<text text-anchor="middle" x="297.5" y="-286.5" font-family="Helvetica,sans-Serif" font-size="10.00">AnInputPortCfg</text>
</a>
</g>
</g>
<!-- Node14&#45;&gt;Node12 -->
<g id="edge13" class="edge"><title>Node14&#45;&gt;Node12</title>
<path fill="none" stroke="#9a32cd" stroke-dasharray="5,2" d="M308.253,-270.51C312.49,-263.934 317.527,-256.483 322.5,-250 327.386,-243.63 333.386,-236.88 338.164,-231.723"/>
<polygon fill="#9a32cd" stroke="#9a32cd" points="305.083,-268.977 302.719,-279.305 311.007,-272.706 305.083,-268.977"/>
<text text-anchor="middle" x="340.5" y="-253" font-family="Helvetica,sans-Serif" font-size="10.00"> PortCfg</text>
</g>
<!-- Node15 -->
<g id="node15" class="node"><title>Node15</title>
<g id="a_node15"><a xlink:href="class_input_port_cfg.html" target="_top" xlink:title="Base port configuration class.">
<polygon fill="white" stroke="black" points="368.5,-346.5 368.5,-365.5 438.5,-365.5 438.5,-346.5 368.5,-346.5"/>
<text text-anchor="middle" x="403.5" y="-353.5" font-family="Helvetica,sans-Serif" font-size="10.00">InputPortCfg</text>
</a>
</g>
</g>
<!-- Node15&#45;&gt;Node14 -->
<g id="edge14" class="edge"><title>Node15&#45;&gt;Node14</title>
<path fill="none" stroke="midnightblue" d="M380.575,-340.942C359.583,-328.07 329.182,-309.427 311.569,-298.627"/>
<polygon fill="midnightblue" stroke="midnightblue" points="378.85,-343.99 389.204,-346.234 382.509,-338.023 378.85,-343.99"/>
</g>
<!-- Node18 -->
<g id="node18" class="node"><title>Node18</title>
<g id="a_node18"><a xlink:href="class_dig_port_cfg.html" target="_top" xlink:title="Digital port configuration class.">
<polygon fill="white" stroke="black" points="431,-279.5 431,-298.5 494,-298.5 494,-279.5 431,-279.5"/>
<text text-anchor="middle" x="462.5" y="-286.5" font-family="Helvetica,sans-Serif" font-size="10.00">DigPortCfg</text>
</a>
</g>
</g>
<!-- Node15&#45;&gt;Node18 -->
<g id="edge19" class="edge"><title>Node15&#45;&gt;Node18</title>
<path fill="none" stroke="midnightblue" d="M418.355,-338.635C429.893,-325.923 445.437,-308.798 454.669,-298.627"/>
<polygon fill="midnightblue" stroke="midnightblue" points="415.586,-336.477 411.457,-346.234 420.77,-341.182 415.586,-336.477"/>
</g>
<!-- Node16 -->
<g id="node16" class="node"><title>Node16</title>
<g id="a_node16"><a xlink:href="class_range_conv.html" target="_top" xlink:title=" ">
<polygon fill="white" stroke="black" points="265,-346.5 265,-365.5 330,-365.5 330,-346.5 265,-346.5"/>
<text text-anchor="middle" x="297.5" y="-353.5" font-family="Helvetica,sans-Serif" font-size="10.00">RangeConv</text>
</a>
</g>
</g>
<!-- Node16&#45;&gt;Node14 -->
<g id="edge15" class="edge"><title>Node16&#45;&gt;Node14</title>
<path fill="none" stroke="#9a32cd" stroke-dasharray="5,2" d="M297.5,-336.037C297.5,-323.67 297.5,-308.12 297.5,-298.627"/>
<polygon fill="#9a32cd" stroke="#9a32cd" points="294,-336.234 297.5,-346.234 301,-336.234 294,-336.234"/>
<text text-anchor="middle" x="316" y="-320" font-family="Helvetica,sans-Serif" font-size="10.00"> Ranges</text>
</g>
<!-- Node17&#45;&gt;Node9 -->
<g id="edge16" class="edge"><title>Node17&#45;&gt;Node9</title>
<path fill="none" stroke="#9a32cd" stroke-dasharray="5,2" d="M434.526,-202.509C429.509,-171.314 419.552,-109.409 415.892,-86.6532"/>
<polygon fill="#9a32cd" stroke="#9a32cd" points="431.086,-203.166 436.13,-212.483 437.998,-202.054 431.086,-203.166"/>
<text text-anchor="middle" x="447.5" y="-152.5" font-family="Helvetica,sans-Serif" font-size="10.00"> GateBut</text>
</g>
<!-- Node18&#45;&gt;Node17 -->
<g id="edge18" class="edge"><title>Node18&#45;&gt;Node17</title>
<path fill="none" stroke="#9a32cd" stroke-dasharray="5,2" d="M455.496,-269.79C450.695,-257.308 444.544,-241.314 440.818,-231.627"/>
<polygon fill="#9a32cd" stroke="#9a32cd" points="452.272,-271.157 459.128,-279.234 458.805,-268.644 452.272,-271.157"/>
<text text-anchor="middle" x="468.5" y="-253" font-family="Helvetica,sans-Serif" font-size="10.00"> PortCfg</text>
</g>
<!-- Node19 -->
<g id="node19" class="node"><title>Node19</title>
<g id="a_node19"><a xlink:href="class_blinker.html" target="_top" xlink:title="Class helper to blink led.">
<polygon fill="white" stroke="black" points="512,-279.5 512,-298.5 559,-298.5 559,-279.5 512,-279.5"/>
<text text-anchor="middle" x="535.5" y="-286.5" font-family="Helvetica,sans-Serif" font-size="10.00">Blinker</text>
</a>
</g>
</g>
<!-- Node19&#45;&gt;Node17 -->
<g id="edge20" class="edge"><title>Node19&#45;&gt;Node17</title>
<path fill="none" stroke="#9a32cd" stroke-dasharray="5,2" d="M519.236,-272.69C510.985,-265.343 500.594,-256.703 490.5,-250 479.919,-242.973 467.271,-236.466 456.984,-231.601"/>
<polygon fill="#9a32cd" stroke="#9a32cd" points="516.937,-275.33 526.682,-279.487 521.656,-270.16 516.937,-275.33"/>
<text text-anchor="middle" x="525.5" y="-253" font-family="Helvetica,sans-Serif" font-size="10.00"> blinkPort</text>
</g>
</g>
</svg>
