<?xml version="1.0" encoding="UTF-8" standalone="no"?>
<!DOCTYPE svg PUBLIC "-//W3C//DTD SVG 1.1//EN"
 "http://www.w3.org/Graphics/SVG/1.1/DTD/svg11.dtd">
<!-- Generated by graphviz version 2.38.0 (20140413.2041)
 -->
<!-- Title: OLEDMenu::EncoderChangeStr Pages: 1 -->
<svg width="336pt" height="66pt"
 viewBox="0.00 0.00 336.00 66.00" xmlns="http://www.w3.org/2000/svg" xmlns:xlink="http://www.w3.org/1999/xlink">
<g id="graph0" class="graph" transform="scale(1 1) rotate(0) translate(4 62)">
<title>OLEDMenu::EncoderChangeStr</title>
<polygon fill="white" stroke="none" points="-4,4 -4,-62 332,-62 332,4 -4,4"/>
<!-- Node2 -->
<g id="node1" class="node"><title>Node2</title>
<g id="a_node1"><a xlink:title="Change input string chars indiviadully and show in screen title and value.">
<polygon fill="#bfbfbf" stroke="black" points="0,-19.5 0,-38.5 155,-38.5 155,-19.5 0,-19.5"/>
<text text-anchor="middle" x="77.5" y="-26.5" font-family="Helvetica,sans-Serif" font-size="10.00">OLEDMenu::EncoderChangeStr</text>
</a>
</g>
</g>
<!-- Node3 -->
<g id="node2" class="node"><title>Node3</title>
<g id="a_node2"><a xlink:href="class_o_l_e_d_menu.html#a1be072ca04eaaacd9475e3c05c0dbb63" target="_top" xlink:title="Erase input area.">
<polygon fill="white" stroke="black" points="191,-38.5 191,-57.5 328,-57.5 328,-38.5 191,-38.5"/>
<text text-anchor="middle" x="259.5" y="-45.5" font-family="Helvetica,sans-Serif" font-size="10.00">OLEDMenu::ClearInputArea</text>
</a>
</g>
</g>
<!-- Node2&#45;&gt;Node3 -->
<g id="edge1" class="edge"><title>Node2&#45;&gt;Node3</title>
<path fill="none" stroke="midnightblue" d="M155.097,-37.0853C163.533,-37.9757 172.129,-38.883 180.58,-39.7751"/>
<polygon fill="midnightblue" stroke="midnightblue" points="180.484,-43.2844 190.796,-40.8535 181.219,-36.323 180.484,-43.2844"/>
</g>
<!-- Node4 -->
<g id="node3" class="node"><title>Node4</title>
<g id="a_node3"><a xlink:href="class_o_l_e_d_menu.html#a52b3bbfe971b755192cc07d287b22a32" target="_top" xlink:title="Draw input area.">
<polygon fill="white" stroke="black" points="191.5,-0.5 191.5,-19.5 327.5,-19.5 327.5,-0.5 191.5,-0.5"/>
<text text-anchor="middle" x="259.5" y="-7.5" font-family="Helvetica,sans-Serif" font-size="10.00">OLEDMenu::DrawInputArea</text>
</a>
</g>
</g>
<!-- Node2&#45;&gt;Node4 -->
<g id="edge2" class="edge"><title>Node2&#45;&gt;Node4</title>
<path fill="none" stroke="midnightblue" d="M155.097,-20.9147C163.763,-20 172.598,-19.0674 181.272,-18.1519"/>
<polygon fill="midnightblue" stroke="midnightblue" points="181.782,-21.6175 191.36,-17.087 181.047,-14.6562 181.782,-21.6175"/>
</g>
</g>
</svg>
