<?xml version="1.0" encoding="UTF-8" standalone="no"?>
<!DOCTYPE svg PUBLIC "-//W3C//DTD SVG 1.1//EN"
 "http://www.w3.org/Graphics/SVG/1.1/DTD/svg11.dtd">
<!-- Generated by graphviz version 2.38.0 (20140413.2041)
 -->
<!-- Title: OSCmerger Pages: 1 -->
<svg width="129pt" height="152pt"
 viewBox="0.00 0.00 129.00 152.00" xmlns="http://www.w3.org/2000/svg" xmlns:xlink="http://www.w3.org/1999/xlink">
<g id="graph0" class="graph" transform="scale(1 1) rotate(0) translate(4 148)">
<title>OSCmerger</title>
<polygon fill="white" stroke="none" points="-4,4 -4,-148 125,-148 125,4 -4,4"/>
<!-- Node1 -->
<g id="node1" class="node"><title>Node1</title>
<g id="a_node1"><a xlink:title="Class for OSC I/O management.">
<polygon fill="#bfbfbf" stroke="black" points="26.5,-0.5 26.5,-19.5 94.5,-19.5 94.5,-0.5 26.5,-0.5"/>
<text text-anchor="middle" x="60.5" y="-7.5" font-family="Helvetica,sans-Serif" font-size="10.00">OSCmerger</text>
</a>
</g>
</g>
<!-- Node2 -->
<g id="node2" class="node"><title>Node2</title>
<g id="a_node2"><a xlink:href="class_s_l_i_p_encoded_u_s_b_serial.html" target="_top" xlink:title=" ">
<polygon fill="white" stroke="black" points="0,-67.5 0,-86.5 121,-86.5 121,-67.5 0,-67.5"/>
<text text-anchor="middle" x="60.5" y="-74.5" font-family="Helvetica,sans-Serif" font-size="10.00">SLIPEncodedUSBSerial</text>
</a>
</g>
</g>
<!-- Node2&#45;&gt;Node1 -->
<g id="edge1" class="edge"><title>Node2&#45;&gt;Node1</title>
<path fill="none" stroke="#9a32cd" stroke-dasharray="5,2" d="M60.5,-57.037C60.5,-44.6703 60.5,-29.1198 60.5,-19.6273"/>
<polygon fill="#9a32cd" stroke="#9a32cd" points="57.0001,-57.2338 60.5,-67.2338 64.0001,-57.2338 57.0001,-57.2338"/>
<text text-anchor="middle" x="85" y="-41" font-family="Helvetica,sans-Serif" font-size="10.00"> SLIPSerial</text>
</g>
<!-- Node3 -->
<g id="node3" class="node"><title>Node3</title>
<g id="a_node3"><a xlink:title=" ">
<polygon fill="white" stroke="#bfbfbf" points="36.5,-124.5 36.5,-143.5 84.5,-143.5 84.5,-124.5 36.5,-124.5"/>
<text text-anchor="middle" x="60.5" y="-131.5" font-family="Helvetica,sans-Serif" font-size="10.00">Stream</text>
</a>
</g>
</g>
<!-- Node3&#45;&gt;Node2 -->
<g id="edge2" class="edge"><title>Node3&#45;&gt;Node2</title>
<path fill="none" stroke="midnightblue" d="M60.5,-114.117C60.5,-104.817 60.5,-94.0557 60.5,-86.7149"/>
<polygon fill="midnightblue" stroke="midnightblue" points="57.0001,-114.406 60.5,-124.406 64.0001,-114.406 57.0001,-114.406"/>
</g>
</g>
</svg>
