<?xml version="1.0" encoding="UTF-8" standalone="no"?>
<!DOCTYPE svg PUBLIC "-//W3C//DTD SVG 1.1//EN"
 "http://www.w3.org/Graphics/SVG/1.1/DTD/svg11.dtd">
<!-- Generated by graphviz version 2.38.0 (20140413.2041)
 -->
<!-- Title: OLEDMenu::displayMenuConfig Pages: 1 -->
<!--zoomable 192 -->
<svg id="main" version="1.1" xmlns="http://www.w3.org/2000/svg" xmlns:xlink="http://www.w3.org/1999/xlink" xml:space="preserve" onload="init(evt)">
<style type="text/css"><![CDATA[
.edge:hover path { stroke: red; }
.edge:hover polygon { stroke: red; fill: red; }
]]></style>
<script type="text/javascript"><![CDATA[
var edges = document.getElementsByTagName('g');
if (edges && edges.length) {
  for (var i=0;i<edges.length;i++) {
    if (edges[i].id.substr(0,4)=='edge') {
      edges[i].setAttribute('class','edge');
    }
  }
}
]]></script>
        <defs>
                <circle id="rim" cx="0" cy="0" r="7"/>
                <circle id="rim2" cx="0" cy="0" r="3.5"/>
                <g id="zoomPlus">
                        <use xlink:href="#rim" fill="#404040">
                                <set attributeName="fill" to="#808080" begin="zoomplus.mouseover" end="zoomplus.mouseout"/>
                        </use>
                        <path d="M-4,0h8M0,-4v8" fill="none" stroke="white" stroke-width="1.5" pointer-events="none"/>
                </g>
                <g id="zoomMin">
                        <use xlink:href="#rim" fill="#404040">
                                <set attributeName="fill" to="#808080" begin="zoomminus.mouseover" end="zoomminus.mouseout"/>
                        </use>
                        <path d="M-4,0h8" fill="none" stroke="white" stroke-width="1.5" pointer-events="none"/>
                </g>
                <g id="dirArrow">
                        <path fill="none" stroke="white" stroke-width="1.5" d="M0,-3.0v7 M-2.5,-0.5L0,-3.0L2.5,-0.5"/>
                </g>
               <g id="resetDef">
                       <use xlink:href="#rim2" fill="#404040">
                               <set attributeName="fill" to="#808080" begin="reset.mouseover" end="reset.mouseout"/>
                       </use>
               </g>
        </defs>

<script type="text/javascript">
var viewWidth = 693;
var viewHeight = 192;
var sectionId = 'dynsection-9';
</script>
<script xlink:href="svgpan.js"/>
<svg id="graph" class="graph">
<g id="viewport">
<title>OLEDMenu::displayMenuConfig</title>
<polygon fill="white" stroke="none" points="-4,4 -4,-187.5 689,-187.5 689,4 -4,4"/>
<!-- Node28 -->
<g id="node1" class="node"><title>Node28</title>
<g id="a_node1"><a xlink:title="Show Ports configuration data.">
<polygon fill="#bfbfbf" stroke="black" points="0,-76.5 0,-95.5 155,-95.5 155,-76.5 0,-76.5"/>
<text text-anchor="middle" x="77.5" y="-83.5" font-family="Helvetica,sans-Serif" font-size="10.00">OLEDMenu::displayMenuConfig</text>
</a>
</g>
</g>
<!-- Node29 -->
<g id="node2" class="node"><title>Node29</title>
<g id="a_node2"><a xlink:href="group___menu_class.html#ga41842f90a67e0be0755c9f8c08b90ec6" target="_top" xlink:title="Show Header Info for Bank Selected.">
<polygon fill="white" stroke="black" points="193.5,-153 193.5,-183 343.5,-183 343.5,-153 193.5,-153"/>
<text text-anchor="start" x="201.5" y="-171" font-family="Helvetica,sans-Serif" font-size="10.00">OLEDMenu::displayMenuBank</text>
<text text-anchor="middle" x="268.5" y="-160" font-family="Helvetica,sans-Serif" font-size="10.00">Header</text>
</a>
</g>
</g>
<!-- Node28&#45;&gt;Node29 -->
<g id="edge1" class="edge"><title>Node28&#45;&gt;Node29</title>
<path fill="none" stroke="midnightblue" d="M95.2718,-95.5219C116.929,-107.576 156.001,-128.515 191,-143 196.459,-145.259 202.201,-147.454 207.984,-149.544"/>
<polygon fill="midnightblue" stroke="midnightblue" points="207.119,-152.95 217.713,-152.956 209.435,-146.344 207.119,-152.95"/>
</g>
<!-- Node30 -->
<g id="node3" class="node"><title>Node30</title>
<g id="a_node3"><a xlink:href="group___menu_class.html#ga2a71482de2c0b8326ac09c62f5e68148" target="_top" xlink:title="Display in OLED the configuration for Bank (CV+Fader+Gate)">
<polygon fill="white" stroke="black" points="192,-114.5 192,-133.5 345,-133.5 345,-114.5 192,-114.5"/>
<text text-anchor="middle" x="268.5" y="-121.5" font-family="Helvetica,sans-Serif" font-size="10.00">OLEDMenu::displayBankConfig</text>
</a>
</g>
</g>
<!-- Node28&#45;&gt;Node30 -->
<g id="edge2" class="edge"><title>Node28&#45;&gt;Node30</title>
<path fill="none" stroke="midnightblue" d="M126.193,-95.589C151.695,-100.716 183.282,-107.067 210.12,-112.463"/>
<polygon fill="midnightblue" stroke="midnightblue" points="209.657,-115.94 220.15,-114.48 211.036,-109.077 209.657,-115.94"/>
</g>
<!-- Node31 -->
<g id="node4" class="node"><title>Node31</title>
<g id="a_node4"><a xlink:href="group___menu_class.html#ga2968dc79d00a7a7acc4bce511319cd50" target="_top" xlink:title="Display in OLED the configuration for Gate port.">
<polygon fill="white" stroke="black" points="382,-76.5 382,-95.5 534,-95.5 534,-76.5 382,-76.5"/>
<text text-anchor="middle" x="458" y="-83.5" font-family="Helvetica,sans-Serif" font-size="10.00">OLEDMenu::displayGateConfig</text>
</a>
</g>
</g>
<!-- Node28&#45;&gt;Node31 -->
<g id="edge3" class="edge"><title>Node28&#45;&gt;Node31</title>
<path fill="none" stroke="midnightblue" d="M155.095,-86C217.839,-86 306.557,-86 371.585,-86"/>
<polygon fill="midnightblue" stroke="midnightblue" points="371.811,-89.5001 381.811,-86 371.81,-82.5001 371.811,-89.5001"/>
</g>
<!-- Node33 -->
<g id="node6" class="node"><title>Node33</title>
<g id="a_node6"><a xlink:href="group___menu_class.html#ga5327c9850fec5b689e8e3cb1941e6ef0" target="_top" xlink:title="Display in OLED the configuration for CV port.">
<polygon fill="white" stroke="black" points="386,-38.5 386,-57.5 530,-57.5 530,-38.5 386,-38.5"/>
<text text-anchor="middle" x="458" y="-45.5" font-family="Helvetica,sans-Serif" font-size="10.00">OLEDMenu::displayCVConfig</text>
</a>
</g>
</g>
<!-- Node28&#45;&gt;Node33 -->
<g id="edge5" class="edge"><title>Node28&#45;&gt;Node33</title>
<path fill="none" stroke="midnightblue" d="M155.095,-78.3101C219.171,-71.8771 310.337,-62.7244 375.696,-56.1626"/>
<polygon fill="midnightblue" stroke="midnightblue" points="376.356,-59.614 385.956,-55.1325 375.657,-52.6491 376.356,-59.614"/>
</g>
<!-- Node34 -->
<g id="node7" class="node"><title>Node34</title>
<g id="a_node7"><a xlink:href="group___menu_class.html#ga5e404ee1578428c9e7e0c082773091a0" target="_top" xlink:title="Display in OLED the configuration for Fader port.">
<polygon fill="white" stroke="black" points="191,-0.5 191,-19.5 346,-19.5 346,-0.5 191,-0.5"/>
<text text-anchor="middle" x="268.5" y="-7.5" font-family="Helvetica,sans-Serif" font-size="10.00">OLEDMenu::displayFaderConfig</text>
</a>
</g>
</g>
<!-- Node28&#45;&gt;Node34 -->
<g id="edge7" class="edge"><title>Node28&#45;&gt;Node34</title>
<path fill="none" stroke="midnightblue" d="M97.2871,-76.4065C119.367,-65.3463 157.278,-47.0207 191,-34 201.538,-29.9309 213.083,-26.0298 223.937,-22.5991"/>
<polygon fill="midnightblue" stroke="midnightblue" points="225.144,-25.8894 233.663,-19.5893 223.075,-19.2023 225.144,-25.8894"/>
</g>
<!-- Node32 -->
<g id="node5" class="node"><title>Node32</title>
<g id="a_node5"><a xlink:href="group___config_group.html#ga3eb762dc5296df21b0a14537f10452f2" target="_top" xlink:title="Returns the name associated to the port.">
<polygon fill="white" stroke="black" points="570,-57.5 570,-76.5 685,-76.5 685,-57.5 570,-57.5"/>
<text text-anchor="middle" x="627.5" y="-64.5" font-family="Helvetica,sans-Serif" font-size="10.00">InputPortCfg::getName</text>
</a>
</g>
</g>
<!-- Node31&#45;&gt;Node32 -->
<g id="edge4" class="edge"><title>Node31&#45;&gt;Node32</title>
<path fill="none" stroke="midnightblue" d="M534.42,-77.4449C542.816,-76.4925 551.324,-75.5274 559.603,-74.5883"/>
<polygon fill="midnightblue" stroke="midnightblue" points="560.024,-78.0631 569.566,-73.4582 559.235,-71.1077 560.024,-78.0631"/>
</g>
<!-- Node33&#45;&gt;Node32 -->
<g id="edge6" class="edge"><title>Node33&#45;&gt;Node32</title>
<path fill="none" stroke="midnightblue" d="M530.035,-56.0577C539.895,-57.1762 549.996,-58.322 559.774,-59.4311"/>
<polygon fill="midnightblue" stroke="midnightblue" points="559.492,-62.9215 569.823,-60.571 560.281,-55.9661 559.492,-62.9215"/>
</g>
<!-- Node34&#45;&gt;Node33 -->
<g id="edge8" class="edge"><title>Node34&#45;&gt;Node33</title>
<path fill="none" stroke="midnightblue" d="M316.814,-19.589C342.114,-24.7165 373.45,-31.0672 400.075,-36.4632"/>
<polygon fill="midnightblue" stroke="midnightblue" points="399.53,-39.9238 410.026,-38.4799 400.921,-33.0633 399.53,-39.9238"/>
</g>
</g>
</svg>
        <g id="navigator" transform="translate(0 0)" fill="#404254">
                <rect fill="#f2f5e9" fill-opacity="0.5" stroke="#606060" stroke-width=".5" x="0" y="0" width="60" height="60"/>
                <use id="zoomplus" xlink:href="#zoomPlus" x="17" y="9" onmousedown="handleZoom(evt,'in')"/>
                <use id="zoomminus" xlink:href="#zoomMin" x="42" y="9" onmousedown="handleZoom(evt,'out')"/>
                <use id="reset" xlink:href="#resetDef" x="30" y="36" onmousedown="handleReset()"/>
                <g id="arrowUp" xlink:href="#dirArrow" transform="translate(30 24)" onmousedown="handlePan(0,-1)">
                  <use xlink:href="#rim" fill="#404040">
                        <set attributeName="fill" to="#808080" begin="arrowUp.mouseover" end="arrowUp.mouseout"/>
                  </use>
                  <path fill="none" stroke="white" stroke-width="1.5" d="M0,-3.0v7 M-2.5,-0.5L0,-3.0L2.5,-0.5"/>
                </g>
                <g id="arrowRight" xlink:href="#dirArrow" transform="rotate(90) translate(36 -43)" onmousedown="handlePan(1,0)">
                  <use xlink:href="#rim" fill="#404040">
                        <set attributeName="fill" to="#808080" begin="arrowRight.mouseover" end="arrowRight.mouseout"/>
                  </use>
                  <path fill="none" stroke="white" stroke-width="1.5" d="M0,-3.0v7 M-2.5,-0.5L0,-3.0L2.5,-0.5"/>
                </g>
                <g id="arrowDown" xlink:href="#dirArrow" transform="rotate(180) translate(-30 -48)" onmousedown="handlePan(0,1)">
                  <use xlink:href="#rim" fill="#404040">
                        <set attributeName="fill" to="#808080" begin="arrowDown.mouseover" end="arrowDown.mouseout"/>
                  </use>
                  <path fill="none" stroke="white" stroke-width="1.5" d="M0,-3.0v7 M-2.5,-0.5L0,-3.0L2.5,-0.5"/>
                </g>
                <g id="arrowLeft" xlink:href="#dirArrow" transform="rotate(270) translate(-36 17)" onmousedown="handlePan(-1,0)">
                  <use xlink:href="#rim" fill="#404040">
                        <set attributeName="fill" to="#808080" begin="arrowLeft.mouseover" end="arrowLeft.mouseout"/>
                  </use>
                  <path fill="none" stroke="white" stroke-width="1.5" d="M0,-3.0v7 M-2.5,-0.5L0,-3.0L2.5,-0.5"/>
                </g>
        </g>
        <svg viewBox="0 0 15 15" width="100%" height="30px" preserveAspectRatio="xMaxYMin meet">
         <g id="arrow_out" transform="scale(0.3 0.3)">
          <a xlink:href="group___menu_class_gadbd5b7204a51608a5d9f2e8641c15f80_cgraph_org.svg" target="_base">
           <rect id="button" ry="5" rx="5" y="6" x="6" height="38" width="38"
                fill="#f2f5e9" fill-opacity="0.5" stroke="#606060" stroke-width="1.0"/>
           <path id="arrow"
             d="M 11.500037,31.436501 C 11.940474,20.09759 22.043105,11.32322 32.158766,21.979434 L 37.068811,17.246167 C 37.068811,17.246167 37.088388,32 37.088388,32 L 22.160133,31.978069 C 22.160133,31.978069 26.997745,27.140456 26.997745,27.140456 C 18.528582,18.264221 13.291696,25.230495 11.500037,31.436501 z"
             style="fill:#404040;"/>
          </a>
         </g>
        </svg>
</svg>
