<?xml version="1.0" encoding="UTF-8" standalone="no"?>
<!DOCTYPE svg PUBLIC "-//W3C//DTD SVG 1.1//EN"
 "http://www.w3.org/Graphics/SVG/1.1/DTD/svg11.dtd">
<!-- Generated by graphviz version 2.38.0 (20140413.2041)
 -->
<!-- Title: The Main Application Pages: 1 -->
<svg width="273pt" height="150pt"
 viewBox="0.00 0.00 273.00 149.50" xmlns="http://www.w3.org/2000/svg" xmlns:xlink="http://www.w3.org/1999/xlink">
<g id="graph0" class="graph" transform="scale(1 1) rotate(0) translate(4 145.5)">
<title>The Main Application</title>
<polygon fill="white" stroke="none" points="-4,4 -4,-145.5 269,-145.5 269,4 -4,4"/>
<!-- Node3 -->
<g id="node1" class="node"><title>Node3</title>
<g id="a_node1"><a xlink:href="group___config_group.html" target="_top" xlink:title=" ">
<polygon fill="white" stroke="black" points="258,-141.5 150,-141.5 150,-111.5 258,-111.5 258,-141.5"/>
<text text-anchor="start" x="158" y="-129.5" font-family="Helvetica,sans-Serif" font-size="10.00">Configuration storage</text>
<text text-anchor="middle" x="204" y="-118.5" font-family="Helvetica,sans-Serif" font-size="10.00"> and management</text>
</a>
</g>
</g>
<!-- Node0 -->
<g id="node2" class="node"><title>Node0</title>
<g id="a_node2"><a xlink:title=" ">
<polygon fill="#bfbfbf" stroke="black" points="107,-74 0,-74 0,-55 107,-55 107,-74"/>
<text text-anchor="middle" x="53.5" y="-62" font-family="Helvetica,sans-Serif" font-size="10.00">The Main Application</text>
</a>
</g>
</g>
<!-- Node0&#45;&gt;Node3 -->
<g id="edge3" class="edge"><title>Node0&#45;&gt;Node3</title>
<path fill="none" stroke="black" d="M85.6622,-78.1064C102.581,-85.4367 123.89,-94.5769 143,-102.5 150.047,-105.422 157.584,-108.485 164.853,-111.408"/>
<polygon fill="black" stroke="black" points="86.8241,-74.7952 76.2574,-74.0224 84.0358,-81.216 86.8241,-74.7952"/>
</g>
<!-- Node1 -->
<g id="node3" class="node"><title>Node1</title>
<g id="a_node3"><a xlink:href="group___general_util.html" target="_top" xlink:title=" ">
<polygon fill="white" stroke="black" points="242.5,-93 165.5,-93 165.5,-74 242.5,-74 242.5,-93"/>
<text text-anchor="middle" x="204" y="-81" font-family="Helvetica,sans-Serif" font-size="10.00">General Tools</text>
</a>
</g>
</g>
<!-- Node0&#45;&gt;Node1 -->
<g id="edge1" class="edge"><title>Node0&#45;&gt;Node1</title>
<path fill="none" stroke="black" d="M117.316,-72.5371C133.649,-74.6269 150.739,-76.8134 165.32,-78.679"/>
<polygon fill="black" stroke="black" points="117.637,-69.0497 107.274,-71.2522 116.749,-75.9931 117.637,-69.0497"/>
</g>
<!-- Node4 -->
<g id="node4" class="node"><title>Node4</title>
<g id="a_node4"><a xlink:href="group___menu_class.html" target="_top" xlink:title=" ">
<polygon fill="white" stroke="black" points="254,-56 154,-56 154,-37 254,-37 254,-56"/>
<text text-anchor="middle" x="204" y="-44" font-family="Helvetica,sans-Serif" font-size="10.00">Menu management</text>
</a>
</g>
</g>
<!-- Node0&#45;&gt;Node4 -->
<g id="edge4" class="edge"><title>Node0&#45;&gt;Node4</title>
<path fill="none" stroke="black" d="M117.389,-56.8771C129.583,-55.399 142.197,-53.8701 153.871,-52.4551"/>
<polygon fill="black" stroke="black" points="116.78,-53.4252 107.274,-58.1032 117.622,-60.3744 116.78,-53.4252"/>
</g>
<!-- Node2 -->
<g id="node5" class="node"><title>Node2</title>
<g id="a_node5"><a xlink:href="group___input_ports_group.html" target="_top" xlink:title=" ">
<polygon fill="white" stroke="black" points="265,-19 143,-19 143,-0 265,-0 265,-19"/>
<text text-anchor="middle" x="204" y="-7" font-family="Helvetica,sans-Serif" font-size="10.00">Input ports management</text>
</a>
</g>
</g>
<!-- Node0&#45;&gt;Node2 -->
<g id="edge2" class="edge"><title>Node0&#45;&gt;Node2</title>
<path fill="none" stroke="black" d="M85.851,-51.0363C102.671,-43.9938 123.829,-35.4223 143,-28.5 152.044,-25.2345 161.96,-21.9689 171.08,-19.0892"/>
<polygon fill="black" stroke="black" points="84.3503,-47.8706 76.4968,-54.9821 87.071,-54.3203 84.3503,-47.8706"/>
</g>
</g>
</svg>
