<?xml version="1.0" encoding="UTF-8" standalone="no"?>
<!DOCTYPE svg PUBLIC "-//W3C//DTD SVG 1.1//EN"
 "http://www.w3.org/Graphics/SVG/1.1/DTD/svg11.dtd">
<!-- Generated by graphviz version 2.38.0 (20140413.2041)
 -->
<!-- Title: Input ports management Pages: 1 -->
<svg width="417pt" height="38pt"
 viewBox="0.00 0.00 417.00 38.00" xmlns="http://www.w3.org/2000/svg" xmlns:xlink="http://www.w3.org/1999/xlink">
<g id="graph0" class="graph" transform="scale(1 1) rotate(0) translate(4 34)">
<title>Input ports management</title>
<polygon fill="white" stroke="none" points="-4,4 -4,-34 413,-34 413,4 -4,4"/>
<!-- Node2 -->
<g id="node1" class="node"><title>Node2</title>
<g id="a_node1"><a xlink:href="group___config_group.html" target="_top" xlink:title=" ">
<polygon fill="white" stroke="black" points="409,-30 301,-30 301,-0 409,-0 409,-30"/>
<text text-anchor="start" x="309" y="-18" font-family="Helvetica,sans-Serif" font-size="10.00">Configuration storage</text>
<text text-anchor="middle" x="355" y="-7" font-family="Helvetica,sans-Serif" font-size="10.00"> and management</text>
</a>
</g>
</g>
<!-- Node1 -->
<g id="node2" class="node"><title>Node1</title>
<g id="a_node2"><a xlink:href="group___maingroup.html" target="_top" xlink:title=" ">
<polygon fill="white" stroke="black" points="107,-24.5 0,-24.5 0,-5.5 107,-5.5 107,-24.5"/>
<text text-anchor="middle" x="53.5" y="-12.5" font-family="Helvetica,sans-Serif" font-size="10.00">The Main Application</text>
</a>
</g>
</g>
<!-- Node0 -->
<g id="node3" class="node"><title>Node0</title>
<g id="a_node3"><a xlink:title=" ">
<polygon fill="#bfbfbf" stroke="black" points="265,-24.5 143,-24.5 143,-5.5 265,-5.5 265,-24.5"/>
<text text-anchor="middle" x="204" y="-12.5" font-family="Helvetica,sans-Serif" font-size="10.00">Input ports management</text>
</a>
</g>
</g>
<!-- Node1&#45;&gt;Node0 -->
<g id="edge1" class="edge"><title>Node1&#45;&gt;Node0</title>
<path fill="none" stroke="black" d="M117.409,-15C125.823,-15 134.437,-15 142.803,-15"/>
<polygon fill="black" stroke="black" points="117.274,-11.5001 107.274,-15 117.274,-18.5001 117.274,-11.5001"/>
</g>
<!-- Node0&#45;&gt;Node2 -->
<g id="edge2" class="edge"><title>Node0&#45;&gt;Node2</title>
<path fill="none" stroke="black" d="M275.215,-15C283.821,-15 292.503,-15 300.801,-15"/>
<polygon fill="black" stroke="black" points="275.175,-11.5001 265.175,-15 275.174,-18.5001 275.175,-11.5001"/>
</g>
</g>
</svg>
