<?xml version="1.0" encoding="UTF-8" standalone="no"?>
<!DOCTYPE svg PUBLIC "-//W3C//DTD SVG 1.1//EN"
 "http://www.w3.org/Graphics/SVG/1.1/DTD/svg11.dtd">
<!-- Generated by graphviz version 2.38.0 (20140413.2041)
 -->
<!-- Title: AnalogPort::SendMIDI Pages: 1 -->
<svg width="446pt" height="28pt"
 viewBox="0.00 0.00 446.00 28.00" xmlns="http://www.w3.org/2000/svg" xmlns:xlink="http://www.w3.org/1999/xlink">
<g id="graph0" class="graph" transform="scale(1 1) rotate(0) translate(4 24)">
<title>AnalogPort::SendMIDI</title>
<polygon fill="white" stroke="none" points="-4,4 -4,-24 442,-24 442,4 -4,4"/>
<!-- Node65 -->
<g id="node1" class="node"><title>Node65</title>
<g id="a_node1"><a xlink:title="Send MIDI Data.">
<polygon fill="#bfbfbf" stroke="black" points="0,-0.5 0,-19.5 113,-19.5 113,-0.5 0,-0.5"/>
<text text-anchor="middle" x="56.5" y="-7.5" font-family="Helvetica,sans-Serif" font-size="10.00">AnalogPort::SendMIDI</text>
</a>
</g>
</g>
<!-- Node66 -->
<g id="node2" class="node"><title>Node66</title>
<g id="a_node2"><a xlink:href="group___input_ports_group.html#ga3795b5c2de378a3ce6209d78cdd8f197" target="_top" xlink:title="Return the member InputPortCfg::ClockDivider.">
<polygon fill="white" stroke="black" points="149,-0.5 149,-19.5 263,-19.5 263,-0.5 149,-0.5"/>
<text text-anchor="middle" x="206" y="-7.5" font-family="Helvetica,sans-Serif" font-size="10.00">AnalogPort::TrimValue</text>
</a>
</g>
</g>
<!-- Node65&#45;&gt;Node66 -->
<g id="edge1" class="edge"><title>Node65&#45;&gt;Node66</title>
<path fill="none" stroke="midnightblue" d="M113.263,-10C121.499,-10 130.054,-10 138.481,-10"/>
<polygon fill="midnightblue" stroke="midnightblue" points="138.668,-13.5001 148.668,-10 138.668,-6.5001 138.668,-13.5001"/>
</g>
<!-- Node67 -->
<g id="node3" class="node"><title>Node67</title>
<g id="a_node3"><a xlink:href="group___config_group.html#ga9fb2c067887a36506906793e609d5a28" target="_top" xlink:title="Retreive limit values based on analog port configuration.">
<polygon fill="white" stroke="black" points="299,-0.5 299,-19.5 438,-19.5 438,-0.5 299,-0.5"/>
<text text-anchor="middle" x="368.5" y="-7.5" font-family="Helvetica,sans-Serif" font-size="10.00">AnInputPortCfg::LimitValues</text>
</a>
</g>
</g>
<!-- Node66&#45;&gt;Node67 -->
<g id="edge2" class="edge"><title>Node66&#45;&gt;Node67</title>
<path fill="none" stroke="midnightblue" d="M263.135,-10C271.452,-10 280.149,-10 288.822,-10"/>
<polygon fill="midnightblue" stroke="midnightblue" points="288.968,-13.5001 298.968,-10 288.968,-6.5001 288.968,-13.5001"/>
</g>
</g>
</svg>
