<?xml version="1.0" encoding="UTF-8" standalone="no"?>
<!DOCTYPE svg PUBLIC "-//W3C//DTD SVG 1.1//EN"
 "http://www.w3.org/Graphics/SVG/1.1/DTD/svg11.dtd">
<!-- Generated by graphviz version 2.38.0 (20140413.2041)
 -->
<!-- Title: DemuxAnalogPort::SetDemux Pages: 1 -->
<svg width="489pt" height="28pt"
 viewBox="0.00 0.00 489.00 28.00" xmlns="http://www.w3.org/2000/svg" xmlns:xlink="http://www.w3.org/1999/xlink">
<g id="graph0" class="graph" transform="scale(1 1) rotate(0) translate(4 24)">
<title>DemuxAnalogPort::SetDemux</title>
<polygon fill="white" stroke="none" points="-4,4 -4,-24 485,-24 485,4 -4,4"/>
<!-- Node73 -->
<g id="node1" class="node"><title>Node73</title>
<g id="a_node1"><a xlink:title="Call base AnalogPort::SendMIDI() function.">
<polygon fill="#bfbfbf" stroke="black" points="334,-0.5 334,-19.5 481,-19.5 481,-0.5 334,-0.5"/>
<text text-anchor="middle" x="407.5" y="-7.5" font-family="Helvetica,sans-Serif" font-size="10.00">DemuxAnalogPort::SetDemux</text>
</a>
</g>
</g>
<!-- Node74 -->
<g id="node2" class="node"><title>Node74</title>
<g id="a_node2"><a xlink:href="group___input_ports_group.html#ga788844923cb40bf511ff62a92baeffd8" target="_top" xlink:title="Read multiplexed analog input.">
<polygon fill="white" stroke="black" points="156,-0.5 156,-19.5 298,-19.5 298,-0.5 156,-0.5"/>
<text text-anchor="middle" x="227" y="-7.5" font-family="Helvetica,sans-Serif" font-size="10.00">DemuxAnalogPort::ReadPort</text>
</a>
</g>
</g>
<!-- Node73&#45;&gt;Node74 -->
<g id="edge1" class="edge"><title>Node73&#45;&gt;Node74</title>
<path fill="none" stroke="midnightblue" d="M323.886,-10C315.309,-10 306.65,-10 298.228,-10"/>
<polygon fill="midnightblue" stroke="midnightblue" points="323.897,-13.5001 333.897,-10 323.897,-6.5001 323.897,-13.5001"/>
</g>
<!-- Node75 -->
<g id="node3" class="node"><title>Node75</title>
<g id="a_node3"><a xlink:href="group___input_ports_group.html#ga0e5850e93dc29fc92b63e4696afc0d78" target="_top" xlink:title="Read selected ports and store data change.">
<polygon fill="white" stroke="black" points="0,-0.5 0,-19.5 120,-19.5 120,-0.5 0,-0.5"/>
<text text-anchor="middle" x="60" y="-7.5" font-family="Helvetica,sans-Serif" font-size="10.00">InputControl::ReadPorts</text>
</a>
</g>
</g>
<!-- Node74&#45;&gt;Node75 -->
<g id="edge2" class="edge"><title>Node74&#45;&gt;Node75</title>
<path fill="none" stroke="midnightblue" d="M145.512,-10C136.933,-10 128.325,-10 120.06,-10"/>
<polygon fill="midnightblue" stroke="midnightblue" points="145.547,-13.5001 155.547,-10 145.547,-6.5001 145.547,-13.5001"/>
</g>
</g>
</svg>
