<?xml version="1.0" encoding="UTF-8" standalone="no"?>
<!DOCTYPE svg PUBLIC "-//W3C//DTD SVG 1.1//EN"
 "http://www.w3.org/Graphics/SVG/1.1/DTD/svg11.dtd">
<!-- Generated by graphviz version 2.38.0 (20140413.2041)
 -->
<!-- Title: OLEDMenu::displayMenu Pages: 1 -->
<!--zoomable 204 -->
<svg id="main" version="1.1" xmlns="http://www.w3.org/2000/svg" xmlns:xlink="http://www.w3.org/1999/xlink" xml:space="preserve" onload="init(evt)">
<style type="text/css"><![CDATA[
.edge:hover path { stroke: red; }
.edge:hover polygon { stroke: red; fill: red; }
]]></style>
<script type="text/javascript"><![CDATA[
var edges = document.getElementsByTagName('g');
if (edges && edges.length) {
  for (var i=0;i<edges.length;i++) {
    if (edges[i].id.substr(0,4)=='edge') {
      edges[i].setAttribute('class','edge');
    }
  }
}
]]></script>
        <defs>
                <circle id="rim" cx="0" cy="0" r="7"/>
                <circle id="rim2" cx="0" cy="0" r="3.5"/>
                <g id="zoomPlus">
                        <use xlink:href="#rim" fill="#404040">
                                <set attributeName="fill" to="#808080" begin="zoomplus.mouseover" end="zoomplus.mouseout"/>
                        </use>
                        <path d="M-4,0h8M0,-4v8" fill="none" stroke="white" stroke-width="1.5" pointer-events="none"/>
                </g>
                <g id="zoomMin">
                        <use xlink:href="#rim" fill="#404040">
                                <set attributeName="fill" to="#808080" begin="zoomminus.mouseover" end="zoomminus.mouseout"/>
                        </use>
                        <path d="M-4,0h8" fill="none" stroke="white" stroke-width="1.5" pointer-events="none"/>
                </g>
                <g id="dirArrow">
                        <path fill="none" stroke="white" stroke-width="1.5" d="M0,-3.0v7 M-2.5,-0.5L0,-3.0L2.5,-0.5"/>
                </g>
               <g id="resetDef">
                       <use xlink:href="#rim2" fill="#404040">
                               <set attributeName="fill" to="#808080" begin="reset.mouseover" end="reset.mouseout"/>
                       </use>
               </g>
        </defs>

<script type="text/javascript">
var viewWidth = 868;
var viewHeight = 204;
var sectionId = 'dynsection-8';
</script>
<script xlink:href="svgpan.js"/>
<svg id="graph" class="graph">
<g id="viewport">
<title>OLEDMenu::displayMenu</title>
<polygon fill="white" stroke="none" points="-4,4 -4,-199.5 864,-199.5 864,4 -4,4"/>
<!-- Node23 -->
<g id="node1" class="node"><title>Node23</title>
<g id="a_node1"><a xlink:title="Main Display Menu Functions.">
<polygon fill="#bfbfbf" stroke="black" points="0,-88.5 0,-107.5 128,-107.5 128,-88.5 0,-88.5"/>
<text text-anchor="middle" x="64" y="-95.5" font-family="Helvetica,sans-Serif" font-size="10.00">OLEDMenu::displayMenu</text>
</a>
</g>
</g>
<!-- Node24 -->
<g id="node2" class="node"><title>Node24</title>
<g id="a_node2"><a xlink:href="group___menu_class.html#gad107df198b65221d8a56efeb627c2746" target="_top" xlink:title="Display columns for the performance screen.">
<polygon fill="white" stroke="black" points="164,-164.5 164,-183.5 330,-183.5 330,-164.5 164,-164.5"/>
<text text-anchor="middle" x="247" y="-171.5" font-family="Helvetica,sans-Serif" font-size="10.00">OLEDMenu::displayMenuColumns</text>
</a>
</g>
</g>
<!-- Node23&#45;&gt;Node24 -->
<g id="edge1" class="edge"><title>Node23&#45;&gt;Node24</title>
<path fill="none" stroke="midnightblue" d="M78.7622,-107.69C97.3007,-120.318 131.705,-142.286 164,-155 170.395,-157.518 177.208,-159.751 184.069,-161.721"/>
<polygon fill="midnightblue" stroke="midnightblue" points="183.548,-165.205 194.114,-164.419 185.364,-158.445 183.548,-165.205"/>
</g>
<!-- Node25 -->
<g id="node3" class="node"><title>Node25</title>
<g id="a_node3"><a xlink:href="group___menu_class.html#ga7d5f79d1bff3dd85ebc86b2d86b2e969" target="_top" xlink:title="Performance Display one item at a time.">
<polygon fill="white" stroke="black" points="170.5,-126.5 170.5,-145.5 323.5,-145.5 323.5,-126.5 170.5,-126.5"/>
<text text-anchor="middle" x="247" y="-133.5" font-family="Helvetica,sans-Serif" font-size="10.00">OLEDMenu::displayMenuCards</text>
</a>
</g>
</g>
<!-- Node23&#45;&gt;Node25 -->
<g id="edge2" class="edge"><title>Node23&#45;&gt;Node25</title>
<path fill="none" stroke="midnightblue" d="M110.674,-107.589C134.989,-112.694 165.08,-119.011 190.708,-124.392"/>
<polygon fill="midnightblue" stroke="midnightblue" points="190.149,-127.851 200.654,-126.48 191.587,-121 190.149,-127.851"/>
</g>
<!-- Node26 -->
<g id="node4" class="node"><title>Node26</title>
<g id="a_node4"><a xlink:href="group___menu_class.html#gadbd5b7204a51608a5d9f2e8641c15f80" target="_top" xlink:title="Show Ports configuration data.">
<polygon fill="white" stroke="black" points="169.5,-88.5 169.5,-107.5 324.5,-107.5 324.5,-88.5 169.5,-88.5"/>
<text text-anchor="middle" x="247" y="-95.5" font-family="Helvetica,sans-Serif" font-size="10.00">OLEDMenu::displayMenuConfig</text>
</a>
</g>
</g>
<!-- Node23&#45;&gt;Node26 -->
<g id="edge3" class="edge"><title>Node23&#45;&gt;Node26</title>
<path fill="none" stroke="midnightblue" d="M128.051,-98C138.179,-98 148.814,-98 159.378,-98"/>
<polygon fill="midnightblue" stroke="midnightblue" points="159.467,-101.5 169.467,-98 159.467,-94.5001 159.467,-101.5"/>
</g>
<!-- Node33 -->
<g id="node11" class="node"><title>Node33</title>
<g id="a_node11"><a xlink:href="group___menu_class.html#gace64662b48293e799eb6aceae9cc5c5e" target="_top" xlink:title="Display Drop list menu.">
<polygon fill="white" stroke="black" points="175.5,-39 175.5,-69 318.5,-69 318.5,-39 175.5,-39"/>
<text text-anchor="start" x="183.5" y="-57" font-family="Helvetica,sans-Serif" font-size="10.00">OLEDMenu::displayMenuList</text>
<text text-anchor="middle" x="247" y="-46" font-family="Helvetica,sans-Serif" font-size="10.00">Lines</text>
</a>
</g>
</g>
<!-- Node23&#45;&gt;Node33 -->
<g id="edge12" class="edge"><title>Node23&#45;&gt;Node33</title>
<path fill="none" stroke="midnightblue" d="M104.274,-88.4527C124.744,-83.4767 150.426,-77.2334 174.287,-71.4331"/>
<polygon fill="midnightblue" stroke="midnightblue" points="175.136,-74.8285 184.027,-69.0654 173.483,-68.0266 175.136,-74.8285"/>
</g>
<!-- Node34 -->
<g id="node12" class="node"><title>Node34</title>
<g id="a_node12"><a xlink:href="class_o_l_e_d_menu.html#a15544a71bc7d6b4f51214b0dc1c2afbc" target="_top" xlink:title="Show a message for a number of milliseconds or until encoder pressed. will show a bitmap if it is set...">
<polygon fill="white" stroke="black" points="169.5,-0.5 169.5,-19.5 324.5,-19.5 324.5,-0.5 169.5,-0.5"/>
<text text-anchor="middle" x="247" y="-7.5" font-family="Helvetica,sans-Serif" font-size="10.00">OLEDMenu::EncoderPopupMsg</text>
</a>
</g>
</g>
<!-- Node23&#45;&gt;Node34 -->
<g id="edge13" class="edge"><title>Node23&#45;&gt;Node34</title>
<path fill="none" stroke="midnightblue" d="M75.7288,-88.411C93.0416,-73.4513 128.774,-44.6547 164,-29 169.696,-26.4685 175.771,-24.2532 181.94,-22.3189"/>
<polygon fill="midnightblue" stroke="midnightblue" points="183.036,-25.6454 191.67,-19.5055 181.091,-18.9208 183.036,-25.6454"/>
</g>
<!-- Node27 -->
<g id="node5" class="node"><title>Node27</title>
<g id="a_node5"><a xlink:href="group___menu_class.html#ga41842f90a67e0be0755c9f8c08b90ec6" target="_top" xlink:title="Show Header Info for Bank Selected.">
<polygon fill="white" stroke="black" points="368.5,-165 368.5,-195 518.5,-195 518.5,-165 368.5,-165"/>
<text text-anchor="start" x="376.5" y="-183" font-family="Helvetica,sans-Serif" font-size="10.00">OLEDMenu::displayMenuBank</text>
<text text-anchor="middle" x="443.5" y="-172" font-family="Helvetica,sans-Serif" font-size="10.00">Header</text>
</a>
</g>
</g>
<!-- Node26&#45;&gt;Node27 -->
<g id="edge4" class="edge"><title>Node26&#45;&gt;Node27</title>
<path fill="none" stroke="midnightblue" d="M308.233,-107.634C315.826,-110.082 323.279,-113.151 330,-117 350.189,-128.561 346.34,-142.561 366,-155 369.293,-157.084 372.777,-159.01 376.37,-160.789"/>
<polygon fill="midnightblue" stroke="midnightblue" points="374.929,-163.978 385.483,-164.911 377.815,-157.601 374.929,-163.978"/>
</g>
<!-- Node28 -->
<g id="node6" class="node"><title>Node28</title>
<g id="a_node6"><a xlink:href="group___menu_class.html#ga2a71482de2c0b8326ac09c62f5e68148" target="_top" xlink:title="Display in OLED the configuration for Bank (CV+Fader+Gate)">
<polygon fill="white" stroke="black" points="367,-126.5 367,-145.5 520,-145.5 520,-126.5 367,-126.5"/>
<text text-anchor="middle" x="443.5" y="-133.5" font-family="Helvetica,sans-Serif" font-size="10.00">OLEDMenu::displayBankConfig</text>
</a>
</g>
</g>
<!-- Node26&#45;&gt;Node28 -->
<g id="edge5" class="edge"><title>Node26&#45;&gt;Node28</title>
<path fill="none" stroke="midnightblue" d="M296.83,-107.54C323.188,-112.69 355.917,-119.084 383.671,-124.506"/>
<polygon fill="midnightblue" stroke="midnightblue" points="383.165,-127.974 393.65,-126.456 384.507,-121.104 383.165,-127.974"/>
</g>
<!-- Node29 -->
<g id="node7" class="node"><title>Node29</title>
<g id="a_node7"><a xlink:href="group___menu_class.html#ga2968dc79d00a7a7acc4bce511319cd50" target="_top" xlink:title="Display in OLED the configuration for Gate port.">
<polygon fill="white" stroke="black" points="557,-88.5 557,-107.5 709,-107.5 709,-88.5 557,-88.5"/>
<text text-anchor="middle" x="633" y="-95.5" font-family="Helvetica,sans-Serif" font-size="10.00">OLEDMenu::displayGateConfig</text>
</a>
</g>
</g>
<!-- Node26&#45;&gt;Node29 -->
<g id="edge6" class="edge"><title>Node26&#45;&gt;Node29</title>
<path fill="none" stroke="midnightblue" d="M324.785,-98C389.009,-98 480.527,-98 546.957,-98"/>
<polygon fill="midnightblue" stroke="midnightblue" points="546.982,-101.5 556.982,-98 546.982,-94.5001 546.982,-101.5"/>
</g>
<!-- Node31 -->
<g id="node9" class="node"><title>Node31</title>
<g id="a_node9"><a xlink:href="group___menu_class.html#ga5327c9850fec5b689e8e3cb1941e6ef0" target="_top" xlink:title="Display in OLED the configuration for CV port.">
<polygon fill="white" stroke="black" points="561,-50.5 561,-69.5 705,-69.5 705,-50.5 561,-50.5"/>
<text text-anchor="middle" x="633" y="-57.5" font-family="Helvetica,sans-Serif" font-size="10.00">OLEDMenu::displayCVConfig</text>
</a>
</g>
</g>
<!-- Node26&#45;&gt;Node31 -->
<g id="edge8" class="edge"><title>Node26&#45;&gt;Node31</title>
<path fill="none" stroke="midnightblue" d="M324.785,-90.4015C390.258,-83.9223 484.097,-74.6363 550.804,-68.035"/>
<polygon fill="midnightblue" stroke="midnightblue" points="551.249,-71.5082 560.856,-67.0403 550.56,-64.5422 551.249,-71.5082"/>
</g>
<!-- Node32 -->
<g id="node10" class="node"><title>Node32</title>
<g id="a_node10"><a xlink:href="group___menu_class.html#ga5e404ee1578428c9e7e0c082773091a0" target="_top" xlink:title="Display in OLED the configuration for Fader port.">
<polygon fill="white" stroke="black" points="366,-12.5 366,-31.5 521,-31.5 521,-12.5 366,-12.5"/>
<text text-anchor="middle" x="443.5" y="-19.5" font-family="Helvetica,sans-Serif" font-size="10.00">OLEDMenu::displayFaderConfig</text>
</a>
</g>
</g>
<!-- Node26&#45;&gt;Node32 -->
<g id="edge10" class="edge"><title>Node26&#45;&gt;Node32</title>
<path fill="none" stroke="midnightblue" d="M303.172,-88.4742C312.417,-85.7826 321.694,-82.3551 330,-78 348.959,-68.0588 347.373,-56.5498 366,-46 373.832,-41.5642 382.588,-37.838 391.302,-34.746"/>
<polygon fill="midnightblue" stroke="midnightblue" points="392.673,-37.9794 401.071,-31.5205 390.478,-31.3324 392.673,-37.9794"/>
</g>
<!-- Node30 -->
<g id="node8" class="node"><title>Node30</title>
<g id="a_node8"><a xlink:href="group___config_group.html#ga3eb762dc5296df21b0a14537f10452f2" target="_top" xlink:title="Returns the name associated to the port.">
<polygon fill="white" stroke="black" points="745,-69.5 745,-88.5 860,-88.5 860,-69.5 745,-69.5"/>
<text text-anchor="middle" x="802.5" y="-76.5" font-family="Helvetica,sans-Serif" font-size="10.00">InputPortCfg::getName</text>
</a>
</g>
</g>
<!-- Node29&#45;&gt;Node30 -->
<g id="edge7" class="edge"><title>Node29&#45;&gt;Node30</title>
<path fill="none" stroke="midnightblue" d="M709.42,-89.4449C717.816,-88.4925 726.324,-87.5274 734.603,-86.5883"/>
<polygon fill="midnightblue" stroke="midnightblue" points="735.024,-90.0631 744.566,-85.4582 734.235,-83.1077 735.024,-90.0631"/>
</g>
<!-- Node31&#45;&gt;Node30 -->
<g id="edge9" class="edge"><title>Node31&#45;&gt;Node30</title>
<path fill="none" stroke="midnightblue" d="M705.035,-68.0577C714.895,-69.1762 724.996,-70.322 734.774,-71.4311"/>
<polygon fill="midnightblue" stroke="midnightblue" points="734.492,-74.9215 744.823,-72.571 735.281,-67.9661 734.492,-74.9215"/>
</g>
<!-- Node32&#45;&gt;Node31 -->
<g id="edge11" class="edge"><title>Node32&#45;&gt;Node31</title>
<path fill="none" stroke="midnightblue" d="M491.814,-31.589C517.114,-36.7165 548.45,-43.0672 575.075,-48.4632"/>
<polygon fill="midnightblue" stroke="midnightblue" points="574.53,-51.9238 585.026,-50.4799 575.921,-45.0633 574.53,-51.9238"/>
</g>
</g>
</svg>
        <g id="navigator" transform="translate(0 0)" fill="#404254">
                <rect fill="#f2f5e9" fill-opacity="0.5" stroke="#606060" stroke-width=".5" x="0" y="0" width="60" height="60"/>
                <use id="zoomplus" xlink:href="#zoomPlus" x="17" y="9" onmousedown="handleZoom(evt,'in')"/>
                <use id="zoomminus" xlink:href="#zoomMin" x="42" y="9" onmousedown="handleZoom(evt,'out')"/>
                <use id="reset" xlink:href="#resetDef" x="30" y="36" onmousedown="handleReset()"/>
                <g id="arrowUp" xlink:href="#dirArrow" transform="translate(30 24)" onmousedown="handlePan(0,-1)">
                  <use xlink:href="#rim" fill="#404040">
                        <set attributeName="fill" to="#808080" begin="arrowUp.mouseover" end="arrowUp.mouseout"/>
                  </use>
                  <path fill="none" stroke="white" stroke-width="1.5" d="M0,-3.0v7 M-2.5,-0.5L0,-3.0L2.5,-0.5"/>
                </g>
                <g id="arrowRight" xlink:href="#dirArrow" transform="rotate(90) translate(36 -43)" onmousedown="handlePan(1,0)">
                  <use xlink:href="#rim" fill="#404040">
                        <set attributeName="fill" to="#808080" begin="arrowRight.mouseover" end="arrowRight.mouseout"/>
                  </use>
                  <path fill="none" stroke="white" stroke-width="1.5" d="M0,-3.0v7 M-2.5,-0.5L0,-3.0L2.5,-0.5"/>
                </g>
                <g id="arrowDown" xlink:href="#dirArrow" transform="rotate(180) translate(-30 -48)" onmousedown="handlePan(0,1)">
                  <use xlink:href="#rim" fill="#404040">
                        <set attributeName="fill" to="#808080" begin="arrowDown.mouseover" end="arrowDown.mouseout"/>
                  </use>
                  <path fill="none" stroke="white" stroke-width="1.5" d="M0,-3.0v7 M-2.5,-0.5L0,-3.0L2.5,-0.5"/>
                </g>
                <g id="arrowLeft" xlink:href="#dirArrow" transform="rotate(270) translate(-36 17)" onmousedown="handlePan(-1,0)">
                  <use xlink:href="#rim" fill="#404040">
                        <set attributeName="fill" to="#808080" begin="arrowLeft.mouseover" end="arrowLeft.mouseout"/>
                  </use>
                  <path fill="none" stroke="white" stroke-width="1.5" d="M0,-3.0v7 M-2.5,-0.5L0,-3.0L2.5,-0.5"/>
                </g>
        </g>
        <svg viewBox="0 0 15 15" width="100%" height="30px" preserveAspectRatio="xMaxYMin meet">
         <g id="arrow_out" transform="scale(0.3 0.3)">
          <a xlink:href="group___menu_class_ga451a9b37ad724e7103a6d8656a89ac8b_cgraph_org.svg" target="_base">
           <rect id="button" ry="5" rx="5" y="6" x="6" height="38" width="38"
                fill="#f2f5e9" fill-opacity="0.5" stroke="#606060" stroke-width="1.0"/>
           <path id="arrow"
             d="M 11.500037,31.436501 C 11.940474,20.09759 22.043105,11.32322 32.158766,21.979434 L 37.068811,17.246167 C 37.068811,17.246167 37.088388,32 37.088388,32 L 22.160133,31.978069 C 22.160133,31.978069 26.997745,27.140456 26.997745,27.140456 C 18.528582,18.264221 13.291696,25.230495 11.500037,31.436501 z"
             style="fill:#404040;"/>
          </a>
         </g>
        </svg>
</svg>
