<?xml version="1.0" encoding="UTF-8" standalone="no"?>
<!DOCTYPE svg PUBLIC "-//W3C//DTD SVG 1.1//EN"
 "http://www.w3.org/Graphics/SVG/1.1/DTD/svg11.dtd">
<!-- Generated by graphviz version 2.38.0 (20140413.2041)
 -->
<!-- Title: InputPort::ProcessClock Pages: 1 -->
<svg width="611pt" height="28pt"
 viewBox="0.00 0.00 611.00 28.00" xmlns="http://www.w3.org/2000/svg" xmlns:xlink="http://www.w3.org/1999/xlink">
<g id="graph0" class="graph" transform="scale(1 1) rotate(0) translate(4 24)">
<title>InputPort::ProcessClock</title>
<polygon fill="white" stroke="none" points="-4,4 -4,-24 607,-24 607,4 -4,4"/>
<!-- Node30 -->
<g id="node1" class="node"><title>Node30</title>
<g id="a_node1"><a xlink:title="Process MIDI Clock.">
<polygon fill="#bfbfbf" stroke="black" points="481,-0.5 481,-19.5 603,-19.5 603,-0.5 481,-0.5"/>
<text text-anchor="middle" x="542" y="-7.5" font-family="Helvetica,sans-Serif" font-size="10.00">InputPort::ProcessClock</text>
</a>
</g>
</g>
<!-- Node31 -->
<g id="node2" class="node"><title>Node31</title>
<g id="a_node2"><a xlink:href="group___input_ports_group.html#ga43b704e6546e208117597f9718573ab1" target="_top" xlink:title="Read analog Port make conversion and check analog clock.">
<polygon fill="white" stroke="black" points="334,-0.5 334,-19.5 445,-19.5 445,-0.5 334,-0.5"/>
<text text-anchor="middle" x="389.5" y="-7.5" font-family="Helvetica,sans-Serif" font-size="10.00">AnalogPort::ReadPort</text>
</a>
</g>
</g>
<!-- Node30&#45;&gt;Node31 -->
<g id="edge1" class="edge"><title>Node30&#45;&gt;Node31</title>
<path fill="none" stroke="midnightblue" d="M470.624,-10C462.024,-10 453.339,-10 445.02,-10"/>
<polygon fill="midnightblue" stroke="midnightblue" points="470.653,-13.5001 480.653,-10 470.653,-6.5001 470.653,-13.5001"/>
</g>
<!-- Node32 -->
<g id="node3" class="node"><title>Node32</title>
<g id="a_node3"><a xlink:href="group___input_ports_group.html#ga788844923cb40bf511ff62a92baeffd8" target="_top" xlink:title="Read multiplexed analog input.">
<polygon fill="white" stroke="black" points="156,-0.5 156,-19.5 298,-19.5 298,-0.5 156,-0.5"/>
<text text-anchor="middle" x="227" y="-7.5" font-family="Helvetica,sans-Serif" font-size="10.00">DemuxAnalogPort::ReadPort</text>
</a>
</g>
</g>
<!-- Node31&#45;&gt;Node32 -->
<g id="edge2" class="edge"><title>Node31&#45;&gt;Node32</title>
<path fill="none" stroke="midnightblue" d="M323.624,-10C315.236,-10 306.616,-10 298.148,-10"/>
<polygon fill="midnightblue" stroke="midnightblue" points="323.714,-13.5001 333.714,-10 323.714,-6.5001 323.714,-13.5001"/>
</g>
<!-- Node33 -->
<g id="node4" class="node"><title>Node33</title>
<g id="a_node4"><a xlink:href="group___input_ports_group.html#ga0e5850e93dc29fc92b63e4696afc0d78" target="_top" xlink:title="Read selected ports and store data change.">
<polygon fill="white" stroke="black" points="0,-0.5 0,-19.5 120,-19.5 120,-0.5 0,-0.5"/>
<text text-anchor="middle" x="60" y="-7.5" font-family="Helvetica,sans-Serif" font-size="10.00">InputControl::ReadPorts</text>
</a>
</g>
</g>
<!-- Node32&#45;&gt;Node33 -->
<g id="edge3" class="edge"><title>Node32&#45;&gt;Node33</title>
<path fill="none" stroke="midnightblue" d="M145.512,-10C136.933,-10 128.325,-10 120.06,-10"/>
<polygon fill="midnightblue" stroke="midnightblue" points="145.547,-13.5001 155.547,-10 145.547,-6.5001 145.547,-13.5001"/>
</g>
</g>
</svg>
