<?xml version="1.0" encoding="UTF-8" standalone="no"?>
<!DOCTYPE svg PUBLIC "-//W3C//DTD SVG 1.1//EN"
 "http://www.w3.org/Graphics/SVG/1.1/DTD/svg11.dtd">
<!-- Generated by graphviz version 2.38.0 (20140413.2041)
 -->
<!-- Title: InputPortCfg::getName Pages: 1 -->
<svg width="685pt" height="79pt"
 viewBox="0.00 0.00 685.00 79.46" xmlns="http://www.w3.org/2000/svg" xmlns:xlink="http://www.w3.org/1999/xlink">
<g id="graph0" class="graph" transform="scale(1 1) rotate(0) translate(4 75.4618)">
<title>InputPortCfg::getName</title>
<polygon fill="white" stroke="none" points="-4,4 -4,-75.4618 681,-75.4618 681,4 -4,4"/>
<!-- Node1 -->
<g id="node1" class="node"><title>Node1</title>
<g id="a_node1"><a xlink:title="Returns the name associated to the port.">
<polygon fill="#bfbfbf" stroke="black" points="562,-19.5 562,-38.5 677,-38.5 677,-19.5 562,-19.5"/>
<text text-anchor="middle" x="619.5" y="-26.5" font-family="Helvetica,sans-Serif" font-size="10.00">InputPortCfg::getName</text>
</a>
</g>
</g>
<!-- Node2 -->
<g id="node2" class="node"><title>Node2</title>
<g id="a_node2"><a xlink:href="group___menu_class.html#ga5327c9850fec5b689e8e3cb1941e6ef0" target="_top" xlink:title="Display in OLED the configuration for CV port.">
<polygon fill="white" stroke="black" points="382,-38.5 382,-57.5 526,-57.5 526,-38.5 382,-38.5"/>
<text text-anchor="middle" x="454" y="-45.5" font-family="Helvetica,sans-Serif" font-size="10.00">OLEDMenu::displayCVConfig</text>
</a>
</g>
</g>
<!-- Node1&#45;&gt;Node2 -->
<g id="edge1" class="edge"><title>Node1&#45;&gt;Node2</title>
<path fill="none" stroke="midnightblue" d="M551.618,-36.7722C543.181,-37.7526 534.527,-38.7584 526.029,-39.7459"/>
<polygon fill="midnightblue" stroke="midnightblue" points="552.245,-40.223 561.774,-35.592 551.437,-33.2697 552.245,-40.223"/>
</g>
<!-- Node5 -->
<g id="node5" class="node"><title>Node5</title>
<g id="a_node5"><a xlink:href="group___menu_class.html#ga2968dc79d00a7a7acc4bce511319cd50" target="_top" xlink:title="Display in OLED the configuration for Gate port.">
<polygon fill="white" stroke="black" points="192.5,-0.5 192.5,-19.5 344.5,-19.5 344.5,-0.5 192.5,-0.5"/>
<text text-anchor="middle" x="268.5" y="-7.5" font-family="Helvetica,sans-Serif" font-size="10.00">OLEDMenu::displayGateConfig</text>
</a>
</g>
</g>
<!-- Node1&#45;&gt;Node5 -->
<g id="edge5" class="edge"><title>Node1&#45;&gt;Node5</title>
<path fill="none" stroke="midnightblue" d="M551.661,-25.3612C492.478,-22.1392 406.175,-17.4408 344.62,-14.0897"/>
<polygon fill="midnightblue" stroke="midnightblue" points="551.475,-28.8562 561.65,-25.905 551.855,-21.8665 551.475,-28.8562"/>
</g>
<!-- Node3 -->
<g id="node3" class="node"><title>Node3</title>
<g id="a_node3"><a xlink:href="group___menu_class.html#gadbd5b7204a51608a5d9f2e8641c15f80" target="_top" xlink:title="Show Ports configuration data.">
<polygon fill="white" stroke="black" points="0,-38.5 0,-57.5 155,-57.5 155,-38.5 0,-38.5"/>
<text text-anchor="middle" x="77.5" y="-45.5" font-family="Helvetica,sans-Serif" font-size="10.00">OLEDMenu::displayMenuConfig</text>
</a>
</g>
</g>
<!-- Node2&#45;&gt;Node3 -->
<g id="edge2" class="edge"><title>Node2&#45;&gt;Node3</title>
<path fill="none" stroke="midnightblue" d="M399.225,-59.4517C382.277,-62.5474 363.432,-65.4643 346,-67 277.377,-73.0454 259.648,-72.7562 191,-67 168.893,-65.1463 144.596,-61.2779 124.257,-57.5124"/>
<polygon fill="midnightblue" stroke="midnightblue" points="400.324,-62.806 409.502,-57.5118 399.026,-55.9274 400.324,-62.806"/>
</g>
<!-- Node4 -->
<g id="node4" class="node"><title>Node4</title>
<g id="a_node4"><a xlink:href="group___menu_class.html#ga5e404ee1578428c9e7e0c082773091a0" target="_top" xlink:title="Display in OLED the configuration for Fader port.">
<polygon fill="white" stroke="black" points="191,-38.5 191,-57.5 346,-57.5 346,-38.5 191,-38.5"/>
<text text-anchor="middle" x="268.5" y="-45.5" font-family="Helvetica,sans-Serif" font-size="10.00">OLEDMenu::displayFaderConfig</text>
</a>
</g>
</g>
<!-- Node2&#45;&gt;Node4 -->
<g id="edge3" class="edge"><title>Node2&#45;&gt;Node4</title>
<path fill="none" stroke="midnightblue" d="M371.559,-48C363.107,-48 354.536,-48 346.139,-48"/>
<polygon fill="midnightblue" stroke="midnightblue" points="371.792,-51.5001 381.791,-48 371.791,-44.5001 371.792,-51.5001"/>
</g>
<!-- Node4&#45;&gt;Node3 -->
<g id="edge4" class="edge"><title>Node4&#45;&gt;Node3</title>
<path fill="none" stroke="midnightblue" d="M180.896,-48C172.326,-48 163.67,-48 155.21,-48"/>
<polygon fill="midnightblue" stroke="midnightblue" points="180.899,-51.5001 190.899,-48 180.899,-44.5001 180.899,-51.5001"/>
</g>
<!-- Node5&#45;&gt;Node3 -->
<g id="edge6" class="edge"><title>Node5&#45;&gt;Node3</title>
<path fill="none" stroke="midnightblue" d="M209.758,-21.6095C182.878,-27.014 151.297,-33.3635 125.85,-38.4799"/>
<polygon fill="midnightblue" stroke="midnightblue" points="210.693,-24.9916 219.807,-19.589 209.314,-18.1289 210.693,-24.9916"/>
</g>
</g>
</svg>
