<?xml version="1.0" encoding="UTF-8" standalone="no"?>
<!DOCTYPE svg PUBLIC "-//W3C//DTD SVG 1.1//EN"
 "http://www.w3.org/Graphics/SVG/1.1/DTD/svg11.dtd">
<!-- Generated by graphviz version 2.38.0 (20140413.2041)
 -->
<!-- Title: Menu management Pages: 1 -->
<svg width="407pt" height="49pt"
 viewBox="0.00 0.00 407.00 49.00" xmlns="http://www.w3.org/2000/svg" xmlns:xlink="http://www.w3.org/1999/xlink">
<g id="graph0" class="graph" transform="scale(1 1) rotate(0) translate(4 45)">
<title>Menu management</title>
<polygon fill="white" stroke="none" points="-4,4 -4,-45 403,-45 403,4 -4,4"/>
<!-- Node2 -->
<g id="node1" class="node"><title>Node2</title>
<g id="a_node1"><a xlink:href="group___menu_class_defs.html" target="_top" xlink:title=" ">
<polygon fill="white" stroke="black" points="399,-41 279,-41 279,-0 399,-0 399,-41"/>
<text text-anchor="start" x="287" y="-29" font-family="Helvetica,sans-Serif" font-size="10.00">Menu items definition</text>
<text text-anchor="start" x="287" y="-18" font-family="Helvetica,sans-Serif" font-size="10.00"> and response functions</text>
<text text-anchor="middle" x="339" y="-7" font-family="Helvetica,sans-Serif" font-size="10.00"> for selections</text>
</a>
</g>
</g>
<!-- Node1 -->
<g id="node2" class="node"><title>Node1</title>
<g id="a_node2"><a xlink:href="group___maingroup.html" target="_top" xlink:title=" ">
<polygon fill="white" stroke="black" points="107,-30 0,-30 0,-11 107,-11 107,-30"/>
<text text-anchor="middle" x="53.5" y="-18" font-family="Helvetica,sans-Serif" font-size="10.00">The Main Application</text>
</a>
</g>
</g>
<!-- Node0 -->
<g id="node3" class="node"><title>Node0</title>
<g id="a_node3"><a xlink:title=" ">
<polygon fill="#bfbfbf" stroke="black" points="243,-30 143,-30 143,-11 243,-11 243,-30"/>
<text text-anchor="middle" x="193" y="-18" font-family="Helvetica,sans-Serif" font-size="10.00">Menu management</text>
</a>
</g>
</g>
<!-- Node1&#45;&gt;Node0 -->
<g id="edge1" class="edge"><title>Node1&#45;&gt;Node0</title>
<path fill="none" stroke="black" d="M117.51,-20.5C125.983,-20.5 134.572,-20.5 142.76,-20.5"/>
<polygon fill="black" stroke="black" points="117.268,-17.0001 107.268,-20.5 117.268,-24.0001 117.268,-17.0001"/>
</g>
<!-- Node0&#45;&gt;Node2 -->
<g id="edge2" class="edge"><title>Node0&#45;&gt;Node2</title>
<path fill="none" stroke="black" d="M253.301,-20.5C261.744,-20.5 270.427,-20.5 278.867,-20.5"/>
<polygon fill="black" stroke="black" points="253.154,-17.0001 243.154,-20.5 253.154,-24.0001 253.154,-17.0001"/>
</g>
</g>
</svg>
