<?xml version="1.0" encoding="UTF-8" standalone="no"?>
<!DOCTYPE svg PUBLIC "-//W3C//DTD SVG 1.1//EN"
 "http://www.w3.org/Graphics/SVG/1.1/DTD/svg11.dtd">
<!-- Generated by graphviz version 2.38.0 (20140413.2041)
 -->
<!-- Title: AnInputPortCfg::LimitValues Pages: 1 -->
<svg width="473pt" height="66pt"
 viewBox="0.00 0.00 473.00 66.00" xmlns="http://www.w3.org/2000/svg" xmlns:xlink="http://www.w3.org/1999/xlink">
<g id="graph0" class="graph" transform="scale(1 1) rotate(0) translate(4 62)">
<title>AnInputPortCfg::LimitValues</title>
<polygon fill="white" stroke="none" points="-4,4 -4,-62 469,-62 469,4 -4,4"/>
<!-- Node5 -->
<g id="node1" class="node"><title>Node5</title>
<g id="a_node1"><a xlink:title="Retreive limit values based on analog port configuration.">
<polygon fill="#bfbfbf" stroke="black" points="326,-19.5 326,-38.5 465,-38.5 465,-19.5 326,-19.5"/>
<text text-anchor="middle" x="395.5" y="-26.5" font-family="Helvetica,sans-Serif" font-size="10.00">AnInputPortCfg::LimitValues</text>
</a>
</g>
</g>
<!-- Node6 -->
<g id="node2" class="node"><title>Node6</title>
<g id="a_node2"><a xlink:href="group___input_ports_group.html#ga3795b5c2de378a3ce6209d78cdd8f197" target="_top" xlink:title="Return the member InputPortCfg::ClockDivider.">
<polygon fill="white" stroke="black" points="176,-19.5 176,-38.5 290,-38.5 290,-19.5 176,-19.5"/>
<text text-anchor="middle" x="233" y="-26.5" font-family="Helvetica,sans-Serif" font-size="10.00">AnalogPort::TrimValue</text>
</a>
</g>
</g>
<!-- Node5&#45;&gt;Node6 -->
<g id="edge1" class="edge"><title>Node5&#45;&gt;Node6</title>
<path fill="none" stroke="midnightblue" d="M315.844,-29C307.189,-29 298.51,-29 290.209,-29"/>
<polygon fill="midnightblue" stroke="midnightblue" points="315.968,-32.5001 325.968,-29 315.968,-25.5001 315.968,-32.5001"/>
</g>
<!-- Node7 -->
<g id="node3" class="node"><title>Node7</title>
<g id="a_node3"><a xlink:href="group___input_ports_group.html#gafbdbfb099e46f2849ef84267ac80ef8b" target="_top" xlink:title="Provides functionality when inputs or gate change.">
<polygon fill="white" stroke="black" points="0,-38.5 0,-57.5 140,-57.5 140,-38.5 0,-38.5"/>
<text text-anchor="middle" x="70" y="-45.5" font-family="Helvetica,sans-Serif" font-size="10.00">InputControl::OnDataChange</text>
</a>
</g>
</g>
<!-- Node6&#45;&gt;Node7 -->
<g id="edge2" class="edge"><title>Node6&#45;&gt;Node7</title>
<path fill="none" stroke="midnightblue" d="M165.547,-36.8423C157.124,-37.8364 148.489,-38.8554 140.027,-39.854"/>
<polygon fill="midnightblue" stroke="midnightblue" points="166.169,-40.2932 175.69,-35.6453 165.349,-33.3415 166.169,-40.2932"/>
</g>
<!-- Node8 -->
<g id="node4" class="node"><title>Node8</title>
<g id="a_node4"><a xlink:href="group___input_ports_group.html#ga3c12a3f1268189d93fdb31232e943196" target="_top" xlink:title="Send MIDI Data.">
<polygon fill="white" stroke="black" points="13.5,-0.5 13.5,-19.5 126.5,-19.5 126.5,-0.5 13.5,-0.5"/>
<text text-anchor="middle" x="70" y="-7.5" font-family="Helvetica,sans-Serif" font-size="10.00">AnalogPort::SendMIDI</text>
</a>
</g>
</g>
<!-- Node6&#45;&gt;Node8 -->
<g id="edge3" class="edge"><title>Node6&#45;&gt;Node8</title>
<path fill="none" stroke="midnightblue" d="M165.49,-21.151C152.606,-19.6305 139.23,-18.0519 126.735,-16.5774"/>
<polygon fill="midnightblue" stroke="midnightblue" points="165.349,-24.6585 175.69,-22.3547 166.169,-17.7068 165.349,-24.6585"/>
</g>
</g>
</svg>
