<?xml version="1.0" encoding="UTF-8" standalone="no"?>
<!DOCTYPE svg PUBLIC "-//W3C//DTD SVG 1.1//EN"
 "http://www.w3.org/Graphics/SVG/1.1/DTD/svg11.dtd">
<!-- Generated by graphviz version 2.38.0 (20140413.2041)
 -->
<!-- Title: Configuration storage and management Pages: 1 -->
<svg width="274pt" height="64pt"
 viewBox="0.00 0.00 274.00 64.00" xmlns="http://www.w3.org/2000/svg" xmlns:xlink="http://www.w3.org/1999/xlink">
<g id="graph0" class="graph" transform="scale(1 1) rotate(0) translate(4 60)">
<title>Configuration storage and management</title>
<polygon fill="white" stroke="none" points="-4,4 -4,-60 270,-60 270,4 -4,4"/>
<!-- Node0 -->
<g id="node1" class="node"><title>Node0</title>
<g id="a_node1"><a xlink:title=" ">
<polygon fill="#bfbfbf" stroke="black" points="266,-42.5 158,-42.5 158,-12.5 266,-12.5 266,-42.5"/>
<text text-anchor="start" x="166" y="-30.5" font-family="Helvetica,sans-Serif" font-size="10.00">Configuration storage</text>
<text text-anchor="middle" x="212" y="-19.5" font-family="Helvetica,sans-Serif" font-size="10.00"> and management</text>
</a>
</g>
</g>
<!-- Node1 -->
<g id="node2" class="node"><title>Node1</title>
<g id="a_node2"><a xlink:href="group___maingroup.html" target="_top" xlink:title=" ">
<polygon fill="white" stroke="black" points="114.5,-56 7.5,-56 7.5,-37 114.5,-37 114.5,-56"/>
<text text-anchor="middle" x="61" y="-44" font-family="Helvetica,sans-Serif" font-size="10.00">The Main Application</text>
</a>
</g>
</g>
<!-- Node1&#45;&gt;Node0 -->
<g id="edge1" class="edge"><title>Node1&#45;&gt;Node0</title>
<path fill="none" stroke="black" d="M124.589,-38.5188C135.683,-37.1042 147.138,-35.6434 157.937,-34.2664"/>
<polygon fill="black" stroke="black" points="124.009,-35.0644 114.532,-39.8013 124.894,-42.0082 124.009,-35.0644"/>
</g>
<!-- Node2 -->
<g id="node3" class="node"><title>Node2</title>
<g id="a_node3"><a xlink:href="group___input_ports_group.html" target="_top" xlink:title=" ">
<polygon fill="white" stroke="black" points="122,-19 7.10543e-015,-19 7.10543e-015,-0 122,-0 122,-19"/>
<text text-anchor="middle" x="61" y="-7" font-family="Helvetica,sans-Serif" font-size="10.00">Input ports management</text>
</a>
</g>
</g>
<!-- Node2&#45;&gt;Node0 -->
<g id="edge2" class="edge"><title>Node2&#45;&gt;Node0</title>
<path fill="none" stroke="black" d="M132.215,-17.9823C140.821,-19.0219 149.503,-20.0709 157.801,-21.0733"/>
<polygon fill="black" stroke="black" points="132.522,-14.4941 122.175,-16.7694 131.683,-21.4436 132.522,-14.4941"/>
</g>
</g>
</svg>
