<?xml version="1.0" encoding="UTF-8" standalone="no"?>
<!DOCTYPE svg PUBLIC "-//W3C//DTD SVG 1.1//EN"
 "http://www.w3.org/Graphics/SVG/1.1/DTD/svg11.dtd">
<!-- Generated by graphviz version 2.38.0 (20140413.2041)
 -->
<!-- Title: Menu items definition and response functions for selections Pages: 1 -->
<svg width="264pt" height="49pt"
 viewBox="0.00 0.00 264.00 49.00" xmlns="http://www.w3.org/2000/svg" xmlns:xlink="http://www.w3.org/1999/xlink">
<g id="graph0" class="graph" transform="scale(1 1) rotate(0) translate(4 45)">
<title>Menu items definition and response functions for selections</title>
<polygon fill="white" stroke="none" points="-4,4 -4,-45 260,-45 260,4 -4,4"/>
<!-- Node0 -->
<g id="node1" class="node"><title>Node0</title>
<g id="a_node1"><a xlink:title=" ">
<polygon fill="#bfbfbf" stroke="black" points="256,-41 136,-41 136,-0 256,-0 256,-41"/>
<text text-anchor="start" x="144" y="-29" font-family="Helvetica,sans-Serif" font-size="10.00">Menu items definition</text>
<text text-anchor="start" x="144" y="-18" font-family="Helvetica,sans-Serif" font-size="10.00"> and response functions</text>
<text text-anchor="middle" x="196" y="-7" font-family="Helvetica,sans-Serif" font-size="10.00"> for selections</text>
</a>
</g>
</g>
<!-- Node1 -->
<g id="node2" class="node"><title>Node1</title>
<g id="a_node2"><a xlink:href="group___menu_class.html" target="_top" xlink:title=" ">
<polygon fill="white" stroke="black" points="100,-30 0,-30 0,-11 100,-11 100,-30"/>
<text text-anchor="middle" x="50" y="-18" font-family="Helvetica,sans-Serif" font-size="10.00">Menu management</text>
</a>
</g>
</g>
<!-- Node1&#45;&gt;Node0 -->
<g id="edge1" class="edge"><title>Node1&#45;&gt;Node0</title>
<path fill="none" stroke="black" d="M110.301,-20.5C118.744,-20.5 127.427,-20.5 135.867,-20.5"/>
<polygon fill="black" stroke="black" points="110.154,-17.0001 100.154,-20.5 110.154,-24.0001 110.154,-17.0001"/>
</g>
</g>
</svg>
