<?xml version="1.0" encoding="UTF-8" standalone="no"?>
<!DOCTYPE svg PUBLIC "-//W3C//DTD SVG 1.1//EN"
 "http://www.w3.org/Graphics/SVG/1.1/DTD/svg11.dtd">
<!-- Generated by graphviz version 2.38.0 (20140413.2041)
 -->
<!-- Title: InputControl::OnDataChange Pages: 1 -->
<svg width="493pt" height="104pt"
 viewBox="0.00 0.00 493.00 104.00" xmlns="http://www.w3.org/2000/svg" xmlns:xlink="http://www.w3.org/1999/xlink">
<g id="graph0" class="graph" transform="scale(1 1) rotate(0) translate(4 100)">
<title>InputControl::OnDataChange</title>
<polygon fill="white" stroke="none" points="-4,4 -4,-100 489,-100 489,4 -4,4"/>
<!-- Node23 -->
<g id="node1" class="node"><title>Node23</title>
<g id="a_node1"><a xlink:title="Provides functionality when inputs or gate change.">
<polygon fill="#bfbfbf" stroke="black" points="0,-38.5 0,-57.5 140,-57.5 140,-38.5 0,-38.5"/>
<text text-anchor="middle" x="70" y="-45.5" font-family="Helvetica,sans-Serif" font-size="10.00">InputControl::OnDataChange</text>
</a>
</g>
</g>
<!-- Node24 -->
<g id="node2" class="node"><title>Node24</title>
<g id="a_node2"><a xlink:href="group___input_ports_group.html#gabf6d62ead1829e08ddc46636dd8a288b" target="_top" xlink:title="Provides the calculation in case Sum or Multiplication is selected.">
<polygon fill="white" stroke="black" points="186,-76.5 186,-95.5 300,-95.5 300,-76.5 186,-76.5"/>
<text text-anchor="middle" x="243" y="-83.5" font-family="Helvetica,sans-Serif" font-size="10.00">InputControl::DataCalc</text>
</a>
</g>
</g>
<!-- Node23&#45;&gt;Node24 -->
<g id="edge1" class="edge"><title>Node23&#45;&gt;Node24</title>
<path fill="none" stroke="midnightblue" d="M114.151,-57.589C136.919,-62.6487 165.048,-68.8996 189.119,-74.2488"/>
<polygon fill="midnightblue" stroke="midnightblue" points="188.639,-77.7272 199.16,-76.4799 190.157,-70.8939 188.639,-77.7272"/>
</g>
<!-- Node25 -->
<g id="node3" class="node"><title>Node25</title>
<g id="a_node3"><a xlink:href="group___input_ports_group.html#ga758bb45eea53dabf378cac7ed0af16dd" target="_top" xlink:title="Return State of the gate/button.">
<polygon fill="white" stroke="black" points="176,-38.5 176,-57.5 310,-57.5 310,-38.5 176,-38.5"/>
<text text-anchor="middle" x="243" y="-45.5" font-family="Helvetica,sans-Serif" font-size="10.00">InputControl::GetGateState</text>
</a>
</g>
</g>
<!-- Node23&#45;&gt;Node25 -->
<g id="edge2" class="edge"><title>Node23&#45;&gt;Node25</title>
<path fill="none" stroke="midnightblue" d="M140.059,-48C148.429,-48 157.016,-48 165.485,-48"/>
<polygon fill="midnightblue" stroke="midnightblue" points="165.733,-51.5001 175.733,-48 165.733,-44.5001 165.733,-51.5001"/>
</g>
<!-- Node26 -->
<g id="node4" class="node"><title>Node26</title>
<g id="a_node4"><a xlink:href="group___input_ports_group.html#ga3795b5c2de378a3ce6209d78cdd8f197" target="_top" xlink:title="Return the member InputPortCfg::ClockDivider.">
<polygon fill="white" stroke="black" points="186,-0.5 186,-19.5 300,-19.5 300,-0.5 186,-0.5"/>
<text text-anchor="middle" x="243" y="-7.5" font-family="Helvetica,sans-Serif" font-size="10.00">AnalogPort::TrimValue</text>
</a>
</g>
</g>
<!-- Node23&#45;&gt;Node26 -->
<g id="edge3" class="edge"><title>Node23&#45;&gt;Node26</title>
<path fill="none" stroke="midnightblue" d="M114.151,-38.411C136.919,-33.3513 165.048,-27.1004 189.119,-21.7512"/>
<polygon fill="midnightblue" stroke="midnightblue" points="190.157,-25.1061 199.16,-19.5201 188.639,-18.2728 190.157,-25.1061"/>
</g>
<!-- Node27 -->
<g id="node5" class="node"><title>Node27</title>
<g id="a_node5"><a xlink:href="group___config_group.html#ga9fb2c067887a36506906793e609d5a28" target="_top" xlink:title="Retreive limit values based on analog port configuration.">
<polygon fill="white" stroke="black" points="346,-0.5 346,-19.5 485,-19.5 485,-0.5 346,-0.5"/>
<text text-anchor="middle" x="415.5" y="-7.5" font-family="Helvetica,sans-Serif" font-size="10.00">AnInputPortCfg::LimitValues</text>
</a>
</g>
</g>
<!-- Node26&#45;&gt;Node27 -->
<g id="edge4" class="edge"><title>Node26&#45;&gt;Node27</title>
<path fill="none" stroke="midnightblue" d="M300.301,-10C311.554,-10 323.571,-10 335.428,-10"/>
<polygon fill="midnightblue" stroke="midnightblue" points="335.783,-13.5001 345.783,-10 335.783,-6.5001 335.783,-13.5001"/>
</g>
</g>
</svg>
