<?xml version="1.0" encoding="UTF-8" standalone="no"?>
<!DOCTYPE svg PUBLIC "-//W3C//DTD SVG 1.1//EN"
 "http://www.w3.org/Graphics/SVG/1.1/DTD/svg11.dtd">
<!-- Generated by graphviz version 2.38.0 (20140413.2041)
 -->
<!-- Title: OLEDMenu::displayCVConfig Pages: 1 -->
<svg width="534pt" height="47pt"
 viewBox="0.00 0.00 534.00 47.00" xmlns="http://www.w3.org/2000/svg" xmlns:xlink="http://www.w3.org/1999/xlink">
<g id="graph0" class="graph" transform="scale(1 1) rotate(0) translate(4 43)">
<title>OLEDMenu::displayCVConfig</title>
<polygon fill="white" stroke="none" points="-4,4 -4,-43 530,-43 530,4 -4,4"/>
<!-- Node7 -->
<g id="node1" class="node"><title>Node7</title>
<g id="a_node1"><a xlink:title="Display in OLED the configuration for CV port.">
<polygon fill="#bfbfbf" stroke="black" points="382,-19.5 382,-38.5 526,-38.5 526,-19.5 382,-19.5"/>
<text text-anchor="middle" x="454" y="-26.5" font-family="Helvetica,sans-Serif" font-size="10.00">OLEDMenu::displayCVConfig</text>
</a>
</g>
</g>
<!-- Node8 -->
<g id="node2" class="node"><title>Node8</title>
<g id="a_node2"><a xlink:href="group___menu_class.html#gadbd5b7204a51608a5d9f2e8641c15f80" target="_top" xlink:title="Show Ports configuration data.">
<polygon fill="white" stroke="black" points="0,-19.5 0,-38.5 155,-38.5 155,-19.5 0,-19.5"/>
<text text-anchor="middle" x="77.5" y="-26.5" font-family="Helvetica,sans-Serif" font-size="10.00">OLEDMenu::displayMenuConfig</text>
</a>
</g>
</g>
<!-- Node7&#45;&gt;Node8 -->
<g id="edge1" class="edge"><title>Node7&#45;&gt;Node8</title>
<path fill="none" stroke="midnightblue" d="M371.572,-29C307.229,-29 218.068,-29 155.031,-29"/>
<polygon fill="midnightblue" stroke="midnightblue" points="371.678,-32.5001 381.678,-29 371.678,-25.5001 371.678,-32.5001"/>
</g>
<!-- Node9 -->
<g id="node3" class="node"><title>Node9</title>
<g id="a_node3"><a xlink:href="group___menu_class.html#ga5e404ee1578428c9e7e0c082773091a0" target="_top" xlink:title="Display in OLED the configuration for Fader port.">
<polygon fill="white" stroke="black" points="191,-0.5 191,-19.5 346,-19.5 346,-0.5 191,-0.5"/>
<text text-anchor="middle" x="268.5" y="-7.5" font-family="Helvetica,sans-Serif" font-size="10.00">OLEDMenu::displayFaderConfig</text>
</a>
</g>
</g>
<!-- Node7&#45;&gt;Node9 -->
<g id="edge2" class="edge"><title>Node7&#45;&gt;Node9</title>
<path fill="none" stroke="midnightblue" d="M371.838,-20.5963C363.295,-19.7118 354.628,-18.8144 346.139,-17.9354"/>
<polygon fill="midnightblue" stroke="midnightblue" points="371.484,-24.0783 381.791,-21.6269 372.205,-17.1155 371.484,-24.0783"/>
</g>
<!-- Node9&#45;&gt;Node8 -->
<g id="edge3" class="edge"><title>Node9&#45;&gt;Node8</title>
<path fill="none" stroke="midnightblue" d="M180.896,-18.7062C172.326,-19.5677 163.67,-20.438 155.21,-21.2884"/>
<polygon fill="midnightblue" stroke="midnightblue" points="181.299,-22.1834 190.899,-17.7006 180.599,-15.2185 181.299,-22.1834"/>
</g>
</g>
</svg>
