<?xml version="1.0" encoding="UTF-8" standalone="no"?>
<!DOCTYPE svg PUBLIC "-//W3C//DTD SVG 1.1//EN"
 "http://www.w3.org/Graphics/SVG/1.1/DTD/svg11.dtd">
<!-- Generated by graphviz version 2.38.0 (20140413.2041)
 -->
<!-- Title: General Tools Pages: 1 -->
<svg width="352pt" height="138pt"
 viewBox="0.00 0.00 352.00 138.00" xmlns="http://www.w3.org/2000/svg" xmlns:xlink="http://www.w3.org/1999/xlink">
<g id="graph0" class="graph" transform="scale(1 1) rotate(0) translate(4 134)">
<title>General Tools</title>
<polygon fill="white" stroke="none" points="-4,4 -4,-134 348,-134 348,4 -4,4"/>
<!-- Node3 -->
<g id="node1" class="node"><title>Node3</title>
<g id="a_node1"><a xlink:href="group___m_i_d_i.html" target="_top" xlink:title=" ">
<polygon fill="white" stroke="black" points="331,-130 269,-130 269,-111 331,-111 331,-130"/>
<text text-anchor="middle" x="300" y="-118" font-family="Helvetica,sans-Serif" font-size="10.00">MIDI Tools</text>
</a>
</g>
</g>
<!-- Node1 -->
<g id="node2" class="node"><title>Node1</title>
<g id="a_node2"><a xlink:href="group___maingroup.html" target="_top" xlink:title=" ">
<polygon fill="white" stroke="black" points="107,-74 0,-74 0,-55 107,-55 107,-74"/>
<text text-anchor="middle" x="53.5" y="-62" font-family="Helvetica,sans-Serif" font-size="10.00">The Main Application</text>
</a>
</g>
</g>
<!-- Node0 -->
<g id="node4" class="node"><title>Node0</title>
<g id="a_node4"><a xlink:title=" ">
<polygon fill="#bfbfbf" stroke="black" points="220,-74 143,-74 143,-55 220,-55 220,-74"/>
<text text-anchor="middle" x="181.5" y="-62" font-family="Helvetica,sans-Serif" font-size="10.00">General Tools</text>
</a>
</g>
</g>
<!-- Node1&#45;&gt;Node0 -->
<g id="edge1" class="edge"><title>Node1&#45;&gt;Node0</title>
<path fill="none" stroke="black" d="M117.415,-64.5C126.147,-64.5 134.881,-64.5 142.946,-64.5"/>
<polygon fill="black" stroke="black" points="117.205,-61.0001 107.205,-64.5 117.205,-68.0001 117.205,-61.0001"/>
</g>
<!-- Node2 -->
<g id="node3" class="node"><title>Node2</title>
<g id="a_node3"><a xlink:href="group___o_s_c.html" target="_top" xlink:title=" ">
<polygon fill="white" stroke="black" points="340.5,-93 259.5,-93 259.5,-74 340.5,-74 340.5,-93"/>
<text text-anchor="middle" x="300" y="-81" font-family="Helvetica,sans-Serif" font-size="10.00">OSC/I2C Tools</text>
</a>
</g>
</g>
<!-- Node0&#45;&gt;Node3 -->
<g id="edge3" class="edge"><title>Node0&#45;&gt;Node3</title>
<path fill="none" stroke="black" d="M209.101,-78.9111C222.951,-86.2462 240.242,-95.143 256,-102.5 262.16,-105.376 268.907,-108.302 275.193,-110.937"/>
<polygon fill="black" stroke="black" points="210.593,-75.7404 200.123,-74.1207 207.298,-81.9163 210.593,-75.7404"/>
</g>
<!-- Node0&#45;&gt;Node2 -->
<g id="edge2" class="edge"><title>Node0&#45;&gt;Node2</title>
<path fill="none" stroke="black" d="M229.92,-72.2337C239.626,-73.8167 249.749,-75.4676 259.157,-77.002"/>
<polygon fill="black" stroke="black" points="230.436,-68.7717 220.003,-70.6163 229.309,-75.6804 230.436,-68.7717"/>
</g>
<!-- Node5 -->
<g id="node5" class="node"><title>Node5</title>
<g id="a_node5"><a xlink:href="group___save.html" target="_top" xlink:title=" ">
<polygon fill="white" stroke="black" points="344,-56 256,-56 256,-37 344,-37 344,-56"/>
<text text-anchor="middle" x="300" y="-44" font-family="Helvetica,sans-Serif" font-size="10.00">Save/Load Tools</text>
</a>
</g>
</g>
<!-- Node0&#45;&gt;Node5 -->
<g id="edge5" class="edge"><title>Node0&#45;&gt;Node5</title>
<path fill="none" stroke="black" d="M229.9,-57.1764C238.5,-55.8477 247.426,-54.4685 255.894,-53.1602"/>
<polygon fill="black" stroke="black" points="229.351,-53.7196 220.003,-58.7056 230.42,-60.6375 229.351,-53.7196"/>
</g>
<!-- Node4 -->
<g id="node6" class="node"><title>Node4</title>
<g id="a_node6"><a xlink:href="group___sys_ex.html" target="_top" xlink:title=" ">
<polygon fill="white" stroke="black" points="336,-19 264,-19 264,-0 336,-0 336,-19"/>
<text text-anchor="middle" x="300" y="-7" font-family="Helvetica,sans-Serif" font-size="10.00">SysEx Tools</text>
</a>
</g>
</g>
<!-- Node0&#45;&gt;Node4 -->
<g id="edge4" class="edge"><title>Node0&#45;&gt;Node4</title>
<path fill="none" stroke="black" d="M209.7,-50.2374C223.465,-43.1659 240.5,-34.6348 256,-27.5 262.175,-24.6574 268.928,-21.7423 275.214,-19.1083"/>
<polygon fill="black" stroke="black" points="208.027,-47.1622 200.752,-54.8647 211.243,-53.3799 208.027,-47.1622"/>
</g>
</g>
</svg>
