<?xml version="1.0" encoding="UTF-8" standalone="no"?>
<!DOCTYPE svg PUBLIC "-//W3C//DTD SVG 1.1//EN"
 "http://www.w3.org/Graphics/SVG/1.1/DTD/svg11.dtd">
<!-- Generated by graphviz version 2.38.0 (20140413.2041)
 -->
<!-- Title: DemuxAnalogPort::ReadPort Pages: 1 -->
<svg width="491pt" height="66pt"
 viewBox="0.00 0.00 491.00 66.00" xmlns="http://www.w3.org/2000/svg" xmlns:xlink="http://www.w3.org/1999/xlink">
<g id="graph0" class="graph" transform="scale(1 1) rotate(0) translate(4 62)">
<title>DemuxAnalogPort::ReadPort</title>
<polygon fill="white" stroke="none" points="-4,4 -4,-62 487,-62 487,4 -4,4"/>
<!-- Node42 -->
<g id="node1" class="node"><title>Node42</title>
<g id="a_node1"><a xlink:title="Read multiplexed analog input.">
<polygon fill="#bfbfbf" stroke="black" points="0,-19.5 0,-38.5 142,-38.5 142,-19.5 0,-19.5"/>
<text text-anchor="middle" x="71" y="-26.5" font-family="Helvetica,sans-Serif" font-size="10.00">DemuxAnalogPort::ReadPort</text>
</a>
</g>
</g>
<!-- Node43 -->
<g id="node2" class="node"><title>Node43</title>
<g id="a_node2"><a xlink:href="group___input_ports_group.html#ga61d48200118764d5298128f9624353ac" target="_top" xlink:title="Call base AnalogPort::SendMIDI() function.">
<polygon fill="white" stroke="black" points="178,-38.5 178,-57.5 325,-57.5 325,-38.5 178,-38.5"/>
<text text-anchor="middle" x="251.5" y="-45.5" font-family="Helvetica,sans-Serif" font-size="10.00">DemuxAnalogPort::SetDemux</text>
</a>
</g>
</g>
<!-- Node42&#45;&gt;Node43 -->
<g id="edge1" class="edge"><title>Node42&#45;&gt;Node43</title>
<path fill="none" stroke="midnightblue" d="M142.036,-36.4548C150.46,-37.3515 159.124,-38.2737 167.708,-39.1874"/>
<polygon fill="midnightblue" stroke="midnightblue" points="167.414,-42.6758 177.728,-40.254 168.155,-35.7151 167.414,-42.6758"/>
</g>
<!-- Node44 -->
<g id="node3" class="node"><title>Node44</title>
<g id="a_node3"><a xlink:href="group___input_ports_group.html#ga43b704e6546e208117597f9718573ab1" target="_top" xlink:title="Read analog Port make conversion and check analog clock.">
<polygon fill="white" stroke="black" points="196,-0.5 196,-19.5 307,-19.5 307,-0.5 196,-0.5"/>
<text text-anchor="middle" x="251.5" y="-7.5" font-family="Helvetica,sans-Serif" font-size="10.00">AnalogPort::ReadPort</text>
</a>
</g>
</g>
<!-- Node42&#45;&gt;Node44 -->
<g id="edge2" class="edge"><title>Node42&#45;&gt;Node44</title>
<path fill="none" stroke="midnightblue" d="M142.036,-21.5452C156.418,-20.0143 171.5,-18.4089 185.689,-16.8986"/>
<polygon fill="midnightblue" stroke="midnightblue" points="186.267,-20.357 195.84,-15.8181 185.526,-13.3963 186.267,-20.357"/>
</g>
<!-- Node45 -->
<g id="node4" class="node"><title>Node45</title>
<g id="a_node4"><a xlink:href="group___input_ports_group.html#ga5e64a70a93bc7146ba6b52c022b3335a" target="_top" xlink:title="Process MIDI Clock.">
<polygon fill="white" stroke="black" points="361,-0.5 361,-19.5 483,-19.5 483,-0.5 361,-0.5"/>
<text text-anchor="middle" x="422" y="-7.5" font-family="Helvetica,sans-Serif" font-size="10.00">InputPort::ProcessClock</text>
</a>
</g>
</g>
<!-- Node44&#45;&gt;Node45 -->
<g id="edge3" class="edge"><title>Node44&#45;&gt;Node45</title>
<path fill="none" stroke="midnightblue" d="M307.207,-10C320.971,-10 335.94,-10 350.362,-10"/>
<polygon fill="midnightblue" stroke="midnightblue" points="350.742,-13.5001 360.742,-10 350.742,-6.5001 350.742,-13.5001"/>
</g>
</g>
</svg>
