<?xml version="1.0" encoding="UTF-8" standalone="no"?>
<!DOCTYPE svg PUBLIC "-//W3C//DTD SVG 1.1//EN"
 "http://www.w3.org/Graphics/SVG/1.1/DTD/svg11.dtd">
<!-- Generated by graphviz version 2.38.0 (20140413.2041)
 -->
<!-- Title: OLEDMenu::displayGateConfig Pages: 1 -->
<svg width="515pt" height="28pt"
 viewBox="0.00 0.00 515.00 28.00" xmlns="http://www.w3.org/2000/svg" xmlns:xlink="http://www.w3.org/1999/xlink">
<g id="graph0" class="graph" transform="scale(1 1) rotate(0) translate(4 24)">
<title>OLEDMenu::displayGateConfig</title>
<polygon fill="white" stroke="none" points="-4,4 -4,-24 511,-24 511,4 -4,4"/>
<!-- Node20 -->
<g id="node1" class="node"><title>Node20</title>
<g id="a_node1"><a xlink:title="Display in OLED the configuration for Gate port.">
<polygon fill="#bfbfbf" stroke="black" points="355,-0.5 355,-19.5 507,-19.5 507,-0.5 355,-0.5"/>
<text text-anchor="middle" x="431" y="-7.5" font-family="Helvetica,sans-Serif" font-size="10.00">OLEDMenu::displayGateConfig</text>
</a>
</g>
</g>
<!-- Node21 -->
<g id="node2" class="node"><title>Node21</title>
<g id="a_node2"><a xlink:href="group___menu_class.html#gadbd5b7204a51608a5d9f2e8641c15f80" target="_top" xlink:title="Show Ports configuration data.">
<polygon fill="white" stroke="black" points="164,-0.5 164,-19.5 319,-19.5 319,-0.5 164,-0.5"/>
<text text-anchor="middle" x="241.5" y="-7.5" font-family="Helvetica,sans-Serif" font-size="10.00">OLEDMenu::displayMenuConfig</text>
</a>
</g>
</g>
<!-- Node20&#45;&gt;Node21 -->
<g id="edge1" class="edge"><title>Node20&#45;&gt;Node21</title>
<path fill="none" stroke="midnightblue" d="M344.574,-10C336.125,-10 327.584,-10 319.23,-10"/>
<polygon fill="midnightblue" stroke="midnightblue" points="344.817,-13.5001 354.817,-10 344.817,-6.5001 344.817,-13.5001"/>
</g>
<!-- Node22 -->
<g id="node3" class="node"><title>Node22</title>
<g id="a_node3"><a xlink:href="group___menu_class.html#ga451a9b37ad724e7103a6d8656a89ac8b" target="_top" xlink:title="Main Display Menu Functions.">
<polygon fill="white" stroke="black" points="0,-0.5 0,-19.5 128,-19.5 128,-0.5 0,-0.5"/>
<text text-anchor="middle" x="64" y="-7.5" font-family="Helvetica,sans-Serif" font-size="10.00">OLEDMenu::displayMenu</text>
</a>
</g>
</g>
<!-- Node21&#45;&gt;Node22 -->
<g id="edge2" class="edge"><title>Node21&#45;&gt;Node22</title>
<path fill="none" stroke="midnightblue" d="M153.694,-10C145.082,-10 136.457,-10 128.153,-10"/>
<polygon fill="midnightblue" stroke="midnightblue" points="153.778,-13.5001 163.778,-10 153.778,-6.5001 153.778,-13.5001"/>
</g>
</g>
</svg>
