<?xml version="1.0" encoding="UTF-8" standalone="no"?>
<!DOCTYPE svg PUBLIC "-//W3C//DTD SVG 1.1//EN"
 "http://www.w3.org/Graphics/SVG/1.1/DTD/svg11.dtd">
<!-- Generated by graphviz version 2.38.0 (20140413.2041)
 -->
<!-- Title: Graphical Class Hierarchy Pages: 1 -->
<svg width="296pt" height="66pt"
 viewBox="0.00 0.00 296.00 66.00" xmlns="http://www.w3.org/2000/svg" xmlns:xlink="http://www.w3.org/1999/xlink">
<g id="graph0" class="graph" transform="scale(1 1) rotate(0) translate(4 62)">
<title>Graphical Class Hierarchy</title>
<polygon fill="white" stroke="none" points="-4,4 -4,-62 292,-62 292,4 -4,4"/>
<!-- Node0 -->
<g id="node1" class="node"><title>Node0</title>
<g id="a_node1"><a xlink:href="class_input_port.html" target="_top" xlink:title="Base class for input ports (digital, analog,...)">
<polygon fill="white" stroke="black" points="0,-19.5 0,-38.5 56,-38.5 56,-19.5 0,-19.5"/>
<text text-anchor="middle" x="28" y="-26.5" font-family="Helvetica,sans-Serif" font-size="10.00">InputPort</text>
</a>
</g>
</g>
<!-- Node1 -->
<g id="node2" class="node"><title>Node1</title>
<g id="a_node2"><a xlink:href="class_analog_port.html" target="_top" xlink:title="Class for analog ports (CV and Faders)">
<polygon fill="white" stroke="black" points="92,-38.5 92,-57.5 157,-57.5 157,-38.5 92,-38.5"/>
<text text-anchor="middle" x="124.5" y="-45.5" font-family="Helvetica,sans-Serif" font-size="10.00">AnalogPort</text>
</a>
</g>
</g>
<!-- Node0&#45;&gt;Node1 -->
<g id="edge1" class="edge"><title>Node0&#45;&gt;Node1</title>
<path fill="none" stroke="midnightblue" d="M66.1109,-36.4614C74.584,-38.165 83.5136,-39.9604 91.7391,-41.6142"/>
<polygon fill="midnightblue" stroke="midnightblue" points="66.5736,-32.9845 56.0799,-34.4446 65.1938,-39.8472 66.5736,-32.9845"/>
</g>
<!-- Node3 -->
<g id="node4" class="node"><title>Node3</title>
<g id="a_node4"><a xlink:href="class_digital_port.html" target="_top" xlink:title="Class for digital ports (Gates)">
<polygon fill="white" stroke="black" points="93.5,-0.5 93.5,-19.5 155.5,-19.5 155.5,-0.5 93.5,-0.5"/>
<text text-anchor="middle" x="124.5" y="-7.5" font-family="Helvetica,sans-Serif" font-size="10.00">DigitalPort</text>
</a>
</g>
</g>
<!-- Node0&#45;&gt;Node3 -->
<g id="edge3" class="edge"><title>Node0&#45;&gt;Node3</title>
<path fill="none" stroke="midnightblue" d="M66.0314,-21.5545C75.1122,-19.7288 84.7219,-17.7967 93.4302,-16.0458"/>
<polygon fill="midnightblue" stroke="midnightblue" points="65.1938,-18.1528 56.0799,-23.5554 66.5736,-25.0155 65.1938,-18.1528"/>
</g>
<!-- Node2 -->
<g id="node3" class="node"><title>Node2</title>
<g id="a_node3"><a xlink:href="class_demux_analog_port.html" target="_top" xlink:title="Class for Muxed analog ports (CV and Faders) Demux will use defines for pins: PINDEMUXA,...">
<polygon fill="white" stroke="black" points="193,-38.5 193,-57.5 288,-57.5 288,-38.5 193,-38.5"/>
<text text-anchor="middle" x="240.5" y="-45.5" font-family="Helvetica,sans-Serif" font-size="10.00">DemuxAnalogPort</text>
</a>
</g>
</g>
<!-- Node1&#45;&gt;Node2 -->
<g id="edge2" class="edge"><title>Node1&#45;&gt;Node2</title>
<path fill="none" stroke="midnightblue" d="M167.475,-48C175.783,-48 184.55,-48 192.998,-48"/>
<polygon fill="midnightblue" stroke="midnightblue" points="167.255,-44.5001 157.255,-48 167.255,-51.5001 167.255,-44.5001"/>
</g>
</g>
</svg>
