<?xml version="1.0" encoding="UTF-8" standalone="no"?>
<!DOCTYPE svg PUBLIC "-//W3C//DTD SVG 1.1//EN"
 "http://www.w3.org/Graphics/SVG/1.1/DTD/svg11.dtd">
<!-- Generated by graphviz version 2.38.0 (20140413.2041)
 -->
<!-- Title: Graphical Class Hierarchy Pages: 1 -->
<svg width="196pt" height="66pt"
 viewBox="0.00 0.00 196.00 66.00" xmlns="http://www.w3.org/2000/svg" xmlns:xlink="http://www.w3.org/1999/xlink">
<g id="graph0" class="graph" transform="scale(1 1) rotate(0) translate(4 62)">
<title>Graphical Class Hierarchy</title>
<polygon fill="white" stroke="none" points="-4,4 -4,-62 192,-62 192,4 -4,4"/>
<!-- Node0 -->
<g id="node1" class="node"><title>Node0</title>
<g id="a_node1"><a xlink:href="class_input_port_cfg.html" target="_top" xlink:title="Base port configuration class.">
<polygon fill="white" stroke="black" points="0,-19.5 0,-38.5 70,-38.5 70,-19.5 0,-19.5"/>
<text text-anchor="middle" x="35" y="-26.5" font-family="Helvetica,sans-Serif" font-size="10.00">InputPortCfg</text>
</a>
</g>
</g>
<!-- Node1 -->
<g id="node2" class="node"><title>Node1</title>
<g id="a_node2"><a xlink:href="class_an_input_port_cfg.html" target="_top" xlink:title="Analog port configuration class.">
<polygon fill="white" stroke="black" points="106,-38.5 106,-57.5 188,-57.5 188,-38.5 106,-38.5"/>
<text text-anchor="middle" x="147" y="-45.5" font-family="Helvetica,sans-Serif" font-size="10.00">AnInputPortCfg</text>
</a>
</g>
</g>
<!-- Node0&#45;&gt;Node1 -->
<g id="edge1" class="edge"><title>Node0&#45;&gt;Node1</title>
<path fill="none" stroke="midnightblue" d="M80.2211,-36.6382C88.6228,-38.0894 97.3737,-39.6009 105.648,-41.03"/>
<polygon fill="midnightblue" stroke="midnightblue" points="80.6515,-33.1608 70.2017,-34.9076 79.46,-40.0586 80.6515,-33.1608"/>
</g>
<!-- Node2 -->
<g id="node3" class="node"><title>Node2</title>
<g id="a_node3"><a xlink:href="class_dig_port_cfg.html" target="_top" xlink:title="Digital port configuration class.">
<polygon fill="white" stroke="black" points="115.5,-0.5 115.5,-19.5 178.5,-19.5 178.5,-0.5 115.5,-0.5"/>
<text text-anchor="middle" x="147" y="-7.5" font-family="Helvetica,sans-Serif" font-size="10.00">DigPortCfg</text>
</a>
</g>
</g>
<!-- Node0&#45;&gt;Node2 -->
<g id="edge2" class="edge"><title>Node0&#45;&gt;Node2</title>
<path fill="none" stroke="midnightblue" d="M80.2616,-21.3548C91.9709,-19.3323 104.356,-17.1931 115.181,-15.3234"/>
<polygon fill="midnightblue" stroke="midnightblue" points="79.46,-17.9414 70.2017,-23.0924 80.6515,-24.8392 79.46,-17.9414"/>
</g>
</g>
</svg>
